<svg xmlns="http://www.w3.org/2000/svg" xmlns:xlink="http://www.w3.org/1999/xlink" width="1920" height="1080" viewBox="0 0 1920 1080"><defs><style>.cls-1{fill:url(#linear-gradient);}.cls-2{fill:url(#radial-gradient);}.cls-3{fill:#fce8d6;}.cls-4{fill:#fcf1e8;}.cls-5{fill:#e8d7c8;}.cls-6{fill:#774e62;}.cls-7{fill:#707dc4;}.cls-8{fill:#2c3d77;}.cls-9{fill:url(#linear-gradient-2);}.cls-10,.cls-39{fill:#6067a6;}.cls-10{opacity:0.65;}.cls-11{fill:url(#linear-gradient-3);}.cls-12{fill:url(#linear-gradient-4);}.cls-13{fill:url(#linear-gradient-5);}.cls-14{fill:url(#linear-gradient-6);}.cls-15{fill:url(#linear-gradient-7);}.cls-16{fill:url(#linear-gradient-8);}.cls-17{fill:url(#linear-gradient-9);}.cls-18{fill:url(#linear-gradient-10);}.cls-19{fill:url(#linear-gradient-11);}.cls-20{fill:url(#linear-gradient-12);}.cls-21{fill:url(#linear-gradient-13);}.cls-22{fill:url(#linear-gradient-14);}.cls-23{fill:url(#linear-gradient-15);}.cls-24{fill:url(#linear-gradient-16);}.cls-25{fill:url(#linear-gradient-17);}.cls-26{fill:url(#linear-gradient-18);}.cls-27{fill:url(#linear-gradient-19);}.cls-28{fill:url(#linear-gradient-20);}.cls-29{fill:url(#linear-gradient-21);}.cls-30{fill:url(#linear-gradient-22);}.cls-31{fill:url(#linear-gradient-23);}.cls-32{fill:url(#linear-gradient-24);}.cls-33{fill:url(#linear-gradient-25);}.cls-34{fill:url(#linear-gradient-26);}.cls-35{fill:url(#linear-gradient-27);}.cls-36{fill:url(#linear-gradient-28);}.cls-37{fill:url(#linear-gradient-29);}.cls-38{fill:#384080;}.cls-40{fill:url(#linear-gradient-30);}.cls-41{fill:url(#linear-gradient-31);}.cls-42{fill:url(#linear-gradient-32);}.cls-43{fill:url(#linear-gradient-33);}.cls-44{fill:url(#linear-gradient-34);}.cls-45{fill:url(#linear-gradient-35);}.cls-46{fill:url(#linear-gradient-36);}.cls-47{fill:url(#linear-gradient-37);}.cls-48{fill:url(#linear-gradient-38);}.cls-49{fill:url(#linear-gradient-39);}.cls-50{fill:url(#linear-gradient-40);}.cls-51{fill:url(#linear-gradient-41);}.cls-52{fill:url(#linear-gradient-42);}.cls-53{fill:url(#linear-gradient-43);}.cls-54{fill:url(#linear-gradient-44);}.cls-55{fill:url(#linear-gradient-45);}.cls-56{fill:url(#linear-gradient-46);}.cls-57{fill:url(#linear-gradient-47);}.cls-58{fill:url(#linear-gradient-48);}.cls-59{fill:url(#linear-gradient-49);}.cls-60{fill:url(#linear-gradient-50);}.cls-61{fill:url(#linear-gradient-51);}.cls-62{fill:url(#linear-gradient-52);}.cls-63{fill:url(#linear-gradient-53);}.cls-64{fill:url(#linear-gradient-54);}.cls-65{fill:url(#linear-gradient-55);}.cls-66{fill:url(#linear-gradient-56);}.cls-67{fill:#eee8df;}.cls-68{fill:url(#linear-gradient-57);}</style><linearGradient id="linear-gradient" x1="958.08" y1="14.85" x2="960.97" y2="972.33" gradientUnits="userSpaceOnUse"><stop offset="0" stop-color="#0b1942"/><stop offset="0.08" stop-color="#162451"/><stop offset="0.25" stop-color="#2b386e"/><stop offset="0.35" stop-color="#333f78"/><stop offset="0.46" stop-color="#424273"/><stop offset="0.69" stop-color="#684b67"/><stop offset="0.77" stop-color="#774e62"/></linearGradient><radialGradient id="radial-gradient" cx="111.16" cy="223.68" r="450" gradientUnits="userSpaceOnUse"><stop offset="0" stop-color="#f3d4b4"/><stop offset="0.09" stop-color="#f5d8ba" stop-opacity="0.81"/><stop offset="0.22" stop-color="#f7dcc2" stop-opacity="0.6"/><stop offset="0.34" stop-color="#f8e0c8" stop-opacity="0.41"/><stop offset="0.46" stop-color="#fae3cd" stop-opacity="0.26"/><stop offset="0.58" stop-color="#fbe5d1" stop-opacity="0.15"/><stop offset="0.71" stop-color="#fbe7d4" stop-opacity="0.07"/><stop offset="0.83" stop-color="#fce8d5" stop-opacity="0.02"/><stop offset="0.95" stop-color="#fce8d6" stop-opacity="0"/></radialGradient><linearGradient id="linear-gradient-2" x1="-232.01" y1="344.76" x2="-288.36" y2="447.67" gradientTransform="matrix(-1, 0, 0, 1, 51.63, 0)" gradientUnits="userSpaceOnUse"><stop offset="0" stop-color="#fcf1e8"/><stop offset="0.05" stop-color="#fcf3eb" stop-opacity="0.85"/><stop offset="0.14" stop-color="#fdf7f2" stop-opacity="0.55"/><stop offset="0.23" stop-color="#fefbf8" stop-opacity="0.31"/><stop offset="0.3" stop-color="#fffdfc" stop-opacity="0.14"/><stop offset="0.35" stop-color="#fffefe" stop-opacity="0.04"/><stop offset="0.39" stop-color="#fff" stop-opacity="0"/></linearGradient><linearGradient id="linear-gradient-3" x1="54.52" y1="458.39" x2="55.2" y2="683.7" gradientUnits="userSpaceOnUse"><stop offset="0" stop-color="#6067a6"/><stop offset="0.05" stop-color="#575e9c"/><stop offset="0.22" stop-color="#3a447f"/><stop offset="0.4" stop-color="#25316a"/><stop offset="0.57" stop-color="#19265d"/><stop offset="0.73" stop-color="#152259"/><stop offset="0.99" stop-color="#2c3d77"/></linearGradient><linearGradient id="linear-gradient-4" x1="814.96" y1="521.59" x2="815.64" y2="746.89" gradientUnits="userSpaceOnUse"><stop offset="0" stop-color="#2c3d77"/><stop offset="0.33" stop-color="#26366e"/><stop offset="0.88" stop-color="#152355"/><stop offset="1" stop-color="#111e4f"/></linearGradient><linearGradient id="linear-gradient-5" x1="814.96" y1="521.59" x2="815.64" y2="746.89" xlink:href="#linear-gradient-3"/><linearGradient id="linear-gradient-6" x1="824.96" y1="478.39" x2="825.64" y2="703.7" xlink:href="#linear-gradient-3"/><linearGradient id="linear-gradient-7" x1="760.96" y1="447.39" x2="761.64" y2="672.7" xlink:href="#linear-gradient-3"/><linearGradient id="linear-gradient-8" x1="200.33" y1="450.39" x2="201.01" y2="675.7" xlink:href="#linear-gradient-3"/><linearGradient id="linear-gradient-9" x1="168.96" y1="465.39" x2="169.64" y2="690.7" xlink:href="#linear-gradient-3"/><linearGradient id="linear-gradient-10" x1="132.96" y1="462.39" x2="133.64" y2="687.7" xlink:href="#linear-gradient-3"/><linearGradient id="linear-gradient-11" x1="99.96" y1="492.39" x2="100.64" y2="717.7" xlink:href="#linear-gradient-3"/><linearGradient id="linear-gradient-12" x1="297.74" y1="432.39" x2="298.42" y2="657.7" xlink:href="#linear-gradient-3"/><linearGradient id="linear-gradient-13" x1="489.18" y1="453.39" x2="489.86" y2="678.7" xlink:href="#linear-gradient-3"/><linearGradient id="linear-gradient-14" x1="448.55" y1="451.39" x2="449.23" y2="676.7" xlink:href="#linear-gradient-3"/><linearGradient id="linear-gradient-15" x1="409.18" y1="445.39" x2="409.86" y2="670.7" xlink:href="#linear-gradient-3"/><linearGradient id="linear-gradient-16" x1="369.77" y1="470.81" x2="370.45" y2="696.11" xlink:href="#linear-gradient-3"/><linearGradient id="linear-gradient-17" x1="341.18" y1="460.39" x2="341.86" y2="685.7" xlink:href="#linear-gradient-3"/><linearGradient id="linear-gradient-18" x1="522.74" y1="482.09" x2="523.42" y2="707.39" xlink:href="#linear-gradient-3"/><linearGradient id="linear-gradient-19" x1="713.18" y1="498.09" x2="713.86" y2="723.39" xlink:href="#linear-gradient-3"/><linearGradient id="linear-gradient-20" x1="681.55" y1="506.39" x2="682.23" y2="731.7" xlink:href="#linear-gradient-3"/><linearGradient id="linear-gradient-21" x1="637.18" y1="475.09" x2="637.86" y2="700.39" xlink:href="#linear-gradient-3"/><linearGradient id="linear-gradient-22" x1="600.18" y1="491.39" x2="600.86" y2="716.7" xlink:href="#linear-gradient-3"/><linearGradient id="linear-gradient-23" x1="563.82" y1="472.81" x2="564.5" y2="698.12" xlink:href="#linear-gradient-3"/><linearGradient id="linear-gradient-24" x1="801.68" y1="558.72" x2="802.19" y2="729.67" xlink:href="#linear-gradient-3"/><linearGradient id="linear-gradient-25" x1="911.17" y1="563.1" x2="911.69" y2="734.04" xlink:href="#linear-gradient-3"/><linearGradient id="linear-gradient-26" x1="866.86" y1="500.72" x2="867.37" y2="671.67" xlink:href="#linear-gradient-4"/><linearGradient id="linear-gradient-27" x1="853.51" y1="545.65" x2="854.02" y2="716.59" xlink:href="#linear-gradient-3"/><linearGradient id="linear-gradient-28" x1="886.44" y1="521.72" x2="886.95" y2="692.67" gradientTransform="matrix(1.21, 0.05, 0.05, 1.27, -212.59, -180.92)" xlink:href="#linear-gradient-3"/><linearGradient id="linear-gradient-29" x1="746.55" y1="530.97" x2="747.06" y2="701.91" gradientTransform="matrix(1.08, 0.13, 0.13, 1.22, -124.91, -213.62)" xlink:href="#linear-gradient-3"/><linearGradient id="linear-gradient-30" x1="-740.44" y1="354.28" x2="-640.41" y2="535.43" gradientTransform="matrix(-1, 0, 0, 1, 51.63, 0)" gradientUnits="userSpaceOnUse"><stop offset="0" stop-color="#384080" stop-opacity="0.8"/><stop offset="0.07" stop-color="#2c306c" stop-opacity="0.53"/><stop offset="0.16" stop-color="#22215a" stop-opacity="0.3"/><stop offset="0.24" stop-color="#1b174d" stop-opacity="0.13"/><stop offset="0.31" stop-color="#161146" stop-opacity="0.03"/><stop offset="0.39" stop-color="#150f43" stop-opacity="0"/></linearGradient><linearGradient id="linear-gradient-31" x1="1119.59" y1="515.83" x2="1120.26" y2="741.14" gradientTransform="matrix(0.82, 0, 0, 0.82, 192.39, 80.62)" xlink:href="#linear-gradient-3"/><linearGradient id="linear-gradient-32" x1="1055.59" y1="484.83" x2="1056.26" y2="710.14" gradientTransform="matrix(0.82, 0, 0, 0.82, 192.39, 80.62)" xlink:href="#linear-gradient-3"/><linearGradient id="linear-gradient-33" x1="1007.81" y1="535.53" x2="1008.48" y2="760.84" gradientTransform="matrix(0.82, 0, 0, 0.82, 192.39, 80.62)" xlink:href="#linear-gradient-3"/><linearGradient id="linear-gradient-34" x1="976.17" y1="543.83" x2="976.85" y2="769.14" gradientTransform="matrix(0.82, 0, 0, 0.82, 192.39, 80.62)" xlink:href="#linear-gradient-3"/><linearGradient id="linear-gradient-35" x1="1096.3" y1="596.17" x2="1096.82" y2="767.11" gradientTransform="matrix(0.82, 0, 0, 0.82, 192.39, 80.62)" xlink:href="#linear-gradient-3"/><linearGradient id="linear-gradient-36" x1="1205.8" y1="600.54" x2="1206.31" y2="771.49" gradientTransform="matrix(0.82, 0, 0, 0.82, 192.39, 80.62)" xlink:href="#linear-gradient-3"/><linearGradient id="linear-gradient-37" x1="1148.13" y1="583.09" x2="1148.65" y2="754.04" gradientTransform="matrix(0.82, 0, 0, 0.82, 192.39, 80.62)" xlink:href="#linear-gradient-3"/><linearGradient id="linear-gradient-38" x1="1128.94" y1="542.21" x2="1129.46" y2="713.15" gradientTransform="matrix(0.99, 0.04, 0.04, 1.04, 18.19, -67.33)" xlink:href="#linear-gradient-3"/><linearGradient id="linear-gradient-39" x1="1020.02" y1="533.44" x2="1020.54" y2="704.38" gradientTransform="matrix(0.88, 0.1, 0.1, 1, 90.15, -94.2)" xlink:href="#linear-gradient-3"/><linearGradient id="linear-gradient-40" x1="1940.08" y1="460.46" x2="1940.75" y2="685.76" gradientTransform="matrix(0.61, 0.01, 0.01, 0.63, 677.92, 166.92)" xlink:href="#linear-gradient-3"/><linearGradient id="linear-gradient-41" x1="1876.08" y1="429.46" x2="1876.75" y2="654.76" gradientTransform="matrix(0.61, 0.01, 0.01, 0.63, 677.92, 166.92)" xlink:href="#linear-gradient-3"/><linearGradient id="linear-gradient-42" x1="1828.3" y1="480.15" x2="1828.97" y2="705.46" gradientTransform="matrix(0.61, 0.01, 0.01, 0.63, 677.92, 166.92)" xlink:href="#linear-gradient-3"/><linearGradient id="linear-gradient-43" x1="1796.66" y1="488.46" x2="1797.34" y2="713.76" gradientTransform="matrix(0.61, 0.01, 0.01, 0.63, 677.92, 166.92)" xlink:href="#linear-gradient-3"/><linearGradient id="linear-gradient-44" x1="1916.79" y1="540.79" x2="1917.31" y2="711.73" gradientTransform="matrix(0.61, 0.01, 0.01, 0.63, 677.92, 166.92)" xlink:href="#linear-gradient-3"/><linearGradient id="linear-gradient-45" x1="2026.29" y1="545.16" x2="2026.8" y2="716.11" gradientTransform="matrix(0.61, 0.01, 0.01, 0.63, 677.92, 166.92)" xlink:href="#linear-gradient-3"/><linearGradient id="linear-gradient-46" x1="1968.62" y1="527.71" x2="1969.14" y2="698.66" gradientTransform="matrix(0.61, 0.01, 0.01, 0.63, 677.92, 166.92)" xlink:href="#linear-gradient-3"/><linearGradient id="linear-gradient-47" x1="1809.25" y1="472.95" x2="1809.76" y2="643.89" gradientTransform="matrix(0.74, 0.04, 0.04, 0.79, 545.71, 51.18)" xlink:href="#linear-gradient-3"/><linearGradient id="linear-gradient-48" x1="1797.09" y1="408.07" x2="1797.6" y2="579.02" gradientTransform="matrix(0.66, 0.09, 0.09, 0.77, 598.95, 31.78)" xlink:href="#linear-gradient-3"/><linearGradient id="linear-gradient-49" x1="1012.68" y1="550.78" x2="1013.36" y2="776.08" xlink:href="#linear-gradient-3"/><linearGradient id="linear-gradient-50" x1="948.68" y1="519.78" x2="949.36" y2="745.08" xlink:href="#linear-gradient-3"/><linearGradient id="linear-gradient-51" x1="1098.89" y1="635.48" x2="1099.41" y2="806.43" xlink:href="#linear-gradient-3"/><linearGradient id="linear-gradient-52" x1="1041.23" y1="618.03" x2="1041.74" y2="788.98" xlink:href="#linear-gradient-3"/><linearGradient id="linear-gradient-53" x1="1039.45" y1="573.17" x2="1039.96" y2="744.11" gradientTransform="matrix(1.21, 0.05, 0.05, 1.27, -212.59, -180.92)" xlink:href="#linear-gradient-3"/><linearGradient id="linear-gradient-54" x1="921.69" y1="532.88" x2="922.2" y2="703.83" gradientTransform="matrix(1.08, 0.13, 0.13, 1.22, -124.91, -213.62)" xlink:href="#linear-gradient-3"/><linearGradient id="linear-gradient-55" x1="989.4" y1="631.11" x2="989.92" y2="802.05" xlink:href="#linear-gradient-3"/><linearGradient id="linear-gradient-56" x1="244.01" y1="485.97" x2="244.69" y2="711.27" xlink:href="#linear-gradient-3"/><linearGradient id="linear-gradient-57" x1="-485.91" y1="3030.28" x2="-189.44" y2="3030.28" gradientTransform="matrix(-0.52, 0.86, 0.86, 0.52, -987.68, -238.95)" xlink:href="#linear-gradient-4"/></defs><g id="EL_FONDO" data-name="EL FONDO"><rect class="cls-1" x="-0.84" y="-0.42" width="1921" height="1081"/><circle class="cls-2" cx="111.16" cy="224.58" r="450"/><circle class="cls-3" cx="114.98" cy="244.33" r="71.46"/><ellipse class="cls-4" cx="149.92" cy="197.36" rx="7.43" ry="13.09" transform="translate(-97.83 204.16) rotate(-54.35)"/><ellipse class="cls-4" cx="150.99" cy="215.05" rx="3.89" ry="7.78" transform="translate(-110.74 238.28) rotate(-60)"/><ellipse class="cls-5" cx="102.11" cy="300.57" rx="7.43" ry="13.09" transform="matrix(0.26, -0.97, 0.97, 0.26, -214.59, 322.33)"/><ellipse class="cls-5" cx="94.83" cy="284.41" rx="3.89" ry="7.78" transform="translate(-201.07 332.65) rotate(-80.82)"/><ellipse class="cls-5" cx="73.69" cy="270.24" rx="7.43" ry="13.09" transform="translate(-206.41 272.3) rotate(-75.17)"/><ellipse class="cls-5" cx="76.32" cy="288.75" rx="3.89" ry="7.78" transform="translate(-220.91 318.02) rotate(-80.82)"/><path class="cls-6" d="M320.35,249.34c2.74-12.57,12.54-22,37-25,21.61,3.61,42.8,5.42,63,3,24.61-25.33,50-32,92,3,26.81,7.69,47.35,8.91,60,2,14.23,3.09,22.16,8.57,25,16Z"/><path class="cls-7" d="M632.32,211.72c2.75-14.24,12.55-24.95,37-28.32,21.62,4.08,42.81,6.14,63,3.4,24.61-28.69,50-36.25,92,3.4,26.82,8.7,47.35,10.08,60,2.26,14.23,3.5,22.17,9.71,25,18.12Z"/><path class="cls-7" d="M276.43,261.63c-1-1.79,9.74-13.33,22-14,7.45-.4,8,3.61,15,4,14,.8,16.33-15,36-20,2.08-.53,18.8-4.6,28,3a21,21,0,0,0,4,3c5.3,2.9,13,3.49,19,0,1.86-1.08,1.57-1.39,3-2,3.93-1.64,8.05-.09,15,3,11.52,5.12,10.18,5.28,13,6,8.35,2.15,11.61-1.38,18,0,4.45,1,10.31,4.28,16,15-126.09-.19-179.18.62-186,2C278.73,261.78,276.8,262.27,276.43,261.63Z"/><path class="cls-6" d="M728.68,204.58c-1.11-3.38,19.89-18.06,44-21,23.11-2.81,28.43,7.68,50,3,17.6-3.81,17.63-7.14,32-14,17-8.08,35.4-9.29,57,14,16.54,17.84,27.24,12.35,38,11,12.26-1.54,17-7.77,28-7,11.62.82,20.5,8.76,26,15h-268C732.6,205.82,729.09,205.83,728.68,204.58Z"/><path class="cls-8" d="M1297.16,682.58c-46.15-24.91-195.33-98.56-221-118l-69.83-28.24c-143.07-92.64-280-187.87-403-289l-35-42-48,8-2-9-17,5-11,11C232.71,420.4-5,551.73-226.67,627.34"/><path class="cls-4" d="M567.33,204.34c-12.5-.92-40,8-47,7-3.68-.52-.87-7-4-7a43.24,43.24,0,0,0-16,4c-.28.13-27.13,25.08-27.39,25.24-15.83,10-77.06,55.29-77.61,55.76-4.7,4.06,2.59,16.36,8.78,16.72a32.08,32.08,0,0,0,6.93-.39,7,7,0,0,1,7.44,9.74,74.91,74.91,0,0,0-3.3,8.92,7,7,0,0,0,10.31,8,200.45,200.45,0,0,0,20.71-14.5,7,7,0,0,1,11.08,7.35,156.93,156.93,0,0,0-4.51,21.73A7,7,0,0,0,464.36,353a132.16,132.16,0,0,0,30.53-38.14,7,7,0,0,1,12.84.91c4,11.66,10.62,22.67,19.24,33.16a7,7,0,0,0,12.25-3.2,184.36,184.36,0,0,0,3-35.44,7,7,0,0,1,11-5.83c11.56,8.18,23.46,14.58,35.89,18.16a7,7,0,0,0,8.84-6.85,45.31,45.31,0,0,0-.57-6.25,7,7,0,0,1,11.6-6.31,158.37,158.37,0,0,0,28,20.87,7,7,0,0,0,10.37-5,78.44,78.44,0,0,0-2.48-35.9,6.82,6.82,0,0,0-2-3.07c-18.42-16.56-38.61-30.73-60.61-57.73C581.78,221.66,568.2,204.41,567.33,204.34Z"/><path class="cls-9" d="M469.93,292.89c26.72-23.56,96.31-36.83,105.4-37.55,18.77-1.48,1.07-39.08-7-46-7-6-34.64,5-49,5-3,0,.18-7-4-7-5,0-8.07,2.15-13,3-4,.7-12,10-14,12-39.5,33.68-294.16,215.06-462,303C-15.35,547.18,354.83,394.39,469.93,292.89Z"/><path class="cls-10" d="M717.69,223.58c2.75-12.57,12.55-22,37-25,21.61,3.61,42.81,5.42,63,3,24.61-25.33,50-32,92,3,26.81,7.69,47.35,8.91,60,2,14.23,3.09,22.16,8.57,25,16Z"/><path class="cls-8" d="M1926.16,1112.58h-1940V604c226.83-56.58,476-87,825.59,0,80.92,41.39,279.72,99,502.54,36.38,187.93-52.84,405.8-59.13,611.87-36.38Z"/><path class="cls-11" d="M16.47,681c9.32-81,22.09-156.63,41.78-221.49a1.38,1.38,0,0,1,2.72.05C77.31,526,87.47,601.35,93.93,682a1.38,1.38,0,0,1-1.38,1.58l-74.75-1A1.39,1.39,0,0,1,16.47,681Z"/><path class="cls-12" d="M776.91,744.19c9.32-81,22.09-156.63,41.78-221.49a1.38,1.38,0,0,1,2.72,0c16.34,66.45,26.5,141.8,33,222.45a1.38,1.38,0,0,1-1.38,1.58l-74.75-1A1.37,1.37,0,0,1,776.91,744.19Z"/><path class="cls-13" d="M776.91,744.19c9.32-81,22.09-156.63,41.78-221.49a1.38,1.38,0,0,1,2.72,0c16.34,66.45,26.5,141.8,33,222.45a1.38,1.38,0,0,1-1.38,1.58l-74.75-1A1.37,1.37,0,0,1,776.91,744.19Z"/><path class="cls-14" d="M786.91,701c9.32-81,22.09-156.63,41.78-221.49a1.38,1.38,0,0,1,2.72.05c16.34,66.45,26.5,141.8,33,222.45a1.38,1.38,0,0,1-1.38,1.58l-74.75-1A1.39,1.39,0,0,1,786.91,701Z"/><path class="cls-15" d="M722.91,670c9.32-81,22.09-156.63,41.78-221.49a1.38,1.38,0,0,1,2.72.05c16.34,66.45,26.5,141.8,33,222.45a1.38,1.38,0,0,1-1.38,1.58l-74.75-1A1.39,1.39,0,0,1,722.91,670Z"/><path class="cls-16" d="M162.28,673c9.31-81,22.09-156.63,41.78-221.49a1.37,1.37,0,0,1,2.71.05c16.35,66.45,26.5,141.8,33,222.45a1.37,1.37,0,0,1-1.38,1.58l-74.74-1A1.39,1.39,0,0,1,162.28,673Z"/><path class="cls-17" d="M130.91,688c9.32-81,22.09-156.63,41.78-221.49a1.38,1.38,0,0,1,2.72.05c16.34,66.45,26.5,141.8,33,222.45a1.38,1.38,0,0,1-1.38,1.58l-74.75-1A1.39,1.39,0,0,1,130.91,688Z"/><path class="cls-18" d="M94.91,685c9.32-81,22.09-156.63,41.78-221.49a1.38,1.38,0,0,1,2.72.05c16.34,66.45,26.5,141.8,33,222.45a1.38,1.38,0,0,1-1.38,1.58l-74.75-1A1.39,1.39,0,0,1,94.91,685Z"/><path class="cls-19" d="M61.91,715C71.23,634,84,558.36,103.69,493.5a1.38,1.38,0,0,1,2.72.05c16.34,66.45,26.5,141.8,33,222.45a1.38,1.38,0,0,1-1.38,1.58l-74.75-1A1.39,1.39,0,0,1,61.91,715Z"/><path class="cls-20" d="M259.69,655c9.32-81,22.09-156.63,41.78-221.49a1.38,1.38,0,0,1,2.72.05c16.34,66.45,26.5,141.8,33,222.45a1.38,1.38,0,0,1-1.38,1.58l-74.75-1A1.39,1.39,0,0,1,259.69,655Z"/><path class="cls-21" d="M451.13,676c9.32-81,22.09-156.63,41.78-221.49a1.38,1.38,0,0,1,2.72.05C512,521,522.13,596.35,528.59,677a1.38,1.38,0,0,1-1.38,1.58l-74.75-1A1.39,1.39,0,0,1,451.13,676Z"/><path class="cls-22" d="M410.5,674c9.31-81,22.09-156.63,41.78-221.49a1.37,1.37,0,0,1,2.71.05C471.34,519,481.49,594.35,488,675a1.37,1.37,0,0,1-1.38,1.58l-74.74-1A1.39,1.39,0,0,1,410.5,674Z"/><path class="cls-23" d="M371.13,668c9.32-81,22.09-156.63,41.78-221.49a1.38,1.38,0,0,1,2.72.05C432,513,442.13,588.35,448.59,669a1.38,1.38,0,0,1-1.38,1.58l-74.75-1A1.39,1.39,0,0,1,371.13,668Z"/><path class="cls-24" d="M331.72,693.41c9.32-81,22.09-156.64,41.78-221.5a1.38,1.38,0,0,1,2.72.06c16.34,66.45,26.5,141.79,33,222.45A1.38,1.38,0,0,1,407.8,696l-74.75-1A1.37,1.37,0,0,1,331.72,693.41Z"/><path class="cls-25" d="M303.13,683c9.32-81,22.09-156.63,41.78-221.49a1.38,1.38,0,0,1,2.72.05C364,528,374.13,603.35,380.59,684a1.38,1.38,0,0,1-1.38,1.58l-74.75-1A1.39,1.39,0,0,1,303.13,683Z"/><path class="cls-26" d="M484.69,704.69c9.32-81,22.09-156.63,41.78-221.49a1.38,1.38,0,0,1,2.72.05c16.34,66.45,26.5,141.8,33,222.45a1.38,1.38,0,0,1-1.38,1.58l-74.75-1A1.37,1.37,0,0,1,484.69,704.69Z"/><path class="cls-27" d="M675.13,720.69c9.32-81,22.09-156.63,41.78-221.49a1.38,1.38,0,0,1,2.72.05c16.34,66.45,26.5,141.8,33,222.45a1.38,1.38,0,0,1-1.38,1.58l-74.75-1A1.37,1.37,0,0,1,675.13,720.69Z"/><path class="cls-28" d="M643.5,729c9.31-81,22.09-156.63,41.78-221.49a1.37,1.37,0,0,1,2.71.05C704.34,574,714.49,649.35,721,730a1.37,1.37,0,0,1-1.38,1.58l-74.74-1A1.39,1.39,0,0,1,643.5,729Z"/><path class="cls-29" d="M599.13,697.69c9.32-81,22.09-156.63,41.78-221.49a1.38,1.38,0,0,1,2.72.05c16.34,66.45,26.5,141.8,33,222.45a1.38,1.38,0,0,1-1.38,1.58l-74.75-1A1.37,1.37,0,0,1,599.13,697.69Z"/><path class="cls-30" d="M562.13,714c9.32-81,22.09-156.63,41.78-221.49a1.38,1.38,0,0,1,2.72.05C623,559,633.13,634.35,639.59,715a1.38,1.38,0,0,1-1.38,1.58l-74.75-1A1.39,1.39,0,0,1,562.13,714Z"/><path class="cls-31" d="M525.77,695.41c9.31-81,22.09-156.63,41.78-221.49a1.37,1.37,0,0,1,2.71.05c16.35,66.45,26.5,141.8,33,222.46a1.37,1.37,0,0,1-1.38,1.57l-74.74-1A1.38,1.38,0,0,1,525.77,695.41Z"/><path class="cls-32" d="M772.81,727.62c7.07-61.47,16.76-118.84,31.7-168.06a1,1,0,0,1,2.06.05c12.4,50.41,20.11,107.58,25,168.78a1,1,0,0,1-1.05,1.19l-56.71-.72A1,1,0,0,1,772.81,727.62Z"/><path class="cls-33" d="M882.3,732c7.07-61.46,16.76-118.84,31.7-168a1,1,0,0,1,2.06,0c12.4,50.42,20.11,107.58,25,168.78A1,1,0,0,1,940,734l-56.71-.73A1,1,0,0,1,882.3,732Z"/><path class="cls-34" d="M838,669.62c7.07-61.47,16.76-118.84,31.7-168.06a1,1,0,0,1,2.06.05c12.4,50.41,20.11,107.58,25,168.78a1,1,0,0,1-1,1.19L839,670.86A1,1,0,0,1,838,669.62Z"/><path class="cls-35" d="M824.64,714.54c7.07-61.46,16.76-118.84,31.7-168a1,1,0,0,1,2.06,0c12.4,50.42,20.11,107.58,25,168.78a1.05,1.05,0,0,1-1,1.2l-56.71-.73A1,1,0,0,1,824.64,714.54Z"/><path class="cls-36" d="M858.62,734.07c5.64-77.48,14.66-149.65,30.41-211.24a1.26,1.26,0,0,1,2.49.15c17.41,64.41,29.46,137.15,38.3,214.85a1.2,1.2,0,0,1-1.21,1.47l-68.71-3.62A1.42,1.42,0,0,1,858.62,734.07Z"/><path class="cls-37" d="M735.56,732.05c-.13-74.23,3.08-143.13,13-201.39.09-1.38,1.89-1.13,2.22.31,19.69,63.18,35.18,134,48.16,209.42.18.79-.28,1.42-1,1.33l-61.13-8A1.59,1.59,0,0,1,735.56,732.05Z"/><path class="cls-38" d="M1074.41,1062.76c-59-72,35.63-204.17,331-301,119-39,318.59-55.68,517-55l21,412C1572.93,1126.32,1124,1159.35,1074.41,1062.76Z"/><path class="cls-38" d="M936,847.31c59.68,71.44-131.19,130.14-425.64,229.75-118.62,40.12-305,59-491,93l-78-368C271.33,715.35,862.37,707.83,936,847.31Z"/><path class="cls-39" d="M738,810.56c43.57,54.09-73.94,109.74-283.7,153.13-79.07,26.74-356.17,28.89-469.17,16.89-37.45-123-66.91-167.81,54-199C232.16,744.58,688.93,717.59,738,810.56Z"/><path class="cls-7" d="M575.92,812.49c31.73,27-54.28,55.23-207.69,77.46-57.85,13.59-300.07,39.63-317.07,4.63-23-43-52.26-77.2,36-99C248,766.1,540.23,765.94,575.92,812.49Z"/><path class="cls-39" d="M1160.17,1062.06c-49.56-60.48,29.93-171.49,278-252.84,100-32.76,320.29-43.2,487-42.64l9,274C1623,1046.93,1201.81,1143.2,1160.17,1062.06Z"/><path class="cls-7" d="M1351.57,1000.45c-31.86-38.88,19.24-110.25,178.74-162.54,64.26-21.06,283.71-34.69,390.85-34.33l-4.28,154.3C1716.82,962,1378.34,1052.61,1351.57,1000.45Z"/><path class="cls-40" d="M1003.33,535.34C890.42,460.26,790.45,389,707.1,328.67c-12.12-8.77-23.36-20.05-34.77-28.33-25.64-18.61-67-54-68-55-16-16-31.72-37-36-41-5.69-.81-17,1-43,7-6.37,11.42-12.5,22.67-11,43,16.18,26.27,34.74,41.94,55,50,39.53,24.78,251.93,172.21,400,274l48-6Z"/><path class="cls-39" d="M1662,616.82h-6.35v-8.73h-23V566.83H1647v-6.35c22.91,1.56,47.65-1.42,74.59-6.35-34.83-.59-68.27-5.36-99.91-18.43a2.37,2.37,0,0,1-1.45-1.56c-.24-.9-.85-2.2-.21-2.23,15.64-.58,28.85-4,30.16-15.87a2,2,0,0,0-3.18-1.58,52.57,52.57,0,0,1-33.33,12.69V489.06h12.7v-6.34c18.71.79,36.11-3,52.37-7.94-27.93-2.76-54.15-8.58-77.76-19v-1.59c17.8,1.71,29.2-2.79,31.74-15.87-1.42-2.11-3-2.06-4.76,0-5.54,7.77-14.51,10.15-25.39,9.52V411.3h7.93V405c20.62,2.05,38.73.13,54-6.35-23.91-1.34-47.92-7-65.07-14.28a15.66,15.66,0,0,0,7.94-14.28c-.63-1.38-1.64-1.53-3.18,0-2.7,4.13-6.95,7.29-12.69,9.52l-7.94-1.59V344.64h6.35V338.3c17.69.78,35-.83,51.58-7.15-57.06-6.82-94.36-31.69-110.86-75.56a2.83,2.83,0,0,1-.11-.31c0-.1-.08-.2-.12-.3v92.35h13.41v25h-13.41v3.85h13.41v13.47h-13.41v27.66h17V450h-17v5h17v17.61h-17v23H1550V533h-19.64v5.74H1550V558.8h-19.64v78.65H1670v-12.7H1662ZM1551.42,347.33h17.32l5.78,5.77v19.25h-23.1Zm5.91,70H1580l7.55,7.54V450h-30.19ZM1595.86,533h-34.43v-37.3h25.82l8.61,8.61Z"/><path class="cls-6" d="M1530.43,255.28l-.12.31c-16.5,43.87-53.8,68.74-110.86,75.56,16.57,6.32,33.89,7.93,51.58,7.15v6.34h6.35V378l-7.94,1.59c-5.74-2.23-10-5.39-12.69-9.52-1.54-1.53-2.55-1.38-3.18,0a15.66,15.66,0,0,0,7.94,14.28c-17.15,7.31-41.16,12.94-65.07,14.28,15.23,6.48,33.34,8.4,54,6.35v6.35h7.93v36.5c-10.88.63-19.85-1.75-25.39-9.52-1.75-2.06-3.34-2.11-4.76,0,2.54,13.08,13.94,17.58,31.74,15.87v1.59c-23.61,10.46-49.83,16.28-77.76,19,16.26,4.91,33.66,8.73,52.37,7.94v6.34h12.7v38.09a52.57,52.57,0,0,1-33.33-12.69,2,2,0,0,0-3.18,1.58c1.31,11.86,14.52,15.29,30.16,15.87.64,0,0,1.33-.21,2.23a2.37,2.37,0,0,1-1.45,1.56c-31.64,13.07-65.08,17.84-99.91,18.43,26.94,4.93,51.68,7.91,74.59,6.35v6.35h14.28v41.26h-23v8.73h-6.35v7.93h-7.93v12.7h139.65V558.8H1510.9V538.71h19.64V533H1510.9v-37.3h19.64v-23h-17V455.06h17v-5h-17v-32.7h17V389.67h-13.41V376.2h13.41v-3.85h-13.41v-25h13.41V255Zm-31,277.69H1465V504.28l8.61-8.61h25.82Zm4.1-82.94h-30.19V424.87l7.55-7.54h22.64Zm5.91-77.68h-23.1V353.1l5.78-5.77h17.32Z"/><path class="cls-41" d="M1078.76,684.22c7.73-66.36,18.3-128.31,34.52-181.46a1.13,1.13,0,0,1,2.23,0c13.33,54.41,21.58,116.11,26.79,182.16a1.13,1.13,0,0,1-1.13,1.3l-61.32-.7A1.13,1.13,0,0,1,1078.76,684.22Z"/><path class="cls-42" d="M1026.3,658.9c7.73-66.36,18.29-128.31,34.51-181.46a1.13,1.13,0,0,1,2.23.05c13.34,54.4,21.58,116.1,26.79,182.15a1.12,1.12,0,0,1-1.13,1.3l-61.31-.7A1.12,1.12,0,0,1,1026.3,658.9Z"/><path class="cls-43" d="M987,700.48c7.74-66.36,18.3-128.32,34.52-181.46a1.13,1.13,0,0,1,2.23,0c13.34,54.41,21.58,116.11,26.79,182.16a1.12,1.12,0,0,1-1.13,1.29l-61.31-.7A1.13,1.13,0,0,1,987,700.48Z"/><path class="cls-44" d="M961.09,707.31C968.82,641,979.39,579,995.61,525.85a1.13,1.13,0,0,1,2.22,0c13.34,54.4,21.59,116.1,26.8,182.15a1.14,1.14,0,0,1-1.14,1.3l-61.31-.7A1.13,1.13,0,0,1,961.09,707.31Z"/><path class="cls-45" d="M1067.16,706c5.87-50.35,13.89-97.35,26.19-137.67a.86.86,0,0,1,1.69,0c10.12,41.28,16.38,88.09,20.33,138.21a.86.86,0,0,1-.86,1l-46.52-.53A.86.86,0,0,1,1067.16,706Z"/><path class="cls-46" d="M1157,709.5c5.86-50.35,13.88-97.35,26.19-137.67a.86.86,0,0,1,1.69,0c10.11,41.28,16.37,88.09,20.33,138.21a.87.87,0,0,1-.87,1l-46.51-.53A.85.85,0,0,1,1157,709.5Z"/><path class="cls-47" d="M1109.69,695.27c5.87-50.35,13.89-97.35,26.19-137.67a.86.86,0,0,1,1.69,0c10.12,41.28,16.38,88.09,20.33,138.21a.85.85,0,0,1-.86,1l-46.52-.53A.86.86,0,0,1,1109.69,695.27Z"/><path class="cls-48" d="M1137.55,711.23c4.71-63.46,12.19-122.58,25.17-173.05a1,1,0,0,1,2,.12c14.21,52.74,24,112.3,31.18,175.93a1,1,0,0,1-1,1.2l-56.36-2.88A1.16,1.16,0,0,1,1137.55,711.23Z"/><path class="cls-49" d="M1036.6,709.72c0-60.8,2.69-117.23,10.86-165,.07-1.14,1.55-.94,1.82.25,16.08,51.72,28.71,109.72,39.28,171.46.14.65-.24,1.17-.81,1.1l-50.13-6.51A1.32,1.32,0,0,1,1036.6,709.72Z"/><path class="cls-50" d="M1849.56,617.11c4.73-50.57,11.64-97.73,22.9-138.07a.84.84,0,0,1,1.66.07c10.8,41.77,17.91,89,22.83,139.56a.82.82,0,0,1-.82,1l-45.73-1.5A.91.91,0,0,1,1849.56,617.11Z"/><path class="cls-51" d="M1810,597c4.73-50.57,11.64-97.73,22.9-138.07a.84.84,0,0,1,1.66.07c10.8,41.76,17.91,89,22.83,139.56a.81.81,0,0,1-.82,1l-45.73-1.5A.9.9,0,0,1,1810,597Z"/><path class="cls-52" d="M1781.43,628.09c4.72-50.57,11.63-97.73,22.89-138.07a.84.84,0,0,1,1.66.07c10.8,41.77,17.92,89,22.84,139.56a.83.83,0,0,1-.83,1l-45.73-1.5A.9.9,0,0,1,1781.43,628.09Z"/><path class="cls-53" d="M1762.18,632.9c4.72-50.57,11.63-97.72,22.89-138.06a.84.84,0,0,1,1.66.06c10.8,41.77,17.92,89,22.84,139.57a.82.82,0,0,1-.83,1l-45.73-1.5A.89.89,0,0,1,1762.18,632.9Z"/><path class="cls-54" d="M1841.26,633.6c3.58-38.37,8.82-74.15,17.37-104.76a.64.64,0,0,1,1.26,0c8.19,31.69,13.59,67.55,17.32,105.89a.62.62,0,0,1-.62.74l-34.7-1.14A.66.66,0,0,1,1841.26,633.6Z"/><path class="cls-55" d="M1908.28,637.65c3.59-38.37,8.83-74.15,17.38-104.75a.64.64,0,0,1,1.26.05c8.19,31.69,13.59,67.54,17.32,105.89a.61.61,0,0,1-.62.73l-34.7-1.13A.69.69,0,0,1,1908.28,637.65Z"/><path class="cls-56" d="M1872.8,626c3.59-38.37,8.83-74.15,17.37-104.75a.64.64,0,0,1,1.26.05c8.2,31.69,13.6,67.54,17.33,105.89a.61.61,0,0,1-.63.73l-34.69-1.13A.69.69,0,0,1,1872.8,626Z"/><path class="cls-57" d="M1893.82,638.66c2.52-48.4,7.17-93.44,16.06-131.78.12-.91,1.35-.81,1.53.12,11.43,40.51,19.67,86.15,26,134.87a.72.72,0,0,1-.72.91l-42.07-3.09A.94.94,0,0,1,1893.82,638.66Z"/><path class="cls-58" d="M1818.53,635.92c-1-46.43.16-89.5,5.5-125.83,0-.87,1.14-.69,1.37.22,12.8,39.76,23.13,84.26,32,131.59.12.5-.15.89-.58.82L1819.31,637A1,1,0,0,1,1818.53,635.92Z"/><path class="cls-59" d="M974.63,773.38c9.32-81,22.1-156.64,41.78-221.5a1.38,1.38,0,0,1,2.72.06c16.34,66.45,26.5,141.79,33,222.45a1.38,1.38,0,0,1-1.38,1.58L976,775A1.38,1.38,0,0,1,974.63,773.38Z"/><path class="cls-60" d="M910.63,742.38c9.32-81,22.1-156.64,41.78-221.5a1.38,1.38,0,0,1,2.72.06c16.34,66.45,26.5,141.79,33,222.45a1.38,1.38,0,0,1-1.38,1.58L912,744A1.38,1.38,0,0,1,910.63,742.38Z"/><path class="cls-61" d="M1070,804.38c7.07-61.47,16.77-118.85,31.7-168.06a1,1,0,0,1,2.06,0c12.4,50.42,20.11,107.59,25,168.78a1,1,0,0,1-1,1.2l-56.7-.72A1.05,1.05,0,0,1,1070,804.38Z"/><path class="cls-62" d="M1012.36,786.93c7.07-61.47,16.76-118.85,31.7-168.06a1,1,0,0,1,2.06,0c12.4,50.42,20.11,107.59,25,168.78a1,1,0,0,1-1.05,1.2l-56.71-.73A1,1,0,0,1,1012.36,786.93Z"/><path class="cls-63" d="M1046.34,806.45C1052,729,1061,656.8,1076.75,595.21a1.26,1.26,0,0,1,2.49.15c17.42,64.42,29.46,137.15,38.3,214.85a1.2,1.2,0,0,1-1.21,1.47l-68.7-3.61A1.43,1.43,0,0,1,1046.34,806.45Z"/><path class="cls-64" d="M924.28,756.44c-.13-74.23,3.08-143.13,13-201.39.09-1.39,1.89-1.14,2.22.31,19.7,63.17,35.19,134,48.16,209.41.19.79-.28,1.43-1,1.34l-61.12-8A1.6,1.6,0,0,1,924.28,756.44Z"/><path class="cls-65" d="M960.53,800c7.07-61.46,16.76-118.84,31.7-168a1,1,0,0,1,2.06,0c12.4,50.42,20.11,107.58,25,168.78a1,1,0,0,1-1,1.2l-56.71-.73A1,1,0,0,1,960.53,800Z"/><path class="cls-66" d="M206,708.57c9.32-81,22.1-156.63,41.79-221.49a1.37,1.37,0,0,1,2.71.05c16.35,66.45,26.5,141.79,33,222.45a1.37,1.37,0,0,1-1.38,1.58l-74.74-1A1.38,1.38,0,0,1,206,708.57Z"/><circle class="cls-67" cx="1297.41" cy="35.33" r="2.5"/><circle class="cls-67" cx="1838.82" cy="88.38" r="0.16"/><circle class="cls-67" cx="1685.36" cy="142.08" r="1.53"/><circle class="cls-67" cx="1653.84" cy="302.47" r="1.66"/><circle class="cls-67" cx="1543.1" cy="384.79" r="0.34"/><circle class="cls-67" cx="1792.41" cy="646.27" r="0.38"/><circle class="cls-67" cx="1857.68" cy="164.48" r="0.27"/><circle class="cls-67" cx="1838.56" cy="56.98" r="0.74"/><circle class="cls-67" cx="1659.63" cy="133.2" r="1.16"/><circle class="cls-67" cx="1583.09" cy="129.5" r="1.72"/><circle class="cls-67" cx="1651.06" cy="235.41" r="1.37"/><circle class="cls-67" cx="1643.39" cy="213.95" r="0.27"/><circle class="cls-67" cx="1681.73" cy="241.39" r="0.22"/><circle class="cls-67" cx="1711.22" cy="57.46" r="0.78"/><circle class="cls-67" cx="1212.08" cy="243.61" r="1.19"/><circle class="cls-67" cx="1236.66" cy="388.09" r="1.69"/><circle class="cls-67" cx="1287.88" cy="398.59" r="0.37"/><circle class="cls-67" cx="1298.04" cy="397.55" r="0.23"/><circle class="cls-67" cx="1271.84" cy="378.25" r="1.68"/><circle class="cls-67" cx="1374.57" cy="511.22" r="1.04"/><circle class="cls-67" cx="1397.99" cy="415.23" r="1.3"/><circle class="cls-67" cx="1424.66" cy="141.44" r="1.66"/><circle class="cls-67" cx="1128.91" cy="73.84" r="1.54"/><circle class="cls-67" cx="980.37" cy="200.45" r="0.67"/><circle class="cls-67" cx="894.39" cy="317.09" r="0.66"/><circle class="cls-67" cx="1038.39" cy="443.32" r="1.74"/><circle class="cls-67" cx="1104.86" cy="348.79" r="0.81"/><circle class="cls-67" cx="1165.95" cy="206.97" r="0.43"/><circle class="cls-67" cx="722.62" cy="100.86" r="0.91"/><circle class="cls-67" cx="754.32" cy="114.96" r="0.24"/><circle class="cls-67" cx="907.3" cy="108.36" r="0.56"/><circle class="cls-67" cx="442.73" cy="2.8" r="0.47"/><circle class="cls-67" cx="298.01" cy="56.97" r="1.44"/><circle class="cls-67" cx="229.38" cy="211.49" r="0.19"/><circle class="cls-67" cx="391.44" cy="281.05" r="0.83"/><circle class="cls-67" cx="382.53" cy="272.37" r="0.25"/><circle class="cls-67" cx="569.55" cy="34.29" r="0.57"/></g><g id="PRUEBITAS"><path class="cls-68" d="M1692.29,1026c-3.25,3.33-12.23-4.86-28.2-8-24.08-4.77-58.1,3.1-70.2,26.69-5.69,11.1-7.71,28,.33,39.25,6.92,9.71,18.87,11.89,41.4,16,26.86,4.9,34.38.89,45.4,9.39,2.45,1.9,6.63,6.71,8.76,20.32,1.67,10.59-2.5,18.31.37,24.25,6.08,12.55,40.9,21.27,44.48,20.86,18.79-2.17,49.78-23.85,57.91-46.14,2.56-7,2.45-13.88,5.77-14.53,4.49-.88,8.72,10.81,16.7,22.09,2.08,2.95,22.49,31.23,43.56,32.32,16.13.84,28.14-15,52.18-46.59,15.88-20.9,30.78-40.87,40.34-71.77,7.58-24.49,12.59-40.68,5.9-59.52-8.78-24.74-35.31-47.2-59.84-45.15-29.93,2.49-43.75,40.38-62.72,34.21-6-1.95-5.93-6.19-15.83-18.56-11.57-14.47-30.38-38-50.16-36.31-18.82,1.59-35.54,25.71-37.18,46.64-1.41,17.93,8.63,28.73,4.31,32.64-9.22,8.34-59.31-36.86-65.62-30.62C1664.36,979,1699.07,1019,1692.29,1026Z"/></g></svg>