<svg xmlns="http://www.w3.org/2000/svg" xmlns:xlink="http://www.w3.org/1999/xlink" width="130" height="113" viewBox="0 0 130 113"><defs><style>.cls-1{fill:url(#radial-gradient);}.cls-2{fill:#ffe600;}.cls-3{fill:#ffec00;}.cls-4{fill:#d7e9f4;}.cls-5{fill:#e7f4fb;}.cls-6{fill:#fff;}.cls-7{fill:#d23a2f;}</style><radialGradient id="radial-gradient" cx="85.27" cy="75.02" r="26.63" gradientUnits="userSpaceOnUse"><stop offset="0" stop-color="#ffec00"/><stop offset="0.14" stop-color="#ffec00" stop-opacity="0.99"/><stop offset="0.25" stop-color="#ffec01" stop-opacity="0.95"/><stop offset="0.36" stop-color="#ffec02" stop-opacity="0.88"/><stop offset="0.47" stop-color="#feec03" stop-opacity="0.78"/><stop offset="0.57" stop-color="#feeb04" stop-opacity="0.65"/><stop offset="0.67" stop-color="#feeb06" stop-opacity="0.5"/><stop offset="0.76" stop-color="#fdeb09" stop-opacity="0.32"/><stop offset="0.85" stop-color="#fcea0c" stop-opacity="0.11"/><stop offset="0.9" stop-color="#fcea0d" stop-opacity="0"/></radialGradient></defs><g id="mt_fuji" data-name="mt fuji"><circle class="cls-1" cx="85.27" cy="75.02" r="26.63"/><path class="cls-2" d="M91.51,76.59c-2.59,14.76-17.14,1.85-36.27-1.51s-35.61,4.08-33-10.68,20.21-24,39.35-20.62S94.11,61.84,91.51,76.59Z"/><path class="cls-3" d="M92.79,77.53C90.7,89.42,76.4,81.4,67,78.35c1.28-9,8.36-18.77,16-24.34C90.32,60.33,94.28,68.89,92.79,77.53Z"/><path class="cls-4" d="M54.77,34.32c-1.42,6-10.11,21-16.11,19.62s-7-18.76-5.61-24.76a11.16,11.16,0,1,1,21.72,5.14Z"/><path class="cls-5" d="M62.61,43.11c-3.68,5-17.61,15.34-22.55,11.66s.95-20,4.62-25a11.16,11.16,0,0,1,17.93,13.3Z"/><circle cx="35.66" cy="61.99" r="1.34"/><circle class="cls-6" cx="36" cy="61.4" r="0.67"/><circle class="cls-6" cx="35.06" cy="62.34" r="0.26"/><circle cx="29.27" cy="62.14" r="1.34"/><circle class="cls-6" cx="29.62" cy="61.55" r="0.67"/><circle class="cls-6" cx="28.68" cy="62.48" r="0.26"/><path d="M34.27,66.73v0c0,.9-.46,1.41-1.47,1.47a1.43,1.43,0,0,1-1.64-1.42.15.15,0,0,0,0-.07V64.91a.2.2,0,0,1,.19-.19H34a.19.19,0,0,1,.2.18Z"/><path d="M31.16,67s0,0,0-.06v0A.22.22,0,0,1,31.16,67Z"/><ellipse class="cls-7" cx="32.73" cy="67.36" rx="1.37" ry="0.87"/></g></svg>