<svg xmlns="http://www.w3.org/2000/svg" width="721" height="567" viewBox="0 0 721 567"><defs><style>.cls-1{fill:#c04a22;}.cls-14,.cls-2,.cls-4,.cls-8{fill:#fff;}.cls-3{fill:#ffe600;}.cls-4{opacity:0.89;}.cls-5{opacity:0.48;}.cls-6{fill:#6a3f90;}.cls-7{fill:#4d2c71;}.cls-10,.cls-8{opacity:0.83;}.cls-9{fill:#33214b;}.cls-10{fill:#f8f7fa;}.cls-11{opacity:0.49;}.cls-12{fill:#d7e9f4;}.cls-13{fill:#583e13;}.cls-14{opacity:0.9;}</style></defs><g id="Opening-titles"><path class="cls-1" d="M659.43,501H72.57C47.51,501,27,482.7,27,460.32V94.54c0-22.37,22.58-33.33,45.57-40.68C253.74,9.46,447.05,9.48,658.22,55.42,676.37,60.9,705,72.17,705,94.54V460.32C705,482.7,684.49,501,659.43,501Z"/><path class="cls-1" d="M544,551l-324-1a34.1,34.1,0,0,1-34-34V500a34.1,34.1,0,0,1,34-34H535c18.7,0,45,15.3,45,34l-1,19C579,537.7,562.7,551,544,551Z"/><path class="cls-2" d="M210.75,149.07q-3.7-2.25-7.41-8.45a54.36,54.36,0,0,1-4.52-11.77,100.08,100.08,0,0,1-2.57-11.94c-.22-1-.51-2.68-.86-5.11l-.57-3.86-.67-4.55q-.72-4.9-1.38-11.77a83,83,0,0,1,.08-12.1,30.37,30.37,0,0,1,2.85-10.65,15.75,15.75,0,0,1,6.72-7.27A20.14,20.14,0,0,1,207.65,60q4.77-.71,5.25,2.48a2.53,2.53,0,0,1-.57,2.12,3.3,3.3,0,0,1-2.11,1.07,7.33,7.33,0,0,1-1.64-.11H207a6.3,6.3,0,0,0-3.67,1.88A10,10,0,0,0,201,71.69a40.88,40.88,0,0,0-1.76,12.47,104.67,104.67,0,0,0,.67,14.08q.53,5.15,1.36,10.84l.46,3.07c.07,1.08.23,2.41.47,4a109.62,109.62,0,0,0,2.24,11.3,35.53,35.53,0,0,0,4.17,11c1.74,3.38,4.08,5.6,7,6.63a9.33,9.33,0,0,0,4.94.44q5-.74,7.72-6-.71-4-1.72-7.71a13.08,13.08,0,0,0-2.12-5,3.66,3.66,0,0,0-.51.13l-1.17.34-2.69.63q-3.87.57-4.36-2.73a2.25,2.25,0,0,1,.87-2,7.67,7.67,0,0,1,2.91-1.59,23.84,23.84,0,0,1,5.57-1.64,4.2,4.2,0,0,1,3.78,1.19,7.19,7.19,0,0,1,1.88,4.14,63.32,63.32,0,0,0,2.65,10.07,61.1,61.1,0,0,1,2.62,10,3.17,3.17,0,0,1-.47,2.28,2.55,2.55,0,0,1-1.8,1.2,3.87,3.87,0,0,1-4.22-1.83l0-.11-2.32,1.62a12.66,12.66,0,0,1-5.52,2.79A14.9,14.9,0,0,1,210.75,149.07Z"/><path class="cls-2" d="M264.37,142.37a2.78,2.78,0,0,1-1.1-2.2l-1.61-15a16.37,16.37,0,0,0-5.8-1.23,60.73,60.73,0,0,0-7.88-.2,19.57,19.57,0,0,0-1.21,6l-.21,2.34c0,.54-.12,1.74-.31,3.61a38,38,0,0,1-.75,4.88,17.12,17.12,0,0,1-1,3.3q-4.35.47-5.28-1.75,1.06-2,1.71-11.06l1.53-21.33q.91-15.12,1.91-25.88A145.64,145.64,0,0,1,247,65.82q1.78-8.17,4.19-8.43a6.19,6.19,0,0,1,3.75.52q.49,4.58,4.55,21.84,4.13,16.91,4.8,23.19a169.13,169.13,0,0,0,3.12,17.25q2.38,11.43,3.12,18.28c.27,2.6-.84,4-3.36,4.3A4.28,4.28,0,0,1,264.37,142.37Zm-3.57-24.14q-.89-5-2.48-12.34-5.4-25.56-6-31.39l-.1-.91q-1,1.26-2,10.68t-1.6,20.12a137.63,137.63,0,0,0-.34,14.15,37,37,0,0,0,10.33.28A9.41,9.41,0,0,0,260.8,118.23Z"/><path class="cls-2" d="M315,141a6.52,6.52,0,0,1-.9-3.29l-1.17-17q-.26-2.18-.57-7.23-.88-10.67-1.73-24.09l-.36-5.85q-.69,5.56-2.6,15.72-1.87,10.49-2.5,17.2l.05.69-.21,2.2a21.46,21.46,0,0,1-.83,5.24c-.65,1.89-1.77,2.88-3.38,3q-4.14.26-4.81-10.53a73.11,73.11,0,0,0-2-12.73q-1.64-6.75-4.89-16.57l-4.25-12.64L285.46,89q.39,6.2,2.05,23.6l.72,7.79,1.2,15.71a6.42,6.42,0,0,1-1.45,4.47c-1.91.12-3.27-.39-4.07-1.53a10.12,10.12,0,0,1-1.41-5.15l-.36-9.43c0-4.15-.1-7.25-.23-9.32L280.3,93l-1.62-22.25c-.2-3.29-.44-8.23-.69-14.82l3-2a2.94,2.94,0,0,1,1.92,1.21,19.74,19.74,0,0,1,2.31,3.71q3.3,6.94,9.23,28a47.74,47.74,0,0,1,1.22,4.88q1.8,6.57,2.59,10l2.27,8.73.57-3.84L302.67,97q1.32-8.38,2.14-14.66t1.52-13.57q.72-8.69.71-14.45l0-.69a3.51,3.51,0,0,1,1.23-2.44,4.5,4.5,0,0,1,2.7-1,2.39,2.39,0,0,1,1.89.81,2.89,2.89,0,0,1,.93,1.9q.86,13.77,3.6,41.14,1.41,13.4,2.44,26.23.58,5.83,1.15,14.79a8.36,8.36,0,0,1-1.08,4.8,3.85,3.85,0,0,1-3,2.25A2.06,2.06,0,0,1,315,141Z"/><path class="cls-2" d="M337.58,138.49c-1.31-.35-2-1.41-2-3.18l-1.4-66.8a35.43,35.43,0,0,0-.81-5.84,28.82,28.82,0,0,1-.93-5.85v-.35a25.06,25.06,0,0,1,2.79-4.2,25.18,25.18,0,0,0,4.24-.55,23.39,23.39,0,0,1,4.24-.54,6.56,6.56,0,0,1,3.59,1,3.1,3.1,0,0,1,1.78,2.55q.07,3.45-5.22,3.56l-1.61,0a8.88,8.88,0,0,0-1.61-.08,3.77,3.77,0,0,0-1.26.14q.08,3.9.66,9.42l.29,3.21.37,6.32c0,1.46,0,3.68-.21,6.68l-.09,6.44,1.6-.38a13.78,13.78,0,0,1,3.78-.77,3.27,3.27,0,0,1,2.32.93,3,3,0,0,1,1.08,2.22,3.88,3.88,0,0,1-.81,2.49,2.63,2.63,0,0,1-2.11,1.14L344.86,96l-1.49,0a3.07,3.07,0,0,0-2.4.86l.74,35.52,6.44-.47c4.36-.1,6.57.86,6.61,2.85v.46a5.08,5.08,0,0,1-2.48,2.29,12.45,12.45,0,0,1-3.54,1.17l-3.79.19-3.57.08A11.36,11.36,0,0,1,337.58,138.49Z"/><path class="cls-2" d="M396.05,139.67a17.6,17.6,0,0,1-4.16-5.79q-3.12-6.33-4.33-17.19-.88-7.5-1.1-17.3l.1-6.09.23-6.21c0-2,0-4.41.14-7.24a115,115,0,0,1,1-12.16,45.39,45.39,0,0,1,2.69-10.84,12.46,12.46,0,0,1,5.53-6.47,10,10,0,0,1,4.17-.77,11.37,11.37,0,0,1,9.48,5.17A29.87,29.87,0,0,1,414.55,67a80.9,80.9,0,0,1,1.52,15.47q.17,8.17-.1,15.42l-.24,6.55c0,1.3-.32,3.75-.83,7.33a68.56,68.56,0,0,0-.73,7.23v.46a36.56,36.56,0,0,0-1,7.56,17.6,17.6,0,0,1-1.62,6.61,16.38,16.38,0,0,1-4.11,5.72,7.64,7.64,0,0,1-5.85,2.55A8.67,8.67,0,0,1,396.05,139.67Zm10.08-8.15a41.3,41.3,0,0,0,2.34-9.18q.84-5.43,1.54-12.32.33-3,.51-7.69l.27-10.57q0-6.23-.82-15.57a52.43,52.43,0,0,0-3-14.14,12.17,12.17,0,0,0-2.71-4.59,5.36,5.36,0,0,0-3.62-1.74q-2.87-.11-4.41,4.33a42.83,42.83,0,0,0-2.67,10.26q-.92,6.06-1.23,11.58l-.25,3.78c-.11,1.08-.2,2.53-.27,4.37l0,.46a139.29,139.29,0,0,0,.93,19q1.29,15.35,4.62,21.91,2.14,4.11,4.68,4.2C403.6,135.68,405,134.32,406.13,131.52Z"/><path class="cls-2" d="M437.15,141.39q-2-12.62-4.71-45.46-3.09-35.07-3.85-41.7c.42-1.43,1.51-2.08,3.27-1.94q1.93.15,3.69,15t3.28,33.93l1.55,20.54q2.88-13.62,4.44-20.42,3.39-15.66,5.22-26a197.23,197.23,0,0,0,2.53-19.59,5.05,5.05,0,0,1,4.31-2l2.31,1.44-2.9,15.35q-1.12,7.06-4.84,25.58l-1.62,7.49q-2,10-4,18.84-2.72,12.83-4.59,17.76c-.6,1.72-1.12,2.57-1.58,2.53A3.26,3.26,0,0,1,437.15,141.39Z"/><path class="cls-2" d="M468.79,143.64c-1.25-.53-1.78-1.66-1.58-3.42l7.47-66.39a36.16,36.16,0,0,0,0-5.91,27.63,27.63,0,0,1-.14-5.92l0-.34a25.22,25.22,0,0,1,3.32-3.79,26.93,26.93,0,0,0,4.28,0,23.33,23.33,0,0,1,4.28,0,6.69,6.69,0,0,1,3.42,1.49,3.09,3.09,0,0,1,1.42,2.76c-.26,2.29-2.14,3.23-5.64,2.84l-1.6-.18a8.9,8.9,0,0,0-1.59-.29,3.83,3.83,0,0,0-1.27,0q-.44,3.89-.6,9.42l-.13,3.23L480,83.45c-.16,1.45-.52,3.64-1.09,6.59l-.95,6.37,1.64-.16a13.68,13.68,0,0,1,3.85-.26,3.26,3.26,0,0,1,2.18,1.22,3.05,3.05,0,0,1,.78,2.35,3.9,3.9,0,0,1-1.14,2.36,2.62,2.62,0,0,1-2.23.85l-1.36-.27-1.49-.17a3.06,3.06,0,0,0-2.49.53l-4,35.31,6.44.38q6.51.73,6.18,3.71l-.06.45a5.08,5.08,0,0,1-2.76,1.95,12.29,12.29,0,0,1-3.67.68L476,145l-3.54-.4A11.46,11.46,0,0,1,468.79,143.64Z"/><path class="cls-2" d="M514.26,147.42l0-.34a82.18,82.18,0,0,0-.1-13.72q-.65-7.65-2.42-18.6-1.37-8.2-2.16-14.72l-6.51,44.84a4.53,4.53,0,0,1-1,2.58,2.9,2.9,0,0,1-2.57.5,2.86,2.86,0,0,1-2-1.16,3.18,3.18,0,0,1-.48-2.34l.14-.91,5.08-33.43q2.37-14.76,5.06-33.31l2-14a2.46,2.46,0,0,1,.84-1.79,3.81,3.81,0,0,1,2.47-.17,12.84,12.84,0,0,1,5.08,1.84,12.35,12.35,0,0,1,3.66,3.61,19.65,19.65,0,0,1,3.16,10.22,27.9,27.9,0,0,1-.3,5.3,30,30,0,0,1-.83,3.72c-.39,1.34-.65,2.19-.78,2.56a29,29,0,0,1-1.52,3.26c-.75,1.44-1.24,2.38-1.45,2.81l-1.83,3-1.57,2.8a61.13,61.13,0,0,0-.08,10.56q.41,6.45,1.22,12,.6,3.92,2.28,13.11l1.85,10.5,0,.22a14,14,0,0,1-.82,3.25,2.16,2.16,0,0,1-2.66,1.48Q515.86,150.8,514.26,147.42ZM514.65,91l3.13-9.54a8.91,8.91,0,0,0,.35-1.58,28.43,28.43,0,0,0-.15-7.81,12.15,12.15,0,0,0-1.26-3.72,3.39,3.39,0,0,0-2-1.86l-1.88,11.35q-1.44,7.58-2.05,11.78c-.39,2.66-.6,4.41-.65,5.26A54.93,54.93,0,0,0,514.65,91Z"/><path class="cls-3" d="M213.4,154.49q-3.69-2.25-7.4-8.44a54.05,54.05,0,0,1-4.52-11.77,99.81,99.81,0,0,1-2.57-12c-.22-1-.51-2.67-.86-5.1l-.57-3.87-.67-4.55q-.72-4.89-1.39-11.77a84.51,84.51,0,0,1,.09-12.1,30.37,30.37,0,0,1,2.85-10.65A15.68,15.68,0,0,1,205.08,67a20.18,20.18,0,0,1,5.23-1.59c3.18-.46,4.93.36,5.24,2.49A2.48,2.48,0,0,1,215,70a3.26,3.26,0,0,1-2.11,1.07,6.76,6.76,0,0,1-1.64-.11h-1.63a6.24,6.24,0,0,0-3.67,1.88,10,10,0,0,0-2.29,4.23,40.81,40.81,0,0,0-1.77,12.46,104.51,104.51,0,0,0,.68,14.08q.52,5.16,1.36,10.85l.45,3.07c.08,1.07.24,2.4.48,4a109.43,109.43,0,0,0,2.24,11.29,35.53,35.53,0,0,0,4.17,11,12.73,12.73,0,0,0,7,6.64,9.39,9.39,0,0,0,4.95.43q5-.73,7.72-6-.7-4-1.72-7.71a13.23,13.23,0,0,0-2.12-5c-.08,0-.25.06-.51.13l-1.17.35-2.7.63q-3.87.57-4.35-2.73a2.27,2.27,0,0,1,.87-2,7.8,7.8,0,0,1,2.91-1.59,23.77,23.77,0,0,1,5.57-1.63,4.18,4.18,0,0,1,3.78,1.19,7.13,7.13,0,0,1,1.88,4.13A63.11,63.11,0,0,0,236,140.82a60.84,60.84,0,0,1,2.62,10,3.15,3.15,0,0,1-.47,2.27,2.52,2.52,0,0,1-1.81,1.2,3.88,3.88,0,0,1-4.22-1.82v-.11l-2.32,1.62a12.51,12.51,0,0,1-5.52,2.78A14.88,14.88,0,0,1,213.4,154.49Z"/><path class="cls-3" d="M267,147.79a2.74,2.74,0,0,1-1.1-2.19l-1.61-15a16.37,16.37,0,0,0-5.8-1.23,60.76,60.76,0,0,0-7.89-.19,19.58,19.58,0,0,0-1.2,6l-.21,2.34c0,.54-.12,1.75-.31,3.62a38,38,0,0,1-.75,4.88,17.23,17.23,0,0,1-1,3.29q-4.35.47-5.28-1.75,1.07-2,1.71-11l1.53-21.33q.91-15.14,1.9-25.88a147.25,147.25,0,0,1,2.63-18.1c1.19-5.45,2.59-8.25,4.19-8.43a6.19,6.19,0,0,1,3.75.53q.49,4.57,4.54,21.83,4.13,16.9,4.8,23.2A172,172,0,0,0,270,125.61q2.37,11.43,3.12,18.29.41,3.89-3.36,4.29A4.28,4.28,0,0,1,267,147.79Zm-3.57-24.13q-.88-5-2.48-12.34-5.42-25.56-6-31.39l-.1-.92q-1,1.27-2,10.69t-1.6,20.12a137.44,137.44,0,0,0-.34,14.14,37,37,0,0,0,10.33.29A10.62,10.62,0,0,0,263.46,123.66Z"/><path class="cls-3" d="M317.64,146.46a6.48,6.48,0,0,1-.9-3.28l-1.17-17Q315.31,124,315,119q-.9-10.65-1.73-24.08L312.91,89q-.69,5.58-2.6,15.72-1.87,10.48-2.5,17.21l.05.69-.21,2.2a22,22,0,0,1-.83,5.24q-1,2.82-3.38,3-4.14.25-4.81-10.53a73.82,73.82,0,0,0-2-12.72q-1.63-6.75-4.89-16.58l-4.25-12.64.63,13.79q.39,6.2,2.05,23.61l.71,7.79,1.21,15.71a6.42,6.42,0,0,1-1.45,4.47c-1.91.12-3.27-.39-4.07-1.53a10.13,10.13,0,0,1-1.41-5.16l-.36-9.43c0-4.14-.11-7.25-.24-9.31L283,98.39l-1.62-22.25q-.31-4.94-.69-14.83l3-2a2.92,2.92,0,0,1,1.92,1.2,20.24,20.24,0,0,1,2.31,3.72q3.3,6.93,9.23,28a46.48,46.48,0,0,1,1.22,4.88q1.8,6.57,2.59,10l2.27,8.73.56-3.83,1.6-9.55q1.32-8.39,2.14-14.65T309,74.18q.72-8.69.71-14.44l0-.69a3.47,3.47,0,0,1,1.23-2.44,4.41,4.41,0,0,1,2.7-1,2.35,2.35,0,0,1,1.89.8,3,3,0,0,1,.93,1.9Q317.27,72,320,99.42q1.41,13.39,2.44,26.24.58,5.84,1.15,14.79a8.32,8.32,0,0,1-1.08,4.79,3.87,3.87,0,0,1-3,2.26A2.07,2.07,0,0,1,317.64,146.46Z"/><path class="cls-3" d="M340.24,143.92c-1.31-.36-2-1.42-2-3.18l-1.4-66.8a35.65,35.65,0,0,0-.81-5.85,28,28,0,0,1-.93-5.85V61.9a25.41,25.41,0,0,1,2.78-4.2,26.23,26.23,0,0,0,4.25-.55,22.63,22.63,0,0,1,4.24-.55,6.51,6.51,0,0,1,3.59,1,3.08,3.08,0,0,1,1.78,2.55c0,2.3-1.69,3.48-5.22,3.56l-1.61,0a11.16,11.16,0,0,0-1.61-.08,4.08,4.08,0,0,0-1.26.14q.08,3.92.66,9.42l.29,3.22.37,6.31q0,2.19-.21,6.68l-.1,6.44,1.61-.37a13.42,13.42,0,0,1,3.78-.77,3.3,3.3,0,0,1,2.32.92,3,3,0,0,1,1.08,2.22,3.88,3.88,0,0,1-.81,2.49,2.6,2.6,0,0,1-2.11,1.14l-1.38-.08-1.49,0a3.07,3.07,0,0,0-2.4.85l.74,35.53,6.43-.48q6.56-.13,6.62,2.85v.46A5.1,5.1,0,0,1,355,143a12.41,12.41,0,0,1-3.54,1.16l-3.8.2-3.56.07A11.34,11.34,0,0,1,340.24,143.92Z"/><path class="cls-3" d="M398.71,145.1a17.71,17.71,0,0,1-4.16-5.79q-3.12-6.33-4.33-17.19-.89-7.52-1.1-17.3l.1-6.1.23-6.2c0-2,0-4.41.14-7.25a115.28,115.28,0,0,1,1-12.16,44.73,44.73,0,0,1,2.69-10.83,12.48,12.48,0,0,1,5.53-6.48A10.16,10.16,0,0,1,403,55a11.38,11.38,0,0,1,9.48,5.18,29.83,29.83,0,0,1,4.73,12.25,81.06,81.06,0,0,1,1.52,15.47c.1,5.46.07,10.59-.1,15.42l-.24,6.55c0,1.31-.32,3.75-.84,7.34a68.07,68.07,0,0,0-.72,7.22v.46a36.75,36.75,0,0,0-1,7.56,17.69,17.69,0,0,1-1.62,6.62,16.37,16.37,0,0,1-4.12,5.72,7.68,7.68,0,0,1-5.84,2.55A8.72,8.72,0,0,1,398.71,145.1Zm10.08-8.16a41,41,0,0,0,2.34-9.18q.83-5.43,1.54-12.31.33-3,.51-7.69l.26-10.58q0-6.21-.82-15.56a52.14,52.14,0,0,0-2.94-14.15A12.39,12.39,0,0,0,407,62.88a5.36,5.36,0,0,0-3.62-1.74c-1.91-.07-3.39,1.38-4.41,4.33a42.37,42.37,0,0,0-2.67,10.26c-.61,4-1,7.9-1.23,11.58l-.25,3.79c-.11,1.07-.21,2.52-.27,4.36l0,.46a137.69,137.69,0,0,0,.93,19q1.27,15.36,4.61,21.92c1.44,2.74,3,4.13,4.69,4.19Q407,141.14,408.79,136.94Z"/><path class="cls-3" d="M439.81,146.81q-2-12.62-4.71-45.45-3.09-35.07-3.85-41.7c.42-1.43,1.5-2.08,3.26-1.95q2,.15,3.7,15.05t3.28,33.93L443,127.22q2.88-13.62,4.44-20.42,3.39-15.66,5.22-25.95t2.53-19.59a5.09,5.09,0,0,1,4.31-2l2.31,1.45-2.91,15.35q-1.11,7.07-4.84,25.58l-1.61,7.48q-2,10-4,18.85-2.7,12.83-4.58,17.75c-.6,1.72-1.12,2.57-1.58,2.54A3.27,3.27,0,0,1,439.81,146.81Z"/><path class="cls-3" d="M471.45,149.06c-1.26-.52-1.78-1.66-1.58-3.41l7.47-66.4a37.21,37.21,0,0,0,0-5.9,27,27,0,0,1-.14-5.92l0-.35a27.06,27.06,0,0,1,3.32-3.79,25.81,25.81,0,0,0,4.28,0,23.23,23.23,0,0,1,4.28,0,6.6,6.6,0,0,1,3.42,1.48,3.1,3.1,0,0,1,1.43,2.77c-.26,2.28-2.14,3.23-5.64,2.83l-1.6-.18a11.14,11.14,0,0,0-1.59-.29,4.15,4.15,0,0,0-1.27,0q-.43,3.89-.6,9.42l-.13,3.23-.48,6.31q-.24,2.17-1.09,6.59l-.95,6.37,1.64-.16a14.07,14.07,0,0,1,3.85-.26,3.34,3.34,0,0,1,2.18,1.23A3,3,0,0,1,489,105a3.84,3.84,0,0,1-1.13,2.36,2.58,2.58,0,0,1-2.24.85l-1.35-.27-1.49-.16a3,3,0,0,0-2.49.53l-4,35.31,6.43.37q6.53.74,6.18,3.71l0,.46a5.07,5.07,0,0,1-2.76,1.94,12.32,12.32,0,0,1-3.67.69l-3.78-.31-3.55-.4A11.22,11.22,0,0,1,471.45,149.06Z"/><path class="cls-3" d="M516.92,152.85l.05-.34a81.32,81.32,0,0,0-.11-13.73q-.63-7.64-2.41-18.59-1.37-8.22-2.17-14.73l-6.5,44.84a4.57,4.57,0,0,1-1,2.59,2.93,2.93,0,0,1-2.57.5,2.83,2.83,0,0,1-2-1.17,3.18,3.18,0,0,1-.48-2.34l.13-.91,5.09-33.42q2.37-14.76,5.06-33.32l2-14a2.5,2.5,0,0,1,.84-1.8,3.83,3.83,0,0,1,2.47-.16,12.49,12.49,0,0,1,5.07,1.84A12,12,0,0,1,524,71.73,19.51,19.51,0,0,1,527.2,82a27.9,27.9,0,0,1-.3,5.3,30.24,30.24,0,0,1-.83,3.71c-.39,1.34-.65,2.19-.78,2.56a30,30,0,0,1-1.52,3.27c-.75,1.44-1.24,2.37-1.46,2.81l-1.82,3-1.57,2.79a61.13,61.13,0,0,0-.08,10.56q.4,6.45,1.22,12,.59,3.93,2.28,13.12l1.85,10.49,0,.23a14.09,14.09,0,0,1-.82,3.25,2.15,2.15,0,0,1-2.66,1.47C519.24,156.32,518,155.1,516.92,152.85Zm.39-56.42,3.13-9.54a8,8,0,0,0,.34-1.58,28.32,28.32,0,0,0-.14-7.8,12.31,12.31,0,0,0-1.26-3.73,3.45,3.45,0,0,0-2-1.86L515.5,83.27q-1.44,7.58-2.06,11.79c-.38,2.65-.6,4.4-.64,5.25A54.93,54.93,0,0,0,517.31,96.43Z"/><rect class="cls-4" x="42" y="175" width="648" height="288" rx="42.24"/><path class="cls-2" d="M292.91,519.11c-.28-4.11-.42-9.69-.42-16.71s.1-11.57.3-13.65a3.15,3.15,0,0,1,2.64-2.55,24.54,24.54,0,0,1,6.18-.63,17.55,17.55,0,0,1,9.51,2.43,7.93,7.93,0,0,1,3.87,7.17,17.07,17.07,0,0,1-1.08,6.51,9.25,9.25,0,0,1-2.7,3.87c-1.76,1.37-4.36,2-7.8,2a37.09,37.09,0,0,1-5.82-.6q.3,12,.24,15.12t-2.1,3.12c-.88,0-1.44-.15-1.68-.48a6.59,6.59,0,0,1-.48-.69,3,3,0,0,1-.24-.63c-.08-.27-.14-.51-.18-.69a5.43,5.43,0,0,1-.09-.81,6.32,6.32,0,0,0-.09-.84Q292.91,520.19,292.91,519.11ZM310,495.32a4.27,4.27,0,0,0-2.64-3.84,11.79,11.79,0,0,0-5.64-1.41,11.34,11.34,0,0,0-4.2.54q-.24,3.54-.24,6.51t.24,5.37q1.62.18,2.22.3a23.82,23.82,0,0,0,2.67.18q1.11,0,1.5,0t1.5-.18a3.39,3.39,0,0,0,1.59-.51q.48-.36,1.2-1a3.36,3.36,0,0,0,1-1.38A13.41,13.41,0,0,0,310,495.32Z"/><path class="cls-2" d="M320,516.89l.06-4.68.54-25.08a1.27,1.27,0,0,1,.78-1.14,4.15,4.15,0,0,1,2-.42q2.88,0,2.88,2c0,.44-.23,3.81-.69,10.08s-.69,10.05-.69,11.28v6.36q0,4.5.6,4.92a6.37,6.37,0,0,0,2.1.3l8.64-.6q2.82,0,2.82,2a2.48,2.48,0,0,1-1.53,2.37,7.77,7.77,0,0,1-3,.84q-1.5.09-3.66.09-9.42,0-10.2-.6-.42-.36-.48-2.73t-.09-3.33Q320,517.68,320,516.89Z"/><path class="cls-2" d="M356.21,485.69a3.08,3.08,0,0,1,2.52,1.32,25.42,25.42,0,0,1,2.64,5.46q3.78,9.79,7.38,30.66a3,3,0,0,1,.06.69,1.37,1.37,0,0,1-.57,1,2.35,2.35,0,0,1-1.62.51,3,3,0,0,1-1.77-.51,2.57,2.57,0,0,1-1-1.68q-.24-1.17-.9-4.59-1.44-7.62-1.92-7.92a19.27,19.27,0,0,0-4.77-.9c-2.7-.31-4.49-.48-5.37-.48a2.83,2.83,0,0,0-1.56.24c-.72.64-1.7,5.51-2.94,14.58q-.24,1.14-2.28,1.14t-2-1.74q0-4.32,3.18-16.5t5.28-16.14Q353.21,485.69,356.21,485.69Zm-.24,6.66q-.9,0-3.12,5.31t-2.22,6.57a.59.59,0,0,0,.12.42q.48.48,3.78.84t4.38.36q1.08,0,1.2-.15a2.08,2.08,0,0,0,.12-1,51,51,0,0,0-1.62-6.6C357.53,494.29,356.65,492.35,356,492.35Z"/><path class="cls-2" d="M380.63,510.71l.06-3.06a5.5,5.5,0,0,0-1-3.06q-1-1.5-4.77-8.7t-3.78-8.13a2.28,2.28,0,0,1,.78-1.68,2.26,2.26,0,0,1,1.53-.75q.75,0,1.8,1.38A69.86,69.86,0,0,1,379.4,494q3.09,5.88,3.57,6.48,5.76-10.2,9.24-14.4a2.4,2.4,0,0,1,1.35-.78,1.76,1.76,0,0,1,.75.12q1.44.6,1.44,1.59a3,3,0,0,1-.48,1.71q-.48.72-2.64,3.78a70.16,70.16,0,0,0-5.49,9q-2.31,4.53-2.31,5.55v11l.18,4.8a2.09,2.09,0,0,1-.72,1.83,3,3,0,0,1-1.77.51,1.41,1.41,0,0,1-1.41-1.14,11.47,11.47,0,0,1-.42-3c0-1.23-.06-3.06-.06-5.46Z"/><path class="cls-2" d="M425.81,485.69a3.08,3.08,0,0,1,2.52,1.32,25.42,25.42,0,0,1,2.64,5.46q3.78,9.79,7.38,30.66a3,3,0,0,1,.06.69,1.37,1.37,0,0,1-.57,1,2.35,2.35,0,0,1-1.62.51,3,3,0,0,1-1.77-.51,2.57,2.57,0,0,1-1-1.68q-.24-1.17-.9-4.59-1.44-7.62-1.92-7.92a19.27,19.27,0,0,0-4.77-.9c-2.7-.31-4.49-.48-5.37-.48a2.83,2.83,0,0,0-1.56.24c-.72.64-1.7,5.51-2.94,14.58q-.24,1.14-2.28,1.14t-2-1.74q0-4.32,3.18-16.5t5.28-16.14Q422.81,485.69,425.81,485.69Zm-.24,6.66q-.9,0-3.12,5.31t-2.22,6.57a.59.59,0,0,0,.12.42q.48.48,3.78.84t4.38.36q1.08,0,1.2-.15a2.08,2.08,0,0,0,.12-1,51,51,0,0,0-1.62-6.6C427.13,494.29,426.25,492.35,425.57,492.35Z"/><path class="cls-2" d="M459.41,485.39a12.6,12.6,0,0,1,5.73,1.44q2.85,1.44,2.85,3.24c0,1.85-.76,2.76-2.28,2.76a8,8,0,0,1-2.94-1.08,8.12,8.12,0,0,0-3.54-1.08,10.38,10.38,0,0,0-8.61,4.62c-2.3,3.09-3.45,7-3.45,11.76a18.22,18.22,0,0,0,2.34,9.36q2.34,4,5.55,4a6.29,6.29,0,0,0,5-2.13,7.21,7.21,0,0,0,1.83-4.83,12.3,12.3,0,0,0-.21-2.49,3.49,3.49,0,0,0-1.05-1.8,3.06,3.06,0,0,0-2.22-.81,5.88,5.88,0,0,1-2.61-.6,1.81,1.81,0,0,1-1.23-1.62,3.4,3.4,0,0,1,.6-1.92,2.38,2.38,0,0,1,1.62-1.08q4.08,0,5.49.84t2.13,1.38a3.94,3.94,0,0,1,1.2,1.8q.48,1.26.75,2.1a12.37,12.37,0,0,1,.39,2.7q.12,3.12.12,7.29t-.6,5.13a2.07,2.07,0,0,1-1.8.81,2.19,2.19,0,0,1-1.74-.51,4.37,4.37,0,0,1-.6-2.4,12.43,12.43,0,0,1-3.63,2.13,10.69,10.69,0,0,1-3.87.87q-5.28,0-8.88-5.61a24.52,24.52,0,0,1-3.6-13.53,25.46,25.46,0,0,1,1.38-8.25,20.75,20.75,0,0,1,3.72-6.81A15.4,15.4,0,0,1,459.41,485.39Z"/><path class="cls-2" d="M483.89,485.69a3.08,3.08,0,0,1,2.52,1.32,25.42,25.42,0,0,1,2.64,5.46q3.78,9.79,7.38,30.66a3,3,0,0,1,.06.69,1.37,1.37,0,0,1-.57,1,2.35,2.35,0,0,1-1.62.51,3,3,0,0,1-1.77-.51,2.57,2.57,0,0,1-1-1.68q-.24-1.17-.9-4.59-1.44-7.62-1.92-7.92a19.27,19.27,0,0,0-4.77-.9c-2.7-.31-4.49-.48-5.37-.48a2.83,2.83,0,0,0-1.56.24c-.72.64-1.7,5.51-2.94,14.58q-.24,1.14-2.28,1.14t-2-1.74q0-4.32,3.18-16.5t5.28-16.14Q480.89,485.69,483.89,485.69Zm-.24,6.66q-.9,0-3.12,5.31t-2.22,6.57a.59.59,0,0,0,.12.42q.48.48,3.78.84t4.38.36q1.08,0,1.2-.15a2.08,2.08,0,0,0,.12-1,51,51,0,0,0-1.62-6.6C485.21,494.29,484.33,492.35,483.65,492.35Z"/><path class="cls-2" d="M503.6,487.07a3.84,3.84,0,0,1,2.13-.6q1.2,0,1.5,1.38.06,7,.24,20.82,0,8.46-.48,14.34a2.35,2.35,0,0,1-1.11,1.59,3.49,3.49,0,0,1-2,.69,1.51,1.51,0,0,1-1.68-1.74q.6-6,.6-14.88l-.36-20.16A2.61,2.61,0,0,1,503.6,487.07Z"/><path class="cls-2" d="M538.67,485.51a2.37,2.37,0,0,1,1.74.81,2.64,2.64,0,0,1,.78,1.89q0,23.46.21,28.35t.21,5a4.65,4.65,0,0,1-.72,2.49q-.72,1.17-1.59,1.17a7.23,7.23,0,0,1-1.32-.09,6.77,6.77,0,0,1-.81-.21,1.89,1.89,0,0,1-.72-.48l-.6-.6a4.44,4.44,0,0,1-.63-.93l-.63-1.11c-.16-.27-.41-.77-.75-1.47s-1.08-2.13-2.22-4.29-2.17-4.09-3.09-5.82a92.9,92.9,0,0,0-8.82-13.74q0,19.51-1.08,27.06-.18,1.44-2.22,1.44a2.55,2.55,0,0,1-1.59-.48,1.84,1.84,0,0,1-.63-1.56q0-1.08.45-11.88t.45-13.47v-3.39q0-4.32.66-4.86a2.15,2.15,0,0,1,1.38-.54q3.3,0,10.08,10.8,1.32,2.1,5,8.79c2.48,4.47,4,7.21,4.44,8.25l-.72-24.9q0-5.16,1.14-5.88A3,3,0,0,1,538.67,485.51Z"/><path class="cls-3" d="M295.26,522.68q-.42-6.18-.42-16.71t.3-13.65a3.15,3.15,0,0,1,2.64-2.55,24.54,24.54,0,0,1,6.18-.63,17.55,17.55,0,0,1,9.51,2.43,7.93,7.93,0,0,1,3.87,7.17,17.1,17.1,0,0,1-1.08,6.51,9.25,9.25,0,0,1-2.7,3.87q-2.64,2-7.8,2a37.09,37.09,0,0,1-5.82-.6q.3,12,.24,15.12t-2.1,3.12q-1.32,0-1.68-.48a7.88,7.88,0,0,1-.48-.69,3,3,0,0,1-.24-.63q-.12-.42-.18-.69a5.43,5.43,0,0,1-.09-.81,6.32,6.32,0,0,0-.09-.84Q295.26,523.76,295.26,522.68Zm17.1-23.79a4.27,4.27,0,0,0-2.64-3.84,11.79,11.79,0,0,0-5.64-1.41,11.34,11.34,0,0,0-4.2.54q-.24,3.54-.24,6.51t.24,5.37q1.62.18,2.22.3a23.82,23.82,0,0,0,2.67.18q1.11,0,1.5,0t1.5-.18a3.51,3.51,0,0,0,1.59-.51q.48-.36,1.2-1a3.36,3.36,0,0,0,1-1.38A13.41,13.41,0,0,0,312.36,498.89Z"/><path class="cls-3" d="M322.32,520.46l.06-4.68.54-25.08a1.27,1.27,0,0,1,.78-1.14,4.15,4.15,0,0,1,2-.42q2.88,0,2.88,2c0,.44-.24,3.8-.69,10.08s-.69,10-.69,11.28v6.36q0,4.5.6,4.92a6.6,6.6,0,0,0,2.1.3l8.64-.6q2.82,0,2.82,2a2.48,2.48,0,0,1-1.53,2.37,8,8,0,0,1-3,.84q-1.5.09-3.66.09-9.42,0-10.2-.6-.42-.36-.48-2.73t-.09-3.33C322.32,521.56,322.32,521,322.32,520.46Z"/><path class="cls-3" d="M358.56,489.26a3.07,3.07,0,0,1,2.51,1.32,25.31,25.31,0,0,1,2.65,5.46q3.76,9.78,7.38,30.66a3.9,3.9,0,0,1,0,.69,1.4,1.4,0,0,1-.56,1,2.38,2.38,0,0,1-1.62.51,3,3,0,0,1-1.78-.51,2.63,2.63,0,0,1-1-1.68c-.16-.78-.46-2.31-.89-4.59-1-5.08-1.61-7.72-1.92-7.92a18.77,18.77,0,0,0-4.77-.9c-2.71-.32-4.5-.48-5.38-.48s-1.4.08-1.55.24q-1.08,1-3,14.58c-.16.76-.91,1.14-2.27,1.14s-2-.58-2-1.74q0-4.32,3.18-16.5t5.28-16.14C354.68,491,356.55,489.26,358.56,489.26Zm-.25,6.66c-.59,0-1.64,1.77-3.12,5.31S353,507,353,507.8a.54.54,0,0,0,.12.42c.31.32,1.58.6,3.78.84s3.65.36,4.38.36,1.11-.05,1.2-.15a2.34,2.34,0,0,0,.11-1,52,52,0,0,0-1.61-6.6C359.88,497.85,359,495.92,358.31,495.92Z"/><path class="cls-3" d="M383,514.28l.06-3.06a5.5,5.5,0,0,0-1-3.06q-1-1.5-4.77-8.7t-3.78-8.13a2.28,2.28,0,0,1,.78-1.68,2.26,2.26,0,0,1,1.53-.75q.75,0,1.8,1.38a69.86,69.86,0,0,1,4.14,7.26q3.09,5.88,3.57,6.48,5.76-10.2,9.24-14.4a2.34,2.34,0,0,1,1.35-.78,1.76,1.76,0,0,1,.75.12q1.44.6,1.44,1.59a3,3,0,0,1-.48,1.71q-.48.72-2.64,3.78a70.16,70.16,0,0,0-5.49,9q-2.31,4.53-2.31,5.55v11l.18,4.8a2.09,2.09,0,0,1-.72,1.83,3,3,0,0,1-1.77.51,1.41,1.41,0,0,1-1.41-1.14,11.47,11.47,0,0,1-.42-3q-.06-1.86-.06-5.46Z"/><path class="cls-3" d="M428.15,489.26a3.08,3.08,0,0,1,2.52,1.32,25.42,25.42,0,0,1,2.64,5.46q3.78,9.78,7.38,30.66a3,3,0,0,1,.06.69,1.38,1.38,0,0,1-.57,1,2.35,2.35,0,0,1-1.62.51,3,3,0,0,1-1.77-.51,2.59,2.59,0,0,1-1-1.68q-.24-1.17-.9-4.59-1.44-7.62-1.92-7.92a18.77,18.77,0,0,0-4.77-.9q-4-.48-5.37-.48a2.83,2.83,0,0,0-1.56.24q-1.08,1-2.94,14.58-.24,1.14-2.28,1.14t-2-1.74q0-4.32,3.18-16.5t5.28-16.14Q425.15,489.26,428.15,489.26Zm-.24,6.66q-.9,0-3.12,5.31t-2.22,6.57a.59.59,0,0,0,.12.42q.48.48,3.78.84t4.38.36q1.08,0,1.2-.15a2.11,2.11,0,0,0,.12-1,51,51,0,0,0-1.62-6.6Q428.93,495.92,427.91,495.92Z"/><path class="cls-3" d="M461.75,489a12.6,12.6,0,0,1,5.73,1.44q2.85,1.44,2.85,3.24,0,2.76-2.28,2.76a8,8,0,0,1-2.94-1.08,8.12,8.12,0,0,0-3.54-1.08,10.38,10.38,0,0,0-8.61,4.62q-3.45,4.62-3.45,11.76a18.27,18.27,0,0,0,2.34,9.36q2.34,4,5.55,4a6.29,6.29,0,0,0,5-2.13,7.21,7.21,0,0,0,1.83-4.83,12.3,12.3,0,0,0-.21-2.49,3.49,3.49,0,0,0-1.05-1.8,3.06,3.06,0,0,0-2.22-.81,5.88,5.88,0,0,1-2.61-.6,1.82,1.82,0,0,1-1.23-1.62,3.4,3.4,0,0,1,.6-1.92,2.38,2.38,0,0,1,1.62-1.08q4.08,0,5.49.84t2.13,1.38a3.94,3.94,0,0,1,1.2,1.8q.48,1.26.75,2.1a12.27,12.27,0,0,1,.39,2.7q.12,3.12.12,7.29t-.6,5.13a2.1,2.1,0,0,1-1.8.81,2.19,2.19,0,0,1-1.74-.51,4.4,4.4,0,0,1-.6-2.4,12.43,12.43,0,0,1-3.63,2.13,10.69,10.69,0,0,1-3.87.87q-5.28,0-8.88-5.61a24.52,24.52,0,0,1-3.6-13.53,25.42,25.42,0,0,1,1.38-8.25,20.75,20.75,0,0,1,3.72-6.81A15.4,15.4,0,0,1,461.75,489Z"/><path class="cls-3" d="M486.23,489.26a3.08,3.08,0,0,1,2.52,1.32,25.42,25.42,0,0,1,2.64,5.46q3.78,9.78,7.38,30.66a3,3,0,0,1,.06.69,1.38,1.38,0,0,1-.57,1,2.35,2.35,0,0,1-1.62.51,3,3,0,0,1-1.77-.51,2.59,2.59,0,0,1-1-1.68q-.24-1.17-.9-4.59-1.44-7.62-1.92-7.92a18.77,18.77,0,0,0-4.77-.9q-4.05-.48-5.37-.48a2.83,2.83,0,0,0-1.56.24q-1.08,1-2.94,14.58-.24,1.14-2.28,1.14t-2-1.74q0-4.32,3.18-16.5t5.28-16.14Q483.23,489.26,486.23,489.26Zm-.24,6.66q-.9,0-3.12,5.31t-2.22,6.57a.59.59,0,0,0,.12.42q.48.48,3.78.84t4.38.36q1.08,0,1.2-.15a2.11,2.11,0,0,0,.12-1,51,51,0,0,0-1.62-6.6Q487,495.92,486,495.92Z"/><path class="cls-3" d="M505.94,490.64a3.84,3.84,0,0,1,2.13-.6q1.2,0,1.5,1.38.06,7,.24,20.82,0,8.46-.48,14.34a2.35,2.35,0,0,1-1.11,1.59,3.49,3.49,0,0,1-2,.69,1.51,1.51,0,0,1-1.68-1.74q.6-6,.6-14.88l-.36-20.16A2.58,2.58,0,0,1,505.94,490.64Z"/><path class="cls-3" d="M541,489.08a2.37,2.37,0,0,1,1.74.81,2.64,2.64,0,0,1,.78,1.89q0,23.46.21,28.35t.21,5a4.67,4.67,0,0,1-.72,2.49q-.72,1.17-1.59,1.17a7.23,7.23,0,0,1-1.32-.09,6.77,6.77,0,0,1-.81-.21,1.89,1.89,0,0,1-.72-.48l-.6-.6a4.74,4.74,0,0,1-.63-.93l-.63-1.11q-.24-.42-.75-1.47T534,519.62q-1.71-3.24-3.09-5.82a92.9,92.9,0,0,0-8.82-13.74q0,19.5-1.08,27.06-.18,1.44-2.22,1.44a2.55,2.55,0,0,1-1.59-.48,1.84,1.84,0,0,1-.63-1.56q0-1.08.45-11.88t.45-13.47v-3.39q0-4.32.66-4.86a2.15,2.15,0,0,1,1.38-.54q3.3,0,10.08,10.8,1.32,2.1,5,8.79t4.44,8.25l-.72-24.9q0-5.16,1.14-5.88A3,3,0,0,1,541,489.08Z"/><g class="cls-5"><path class="cls-6" d="M312.71,326.85c-17.49,13.49-35,18.38-52.46,18.45a25.28,25.28,0,0,1-17.35-6c-7.23,5.27-14.71-1.5-7.52-10.57a25.94,25.94,0,0,1,22.85-35.21,25.55,25.55,0,0,1,23.5,13.52C293.36,320.47,303.59,326.56,312.71,326.85Z"/><path class="cls-7" d="M281.6,307a25.54,25.54,0,0,0-48.06,13.34,26.08,26.08,0,0,0,1.71,8.34c-7.19,9.08.3,15.85,7.53,10.57a25.3,25.3,0,0,0,17.35,6c17.48-.07,35-5,52.45-18.46C303.46,326.52,293.23,320.42,281.6,307Zm-22.06,34.84a24.67,24.67,0,0,1-15.85-5.43c-6.15,4.49-11.31.36-5.2-7.36a30.34,30.34,0,0,1-1.56-8.36,21.72,21.72,0,0,1,40.87-11.35c9.9,11.38,19.62,18.57,27.38,18.81C290.3,339.68,274.41,341.82,259.54,341.88Z"/></g><path class="cls-6" d="M298.12,330c-17.49,13.49-35,18.38-52.45,18.45a25.36,25.36,0,0,1-17.35-6c-7.23,5.27-14.71-1.5-7.53-10.57a26.19,26.19,0,0,1-1.7-8.35,25.54,25.54,0,0,1,48-13.34C278.77,323.62,289,329.71,298.12,330Z"/><path class="cls-7" d="M267,310.19A25.54,25.54,0,0,0,219,323.53a26.07,26.07,0,0,0,1.7,8.34c-7.18,9.08.3,15.85,7.53,10.57a25.28,25.28,0,0,0,17.35,6c17.48-.06,35-4.95,52.46-18.45C288.88,329.67,278.65,323.57,267,310.19ZM245,345a24.69,24.69,0,0,1-15.85-5.43c-6.14,4.49-11.31.36-5.2-7.36a31.1,31.1,0,0,1-1.56-8.37,21.73,21.73,0,0,1,40.88-11.34c9.89,11.38,19.62,18.57,27.38,18.81C275.72,342.83,259.82,345,245,345Z"/><path class="cls-7" d="M250.16,328.49c-7.62,9.54,1.84,14.36,7.89,7C254.11,333.55,252.85,332.14,250.16,328.49Z"/><path class="cls-8" d="M240.77,316.61a42.11,42.11,0,0,1,4.85-2.41,2,2,0,0,0-.51,1.16,2,2,0,1,0,2.23-1.82s0,0,0,0a42.69,42.69,0,0,1,6.41-1.85C256.17,322.61,243.4,325.85,240.77,316.61Z"/><polygon class="cls-8" points="231.96 325.74 233.16 324.49 235.14 326.87 237.7 325.5 239.31 327.22 242.19 325.37 243.45 326.83 239.62 329.48 237.38 327.74 234.93 329.2 231.96 325.74"/><path class="cls-8" d="M237.13,316.08a40.58,40.58,0,0,0-4.69-2.7,2,2,0,1,1-1.67-.77h0a46.09,46.09,0,0,0-6.29-2.24C221.39,321.12,234,325.15,237.13,316.08Z"/><path class="cls-9" d="M265.48,336.59a5.29,5.29,0,0,0,.75,5.29,50.43,50.43,0,0,0,21.28-10.37A79.22,79.22,0,0,1,265.48,336.59Z"/><path class="cls-10" d="M247.91,301.54c.51,1.28-5.85,1.08-10.26,2.82s-9.58,5.22-10.08,3.94,4.22-5.42,8.63-7.16S247.41,300.26,247.91,301.54Z"/><g class="cls-11"><path class="cls-6" d="M449.86,385.12c-17.49,13.5-24.62-6.67-42.1-6.6a25.28,25.28,0,0,1-17.35-6c-7.23,5.27-14.71-1.5-7.53-10.57a26.13,26.13,0,0,1-1.7-8.34,25.74,25.74,0,0,1,24.56-26.87c10.06-.39,16.36,5.94,23.5,13.53C440.87,353.69,440.74,384.84,449.86,385.12Z"/><path class="cls-7" d="M429.11,340.26c-9.23-10.87-13.44-13.92-23.5-13.52a25.74,25.74,0,0,0-24.56,26.86,26.08,26.08,0,0,0,1.71,8.34c-7.19,9.08.29,15.85,7.52,10.58a25.38,25.38,0,0,0,17.35,6c17.48-.07,24.74,20.14,42.23,6.64C440.74,384.84,440.74,353.65,429.11,340.26ZM407,375.1a24.71,24.71,0,0,1-15.85-5.43c-6.14,4.49-11.3.36-5.19-7.35a30.72,30.72,0,0,1-1.57-8.37,21.9,21.9,0,0,1,20.9-22.86c8.55-.34,14.55,5.51,20,11.51,9.9,11.38,12.36,42.84,20.12,43.08C430.17,389.85,421.92,375,407,375.1Z"/></g><path class="cls-6" d="M439.19,385.68c-17.49,13.49-24.62-6.67-42.1-6.61a25.28,25.28,0,0,1-17.35-6c-7.23,5.28-14.71-1.5-7.53-10.57a26.07,26.07,0,0,1-1.7-8.34,25.74,25.74,0,0,1,24.56-26.87c10.06-.39,16.36,5.94,23.5,13.53C430.2,354.24,430.07,385.39,439.19,385.68Z"/><path class="cls-7" d="M418.44,340.82C409.21,329.94,405,326.9,395,327.29a25.74,25.74,0,0,0-24.57,26.87,26.14,26.14,0,0,0,1.71,8.34c-7.19,9.07.3,15.84,7.52,10.57A25.28,25.28,0,0,0,397,379c17.48-.07,24.74,20.14,42.23,6.65C430.07,385.39,430.07,354.2,418.44,340.82Zm-22.07,34.84a24.77,24.77,0,0,1-15.84-5.43c-6.15,4.48-11.31.36-5.2-7.36a30.72,30.72,0,0,1-1.57-8.37,21.91,21.91,0,0,1,20.9-22.86c8.55-.33,14.56,5.52,20,11.51,9.9,11.39,12.36,42.84,20.12,43.08C419.5,390.4,411.25,375.6,396.37,375.66Z"/><path class="cls-7" d="M401.59,359.11c-7.63,9.55,1.84,14.36,7.89,7C405.53,364.18,404.27,362.76,401.59,359.11Z"/><path class="cls-8" d="M392.2,347.23a41.91,41.91,0,0,1,4.84-2.4,2.13,2.13,0,0,0-.51,1.15,2,2,0,1,0,2.23-1.82h0a45.56,45.56,0,0,1,6.41-1.85C407.6,353.23,394.82,356.48,392.2,347.23Z"/><polygon class="cls-8" points="383.38 356.37 384.59 355.12 386.56 357.5 389.13 356.13 390.74 357.85 393.62 356 394.88 357.45 391.04 360.1 388.81 358.36 386.35 359.82 383.38 356.37"/><path class="cls-8" d="M388.56,346.7a44.72,44.72,0,0,0-4.69-2.7,2.05,2.05,0,0,1,.43,1.19,2,2,0,1,1-2.11-2h0a43.42,43.42,0,0,0-6.28-2.24C372.82,351.74,385.37,355.77,388.56,346.7Z"/><path class="cls-9" d="M419.5,376c-.78,1.66-3.05,4.92-1.94,6.1,4.71,1.66,5.82,3.33,15,4.43C426.43,384.57,425.85,375.51,419.5,376Z"/><path class="cls-10" d="M399.34,332.17c.5,1.27-5.85,1.07-10.27,2.81s-9.57,5.22-10.08,3.95,4.22-5.42,8.64-7.16S398.83,330.89,399.34,332.17Z"/><g class="cls-5"><path class="cls-6" d="M529.54,270.3c-14,17.09-29.95,25.78-47,29.77a25.29,25.29,0,0,1-18.24-1.9c-5.86,6.76-14.67,1.84-9.71-8.61A25.95,25.95,0,0,1,469,250.11a25.56,25.56,0,0,1,25.93,7.9C509.25,268.44,520.59,272.08,529.54,270.3Z"/><path class="cls-7" d="M494.78,258A25.54,25.54,0,0,0,451,281.8a26,26,0,0,0,3.53,7.74c-5,10.46,3.86,15.38,9.71,8.61a25.27,25.27,0,0,0,18.25,1.91c17-4,33-12.69,47-29.77C520.45,272.06,509.12,268.42,494.78,258Zm-13.67,38.91a24.75,24.75,0,0,1-16.67-1.73c-5,5.75-10.94,2.89-6.72-6a31,31,0,0,1-3.4-7.81,21.72,21.72,0,0,1,37.28-20.24c12.2,8.86,23.29,13.68,30.91,12.18C510.59,287.84,495.58,293.5,481.11,296.91Z"/></g><path class="cls-6" d="M516,276.65c-14,17.08-29.94,25.78-47,29.77a25.27,25.27,0,0,1-18.25-1.91c-5.85,6.77-14.67,1.85-9.71-8.61a26,26,0,0,1-3.53-7.74,25.54,25.54,0,0,1,43.83-23.8C495.75,274.78,507.08,278.42,516,276.65Z"/><path class="cls-7" d="M481.27,264.34a25.55,25.55,0,0,0-43.83,23.81,26.39,26.39,0,0,0,3.54,7.74c-5,10.46,3.85,15.37,9.71,8.61a25.32,25.32,0,0,0,18.25,1.91c17-4,32.95-12.69,47-29.77C507,278.41,495.61,274.77,481.27,264.34ZM467.6,303.25a24.66,24.66,0,0,1-16.66-1.73c-5,5.76-10.94,2.9-6.72-6a30.54,30.54,0,0,1-3.4-7.8,21.73,21.73,0,0,1,37.28-20.25c12.2,8.87,23.29,13.69,30.91,12.18C497.09,294.19,482.08,299.85,467.6,303.25Z"/><path class="cls-7" d="M469,286c-5.28,11,5,13.58,9.27,5.05C474,290,472.4,288.91,469,286Z"/><path class="cls-8" d="M457.14,276.5a41.71,41.71,0,0,1,4.19-3.44,2,2,0,0,0-.24,1.24,2,2,0,0,0,4-.51,2,2,0,0,0-2.28-1.76h0a45.08,45.08,0,0,1,5.83-3.24C473.5,278.88,461.78,284.92,457.14,276.5Z"/><polygon class="cls-8" points="450.61 287.38 451.5 285.89 453.96 287.77 456.15 285.85 458.11 287.17 460.5 284.72 462.05 285.85 458.91 289.3 456.34 288.1 454.28 290.08 450.61 287.38"/><path class="cls-8" d="M453.48,276.8a41.49,41.49,0,0,0-5.18-1.58,2.05,2.05,0,0,1,.69,1.06,2,2,0,1,1-2.5-1.43h0a45.07,45.07,0,0,0-6.63-.77C439.27,285.25,452.41,286.35,453.48,276.8Z"/><path class="cls-9" d="M485.71,290.42a5.29,5.29,0,0,0,1.92,5A50.33,50.33,0,0,0,506,280.51,79.2,79.2,0,0,1,485.71,290.42Z"/><path class="cls-10" d="M460.71,260.21c.78,1.13-5.46,2.36-9.37,5.05s-8.15,7.24-8.93,6.11,2.89-6.23,6.81-8.92S459.94,259.08,460.71,260.21Z"/><path class="cls-12" d="M356.42,260.51,315,282.76a3.55,3.55,0,0,0-.19,6.15l40,24.72a3.56,3.56,0,0,0,5.42-2.92l1.42-47A3.56,3.56,0,0,0,356.42,260.51Z"/><rect class="cls-12" x="356.29" y="241.81" width="11.96" height="30.03" rx="1.29" transform="matrix(0.85, 0.53, -0.53, 0.85, 189.24, -152.15)"/><rect class="cls-12" x="362.98" y="241.64" width="14.38" height="4.34" rx="0.92" transform="translate(183.57 -158.25) rotate(31.73)"/><rect class="cls-13" x="362.79" y="241.72" width="14.38" height="4.34" rx="0.92" transform="translate(183.59 -158.14) rotate(31.73)"/><rect class="cls-14" x="357.9" y="244.06" width="2.05" height="21.95" rx="0.44" transform="translate(187.79 -150.66) rotate(31.73)"/><rect class="cls-14" x="337.19" y="263.86" width="2.05" height="21.95" rx="0.44" transform="translate(420.1 -153.2) rotate(61.73)"/></g></svg>