<svg xmlns="http://www.w3.org/2000/svg" width="130" height="113" viewBox="0 0 130 113"><defs><style>.cls-1{fill:#6a3f90;}.cls-2{fill:#4d2c71;}.cls-3{fill:#fff;}.cls-3,.cls-5{opacity:0.83;}.cls-4{fill:#33214b;}.cls-5{fill:#f8f7fa;}</style></defs><g id="mt_fuji" data-name="mt fuji"><path class="cls-1" d="M115.66,62.75c-18,12.81-35.66,17-53.13,16.39a25.32,25.32,0,0,1-17.11-6.63c-7.42,5-14.64-2.07-7.1-10.86A25.94,25.94,0,0,1,62.53,27.36a25.56,25.56,0,0,1,23,14.44C96.58,55.62,106.56,62.11,115.66,62.75Z"/><path class="cls-2" d="M85.35,41.75A25.54,25.54,0,0,0,36.81,53.21a26.23,26.23,0,0,0,1.38,8.4c-7.53,8.78-.32,15.84,7.11,10.85A25.3,25.3,0,0,0,62.4,79.1c17.47.61,35.13-3.59,53.14-16.4C106.44,62.06,96.45,55.57,85.35,41.75ZM62,75.7a24.72,24.72,0,0,1-15.63-6C40,73.9,35,69.58,41.41,62.1a30.71,30.71,0,0,1-1.23-8.42,21.73,21.73,0,0,1,41.29-9.75c9.44,11.76,18.88,19.33,26.62,19.87C92.78,74.7,76.81,76.22,62,75.7Z"/><path class="cls-2" d="M67.8,59.37c-8,9.24,1.28,14.42,7.61,7.31C71.54,64.59,70.34,63.13,67.8,59.37Z"/><path class="cls-3" d="M58.88,47.14a42.59,42.59,0,0,1,4.94-2.22,2,2,0,1,0,1.74-.6h0A45.13,45.13,0,0,1,72,42.72C74,53.73,61.14,56.48,58.88,47.14Z"/><polygon class="cls-3" points="49.71 55.92 50.97 54.72 52.85 57.18 55.47 55.91 57.01 57.69 59.96 55.95 61.16 57.45 57.23 59.95 55.06 58.13 52.55 59.49 49.71 55.92"/><path class="cls-3" d="M55.26,46.47a40.74,40.74,0,0,0-4.58-2.88,2,2,0,0,1,.39,1.2,2,2,0,1,1-2-2h0a44.63,44.63,0,0,0-6.19-2.48C39.34,50.89,51.72,55.4,55.26,46.47Z"/><path class="cls-4" d="M82.79,68.07a5.3,5.3,0,0,0,.54,5.32A50.38,50.38,0,0,0,105,63.85,79.29,79.29,0,0,1,82.79,68.07Z"/><path class="cls-5" d="M66.6,32.36c.45,1.29-5.89.85-10.37,2.41S46.46,39.62,46,38.32s4.43-5.25,8.91-6.82S66.15,31.06,66.6,32.36Z"/></g></svg>