<svg xmlns="http://www.w3.org/2000/svg" width="1920" height="1080" viewBox="0 0 1920 1080"><defs><style>.cls-1{fill:#c04a22;}.cls-2,.cls-3{fill:#fff;}.cls-2{opacity:0.89;}.cls-4{fill:#ffe600;}</style></defs><g id="Opening-titles"><path class="cls-1" d="M1380.24,886.62H539.76c-35.89,0-65.26-28.21-65.26-62.7V260.1c0-34.48,32.33-51.37,65.26-62.7C799.22,129,1076.08,129,1378.5,199.8c26,8.45,67,25.82,67,60.3V823.92C1445.5,858.41,1416.13,886.62,1380.24,886.62Z"/><rect class="cls-2" x="499.5" y="291.62" width="914" height="543" rx="99.47"/><path class="cls-3" d="M744.64,265.19c-.37-1.8.58-2.94,2.83-3.4l1.35-.27a4.35,4.35,0,0,0,1-.1,1.5,1.5,0,0,0,1.18-.83,3.88,3.88,0,0,0,0-2.11q-2-9.57-6.48-25.9-4.53-17-6.34-25.82c-.43-2.1-.78-4-1.06-5.77l-1.06-5.77a47.58,47.58,0,0,0-1.61-6.13,7.55,7.55,0,0,1-2.5,1c-1.73.36-2.77-.37-3.14-2.17a2.9,2.9,0,0,1,1.15-2.7,12,12,0,0,1,3.92-2.33,51.81,51.81,0,0,1,7.84-2.43,3.33,3.33,0,0,1,2.49.43,2.94,2.94,0,0,1,1.4,1.95,3.38,3.38,0,0,1-.29,2.29,2.35,2.35,0,0,1-1.68,1.28,5.16,5.16,0,0,1-1.15.12l-.9.18a2.35,2.35,0,0,0-1.53.84,2.71,2.71,0,0,0-.13,2q2.44,11.94,8.2,32.6,5.85,21.69,8.11,32.73l.87,4.28a18.3,18.3,0,0,1,2.23-.57q4.74-1,5.54,3l.14.68-2.42,2.49c-.08,0-.3.08-.67.19s-1.11.29-2.24.52c-2.52.68-4.08,1.07-4.69,1.2Q745.33,268.57,744.64,265.19Z"/><path class="cls-3" d="M791.3,237.62q-12.54-26-22.19-47.93l6.27,37.2q.81,4.76,3.64,16.06,2.9,12.35,3.51,16a2.11,2.11,0,0,1-.95,2,5.47,5.47,0,0,1-2.71,1.21c-1.59.27-2.48-.2-2.69-1.41l-.32-3.33c-.26-2.44-.45-4-.58-4.8q-1-6-3.89-18.93-2.92-13.15-3.4-16l-2.45-14.52c-.39-2.34-.87-5.84-1.42-10.49-.37-4-.8-7.56-1.3-10.51l-.12-.68q-.94-5.67,1.54-6.09,1.47-.24,4.59,4.36,5.11,7.53,14.46,27.65,5.34,11.7,13,30.23-.19-.43,3.14,7.52l.2.54q-1.85-11-3.1-19.77l-3.1-19.77-5.66-33.56q0-2.91,3.15-3.45t3.81,3.91l.12.68a7.34,7.34,0,0,0-.13,3.4q1.17,6.91,3.18,20.92t3.22,21.15L807,253.75a6.94,6.94,0,0,1-.38,3.62,2.78,2.78,0,0,1-2.05,2Q802.28,259.79,791.3,237.62Z"/><path class="cls-3" d="M821.79,256.14q-1.95-.78-2.13-2.16a3.42,3.42,0,0,1,.4-2.31,2.32,2.32,0,0,1,1.82-1.1,9.53,9.53,0,0,1,3.43.48,13.1,13.1,0,0,0,3.08.53,5.36,5.36,0,0,0,3.7-2.39,13.48,13.48,0,0,0,2.15-5.32,30.93,30.93,0,0,0,.72-10.53,38.14,38.14,0,0,0-2.87-10.13,58.79,58.79,0,0,0-5.53-10l-2.3-3.41q-3.59-5.34-5.55-8.44a51.7,51.7,0,0,1-3.61-6.84A35.8,35.8,0,0,1,812,184.12a21.1,21.1,0,0,1,.42-7.94,15.92,15.92,0,0,1,3.48-6.71,9.88,9.88,0,0,1,6.72-3.65,7.56,7.56,0,0,1,4.15.68,6.76,6.76,0,0,1,3.12,2.67l-1.63,2.64a7.27,7.27,0,0,1-4.59-.56,5.57,5.57,0,0,0-3.34,2.46,12.32,12.32,0,0,0-1.81,4.35,14.31,14.31,0,0,0-.12,4.42,34.34,34.34,0,0,0,2.34,8.69,46.59,46.59,0,0,0,4.23,8.09l10,14.93a44.55,44.55,0,0,1,4.27,8.84,47.76,47.76,0,0,1,2.47,10.12A29.11,29.11,0,0,1,840,247.77a15.48,15.48,0,0,1-4.32,6.06,12.33,12.33,0,0,1-6.58,2.88A15.64,15.64,0,0,1,821.79,256.14Z"/><path class="cls-3" d="M862.46,249.4a7.92,7.92,0,0,1-1.37-4q-.37-3.78-.45-9.32l-.06-3-.37-6.09q-.39-4-2.54-17.77t-2.55-17.78c0-.23,0-.67-.07-1.32s-.11-1.67-.24-3c-.07-1.53-.22-3.4-.43-5.62q-.82-8.35-2.19-10.53a26.68,26.68,0,0,0-2.94.63l-3.18.55a4.33,4.33,0,0,1-2.72-.61,2.66,2.66,0,0,1-1.36-2.12c-.09-.91.75-1.8,2.51-2.67,2.58-1.17,7.06-2.27,13.43-3.27,2.58-.41,4.14-.64,4.67-.69a3.94,3.94,0,0,1,2.61.67,2.95,2.95,0,0,1,.61,4.5,3.6,3.6,0,0,1-2.38,1.1l-2.07.09a16.89,16.89,0,0,0-2.07.08l-1.14.12a139,139,0,0,1,2.17,14l.61,7.33c.14,2.22.34,4.71.61,7.45q.54,5.49,1.74,13.12c1,6.3,1.62,10.66,1.86,13.11.29,2.9.77,6.32,1.47,10.25s1.18,7.44,1.46,10.26c.37,3.74-.56,5.71-2.77,5.93A3,3,0,0,1,862.46,249.4Z"/><path class="cls-3" d="M902.91,245.06l0-.35a81.35,81.35,0,0,0-3-13.4q-2.22-7.34-6.25-17.68-3.06-7.74-5.2-13.94l3,45.21a4.51,4.51,0,0,1-.45,2.74,2.9,2.9,0,0,1-2.41,1,2.83,2.83,0,0,1-2.23-.71,3.19,3.19,0,0,1-1-2.19l-.06-.91-2-33.75q-.78-14.94-2-33.64l-1-14.11a2.49,2.49,0,0,1,.45-1.93,3.84,3.84,0,0,1,2.38-.68,12.65,12.65,0,0,1,5.35.74,12.15,12.15,0,0,1,4.33,2.76,19.63,19.63,0,0,1,5.24,9.33,27.88,27.88,0,0,1,.77,9.05c-.1,1.39-.17,2.28-.22,2.67a28.26,28.26,0,0,1-.8,3.51c-.44,1.57-.71,2.59-.84,3l-1.16,3.31-1,3.06a60.37,60.37,0,0,0,2.14,10.34q1.74,6.23,3.7,11.51c.94,2.48,2.59,6.59,5,12.35l4,9.87,0,.23a14.14,14.14,0,0,1-.13,3.35,2.14,2.14,0,0,1-2.28,2Q905.17,248,902.91,245.06Zm-11.42-55.25,1.06-10a9.22,9.22,0,0,0,0-1.61,28.06,28.06,0,0,0-1.78-7.6,12.07,12.07,0,0,0-2-3.39,3.45,3.45,0,0,0-2.34-1.4l.54,11.49q.16,7.73.45,12c.18,2.68.33,4.44.47,5.27A55.71,55.71,0,0,0,891.49,189.81Z"/><path class="cls-3" d="M927.06,241.72a40.19,40.19,0,0,1-6.75-15.34,134.51,134.51,0,0,1-3.23-20.85q-.86-10.09-1.18-21.94l-.27-9.54q0-4-.12-8.51a3.09,3.09,0,0,1-1-2.27,3.46,3.46,0,0,1,1-2.5,3.11,3.11,0,0,1,2.27-1.16q4.14-.12,4.37,8,.14,5.28,1.13,20t1.13,20a29.49,29.49,0,0,1,1.26,6,65.24,65.24,0,0,1,.72,7.34,30.53,30.53,0,0,0,1,6.24,47.21,47.21,0,0,0,2.51,7.47,19.49,19.49,0,0,0,4.09,6.5,7,7,0,0,0,5.13,2.44,3.78,3.78,0,0,0,2.67-1.11,5.25,5.25,0,0,0,1.36-3,30.05,30.05,0,0,0,.51-6.35L943,210.68a92,92,0,0,0-1.11-10.79q-.89-7.21-1-10.9l0-.8c0-1.23-.1-2.34-.2-3.33l-.21-3.33c-.06-2.15-.27-5.4-.62-9.77-.41-3.9-.66-7.19-.73-9.87a2.62,2.62,0,0,1,1.26-2.22,5,5,0,0,1,2.9-1l3,2.56.06,2a15.26,15.26,0,0,1-.37,3.34c-.25,2.16-.37,3.39-.36,3.7q.3,10.46,2,28.82,1.57,19.27,1.88,30a40.52,40.52,0,0,1-.87,10.15,12.27,12.27,0,0,1-1.78,4.31,10.38,10.38,0,0,1-3.2,2.85,10,10,0,0,1-5,1.29A12.91,12.91,0,0,1,927.06,241.72Z"/><path class="cls-3" d="M973.63,245.68a15.18,15.18,0,0,1-4.6-4.09,26.35,26.35,0,0,1-3-6.2,42.92,42.92,0,0,1-2-7.79,116.31,116.31,0,0,1-1.59-17.85q-.08-2.64,0-9.08l.11-7.25c.1-2.07.17-4.21.2-6.44a55.55,55.55,0,0,1,1-10.68,18.18,18.18,0,0,1-.29-3.57,13.73,13.73,0,0,1,5.33-11.08q5.24-4.17,13.17-4.07a10.14,10.14,0,0,1,5.49,1.69,4.72,4.72,0,0,1,2.48,4.06,2.19,2.19,0,0,1-.95,1.83,3.76,3.76,0,0,1-2.31.66,9.91,9.91,0,0,1-2.47-.38,2.44,2.44,0,0,1-1.65-1.06l-1.49,0v-.23a13.07,13.07,0,0,0-7.16,1.73,9.71,9.71,0,0,0-3.29,4.9,14.47,14.47,0,0,0-.73,3.21,30.16,30.16,0,0,0-.28,3.56,36.56,36.56,0,0,0-.17,3.68l.17,4,.06,3.91a21,21,0,0,1-.51,4,23.35,23.35,0,0,0-.64,4l0,2.76q-.06,4.49.17,12.31A70.59,70.59,0,0,0,970,225.39a26.08,26.08,0,0,0,3.77,10.4,8.46,8.46,0,0,0,7.41,4.48,9,9,0,0,0,4.86-2c2.09-1.35,3.55-2,4.4-2A4.86,4.86,0,0,1,993.7,238a7.59,7.59,0,0,1-3.32,6.51,16.33,16.33,0,0,1-7.16,2.54q-2.31.19-3.69.18A12.07,12.07,0,0,1,973.63,245.68Z"/><path class="cls-3" d="M1007.7,245.46a7.93,7.93,0,0,1-.78-4.13q.18-3.79.91-9.28l.37-3,.53-6.07q.19-4,.06-18t.06-18c0-.23,0-.67.13-1.32s.13-1.66.2-3q.23-2.29.39-5.62.4-8.39-.63-10.74a26.17,26.17,0,0,0-3,.2l-3.22.07a4.21,4.21,0,0,1-2.6-1,2.68,2.68,0,0,1-1-2.3c0-.92,1-1.68,2.87-2.28q4.08-1.19,13.76-1.29c2.61,0,4.19,0,4.72,0a4,4,0,0,1,2.49,1,2.82,2.82,0,0,1,1,2.35,2.85,2.85,0,0,1-1.08,2.2,3.61,3.61,0,0,1-2.51.74l-2.06-.22a16.79,16.79,0,0,0-2.07-.21l-1.14-.06a138.54,138.54,0,0,1,.11,14.17l-.47,7.35q-.27,3.31-.47,7.46-.27,5.51-.18,13.23.1,9.55-.07,13.23c-.14,2.92-.16,6.37,0,10.37s.09,7.52,0,10.36c-.18,3.75-1.39,5.57-3.61,5.46A3,3,0,0,1,1007.7,245.46Z"/><path class="cls-3" d="M1028.87,243.9c.14-1.84,1.36-2.66,3.66-2.48l1.37.1a3.85,3.85,0,0,0,1,.2,1.5,1.5,0,0,0,1.37-.47,3.92,3.92,0,0,0,.56-2q.76-9.75.93-26.69.35-17.62,1-26.57c.17-2.13.36-4.08.58-5.83l.57-5.84a47.27,47.27,0,0,0,.15-6.33,7.73,7.73,0,0,1-2.67.25c-1.76-.14-2.57-1.13-2.43-3a2.93,2.93,0,0,1,1.85-2.28,12.24,12.24,0,0,1,4.42-1.15,52,52,0,0,1,8.2-.17,3.31,3.31,0,0,1,2.28,1.1,3,3,0,0,1,.81,2.26,3.4,3.4,0,0,1-.92,2.12,2.35,2.35,0,0,1-2,.77,5.06,5.06,0,0,1-1.14-.21l-.92-.07a2.27,2.27,0,0,0-1.7.39,2.65,2.65,0,0,0-.66,1.85q-1,12.15-1.13,33.59-.37,22.47-1.26,33.7l-.34,4.36a19.78,19.78,0,0,1,2.31.06c3.21.25,4.71,1.72,4.5,4.39l-.06.69-3,1.73h-.69c-.38,0-1.15,0-2.29-.12-2.62,0-4.23-.1-4.84-.15Q1028.61,247.34,1028.87,243.9Z"/><path class="cls-3" d="M1069.22,252.24a17.51,17.51,0,0,1-3.71-6.09q-2.61-6.54-3-17.47-.3-7.55.23-17.33l.57-6.07.7-6.17q.23-3,.71-7.21a111.7,111.7,0,0,1,1.94-12.05,45.51,45.51,0,0,1,3.52-10.6,12.51,12.51,0,0,1,6-6,10.29,10.29,0,0,1,4.22-.45,11.39,11.39,0,0,1,9.06,5.89,30,30,0,0,1,3.78,12.58,80.93,80.93,0,0,1,.32,15.55q-.46,8.16-1.28,15.36l-.74,6.51c-.15,1.3-.61,3.72-1.4,7.25a69.19,69.19,0,0,0-1.27,7.15l0,.46a36,36,0,0,0-1.54,7.46,18,18,0,0,1-2.13,6.47,16.38,16.38,0,0,1-4.54,5.39,7.65,7.65,0,0,1-6,2.1A8.68,8.68,0,0,1,1069.22,252.24Zm10.67-7.35a41.26,41.26,0,0,0,3-9q1.24-5.35,2.48-12.16c.38-2,.74-4.51,1.1-7.63l1.07-10.53q.48-6.19.38-15.58a52,52,0,0,0-1.85-14.33,12.22,12.22,0,0,0-2.35-4.78,5.28,5.28,0,0,0-3.47-2c-1.91-.22-3.49,1.11-4.74,4a42.89,42.89,0,0,0-3.45,10q-1.36,6-2.11,11.45l-.54,3.76c-.2,1-.4,2.5-.61,4.33l0,.45a138.08,138.08,0,0,0-.53,19q.1,15.4,2.92,22.2,1.83,4.26,4.34,4.55C1077.05,248.85,1078.5,247.59,1079.89,244.89Z"/><path class="cls-3" d="M1121.82,236q-3.64-28.62-5.83-52.49l-5.86,37.26q-.75,4.77-1.64,16.39-1.18,12.63-1.75,16.26c-.1.68-.61,1.2-1.52,1.56a5.45,5.45,0,0,1-3,.29q-2.38-.37-2.1-2.19l.75-3.26c.53-2.4.85-4,1-4.73q.94-6,2.32-19.19,1.41-13.41,1.86-16.24l2.29-14.55q.56-3.51,2-10.39c.93-4,1.64-7.43,2.1-10.38l.11-.68q.89-5.68,3.39-5.29c1,.15,2,2,3,5.59q2.46,8.76,4.94,30.81,1.35,12.78,2.75,32.79,0-.47.59,8.13l0,.58q1.74-11,3.34-19.73l3.33-19.73,5.29-33.62q.9-2.77,4.09-2.27t2.37,4.91l-.11.68a7.34,7.34,0,0,0-1.2,3.19q-1.1,6.93-3.63,20.85T1137,221.63l-5.45,34.64a7,7,0,0,1-1.51,3.32,2.81,2.81,0,0,1-2.59,1.28Q1125.18,260.51,1121.82,236Z"/><path class="cls-3" d="M1144.84,263.27c-1.07-.92-1.51-1.83-1.33-2.73a3.54,3.54,0,0,1,1.11-2.07,2.36,2.36,0,0,1,2.09-.46,9.68,9.68,0,0,1,3.09,1.55,12.57,12.57,0,0,0,2.75,1.48,5.32,5.32,0,0,0,4.26-1.09,13.3,13.3,0,0,0,3.74-4.35,30.81,30.81,0,0,0,4-9.75,38,38,0,0,0,.51-10.51,58.6,58.6,0,0,0-2-11.26l-1.09-4c-1.14-4.14-2-7.39-2.58-9.78a52.64,52.64,0,0,1-1.24-7.63,35.85,35.85,0,0,1,.39-10.82,21.41,21.41,0,0,1,2.93-7.4,15.78,15.78,0,0,1,5.44-5.25,9.91,9.91,0,0,1,7.53-1.32,7.61,7.61,0,0,1,3.71,2,6.73,6.73,0,0,1,2.12,3.53l-2.39,2a7.16,7.16,0,0,1-4.17-2,5.6,5.6,0,0,0-4,1.27,12.5,12.5,0,0,0-3.11,3.55,14.44,14.44,0,0,0-1.52,4.15,34.5,34.5,0,0,0-.55,9,48,48,0,0,0,1.43,9l4.77,17.36a44.24,44.24,0,0,1,1.23,9.74,47.65,47.65,0,0,1-.88,10.37,29.09,29.09,0,0,1-6.39,13.27,15.31,15.31,0,0,1-6,4.38,12.47,12.47,0,0,1-7.16.63A15.89,15.89,0,0,1,1144.84,263.27Z"/><path class="cls-4" d="M746.3,266.61c-.37-1.8.58-2.93,2.83-3.39l1.35-.28a4.88,4.88,0,0,0,1-.09,1.52,1.52,0,0,0,1.18-.83,3.88,3.88,0,0,0,0-2.11q-2-9.57-6.48-25.91-4.55-17-6.34-25.82-.65-3.15-1.06-5.77l-1.06-5.76a48.81,48.81,0,0,0-1.61-6.13,7.86,7.86,0,0,1-2.5,1c-1.73.35-2.78-.37-3.14-2.18a2.89,2.89,0,0,1,1.14-2.7,12.26,12.26,0,0,1,3.93-2.32,49.61,49.61,0,0,1,7.84-2.43,3.33,3.33,0,0,1,2.49.43,2.92,2.92,0,0,1,1.4,1.94,3.32,3.32,0,0,1-.3,2.29,2.29,2.29,0,0,1-1.67,1.28,4.23,4.23,0,0,1-1.15.12l-.9.19a2.27,2.27,0,0,0-1.53.84,2.69,2.69,0,0,0-.13,2q2.45,11.94,8.2,32.6,5.85,21.69,8.11,32.73l.87,4.29A16.35,16.35,0,0,1,761,260c3.16-.64,5,.35,5.54,3l.14.67-2.43,2.49-.66.2c-.37.11-1.11.29-2.24.52-2.53.67-4.09,1.07-4.69,1.19Q747,270,746.3,266.61Z"/><path class="cls-4" d="M793,239q-12.54-26-22.19-47.92L777,228.31q.81,4.77,3.64,16.07,2.9,12.35,3.51,16a2.09,2.09,0,0,1-1,2,5.48,5.48,0,0,1-2.71,1.22c-1.59.27-2.48-.2-2.69-1.41l-.33-3.33c-.25-2.44-.44-4.05-.57-4.8q-1-6-3.89-18.94-2.92-13.16-3.4-16l-2.45-14.51c-.39-2.34-.87-5.84-1.42-10.49-.37-4.06-.81-7.56-1.3-10.51l-.12-.68c-.64-3.78-.12-5.81,1.54-6.09,1-.17,2.51,1.29,4.58,4.36q5.13,7.53,14.46,27.65,5.35,11.69,13,30.22c-.13-.29.92,2.22,3.13,7.52l.21.55q-1.84-11-3.1-19.77l-3.1-19.77L789.45,174c0-1.94,1-3.09,3.15-3.44s3.31.95,3.81,3.9l.11.68a7.39,7.39,0,0,0-.12,3.41q1.17,6.91,3.18,20.92t3.21,21.15l5.84,34.59a7,7,0,0,1-.38,3.62,2.78,2.78,0,0,1-2,2Q803.92,261.22,793,239Z"/><path class="cls-4" d="M823.45,257.57q-2-.79-2.13-2.16a3.42,3.42,0,0,1,.4-2.31,2.36,2.36,0,0,1,1.82-1.11,9.39,9.39,0,0,1,3.43.49,12.77,12.77,0,0,0,3.08.52,5.29,5.29,0,0,0,3.69-2.39,13.28,13.28,0,0,0,2.16-5.32,31.19,31.19,0,0,0,.72-10.53,38.08,38.08,0,0,0-2.87-10.12,58.72,58.72,0,0,0-5.53-10l-2.3-3.42q-3.58-5.33-5.55-8.44a51.09,51.09,0,0,1-3.61-6.84,35.74,35.74,0,0,1-3.08-10.38,21.08,21.08,0,0,1,.42-7.94,15.59,15.59,0,0,1,3.48-6.71,9.91,9.91,0,0,1,6.72-3.66,7.52,7.52,0,0,1,4.14.69,6.78,6.78,0,0,1,3.13,2.66l-1.63,2.65a7.18,7.18,0,0,1-4.59-.57,5.54,5.54,0,0,0-3.34,2.47,12.32,12.32,0,0,0-1.81,4.35,14.63,14.63,0,0,0-.13,4.42,35.13,35.13,0,0,0,2.34,8.68,47.32,47.32,0,0,0,4.24,8.09l10.05,14.94a44.55,44.55,0,0,1,4.27,8.84,47.46,47.46,0,0,1,2.47,10.12,29.07,29.07,0,0,1-1.82,14.61,15.52,15.52,0,0,1-4.32,6.07,12.52,12.52,0,0,1-6.58,2.88A15.91,15.91,0,0,1,823.45,257.57Z"/><path class="cls-4" d="M864.12,250.83a7.86,7.86,0,0,1-1.37-4q-.37-3.78-.45-9.31l-.06-3-.37-6.09q-.39-4-2.54-17.78t-2.55-17.77c0-.23,0-.67-.07-1.33s-.11-1.66-.24-3q-.12-2.31-.43-5.62-.82-8.35-2.19-10.54a27.65,27.65,0,0,0-2.94.64l-3.18.54A4.26,4.26,0,0,1,845,173a2.69,2.69,0,0,1-1.36-2.12c-.09-.92.74-1.81,2.51-2.67q3.87-1.77,13.43-3.28c2.58-.41,4.13-.64,4.67-.69a4,4,0,0,1,2.61.67,2.84,2.84,0,0,1,1.36,2.18,2.87,2.87,0,0,1-.75,2.33,3.59,3.59,0,0,1-2.38,1.09l-2.07.09a17,17,0,0,0-2.07.09l-1.14.11a139.47,139.47,0,0,1,2.17,14l.6,7.34q.21,3.33.62,7.45c.35,3.66.94,8,1.74,13.11q1.5,9.45,1.86,13.11.42,4.35,1.46,10.26t1.47,10.25q.54,5.61-2.77,5.94A3,3,0,0,1,864.12,250.83Z"/><path class="cls-4" d="M904.56,246.48l0-.34a81.13,81.13,0,0,0-3-13.4q-2.22-7.35-6.25-17.68-3.06-7.76-5.2-13.95l3,45.21a4.63,4.63,0,0,1-.45,2.74,2.9,2.9,0,0,1-2.41,1,2.82,2.82,0,0,1-2.23-.72,3.12,3.12,0,0,1-1-2.18l-.06-.92-2-33.75q-.76-14.93-2-33.63l-1-14.12a2.49,2.49,0,0,1,.45-1.93,3.83,3.83,0,0,1,2.37-.68,12.68,12.68,0,0,1,5.36.74,12.15,12.15,0,0,1,4.33,2.76,19.64,19.64,0,0,1,5.23,9.34,27.59,27.59,0,0,1,.82,5.24,28.86,28.86,0,0,1,0,3.81c-.1,1.39-.17,2.28-.22,2.67a29.6,29.6,0,0,1-.81,3.51c-.43,1.56-.71,2.58-.83,3.05l-1.16,3.3-.95,3.06A61.46,61.46,0,0,0,898.72,210q1.74,6.22,3.71,11.51,1.4,3.7,5,12.34l4,9.88V244a13.68,13.68,0,0,1-.12,3.35,2.15,2.15,0,0,1-2.28,2C907.56,249.39,906.08,248.45,904.56,246.48Zm-11.41-55.25,1.06-10a9.36,9.36,0,0,0,0-1.62,28.53,28.53,0,0,0-1.78-7.6,12,12,0,0,0-2-3.38,3.38,3.38,0,0,0-2.34-1.4l.53,11.49q.18,7.71.46,11.95c.18,2.68.33,4.44.47,5.28C890.54,194.82,891.74,193.25,893.15,191.23Z"/><path class="cls-4" d="M928.72,243.15A40.09,40.09,0,0,1,922,227.8,134.38,134.38,0,0,1,918.74,207q-.86-10.11-1.19-21.94l-.26-9.55q0-4-.12-8.51a3.12,3.12,0,0,1-1-2.27,3.53,3.53,0,0,1,1-2.5,3.12,3.12,0,0,1,2.27-1.16q4.14-.1,4.36,8.05.15,5.29,1.14,20t1.13,20a29.66,29.66,0,0,1,1.26,5.95,70.59,70.59,0,0,1,.72,7.34,30.72,30.72,0,0,0,1,6.25,47.44,47.44,0,0,0,2.51,7.46,19.39,19.39,0,0,0,4.09,6.5,7,7,0,0,0,5.13,2.45,3.78,3.78,0,0,0,2.67-1.11,5.28,5.28,0,0,0,1.36-3,30,30,0,0,0,.51-6.34l-.63-22.42a89.48,89.48,0,0,0-1.1-10.78q-.9-7.23-1-10.9l0-.81q0-1.83-.21-3.33l-.2-3.33c-.06-2.14-.27-5.4-.62-9.76-.42-3.9-.66-7.19-.74-9.87A2.63,2.63,0,0,1,942,161.1a5,5,0,0,1,2.9-1l3,2.57,0,2a14.67,14.67,0,0,1-.36,3.35q-.37,3.22-.36,3.69.28,10.46,1.95,28.82,1.58,19.29,1.87,30a40,40,0,0,1-.86,10.14,12.38,12.38,0,0,1-1.78,4.31,10.26,10.26,0,0,1-3.2,2.85,10,10,0,0,1-5,1.29A12.9,12.9,0,0,1,928.72,243.15Z"/><path class="cls-4" d="M975.29,247.1a14.94,14.94,0,0,1-4.6-4.09,26.65,26.65,0,0,1-3-6.19,44,44,0,0,1-1.95-7.79,116.56,116.56,0,0,1-1.59-17.85c0-1.77,0-4.79,0-9.09l.1-7.24q.16-3.1.21-6.44a54.75,54.75,0,0,1,1-10.68,18.31,18.31,0,0,1-.3-3.57,13.75,13.75,0,0,1,5.34-11.08q5.24-4.19,13.17-4.07a10.06,10.06,0,0,1,5.49,1.69,4.68,4.68,0,0,1,2.47,4.06,2.17,2.17,0,0,1-.94,1.82,3.76,3.76,0,0,1-2.31.66,9.91,9.91,0,0,1-2.47-.38,2.38,2.38,0,0,1-1.65-1.06l-1.5,0v-.23a13,13,0,0,0-7.16,1.74,9.66,9.66,0,0,0-3.29,4.9,14.47,14.47,0,0,0-.73,3.21,28,28,0,0,0-.28,3.56,33.51,33.51,0,0,0-.17,3.68l.17,4,.06,3.91a21.1,21.1,0,0,1-.52,4,24.15,24.15,0,0,0-.63,4l0,2.76q-.06,4.49.17,12.31a69.67,69.67,0,0,0,1.31,13.13,25.93,25.93,0,0,0,3.77,10.4,8.44,8.44,0,0,0,7.41,4.48q2,0,4.86-2c2.09-1.35,3.55-2,4.4-2a5,5,0,0,1,3.31,1.77A7.59,7.59,0,0,1,992,246a16.33,16.33,0,0,1-7.16,2.55,36.91,36.91,0,0,1-3.69.17A12.07,12.07,0,0,1,975.29,247.1Z"/><path class="cls-4" d="M1009.35,246.88a8.1,8.1,0,0,1-.78-4.12q.2-3.8.91-9.29l.38-3,.52-6.08q.2-4,.07-18t.06-18q0-.34.12-1.32c.07-.65.14-1.67.21-3,.15-1.53.28-3.4.39-5.63q.4-8.37-.64-10.73a23.83,23.83,0,0,0-3,.2l-3.23.07a4.33,4.33,0,0,1-2.6-1,2.72,2.72,0,0,1-1-2.3c0-.91,1-1.67,2.88-2.27q4.08-1.19,13.76-1.29c2.61,0,4.19,0,4.72,0a4,4,0,0,1,2.48,1.05,2.8,2.8,0,0,1,1,2.35,2.85,2.85,0,0,1-1.08,2.19,3.61,3.61,0,0,1-2.51.74l-2.07-.21a16.49,16.49,0,0,0-2.06-.22l-1.15,0a135.73,135.73,0,0,1,.12,14.16l-.47,7.35c-.18,2.22-.34,4.7-.47,7.46q-.27,5.52-.19,13.23.12,9.57-.06,13.24c-.14,2.91-.16,6.36,0,10.36s.09,7.53,0,10.36q-.29,5.63-3.61,5.47A3,3,0,0,1,1009.35,246.88Z"/><path class="cls-4" d="M1030.53,245.32q.21-2.74,3.65-2.48l1.38.11a4.85,4.85,0,0,0,1,.2,1.52,1.52,0,0,0,1.37-.48,3.88,3.88,0,0,0,.56-2q.77-9.73.93-26.69.35-17.61,1-26.56.26-3.21.57-5.84l.58-5.84a50.86,50.86,0,0,0,.15-6.33,7.77,7.77,0,0,1-2.68.25c-1.76-.14-2.56-1.12-2.42-3a2.91,2.91,0,0,1,1.85-2.27,12.17,12.17,0,0,1,4.42-1.16,50.6,50.6,0,0,1,8.2-.16,3.31,3.31,0,0,1,2.28,1.1,2.88,2.88,0,0,1,.8,2.25,3.34,3.34,0,0,1-.91,2.12,2.33,2.33,0,0,1-2,.77,4.6,4.6,0,0,1-1.13-.2l-.92-.07a2.27,2.27,0,0,0-1.7.38,2.74,2.74,0,0,0-.67,1.85q-.95,12.16-1.13,33.6-.36,22.45-1.25,33.7l-.34,4.35a18,18,0,0,1,2.3.07q4.82.38,4.51,4.39l-.06.69-3,1.72c-.07,0-.31,0-.69,0s-1.15,0-2.3-.12q-3.92-.08-4.83-.15Q1030.26,248.77,1030.53,245.32Z"/><path class="cls-4" d="M1070.88,253.67a17.36,17.36,0,0,1-3.71-6.09q-2.62-6.56-3-17.47-.3-7.56.23-17.34l.57-6.06.7-6.18c.15-2,.38-4.39.7-7.21a114.48,114.48,0,0,1,2-12,45.71,45.71,0,0,1,3.51-10.59,12.48,12.48,0,0,1,6-6,10,10,0,0,1,4.22-.45,11.37,11.37,0,0,1,9,5.89,29.74,29.74,0,0,1,3.79,12.58,80.82,80.82,0,0,1,.32,15.54q-.46,8.17-1.28,15.37l-.74,6.51c-.15,1.3-.61,3.71-1.4,7.25a66.47,66.47,0,0,0-1.27,7.14l-.06.46a37.33,37.33,0,0,0-1.54,7.47,17.75,17.75,0,0,1-2.12,6.47,16.48,16.48,0,0,1-4.54,5.39,7.69,7.69,0,0,1-6,2.09A8.64,8.64,0,0,1,1070.88,253.67Zm10.67-7.36a41.26,41.26,0,0,0,3-9q1.25-5.35,2.48-12.16c.37-2,.74-4.5,1.09-7.63l1.08-10.52q.46-6.21.38-15.59a52.47,52.47,0,0,0-1.85-14.33,12.36,12.36,0,0,0-2.35-4.78,5.36,5.36,0,0,0-3.48-2q-2.85-.33-4.73,4a42.2,42.2,0,0,0-3.45,10q-1.38,6-2.11,11.45l-.54,3.76c-.2,1.06-.4,2.5-.61,4.33l0,.46a137.73,137.73,0,0,0-.54,19q.1,15.41,2.93,22.21,1.83,4.26,4.34,4.54C1078.71,250.27,1080.16,249,1081.55,246.31Z"/><path class="cls-4" d="M1123.48,237.43q-3.64-28.63-5.83-52.49l-5.86,37.26q-.75,4.77-1.65,16.39-1.17,12.61-1.74,16.25a2.12,2.12,0,0,1-1.53,1.57,5.5,5.5,0,0,1-2.95.29q-2.39-.37-2.1-2.19l.74-3.26c.54-2.4.86-4,1-4.74q.95-6,2.32-19.19,1.41-13.4,1.86-16.24l2.29-14.54c.36-2.35,1-5.81,2-10.4q1.4-5.94,2.1-10.38l.11-.68q.88-5.69,3.39-5.29,1.47.24,3,5.59,2.46,8.77,4.93,30.81,1.37,12.8,2.76,32.8c0-.31.17,2.39.59,8.12l0,.59q1.74-11,3.34-19.73l3.33-19.73,5.29-33.63q.9-2.76,4.08-2.27t2.37,4.92l-.1.68a7.3,7.3,0,0,0-1.2,3.18q-1.1,6.93-3.63,20.85t-3.67,21.08l-5.45,34.65a6.76,6.76,0,0,1-1.51,3.31,2.76,2.76,0,0,1-2.58,1.28Q1126.84,261.93,1123.48,237.43Z"/><path class="cls-4" d="M1146.5,264.69c-1.07-.91-1.51-1.82-1.33-2.73a3.48,3.48,0,0,1,1.11-2.06,2.36,2.36,0,0,1,2.09-.47,9.68,9.68,0,0,1,3.09,1.55,13.08,13.08,0,0,0,2.75,1.49,5.36,5.36,0,0,0,4.26-1.09,13.36,13.36,0,0,0,3.74-4.36,30.72,30.72,0,0,0,4-9.75,38.38,38.38,0,0,0,.51-10.51,59.42,59.42,0,0,0-2-11.25l-1.09-4q-1.71-6.19-2.58-9.77a51.52,51.52,0,0,1-1.24-7.63,35.9,35.9,0,0,1,.39-10.83,21.28,21.28,0,0,1,2.93-7.39,15.78,15.78,0,0,1,5.44-5.25,9.83,9.83,0,0,1,7.53-1.32,7.51,7.51,0,0,1,3.71,2,6.83,6.83,0,0,1,2.12,3.53l-2.39,2a7.35,7.35,0,0,1-4.18-2,5.5,5.5,0,0,0-3.94,1.27,12.33,12.33,0,0,0-3.11,3.54,14.5,14.5,0,0,0-1.52,4.16,34.43,34.43,0,0,0-.55,9,47,47,0,0,0,1.43,9l4.77,17.36a44.32,44.32,0,0,1,1.23,9.74,47.18,47.18,0,0,1-.89,10.38,29,29,0,0,1-6.38,13.27,15.41,15.41,0,0,1-6,4.37,12.35,12.35,0,0,1-7.15.63A15.65,15.65,0,0,1,1146.5,264.69Z"/><rect class="cls-1" x="790.5" y="849.62" width="383" height="84" rx="34"/><path class="cls-3" d="M898,893.4l0-4.68.54-25.08a1.27,1.27,0,0,1,.78-1.14,4.16,4.16,0,0,1,2-.42q2.88,0,2.88,2c0,.44-.24,3.8-.7,10.08s-.68,10-.68,11.28v6.36c0,3,.19,4.64.6,4.92a6.54,6.54,0,0,0,2.09.3l8.65-.6c1.87,0,2.81.68,2.81,2a2.49,2.49,0,0,1-1.52,2.37,8,8,0,0,1-3,.84c-1,.06-2.22.09-3.67.09q-9.42,0-10.2-.6c-.28-.24-.44-1.15-.47-2.73s-.08-2.69-.09-3.33S898,893.92,898,893.4Z"/><path class="cls-3" d="M922,881.1a1.74,1.74,0,0,1-.84-1.56,2.94,2.94,0,0,1,.66-1.86q-.24-6-.24-12.66a3.36,3.36,0,0,1,3.3-2.94q7.92.36,17.16.36,2.28.48,2.28,2,0,2.52-4.92,2.94-1.32.06-2.88.06h-3.9q-1.14,0-6.3-.48,0,7.5.24,10.32,3.18.06,12.24.06,2.16.42,2.16,1.95a2.6,2.6,0,0,1-1.74,2.37,2.32,2.32,0,0,1-.66.24l-10.38-.18a8.23,8.23,0,0,0-1.56.12l.24,10.32a47.49,47.49,0,0,1-.18,5l13.92-.18q1.92.3,1.92,1.62a2.71,2.71,0,0,1-.81,1.8,3.54,3.54,0,0,1-1.89,1.14l-15.36.24a2.8,2.8,0,0,1-1.92-.51,2.28,2.28,0,0,1-.54-1.71,42.71,42.71,0,0,0,.24-5.4v-4.2Z"/><path class="cls-3" d="M947.86,862.8l24.3-.36q1.74.54,1.74,1.74,0,3-2.46,3-4.5,0-9.54.24-.3,5.16-.3,7.77v3.33l.24,21.06q0,1.86-1,2.16a5.77,5.77,0,0,1-1.8.24q-1.74,0-1.92-2-.36-4.62-.36-17.25t.36-15.21q-1.26.06-3.72.06t-6.12-.06a1.91,1.91,0,0,1-1.5-.6,2.12,2.12,0,0,1-.54-1.47,2.57,2.57,0,0,1,.75-1.71A2.8,2.8,0,0,1,947.86,862.8Z"/><path class="cls-3" d="M989.26,862a15.13,15.13,0,0,1,6.63,1.32q2.73,1.32,2.73,3.36a2.7,2.7,0,0,1-.45,1.56,1.5,1.5,0,0,1-1.32.66,12.39,12.39,0,0,1-3.75-1.35,12.52,12.52,0,0,0-5.25-1.35,9.55,9.55,0,0,0-4.89,1.5q-2.52,1.5-2.52,3.66a4.54,4.54,0,0,0,3.06,4.32,30.86,30.86,0,0,0,6.54,1.83,13.82,13.82,0,0,1,7,3.3q2.7,2.49,2.7,7.53,0,7.68-4.62,11.34-2.58,2-7.29,2a19.29,19.29,0,0,1-9.39-2.58q-3.06-1.62-3.06-3.24a2.35,2.35,0,0,1,.51-1.32,4,4,0,0,1,1.41-1.2,1.82,1.82,0,0,1,1.65-.15q.75.33,2.43,1.17t2.46,1.14a13.35,13.35,0,0,0,4.74,1,6,6,0,0,0,4.29-2.19A7.52,7.52,0,0,0,994.9,889q0-4.2-4.2-5.88a21,21,0,0,0-4.62-1.26q-5.34-1-8-3.21t-2.7-6.81a8.19,8.19,0,0,1,3.9-7.17A17.67,17.67,0,0,1,989.26,862Z"/><path class="cls-3" d="M1018.06,895.62q-.42-6.18-.42-16.71t.3-13.65a3.15,3.15,0,0,1,2.64-2.55,24.54,24.54,0,0,1,6.18-.63,17.55,17.55,0,0,1,9.51,2.43,7.93,7.93,0,0,1,3.87,7.17,17.1,17.1,0,0,1-1.08,6.51,9.25,9.25,0,0,1-2.7,3.87q-2.64,2-7.8,2a37.09,37.09,0,0,1-5.82-.6q.3,12,.24,15.12t-2.1,3.12q-1.32,0-1.68-.48a7.88,7.88,0,0,1-.48-.69,3,3,0,0,1-.24-.63q-.12-.42-.18-.69a5.43,5.43,0,0,1-.09-.81,6.32,6.32,0,0,0-.09-.84Q1018.06,896.7,1018.06,895.62Zm17.1-23.79a4.27,4.27,0,0,0-2.64-3.84,11.79,11.79,0,0,0-5.64-1.41,11.34,11.34,0,0,0-4.2.54q-.24,3.54-.24,6.51t.24,5.37q1.62.18,2.22.3a23.82,23.82,0,0,0,2.67.18q1.11,0,1.5,0t1.5-.18a3.51,3.51,0,0,0,1.59-.51q.48-.36,1.2-1a3.36,3.36,0,0,0,1-1.38A13.41,13.41,0,0,0,1035.16,871.83Z"/><path class="cls-3" d="M1045.12,893.4l.06-4.68.54-25.08a1.27,1.27,0,0,1,.78-1.14,4.15,4.15,0,0,1,2-.42q2.88,0,2.88,2,0,.66-.69,10.08t-.69,11.28v6.36q0,4.5.6,4.92a6.65,6.65,0,0,0,2.1.3l8.64-.6q2.82,0,2.82,2a2.48,2.48,0,0,1-1.53,2.37,7.94,7.94,0,0,1-3,.84q-1.5.09-3.66.09-9.42,0-10.2-.6-.42-.36-.48-2.73t-.09-3.33Q1045.12,894.18,1045.12,893.4Z"/><path class="cls-3" d="M1081.36,862.2a3.08,3.08,0,0,1,2.52,1.32,25.42,25.42,0,0,1,2.64,5.46q3.78,9.78,7.38,30.66a3,3,0,0,1,.06.69,1.38,1.38,0,0,1-.57,1,2.35,2.35,0,0,1-1.62.51,3,3,0,0,1-1.77-.51,2.59,2.59,0,0,1-1-1.68q-.24-1.17-.9-4.59-1.44-7.62-1.92-7.92a18.77,18.77,0,0,0-4.77-.9q-4-.48-5.37-.48a2.83,2.83,0,0,0-1.56.24q-1.08,1-2.94,14.58-.24,1.14-2.28,1.14t-2-1.74q0-4.32,3.18-16.5t5.28-16.14Q1078.36,862.2,1081.36,862.2Zm-.24,6.66q-.9,0-3.12,5.31t-2.22,6.57a.59.59,0,0,0,.12.42q.48.48,3.78.84t4.38.36q1.08,0,1.2-.15a2.11,2.11,0,0,0,.12-1,51,51,0,0,0-1.62-6.6Q1082.14,868.86,1081.12,868.86Z"/><path class="cls-3" d="M1105.78,887.22l.06-3.06a5.5,5.5,0,0,0-1-3.06q-1-1.5-4.77-8.7t-3.78-8.13a2.28,2.28,0,0,1,.78-1.68,2.26,2.26,0,0,1,1.53-.75q.75,0,1.8,1.38a69.86,69.86,0,0,1,4.14,7.26q3.09,5.88,3.57,6.48,5.76-10.2,9.24-14.4a2.34,2.34,0,0,1,1.35-.78,1.76,1.76,0,0,1,.75.12q1.44.6,1.44,1.59a3,3,0,0,1-.48,1.71q-.48.72-2.64,3.78a70.16,70.16,0,0,0-5.49,9q-2.31,4.53-2.31,5.55v11l.18,4.8a2.09,2.09,0,0,1-.72,1.83,3,3,0,0,1-1.77.51,1.41,1.41,0,0,1-1.41-1.14,11.47,11.47,0,0,1-.42-3q-.06-1.86-.06-5.46Z"/><path class="cls-3" d="M1131.46,860.46l-.54,20.46q0,3.3.06,4.32a3,3,0,0,1-.93,1.38,2.28,2.28,0,0,1-1.53.6q-.84,0-1.38-1.32-.9-15.12-.9-25.44.54-1.5,2.76-1.5T1131.46,860.46Zm-4.14,38.37a3.27,3.27,0,0,1-.9-2.13,2.84,2.84,0,0,1,.84-2,2.93,2.93,0,0,1,2.25-.9,2.27,2.27,0,0,1,2.67,2.88q0,3.18-2.64,3.18A2.81,2.81,0,0,1,1127.32,898.83Z"/><path class="cls-4" d="M899.35,897l.06-4.68.54-25.08a1.27,1.27,0,0,1,.78-1.14,4.15,4.15,0,0,1,2-.42q2.88,0,2.88,2,0,.66-.69,10.08t-.69,11.28v6.36q0,4.5.6,4.92a6.65,6.65,0,0,0,2.1.3l8.64-.6q2.82,0,2.82,2a2.48,2.48,0,0,1-1.53,2.37,7.94,7.94,0,0,1-3,.84q-1.5.09-3.66.09-9.42,0-10.2-.6-.42-.36-.48-2.73t-.09-3.33Q899.35,897.75,899.35,897Z"/><path class="cls-4" d="M923.35,884.67a1.74,1.74,0,0,1-.84-1.56,2.94,2.94,0,0,1,.66-1.86q-.24-6-.24-12.66a3.36,3.36,0,0,1,3.3-2.94q7.92.36,17.16.36,2.28.48,2.28,2,0,2.52-4.92,2.94-1.32.06-2.88.06H934q-1.14,0-6.3-.48,0,7.5.24,10.32,3.18.06,12.24.06,2.16.42,2.16,2a2.6,2.6,0,0,1-1.74,2.37,2.32,2.32,0,0,1-.66.24l-10.38-.18a8.23,8.23,0,0,0-1.56.12l.24,10.32a47.49,47.49,0,0,1-.18,5l13.92-.18q1.92.3,1.92,1.62a2.71,2.71,0,0,1-.81,1.8,3.54,3.54,0,0,1-1.89,1.14l-15.36.24a2.8,2.8,0,0,1-1.92-.51,2.28,2.28,0,0,1-.54-1.71,42.71,42.71,0,0,0,.24-5.4v-4.2Z"/><path class="cls-4" d="M949.21,866.37l24.3-.36q1.74.54,1.74,1.74,0,3-2.46,3-4.5,0-9.54.24-.3,5.16-.3,7.77v3.33l.24,21.06q0,1.86-1,2.16a5.77,5.77,0,0,1-1.8.24q-1.74,0-1.92-2-.36-4.62-.36-17.25t.36-15.21q-1.26.06-3.72.06t-6.12-.06a1.91,1.91,0,0,1-1.5-.6,2.12,2.12,0,0,1-.54-1.47,2.57,2.57,0,0,1,.75-1.71A2.8,2.8,0,0,1,949.21,866.37Z"/><path class="cls-4" d="M990.61,865.59a15.13,15.13,0,0,1,6.63,1.32q2.73,1.32,2.73,3.36a2.7,2.7,0,0,1-.45,1.56,1.5,1.5,0,0,1-1.32.66,12.39,12.39,0,0,1-3.75-1.35,12.52,12.52,0,0,0-5.25-1.35,9.55,9.55,0,0,0-4.89,1.5q-2.52,1.5-2.52,3.66a4.54,4.54,0,0,0,3.06,4.32,30.86,30.86,0,0,0,6.54,1.83,13.82,13.82,0,0,1,7,3.3q2.7,2.49,2.7,7.53,0,7.68-4.62,11.34-2.58,2-7.29,2a19.29,19.29,0,0,1-9.39-2.58q-3.06-1.62-3.06-3.24a2.35,2.35,0,0,1,.51-1.32,4,4,0,0,1,1.41-1.2,1.82,1.82,0,0,1,1.65-.15q.75.33,2.43,1.17t2.46,1.14a13.35,13.35,0,0,0,4.74,1,6,6,0,0,0,4.29-2.19,7.52,7.52,0,0,0,2.07-5.37q0-4.2-4.2-5.88a21,21,0,0,0-4.62-1.26q-5.34-1-8-3.21t-2.7-6.81a8.19,8.19,0,0,1,3.9-7.17A17.67,17.67,0,0,1,990.61,865.59Z"/><path class="cls-4" d="M1019.41,899.19q-.42-6.18-.42-16.71t.3-13.65a3.15,3.15,0,0,1,2.64-2.55,24.54,24.54,0,0,1,6.18-.63,17.55,17.55,0,0,1,9.51,2.43,7.93,7.93,0,0,1,3.87,7.17,17.1,17.1,0,0,1-1.08,6.51,9.25,9.25,0,0,1-2.7,3.87q-2.64,2-7.8,2a37.09,37.09,0,0,1-5.82-.6q.3,12,.24,15.12t-2.1,3.12q-1.32,0-1.68-.48a7.88,7.88,0,0,1-.48-.69,3,3,0,0,1-.24-.63q-.12-.42-.18-.69a5.43,5.43,0,0,1-.09-.81,6.32,6.32,0,0,0-.09-.84Q1019.41,900.27,1019.41,899.19Zm17.1-23.79a4.27,4.27,0,0,0-2.64-3.84,11.79,11.79,0,0,0-5.64-1.41,11.34,11.34,0,0,0-4.2.54q-.24,3.54-.24,6.51t.24,5.37q1.62.18,2.22.3a23.82,23.82,0,0,0,2.67.18q1.11,0,1.5,0t1.5-.18a3.51,3.51,0,0,0,1.59-.51q.48-.36,1.2-1a3.36,3.36,0,0,0,1-1.38A13.41,13.41,0,0,0,1036.51,875.4Z"/><path class="cls-4" d="M1046.47,897l.06-4.68.54-25.08a1.27,1.27,0,0,1,.78-1.14,4.15,4.15,0,0,1,2-.42q2.88,0,2.88,2,0,.66-.69,10.08t-.69,11.28v6.36q0,4.5.6,4.92a6.65,6.65,0,0,0,2.1.3l8.64-.6q2.82,0,2.82,2a2.48,2.48,0,0,1-1.53,2.37,7.94,7.94,0,0,1-3,.84q-1.5.09-3.66.09-9.42,0-10.2-.6-.42-.36-.48-2.73t-.09-3.33Q1046.47,897.75,1046.47,897Z"/><path class="cls-4" d="M1082.71,865.77a3.08,3.08,0,0,1,2.52,1.32,25.42,25.42,0,0,1,2.64,5.46q3.78,9.78,7.38,30.66a3,3,0,0,1,.06.69,1.38,1.38,0,0,1-.57,1,2.35,2.35,0,0,1-1.62.51,3,3,0,0,1-1.77-.51,2.59,2.59,0,0,1-1-1.68q-.24-1.17-.9-4.59-1.44-7.62-1.92-7.92a18.77,18.77,0,0,0-4.77-.9q-4-.48-5.37-.48a2.83,2.83,0,0,0-1.56.24q-1.08,1-2.94,14.58-.24,1.14-2.28,1.14t-2-1.74q0-4.32,3.18-16.5t5.28-16.14Q1079.71,865.77,1082.71,865.77Zm-.24,6.66q-.9,0-3.12,5.31t-2.22,6.57a.59.59,0,0,0,.12.42q.48.48,3.78.84t4.38.36q1.08,0,1.2-.15a2.11,2.11,0,0,0,.12-1,51,51,0,0,0-1.62-6.6Q1083.49,872.43,1082.47,872.43Z"/><path class="cls-4" d="M1107.13,890.79l.06-3.06a5.5,5.5,0,0,0-1-3.06q-1-1.5-4.77-8.7t-3.78-8.13a2.28,2.28,0,0,1,.78-1.68,2.24,2.24,0,0,1,1.53-.75c.5,0,1.09.46,1.8,1.38a69.86,69.86,0,0,1,4.14,7.26c2.06,3.92,3.24,6.08,3.57,6.48q5.76-10.2,9.24-14.4a2.31,2.31,0,0,1,1.35-.78,1.83,1.83,0,0,1,.75.12q1.44.6,1.44,1.59a3,3,0,0,1-.48,1.71c-.33.48-1.2,1.74-2.64,3.78a69,69,0,0,0-5.49,9c-1.55,3-2.31,4.87-2.31,5.55v11l.18,4.8a2.09,2.09,0,0,1-.72,1.83,3,3,0,0,1-1.77.51,1.41,1.41,0,0,1-1.41-1.14,11.06,11.06,0,0,1-.42-3c0-1.24-.06-3.06-.06-5.46Z"/><path class="cls-4" d="M1132.8,864l-.54,20.46c0,2.2,0,3.64.07,4.32a3.08,3.08,0,0,1-.94,1.38,2.27,2.27,0,0,1-1.52.6c-.57,0-1-.44-1.39-1.32q-.9-15.12-.89-25.44c.36-1,1.27-1.5,2.75-1.5S1132.64,863,1132.8,864Zm-4.13,38.37a3.24,3.24,0,0,1-.91-2.13,2.84,2.84,0,0,1,.84-2,2.93,2.93,0,0,1,2.25-.9,2.27,2.27,0,0,1,2.67,2.88q0,3.18-2.64,3.18A2.79,2.79,0,0,1,1128.67,902.4Z"/></g></svg>