<svg xmlns="http://www.w3.org/2000/svg" xmlns:xlink="http://www.w3.org/1999/xlink" width="1920" height="1080" viewBox="0 0 1920 1080"><defs><style>.cls-1{fill:url(#radial-gradient);}.cls-2{fill:#ffe600;}.cls-3{fill:#ffec00;}.cls-4{fill:#d7e9f4;}.cls-17,.cls-5{fill:#e7f4fb;}.cls-13,.cls-18,.cls-6{fill:#fff;}.cls-7{fill:#e42320;}.cls-8{fill:url(#radial-gradient-2);}.cls-9{opacity:0.49;}.cls-10{fill:#6a3f90;}.cls-11{fill:#4d2c71;}.cls-12{opacity:0.48;}.cls-13,.cls-15{opacity:0.83;}.cls-14{fill:#33214b;}.cls-15{fill:#f8f7fa;}.cls-16{fill:#583e13;}.cls-17{opacity:0.47;}.cls-18{opacity:0.9;}</style><radialGradient id="radial-gradient" cx="1105.18" cy="69.82" r="27.96" gradientTransform="matrix(-0.97, 0.24, 0.24, 0.97, 1817.94, 32.21)" gradientUnits="userSpaceOnUse"><stop offset="0" stop-color="#ffec00"/><stop offset="0.14" stop-color="#ffec00" stop-opacity="0.99"/><stop offset="0.25" stop-color="#ffec01" stop-opacity="0.95"/><stop offset="0.36" stop-color="#ffec02" stop-opacity="0.88"/><stop offset="0.47" stop-color="#feec03" stop-opacity="0.78"/><stop offset="0.57" stop-color="#feeb04" stop-opacity="0.65"/><stop offset="0.67" stop-color="#feeb06" stop-opacity="0.5"/><stop offset="0.76" stop-color="#fdeb09" stop-opacity="0.32"/><stop offset="0.85" stop-color="#fcea0c" stop-opacity="0.11"/><stop offset="0.9" stop-color="#fcea0d" stop-opacity="0"/></radialGradient><radialGradient id="radial-gradient-2" cx="-1248.3" cy="428.4" r="18.83" gradientTransform="translate(2155.07 -15.79) rotate(2.47)" xlink:href="#radial-gradient"/></defs><g id="Opening-titles"><circle class="cls-1" cx="762.45" cy="367.25" r="27.96"/><path class="cls-2" d="M756.49,370.44c6.39,14.37,17.93-2.47,36.57-10.76s37.32-4.88,30.93-19.26-26.68-19.3-45.32-11S750.1,356.07,756.49,370.44Z"/><path class="cls-3" d="M755.42,371.72c5.16,11.58,17.68-.22,26.49-5.71-3.58-8.82-13.29-17-22.44-20.75C753.57,353.56,751.71,363.3,755.42,371.72Z"/><path class="cls-4" d="M783.19,318c3,5.75,15.64,18.87,21.39,15.9S807,313,804,307.29A11.72,11.72,0,1,0,783.19,318Z"/><path class="cls-5" d="M777.44,329c5,4.11,21.83,11.15,25.94,6.15s-6.06-20.15-11.06-24.26A11.72,11.72,0,0,0,777.44,329Z"/><circle cx="813.2" cy="340.65" r="1.28"/><circle class="cls-6" cx="812.75" cy="340.19" r="0.64"/><circle class="cls-6" cx="813.83" cy="340.84" r="0.25"/><circle cx="819.11" cy="339.32" r="1.28"/><circle class="cls-6" cx="818.66" cy="338.86" r="0.64"/><circle class="cls-6" cx="819.74" cy="339.51" r="0.25"/><path d="M815.56,344.7v0a1.29,1.29,0,0,0,1.7,1,1.35,1.35,0,0,0,1.18-1.69V344l-.4-1.67a.19.19,0,0,0-.23-.13l-2.48.62a.19.19,0,0,0-.15.21Z"/><path d="M818.49,344.23a.07.07,0,0,0,0-.05v0S818.49,344.2,818.49,344.23Z"/><ellipse class="cls-7" cx="817.13" cy="344.93" rx="1.3" ry="0.83" transform="translate(-59.17 207.87) rotate(-14)"/><circle class="cls-8" cx="889.49" cy="358.51" r="18.83"/><path class="cls-2" d="M893.86,359.82c-2.28,10.34-12.16.78-25.58-2.18s-25.28,1.8-23-8.54,15-16.33,28.42-13.37S896.14,349.47,893.86,359.82Z"/><path class="cls-3" d="M894.73,360.51c-1.84,8.34-11.69,2.24-18.24-.2,1.17-6.3,6.48-13,12-16.71C893.51,348.29,896.05,354.46,894.73,360.51Z"/><path class="cls-4" d="M869.19,328.83c-1.18,4.2-7.78,14.56-12,13.37s-4.39-13.46-3.21-17.66a7.89,7.89,0,1,1,15.19,4.29Z"/><path class="cls-5" d="M874.46,335.28c-2.75,3.39-12.9,10.3-16.29,7.55s1.29-14.1,4-17.49a7.89,7.89,0,0,1,12.26,9.94Z"/><circle cx="852.43" cy="347.8" r="0.86"/><circle class="cls-6" cx="852.67" cy="347.43" r="0.43"/><circle class="cls-6" cx="852.04" cy="348" r="0.17"/><circle cx="848.35" cy="347.71" r="0.86"/><circle class="cls-6" cx="848.58" cy="347.35" r="0.43"/><circle class="cls-6" cx="847.96" cy="347.92" r="0.17"/><path d="M851.42,350.78v0a.87.87,0,0,1-1,.9.91.91,0,0,1-1-1v0l0-1.16a.14.14,0,0,1,.14-.12l1.72.08a.12.12,0,0,1,.12.12Z"/><path d="M849.42,350.87v0h0Z"/><ellipse class="cls-7" cx="850.42" cy="351.15" rx="0.56" ry="0.87" transform="translate(463.01 1185.67) rotate(-87.53)"/><g class="cls-9"><path class="cls-10" d="M1374.57,625.08c-22,1.52-16.78-19.22-31.35-28.86a25.27,25.27,0,0,1-11.12-14.59c-8.95.37-11.41-9.41-.4-13a26.5,26.5,0,0,1,3.21-7.89,25.75,25.75,0,0,1,35.35-8.71c8.58,5.25,10.31,14,12,24.29C1384.54,593.94,1367.14,619.78,1374.57,625.08Z"/><path class="cls-11" d="M1382.21,576.25c-1.64-14.17-3.45-19-12-24.3a25.75,25.75,0,0,0-35.35,8.72,26.19,26.19,0,0,0-3.21,7.88c-11,3.56-8.55,13.35.39,13a25.29,25.29,0,0,0,11.13,14.59c14.57,9.65,9.39,30.49,31.43,29C1367.14,619.78,1384.46,593.83,1382.21,576.25ZM1344.52,593a24.74,24.74,0,0,1-10.17-13.32c-7.6.33-9.61-6-.24-9a30.48,30.48,0,0,1,3.35-7.83,21.9,21.9,0,0,1,30.06-7.42c7.3,4.47,9,12.67,10.24,20.67,1.91,15-13.51,42.49-7.19,47C1355.57,618.08,1356.92,601.18,1344.52,593Z"/></g><g class="cls-12"><path class="cls-10" d="M1401.15,540.94c-22,1.51-39.29-4.13-53.87-13.77a25.33,25.33,0,0,1-11.12-14.6c-8.94.38-11.41-9.41-.39-13A25.95,25.95,0,0,1,1374.33,483a25.55,25.55,0,0,1,12,24.29C1388.6,524.89,1393.73,535.64,1401.15,540.94Z"/><path class="cls-11" d="M1386.28,507.19a25.55,25.55,0,0,0-47.38-15.58,26,26,0,0,0-3.21,7.89c-11,3.56-8.55,13.34.39,13a25.31,25.31,0,0,0,11.12,14.59c14.58,9.64,31.83,15.29,53.87,13.77C1393.65,535.53,1388.52,524.78,1386.28,507.19Zm-37.7,16.73a24.71,24.71,0,0,1-10.17-13.31c-7.6.32-9.6-6-.23-9a30.53,30.53,0,0,1,3.34-7.82,21.72,21.72,0,0,1,40.3,13.25c1.91,15,6,26.34,12.33,30.85C1375.4,539.17,1361,532.13,1348.58,523.92Z"/></g><path class="cls-10" d="M1387.28,535.46c-22,1.52-39.3-4.13-53.88-13.77a25.34,25.34,0,0,1-11.12-14.59c-8.94.37-11.41-9.41-.39-13a25.94,25.94,0,0,1,38.56-16.6,25.56,25.56,0,0,1,12,24.29C1374.72,519.41,1379.85,530.16,1387.28,535.46Z"/><path class="cls-11" d="M1372.4,501.72a25.65,25.65,0,0,0-50.59-7.7c-11,3.56-8.55,13.35.39,13a25.28,25.28,0,0,0,11.12,14.59c14.58,9.65,31.83,15.29,53.87,13.77C1379.77,530.05,1374.64,519.3,1372.4,501.72Zm-37.7,16.73a24.77,24.77,0,0,1-10.17-13.32c-7.6.33-9.6-6-.23-9a30.44,30.44,0,0,1,3.34-7.83,21.72,21.72,0,0,1,40.3,13.25c1.91,15,6,26.34,12.33,30.85C1361.52,533.69,1347.11,526.65,1334.7,518.45Z"/><path class="cls-11" d="M1348.22,507.58c-11.64,3.71-6.44,13,2.68,10.21C1348.69,514,1348.43,512.11,1348.22,507.58Z"/><path class="cls-13" d="M1347,492.49a41.61,41.61,0,0,1,5.36.69,2,2,0,0,0-1.06.67,2,2,0,1,0,2.86-.27l0,0a44.15,44.15,0,0,1,6.37,2C1356.49,506,1344.06,501.63,1347,492.49Z"/><polygon class="cls-13" points="1334.6 495.19 1336.3 494.82 1336.62 497.9 1339.52 498.18 1339.9 500.51 1343.32 500.56 1343.56 502.48 1338.9 502.55 1338.01 499.86 1335.16 499.71 1334.6 495.19"/><path class="cls-13" d="M1344.27,490a41.83,41.83,0,0,0-2.4-4.84,2.06,2.06,0,0,1-.29,1.22,2,2,0,1,1-.68-2.79l0,0a44,44,0,0,0-4-5.36C1328.38,485.48,1336.59,495.8,1344.27,490Z"/><path class="cls-14" d="M1356.47,522.83a5.28,5.28,0,0,0-2.32,4.81,50.23,50.23,0,0,0,23.45,3.18A79.42,79.42,0,0,1,1356.47,522.83Z"/><path class="cls-15" d="M1361.31,483.92c-.29,1.34-5.46-2.35-10.1-3.36s-10.87-1-10.58-2.31,6.52-2.17,11.16-1.16S1361.6,482.57,1361.31,483.92Z"/><path class="cls-10" d="M1365.39,619.62c-22,1.52-16.78-19.22-31.35-28.86a25.36,25.36,0,0,1-11.13-14.59c-8.94.37-11.4-9.42-.39-13a26.19,26.19,0,0,1,3.21-7.88,25.75,25.75,0,0,1,35.35-8.71c8.58,5.25,10.31,14,12,24.29C1375.36,588.48,1358,614.32,1365.39,619.62Z"/><path class="cls-11" d="M1373,570.78c-1.64-14.16-3.45-19-12-24.29a25.94,25.94,0,0,0-38.56,16.6c-11,3.56-8.55,13.34.39,13A25.31,25.31,0,0,0,1334,590.65c14.58,9.65,9.4,30.49,31.44,29C1358,614.32,1375.28,588.37,1373,570.78Zm-37.69,16.74a24.68,24.68,0,0,1-10.17-13.32c-7.6.32-9.61-6-.24-9a30.79,30.79,0,0,1,3.34-7.83,21.9,21.9,0,0,1,30.07-7.42c7.3,4.47,9.05,12.67,10.24,20.67,1.91,15-13.51,42.49-7.19,47C1346.39,612.62,1347.74,595.72,1335.34,587.52Z"/><path class="cls-11" d="M1348.86,576.65c-11.64,3.71-6.44,13,2.67,10.2C1349.33,583.05,1349.06,581.17,1348.86,576.65Z"/><path class="cls-13" d="M1347.64,561.55a43.85,43.85,0,0,1,5.37.69,2.12,2.12,0,0,0-1.07.68,2,2,0,1,0,2.87-.28l0,0a45.8,45.8,0,0,1,6.36,2C1357.12,575.09,1344.69,570.7,1347.64,561.55Z"/><polygon class="cls-13" points="1335.24 564.26 1336.93 563.89 1337.25 566.97 1340.15 567.25 1340.53 569.58 1343.95 569.63 1344.2 571.54 1339.54 571.62 1338.64 568.93 1335.79 568.78 1335.24 564.26"/><path class="cls-13" d="M1344.91,559.09a43.73,43.73,0,0,0-2.41-4.85,2,2,0,0,1-.29,1.23,2,2,0,1,1-.67-2.8l0,0a44.88,44.88,0,0,0-4-5.35C1329,554.55,1337.22,564.87,1344.91,559.09Z"/><path class="cls-14" d="M1354.39,600.62c-1.57,1-5.27,2.4-5,4,3,4,3,6,10,12C1355.39,611.62,1359.94,603.75,1354.39,600.62Z"/><path class="cls-15" d="M1361.94,553c-.29,1.35-5.46-2.35-10.1-3.35s-10.86-1-10.57-2.31,6.52-2.17,11.16-1.17S1362.23,551.64,1361.94,553Z"/><g class="cls-12"><path class="cls-10" d="M1326.88,637.09c-21.14,6.43-39.22,4.81-55.59-1.31a25.34,25.34,0,0,1-14.12-11.72c-8.62,2.38-13.23-6.61-3.29-12.55a25.93,25.93,0,0,1,33.84-24.84,25.56,25.56,0,0,1,17.18,21C1311,624.27,1318.45,633.59,1326.88,637.09Z"/><path class="cls-11" d="M1304.8,607.55a25.54,25.54,0,0,0-49.67-4.53,26.22,26.22,0,0,0-1.36,8.4c-9.93,6-5.33,14.93,3.3,12.55a25.3,25.3,0,0,0,14.12,11.72c16.37,6.12,34.45,7.74,55.59,1.31C1318.35,633.51,1310.94,624.18,1304.8,607.55Zm-33,24.78a24.71,24.71,0,0,1-12.9-10.69c-7.34,2-10.71-3.67-2.26-8.72a30.82,30.82,0,0,1,1.5-8.38,21.73,21.73,0,0,1,42.25,3.85c5.22,14.15,11.78,24.32,18.95,27.29C1301.39,641.15,1285.76,637.53,1271.83,632.33Z"/></g><path class="cls-10" d="M1312.12,634.87c-21.13,6.43-39.21,4.81-55.59-1.31a25.31,25.31,0,0,1-14.11-11.72c-8.63,2.38-13.23-6.6-3.3-12.55A26,26,0,0,1,1273,584.45a25.57,25.57,0,0,1,17.19,21C1296.29,622.05,1303.7,631.37,1312.12,634.87Z"/><path class="cls-11" d="M1290,605.33a25.54,25.54,0,0,0-49.67-4.53,26,26,0,0,0-1.35,8.41c-9.93,5.94-5.33,14.92,3.3,12.55a25.23,25.23,0,0,0,14.11,11.71c16.37,6.13,34.46,7.75,55.59,1.31C1303.59,631.29,1296.18,622,1290,605.33Zm-33,24.78a24.79,24.79,0,0,1-12.9-10.69c-7.33,2-10.7-3.67-2.25-8.72a30.08,30.08,0,0,1,1.5-8.38,21.72,21.72,0,0,1,42.24,3.85c5.23,14.15,11.78,24.32,18.95,27.29C1286.63,638.94,1271,635.32,1257.07,630.11Z"/><path class="cls-11" d="M1267.8,616.48c-10.5,6.23-3.36,14.08,4.9,9.34C1269.7,622.61,1269,620.85,1267.8,616.48Z"/><path class="cls-13" d="M1263.23,602.05a42.8,42.8,0,0,1,5.38-.54,2,2,0,0,0,0,3.63,2,2,0,1,0,1.81-3.64h0a44,44,0,0,1,6.66.54C1275.51,613.11,1262.41,611.63,1263.23,602.05Z"/><polygon class="cls-13" points="1251.75 607.47 1253.32 606.73 1254.32 609.65 1257.21 609.28 1258.1 611.46 1261.45 610.75 1262.12 612.56 1257.59 613.68 1256.12 611.26 1253.31 611.75 1251.75 607.47"/><path class="cls-13" d="M1260,600.26a43.21,43.21,0,0,0-3.43-4.18,2.09,2.09,0,0,1,0,1.26,2,2,0,1,1-3.86-1.29,2,2,0,0,1,2.57-1.28h0a45.23,45.23,0,0,0-5.08-4.32C1243.5,599.41,1253.82,607.62,1260,600.26Z"/><path class="cls-14" d="M1279.26,629.49a5.27,5.27,0,0,0-1.17,5.21,50.47,50.47,0,0,0,23.57-2.17A79.93,79.93,0,0,1,1279.26,629.49Z"/><path class="cls-15" d="M1275.24,590.48c0,1.37-5.86-1.06-10.6-1s-10.8,1.5-10.82.13,5.86-3.58,10.61-3.64S1275.22,589.11,1275.24,590.48Z"/><path class="cls-4" d="M723.86,732.34,717,778.83a3.56,3.56,0,0,0,4.83,3.82l43.67-17.33a3.55,3.55,0,0,0,.9-6.09l-36.84-29.16A3.56,3.56,0,0,0,723.86,732.34Z"/><path class="cls-10" d="M756.08,766l-27.15,10.76a5.44,5.44,0,0,1-7.34-6.13l3.46-17.1a41.56,41.56,0,0,0,6.36-3,25,25,0,0,1,10.14-5.08l15.67,11.08A5.45,5.45,0,0,1,756.08,766Z"/><rect class="cls-4" x="718.41" y="710.44" width="11.96" height="30.03" rx="1.29" transform="matrix(0.93, -0.37, 0.37, 0.93, -216.46, 318.24)"/><rect class="cls-4" x="711.46" y="709.18" width="14.38" height="4.34" rx="0.92" transform="translate(-211.66 315.13) rotate(-21.64)"/><rect class="cls-16" x="711.42" y="709.38" width="14.38" height="4.34" rx="0.92" transform="translate(-211.74 315.13) rotate(-21.64)"/><path class="cls-17" d="M756,766l-27.14,10.76a5.45,5.45,0,0,1-7.35-6.13l3.47-17.1a40.63,40.63,0,0,0,6.35-3,25.17,25.17,0,0,1,10.15-5.07l15.66,11.08A5.45,5.45,0,0,1,756,766Z"/><rect class="cls-18" x="719.93" y="716.09" width="2.05" height="21.95" rx="0.44" transform="translate(-217.3 317.09) rotate(-21.64)"/><rect class="cls-18" x="723.46" y="744.53" width="2.05" height="21.95" rx="0.44" transform="translate(117.57 -97.32) rotate(8.36)"/><path class="cls-4" d="M805.31,759.34l6.84,46.49a3.56,3.56,0,0,1-4.83,3.82l-43.68-17.33a3.56,3.56,0,0,1-.89-6.09l36.84-29.16A3.56,3.56,0,0,1,805.31,759.34Z"/><path class="cls-10" d="M773.09,793l27.15,10.76a5.44,5.44,0,0,0,7.34-6.13l-3.46-17.1a41.56,41.56,0,0,1-6.36-3,25,25,0,0,0-10.14-5.08L772,783.47A5.45,5.45,0,0,0,773.09,793Z"/><rect class="cls-4" x="798.8" y="737.44" width="11.96" height="30.03" rx="1.29" transform="matrix(-0.93, -0.37, 0.37, -0.93, 1275.38, 1748.64)"/><rect class="cls-4" x="803.32" y="736.18" width="14.38" height="4.34" rx="0.92" transform="translate(1291.64 1723.54) rotate(-158.36)"/><rect class="cls-16" x="803.37" y="736.38" width="14.38" height="4.34" rx="0.92" transform="translate(1291.66 1723.94) rotate(-158.36)"/><path class="cls-17" d="M773.18,793l27.14,10.76a5.44,5.44,0,0,0,7.34-6.13l-3.46-17.1a40.63,40.63,0,0,1-6.35-3,25.17,25.17,0,0,0-10.15-5.07L772,783.52A5.44,5.44,0,0,0,773.18,793Z"/><rect class="cls-18" x="807.19" y="743.09" width="2.05" height="21.95" rx="0.44" transform="translate(1281.41 1753.01) rotate(-158.36)"/><rect class="cls-18" x="803.65" y="771.53" width="2.05" height="21.95" rx="0.44" transform="translate(1714.6 1439.68) rotate(171.64)"/></g></svg>