<svg xmlns="http://www.w3.org/2000/svg" xmlns:xlink="http://www.w3.org/1999/xlink" width="254" height="498" viewBox="0 0 254 498"><defs><style>.cls-1{fill:#a7221c;}.cls-10,.cls-11,.cls-14,.cls-2{fill:#fff;}.cls-3{fill:#efcfac;}.cls-15,.cls-4{fill:#1d1d1b;}.cls-5{fill:#d92d20;}.cls-6{fill:#20346b;}.cls-7{fill:#e5a4ba;}.cls-8{fill:#e96584;}.cls-9{fill:#eee8df;}.cls-11,.cls-9{opacity:0.83;}.cls-10{opacity:0.81;}.cls-12{opacity:0.21;}.cls-13,.cls-15{opacity:0.23;}.cls-14{opacity:0.63;}.cls-16{fill:url(#linear-gradient);}.cls-17{fill:url(#linear-gradient-2);}.cls-18{fill:url(#linear-gradient-3);}.cls-19{fill:url(#linear-gradient-4);}.cls-20{fill:url(#linear-gradient-5);}.cls-21{fill:url(#linear-gradient-6);}.cls-22{fill:url(#radial-gradient);}.cls-23{fill:url(#linear-gradient-7);}.cls-24{fill:url(#linear-gradient-8);}.cls-25{fill:url(#linear-gradient-9);}.cls-26{fill:url(#linear-gradient-10);}.cls-27{fill:url(#linear-gradient-11);}.cls-28{fill:url(#linear-gradient-12);}.cls-29{fill:url(#radial-gradient-2);}.cls-30{fill:url(#linear-gradient-13);}.cls-31{fill:url(#linear-gradient-14);}.cls-32{fill:url(#linear-gradient-15);}.cls-33{fill:url(#linear-gradient-16);}.cls-34{fill:url(#linear-gradient-17);}.cls-35{fill:url(#linear-gradient-18);}.cls-36{fill:url(#radial-gradient-3);}.cls-37{fill:url(#linear-gradient-19);}.cls-38{fill:url(#linear-gradient-20);}.cls-39{fill:url(#linear-gradient-21);}.cls-40{fill:url(#linear-gradient-22);}.cls-41{fill:url(#linear-gradient-23);}.cls-42{fill:url(#linear-gradient-24);}.cls-43{fill:url(#radial-gradient-4);}.cls-44{fill:url(#linear-gradient-25);}.cls-45{fill:url(#linear-gradient-26);}.cls-46{fill:url(#linear-gradient-27);}.cls-47{fill:url(#linear-gradient-28);}.cls-48{fill:url(#linear-gradient-29);}.cls-49{fill:url(#linear-gradient-30);}.cls-50{fill:url(#radial-gradient-5);}.cls-51{fill:url(#linear-gradient-31);}.cls-52{fill:url(#linear-gradient-32);}.cls-53{fill:url(#linear-gradient-33);}.cls-54{fill:url(#linear-gradient-34);}.cls-55{fill:url(#linear-gradient-35);}.cls-56{fill:url(#linear-gradient-36);}.cls-57{fill:url(#radial-gradient-6);}.cls-58{fill:url(#linear-gradient-37);}.cls-59{fill:url(#linear-gradient-38);}.cls-60{fill:url(#linear-gradient-39);}.cls-61{fill:url(#linear-gradient-40);}.cls-62{fill:url(#linear-gradient-41);}.cls-63{fill:url(#linear-gradient-42);}.cls-64{fill:url(#radial-gradient-7);}.cls-65{fill:url(#linear-gradient-43);}.cls-66{fill:url(#linear-gradient-44);}.cls-67{fill:url(#linear-gradient-45);}.cls-68{fill:url(#linear-gradient-46);}.cls-69{fill:url(#linear-gradient-47);}.cls-70{fill:url(#linear-gradient-48);}.cls-71{fill:url(#radial-gradient-8);}.cls-72{fill:url(#linear-gradient-49);}.cls-73{fill:url(#linear-gradient-50);}.cls-74{fill:url(#linear-gradient-51);}.cls-75{fill:url(#linear-gradient-52);}.cls-76{fill:url(#linear-gradient-53);}.cls-77{fill:url(#linear-gradient-54);}.cls-78{fill:url(#radial-gradient-9);}.cls-79{fill:url(#linear-gradient-55);}.cls-80{fill:url(#linear-gradient-56);}.cls-81{fill:url(#linear-gradient-57);}.cls-82{fill:url(#linear-gradient-58);}.cls-83{fill:url(#linear-gradient-59);}.cls-84{fill:url(#linear-gradient-60);}.cls-85{fill:url(#radial-gradient-10);}.cls-86{fill:url(#linear-gradient-61);}.cls-87{fill:url(#linear-gradient-62);}.cls-88{fill:url(#linear-gradient-63);}.cls-89{fill:url(#linear-gradient-64);}.cls-90{fill:url(#linear-gradient-65);}.cls-91{fill:url(#linear-gradient-66);}.cls-92{fill:url(#radial-gradient-11);}</style><linearGradient id="linear-gradient" x1="177.85" y1="387.12" x2="177.81" y2="377.25" gradientTransform="translate(100.86 -11.5) rotate(15.77)" gradientUnits="userSpaceOnUse"><stop offset="0" stop-color="#932611"/><stop offset="0.62" stop-color="#ae3b1b"/><stop offset="1" stop-color="#c04a22"/></linearGradient><linearGradient id="linear-gradient-2" x1="180.32" y1="389.54" x2="188.13" y2="384.03" xlink:href="#linear-gradient"/><linearGradient id="linear-gradient-3" x1="175.93" y1="388.89" x2="168.05" y2="384.56" xlink:href="#linear-gradient"/><linearGradient id="linear-gradient-4" x1="176.69" y1="390.29" x2="171.39" y2="397.02" xlink:href="#linear-gradient"/><linearGradient id="linear-gradient-5" x1="180.02" y1="392.87" x2="186.23" y2="397.82" xlink:href="#linear-gradient"/><linearGradient id="linear-gradient-6" x1="206.36" y1="608.7" x2="210.89" y2="608.7" gradientTransform="translate(774.94 202.23) rotate(90)" gradientUnits="userSpaceOnUse"><stop offset="0" stop-color="#932611"/><stop offset="0.53" stop-color="#952712"/><stop offset="0.72" stop-color="#9c2d14"/><stop offset="0.85" stop-color="#a73619"/><stop offset="0.96" stop-color="#b8441f"/><stop offset="1" stop-color="#c04a22"/></linearGradient><radialGradient id="radial-gradient" cx="208.63" cy="608.42" r="3.98" gradientTransform="translate(275.17 -223.32) rotate(28.66)" gradientUnits="userSpaceOnUse"><stop offset="0" stop-color="#fff800"/><stop offset="0.15" stop-color="#fff800" stop-opacity="0.99"/><stop offset="0.28" stop-color="#fff700" stop-opacity="0.95"/><stop offset="0.4" stop-color="#fff600" stop-opacity="0.88"/><stop offset="0.52" stop-color="#fff500" stop-opacity="0.78"/><stop offset="0.63" stop-color="#fff300" stop-opacity="0.65"/><stop offset="0.74" stop-color="#fff100" stop-opacity="0.5"/><stop offset="0.85" stop-color="#fe0" stop-opacity="0.32"/><stop offset="0.95" stop-color="#ffeb00" stop-opacity="0.11"/><stop offset="1" stop-color="#ffe900" stop-opacity="0"/></radialGradient><linearGradient id="linear-gradient-7" x1="193.59" y1="393.81" x2="193.57" y2="388.06" gradientTransform="matrix(0.65, 0.76, -0.76, 0.65, 357.37, 29.63)" xlink:href="#linear-gradient"/><linearGradient id="linear-gradient-8" x1="195.04" y1="395.23" x2="199.59" y2="392.01" gradientTransform="matrix(0.65, 0.76, -0.76, 0.65, 357.37, 29.63)" xlink:href="#linear-gradient"/><linearGradient id="linear-gradient-9" x1="192.48" y1="394.84" x2="187.88" y2="392.32" gradientTransform="matrix(0.65, 0.76, -0.76, 0.65, 357.37, 29.63)" xlink:href="#linear-gradient"/><linearGradient id="linear-gradient-10" x1="192.92" y1="395.66" x2="189.83" y2="399.59" gradientTransform="matrix(0.65, 0.76, -0.76, 0.65, 357.37, 29.63)" xlink:href="#linear-gradient"/><linearGradient id="linear-gradient-11" x1="194.86" y1="397.16" x2="198.48" y2="400.05" gradientTransform="matrix(0.65, 0.76, -0.76, 0.65, 357.37, 29.63)" xlink:href="#linear-gradient"/><linearGradient id="linear-gradient-12" x1="224.05" y1="611.07" x2="226.69" y2="611.07" gradientTransform="translate(796.24 208.75) rotate(90)" xlink:href="#linear-gradient-6"/><radialGradient id="radial-gradient-2" cx="225.37" cy="610.9" r="2.32" gradientTransform="translate(619.5 -51.23) rotate(62.07)" xlink:href="#radial-gradient"/><linearGradient id="linear-gradient-13" x1="73.69" y1="391.28" x2="73.67" y2="387.23" xlink:href="#linear-gradient"/><linearGradient id="linear-gradient-14" x1="74.7" y1="392.27" x2="77.91" y2="390.01" xlink:href="#linear-gradient"/><linearGradient id="linear-gradient-15" x1="72.9" y1="392" x2="69.66" y2="390.23" xlink:href="#linear-gradient"/><linearGradient id="linear-gradient-16" x1="73.21" y1="392.58" x2="71.04" y2="395.35" xlink:href="#linear-gradient"/><linearGradient id="linear-gradient-17" x1="74.58" y1="393.64" x2="77.13" y2="395.67" xlink:href="#linear-gradient"/><linearGradient id="linear-gradient-18" x1="106.95" y1="635.08" x2="108.8" y2="635.08" gradientTransform="translate(700.27 277.8) rotate(90)" xlink:href="#linear-gradient-6"/><radialGradient id="radial-gradient-3" cx="107.88" cy="634.96" r="1.63" xlink:href="#radial-gradient"/><linearGradient id="linear-gradient-19" x1="90.01" y1="405.35" x2="89.98" y2="395.48" gradientTransform="translate(430 182.14) rotate(70.27)" xlink:href="#linear-gradient"/><linearGradient id="linear-gradient-20" x1="92.49" y1="407.77" x2="100.29" y2="402.26" gradientTransform="translate(430 182.14) rotate(70.27)" xlink:href="#linear-gradient"/><linearGradient id="linear-gradient-21" x1="88.1" y1="407.12" x2="80.22" y2="402.79" gradientTransform="translate(430 182.14) rotate(70.27)" xlink:href="#linear-gradient"/><linearGradient id="linear-gradient-22" x1="88.86" y1="408.52" x2="83.56" y2="415.25" gradientTransform="translate(430 182.14) rotate(70.27)" xlink:href="#linear-gradient"/><linearGradient id="linear-gradient-23" x1="92.19" y1="411.1" x2="98.39" y2="416.05" gradientTransform="translate(430 182.14) rotate(70.27)" xlink:href="#linear-gradient"/><linearGradient id="linear-gradient-24" x1="124.81" y1="646.06" x2="129.33" y2="646.06" gradientTransform="translate(723.41 277.09) rotate(90)" xlink:href="#linear-gradient-6"/><radialGradient id="radial-gradient-4" cx="127.08" cy="645.78" r="3.98" gradientTransform="translate(703.66 201) rotate(83.16)" xlink:href="#radial-gradient"/><linearGradient id="linear-gradient-25" x1="95.72" y1="334.27" x2="95.71" y2="331.7" gradientTransform="translate(206.35 4.89) rotate(33.01)" xlink:href="#linear-gradient"/><linearGradient id="linear-gradient-26" x1="96.36" y1="334.9" x2="98.39" y2="333.46" gradientTransform="translate(206.35 4.89) rotate(33.01)" xlink:href="#linear-gradient"/><linearGradient id="linear-gradient-27" x1="95.22" y1="334.73" x2="93.18" y2="333.6" gradientTransform="translate(206.35 4.89) rotate(33.01)" xlink:href="#linear-gradient"/><linearGradient id="linear-gradient-28" x1="95.42" y1="335.09" x2="94.05" y2="336.84" gradientTransform="translate(206.35 4.89) rotate(33.01)" xlink:href="#linear-gradient"/><linearGradient id="linear-gradient-29" x1="96.29" y1="335.76" x2="97.9" y2="337.05" gradientTransform="translate(206.35 4.89) rotate(33.01)" xlink:href="#linear-gradient"/><linearGradient id="linear-gradient-30" x1="116.01" y1="574.35" x2="117.19" y2="574.35" gradientTransform="translate(678.65 221.07) rotate(90)" xlink:href="#linear-gradient-6"/><radialGradient id="radial-gradient-5" cx="116.6" cy="574.28" r="1.03" gradientTransform="translate(435.58 -145.78) rotate(45.9)" xlink:href="#radial-gradient"/><linearGradient id="linear-gradient-31" x1="118.72" y1="301.75" x2="118.71" y2="300.39" gradientTransform="translate(19.31 0.44) rotate(1.9)" xlink:href="#linear-gradient"/><linearGradient id="linear-gradient-32" x1="119.06" y1="302.08" x2="120.13" y2="301.32" gradientTransform="translate(19.31 0.44) rotate(1.9)" xlink:href="#linear-gradient"/><linearGradient id="linear-gradient-33" x1="118.45" y1="301.99" x2="117.37" y2="301.39" gradientTransform="translate(19.31 0.44) rotate(1.9)" xlink:href="#linear-gradient"/><linearGradient id="linear-gradient-34" x1="118.56" y1="302.19" x2="117.83" y2="303.11" gradientTransform="translate(19.31 0.44) rotate(1.9)" xlink:href="#linear-gradient"/><linearGradient id="linear-gradient-35" x1="119.02" y1="302.54" x2="119.87" y2="303.22" gradientTransform="translate(19.31 0.44) rotate(1.9)" xlink:href="#linear-gradient"/><linearGradient id="linear-gradient-36" x1="131.42" y1="537.34" x2="132.04" y2="537.34" gradientTransform="translate(665.29 174.43) rotate(90)" xlink:href="#linear-gradient-6"/><radialGradient id="radial-gradient-6" cx="131.73" cy="537.3" r="0.55" gradientTransform="translate(137.73 -247) rotate(14.79)" xlink:href="#radial-gradient"/><linearGradient id="linear-gradient-37" x1="89.93" y1="291.72" x2="89.91" y2="288.04" gradientTransform="translate(206.35 4.89) rotate(33.01)" xlink:href="#linear-gradient"/><linearGradient id="linear-gradient-38" x1="90.85" y1="292.63" x2="93.77" y2="290.57" gradientTransform="translate(206.35 4.89) rotate(33.01)" xlink:href="#linear-gradient"/><linearGradient id="linear-gradient-39" x1="89.21" y1="292.38" x2="86.26" y2="290.77" gradientTransform="translate(206.35 4.89) rotate(33.01)" xlink:href="#linear-gradient"/><linearGradient id="linear-gradient-40" x1="89.49" y1="292.91" x2="87.51" y2="295.42" gradientTransform="translate(206.35 4.89) rotate(33.01)" xlink:href="#linear-gradient"/><linearGradient id="linear-gradient-41" x1="90.74" y1="293.87" x2="93.06" y2="295.72" gradientTransform="translate(206.35 4.89) rotate(33.01)" xlink:href="#linear-gradient"/><linearGradient id="linear-gradient-42" x1="100.64" y1="534.35" x2="102.33" y2="534.35" gradientTransform="translate(656.85 197.5) rotate(90)" xlink:href="#linear-gradient-6"/><radialGradient id="radial-gradient-7" cx="101.49" cy="534.25" r="1.49" gradientTransform="translate(435.58 -145.78) rotate(45.9)" xlink:href="#radial-gradient"/><linearGradient id="linear-gradient-43" x1="113.61" y1="285.83" x2="113.6" y2="284.47" gradientTransform="translate(19.31 0.44) rotate(1.9)" xlink:href="#linear-gradient"/><linearGradient id="linear-gradient-44" x1="113.95" y1="286.16" x2="115.03" y2="285.4" gradientTransform="translate(19.31 0.44) rotate(1.9)" xlink:href="#linear-gradient"/><linearGradient id="linear-gradient-45" x1="113.34" y1="286.07" x2="112.26" y2="285.48" gradientTransform="translate(19.31 0.44) rotate(1.9)" xlink:href="#linear-gradient"/><linearGradient id="linear-gradient-46" x1="113.45" y1="286.27" x2="112.72" y2="287.19" gradientTransform="translate(19.31 0.44) rotate(1.9)" xlink:href="#linear-gradient"/><linearGradient id="linear-gradient-47" x1="113.91" y1="286.62" x2="114.76" y2="287.3" gradientTransform="translate(19.31 0.44) rotate(1.9)" xlink:href="#linear-gradient"/><linearGradient id="linear-gradient-48" x1="122.89" y1="522.96" x2="123.51" y2="522.96" gradientTransform="translate(646.34 166.89) rotate(90)" xlink:href="#linear-gradient-6"/><radialGradient id="radial-gradient-8" cx="123.2" cy="522.92" r="0.55" gradientTransform="translate(137.73 -247) rotate(14.79)" xlink:href="#radial-gradient"/><linearGradient id="linear-gradient-49" x1="153.73" y1="325.1" x2="153.73" y2="323.74" gradientTransform="matrix(-0.75, -0.66, 0.66, -0.75, 5.37, 674.49)" xlink:href="#linear-gradient"/><linearGradient id="linear-gradient-50" x1="154.08" y1="325.44" x2="155.15" y2="324.68" gradientTransform="matrix(-0.75, -0.66, 0.66, -0.75, 5.37, 674.49)" xlink:href="#linear-gradient"/><linearGradient id="linear-gradient-51" x1="153.47" y1="325.35" x2="152.38" y2="324.75" gradientTransform="matrix(-0.75, -0.66, 0.66, -0.75, 5.37, 674.49)" xlink:href="#linear-gradient"/><linearGradient id="linear-gradient-52" x1="153.58" y1="325.54" x2="152.84" y2="326.47" gradientTransform="matrix(-0.75, -0.66, 0.66, -0.75, 5.37, 674.49)" xlink:href="#linear-gradient"/><linearGradient id="linear-gradient-53" x1="154.03" y1="325.9" x2="154.89" y2="326.58" gradientTransform="matrix(-0.75, -0.66, 0.66, -0.75, 5.37, 674.49)" xlink:href="#linear-gradient"/><linearGradient id="linear-gradient-54" x1="170.76" y1="552.29" x2="171.39" y2="552.29" gradientTransform="translate(-448.84 499.39) rotate(-90)" xlink:href="#linear-gradient-6"/><radialGradient id="radial-gradient-9" cx="171.08" cy="552.25" r="0.55" gradientTransform="translate(-242.82 791.34) rotate(-126)" xlink:href="#radial-gradient"/><linearGradient id="linear-gradient-55" x1="53.31" y1="355.56" x2="53.29" y2="351.87" gradientTransform="translate(-136.74 552.79) rotate(-107.78)" xlink:href="#linear-gradient"/><linearGradient id="linear-gradient-56" x1="54.23" y1="356.47" x2="57.15" y2="354.41" gradientTransform="translate(-136.74 552.79) rotate(-107.78)" xlink:href="#linear-gradient"/><linearGradient id="linear-gradient-57" x1="52.59" y1="356.22" x2="49.64" y2="354.61" gradientTransform="translate(-136.74 552.79) rotate(-107.78)" xlink:href="#linear-gradient"/><linearGradient id="linear-gradient-58" x1="52.87" y1="356.75" x2="50.89" y2="359.26" gradientTransform="translate(-136.74 552.79) rotate(-107.78)" xlink:href="#linear-gradient"/><linearGradient id="linear-gradient-59" x1="54.12" y1="357.71" x2="56.44" y2="359.56" gradientTransform="translate(-136.74 552.79) rotate(-107.78)" xlink:href="#linear-gradient"/><linearGradient id="linear-gradient-60" x1="79.18" y1="604.75" x2="80.88" y2="604.75" gradientTransform="translate(-418.62 473.35) rotate(-90)" xlink:href="#linear-gradient-6"/><radialGradient id="radial-gradient-10" cx="80.03" cy="604.65" r="1.49" gradientTransform="matrix(-0.09, -1, 1, -0.09, -409.6, 524.6)" xlink:href="#radial-gradient"/><linearGradient id="linear-gradient-61" x1="148.62" y1="309.18" x2="148.62" y2="307.82" gradientTransform="matrix(-0.75, -0.66, 0.66, -0.75, 5.37, 674.49)" xlink:href="#linear-gradient"/><linearGradient id="linear-gradient-62" x1="148.97" y1="309.52" x2="150.04" y2="308.76" gradientTransform="matrix(-0.75, -0.66, 0.66, -0.75, 5.37, 674.49)" xlink:href="#linear-gradient"/><linearGradient id="linear-gradient-63" x1="148.36" y1="309.43" x2="147.27" y2="308.83" gradientTransform="matrix(-0.75, -0.66, 0.66, -0.75, 5.37, 674.49)" xlink:href="#linear-gradient"/><linearGradient id="linear-gradient-64" x1="148.47" y1="309.62" x2="147.73" y2="310.55" gradientTransform="matrix(-0.75, -0.66, 0.66, -0.75, 5.37, 674.49)" xlink:href="#linear-gradient"/><linearGradient id="linear-gradient-65" x1="148.93" y1="309.98" x2="149.78" y2="310.66" gradientTransform="matrix(-0.75, -0.66, 0.66, -0.75, 5.37, 674.49)" xlink:href="#linear-gradient"/><linearGradient id="linear-gradient-66" x1="162.23" y1="537.92" x2="162.86" y2="537.92" gradientTransform="translate(-441.08 506.21) rotate(-90)" xlink:href="#linear-gradient-6"/><radialGradient id="radial-gradient-11" cx="162.55" cy="537.88" r="0.55" gradientTransform="translate(-242.82 791.34) rotate(-126)" xlink:href="#radial-gradient"/></defs><g id="koki"><path class="cls-1" d="M40.07,464.36c-15-12-12.83-114.39,14.44-190.5C80.24,202,83.7,165.37,81.16,173.24c14.57-11.31,57.64-13.43,74-10.61,73,102.09,77.91,202.75,72.63,303.37C157,496.18,96.18,488.94,40.07,464.36Z"/><path class="cls-2" d="M111.82,196.26l-.88,1.16c3.34,4.93,7.81,10.44,13.08,13.73A118.56,118.56,0,0,1,111.82,196.26Z"/><ellipse class="cls-3" cx="115.31" cy="109.19" rx="72.39" ry="72.37"/><path class="cls-4" d="M201.75,155.48c-2.57,7.73-28,22.83-39.2,18.44,4.13-23.07-2.14-85.19-6.33-89.57C125,101.24,91.79,103.06,58.08,88.81a253.47,253.47,0,0,0,.59,29.74c.8,13.21,7,41,9.82,52.54-3.71.66-20.58-7.39-24.29-12.39-5.46-12-8.25-38.48-8.36-52.1h0q-.18-2.85-.18-5.76c0-47.69,35.67-86.36,79.66-86.36,34.52,0,70.38,22.4,81.43,55.69C198.86,74.91,208.14,145.34,201.75,155.48Z"/><path class="cls-4" d="M51.59,102.23c39.36,14.08,76,16.44,112.13,1.83l-2.36-33.78L50.73,72.45Z"/><path class="cls-5" d="M112.23,55.6c-12.28-2.28-26.08-.07-38.42,1-7-17.23-3.54-33.05,3.31-33.26,14.15,4.22,25.62,3.72,35.82,3.05Z"/><path class="cls-5" d="M112.23,55.6c14,.59,24.75,1.79,34.81,5.18l1.23-39.07c-10.81,3-22.64,4.29-35.33,4.67Z"/><ellipse class="cls-1" cx="149.36" cy="41.42" rx="19.89" ry="10.05" transform="matrix(0.03, -1, 1, 0.03, 103.28, 189.41)"/><path class="cls-6" d="M116.4,41.16c-.26,8.14-2.52,14.49-4.93,14.42s-4.06-6.56-3.8-14.7,2.44-14.61,4.85-14.54S116.65,33,116.4,41.16Z"/><path class="cls-4" d="M140.19,136.51c-4-.68-9.07-.57-15.26.26a.66.66,0,0,1-.39-1.25c6.28-3.13,12-5.58,15.71-5.5a.65.65,0,0,0,.51-.22l1.86-2.11-.87,2.17,2-1.62-.88,2.22,2.06-1.39-.74,1.86a.66.66,0,0,0,.06.61l.39.59a.66.66,0,0,1,.1.47c-.27,1.7-1.9,2.9-4.15,3.87A.7.7,0,0,1,140.19,136.51Z"/><path class="cls-4" d="M79.77,134.25c4-.11,9.06.72,15.08,2.42a.66.66,0,0,0,.56-1.18c-5.77-4-11.1-7.23-14.77-7.68a.61.61,0,0,1-.47-.28l-1.54-2.36.54,2.27-1.72-1.88.55,2.32-1.85-1.66.48,1.94a.69.69,0,0,1-.15.6l-.46.53a.67.67,0,0,0-.18.44c0,1.73,1.48,3.15,3.57,4.42A.65.65,0,0,0,79.77,134.25Z"/><path class="cls-4" d="M116,159.11a5,5,0,0,1-5.1,4.89,4.93,4.93,0,0,1-.55,0,5.11,5.11,0,0,1-4.94-5.17,6.06,6.06,0,0,1,.1-.76.47.47,0,0,1,.89-.1,4.83,4.83,0,0,0,8.65.26.48.48,0,0,1,.89.14A4.9,4.9,0,0,1,116,159.11Z"/><ellipse class="cls-7" cx="137.14" cy="147.78" rx="8.57" ry="3.13" transform="translate(-16.79 17.58) rotate(-6.91)"/><ellipse class="cls-7" cx="86.82" cy="148.28" rx="3.13" ry="8.57" transform="translate(-72.42 212.84) rotate(-81.72)"/><path class="cls-8" d="M120.75,159.89a1.44,1.44,0,0,1-.37,1.23,19.11,19.11,0,0,1-5.62,4.52,12.06,12.06,0,0,1-10.65.18,23.27,23.27,0,0,1-5.54-3.45,3.07,3.07,0,0,1-.16-4.94,8.69,8.69,0,0,1,5.51-1.8c1.08,0,2.13.94,3.08,1.86a2.58,2.58,0,0,0,3.46,0c.94-1,2-2,3.14-2C117.25,155.51,120.26,157.41,120.75,159.89Z"/><path class="cls-2" d="M111.9,240.46c3.52-13.69,14.38-40.7,23.88-49.71l1.58.64C128.26,200.05,116.55,226.86,111.9,240.46Z"/><path class="cls-2" d="M131,199.56h0a15.64,15.64,0,0,1,5.6,6.7c-3-3.68-5.44-5.38-7.2-4.83l1.6-1.87"/><path class="cls-2" d="M128.71,203.28l-1.1,1.87a3.32,3.32,0,0,1,3,.87C130.61,205,129.92,204.1,128.71,203.28Z"/><path class="cls-2" d="M126.69,206.75c1.62.34,2.88,1.82,4.1,3.41a9.5,9.5,0,0,0-5.33-1.5Z"/><path class="cls-9" d="M74.2,237.42c3.09-9,13.6-42.26,12.72-48,8.44,4.28,14.13,10.31,17.33,17.91C99.06,220.48,87.2,229.32,74.2,237.42Z"/><path class="cls-9" d="M48.55,350.36c-12.85,30.31-12.27,65.13-5,96.32,5.31,4.29,3.81,6,16.38,9.36-8-32.13-6.82-61.71.24-91.37C55.59,355.5,54.54,353.57,48.55,350.36Z"/><path class="cls-10" d="M77.8,28.77a30.6,30.6,0,0,1,8.09,1.16c-5,1.76-7.09,10.56-7.51,23.12C76,53.66,72.22,31.87,77.8,28.77Z"/><path class="cls-11" d="M130.39,27.62a74.66,74.66,0,0,0,8.09-1.16,7.46,7.46,0,0,0-2.11,4.12C135.52,29.37,133.34,28.42,130.39,27.62Z"/><path class="cls-10" d="M48.7,87.26c1-12.79,4.55-24.36,13.43-33.44,2.94,4.54,7.43,7.27,13.15,8.57-10.5,5.93-17.19,16.22-22.58,28Z"/><path class="cls-12" d="M105.28,186.43c20.67,2.87,38.92,1.43,52.88-7.72,8.33,9,13.87,20,17.43,32.59C152.23,210.2,128.77,199.83,105.28,186.43Z"/><path class="cls-12" d="M175.5,212.54c2.81.61,17.44,34.43,16.09,40.23-.29,1.29-27-2.48-27.79-3.17,3.06-10.76.9-26.67-5.86-39.14C163,211.54,169,212.86,175.5,212.54Z"/><path class="cls-12" d="M142.34,468.73c28.11-7.73,63.29-31.67,70.77-42.25,5.84,3.82,4.42,18.92,4,26.53C197,465.16,171.25,472.84,142.34,468.73Z"/><path class="cls-13" d="M191.2,369.86c8.45-3.87,16.13-13.21,23.39-25.6,4.74,24.8,6.49,48.72,4.41,71.5-8.33,7.07-16.33,9.4-24.27,11C197.33,406.24,197.59,386.66,191.2,369.86Z"/><path class="cls-14" d="M62.24,115.25c1.8.74,3.11,1.67,3.42,3-1,8.51,2.63,23.12,6.63,38.26-1.21.79-2.42.41-3.64-1.07C65.22,140.54,61.78,125.63,62.24,115.25Z"/><path class="cls-15" d="M162.24,140.41c.53,8.49,1.12,17.16,0,20.52-.42,2.18-11.13,9.2-12.83,8.8C152.3,166.74,162.49,151.28,162.24,140.41Z"/><path class="cls-16" d="M165.85,410c-2.37-4.51-3.71-8.8-1.15-12.3a3.45,3.45,0,0,1,4.06-.95,2.09,2.09,0,0,1,1.08,1.35,3.26,3.26,0,0,1,2.23-.42,3.35,3.35,0,0,1,2.5,3c.3,4.06-2.76,7.1-7.16,9.74Z"/><path class="cls-17" d="M167.42,411c2.82-4.25,5.94-7.49,10.24-6.92a3.43,3.43,0,0,1,2.78,3.09,2.07,2.07,0,0,1-.66,1.61,3.18,3.18,0,0,1,1.43,1.74,3.35,3.35,0,0,1-1.44,3.66c-3.41,2.21-7.55,1-12-1.6Z"/><path class="cls-18" d="M164.79,411.8c-5.09-.06-9.51-.93-11.37-4.84a3.45,3.45,0,0,1,1.09-4,2,2,0,0,1,1.71-.31,3.25,3.25,0,0,1,.68-2.16,3.37,3.37,0,0,1,3.85-.77c3.71,1.66,4.94,5.81,5.17,10.93Z"/><path class="cls-19" d="M166.59,412.79c-1.43,4.9-3.45,8.92-7.72,9.65a3.46,3.46,0,0,1-3.58-2.13,2.1,2.1,0,0,1,.16-1.73,3.25,3.25,0,0,1-1.89-1.24,3.37,3.37,0,0,1,.3-3.92c2.6-3.12,6.92-3.19,11.92-2Z"/><path class="cls-20" d="M167.22,412c4.82,1.68,8.72,3.92,9.23,8.22a3.43,3.43,0,0,1-2.31,3.46,2.12,2.12,0,0,1-1.72-.25,3.22,3.22,0,0,1-1.34,1.82,3.34,3.34,0,0,1-3.89-.5c-3-2.76-2.82-7.07-1.4-12Z"/><ellipse class="cls-21" cx="166.24" cy="410.85" rx="2.31" ry="2.26" transform="translate(-274 359.64) rotate(-61.34)"/><circle class="cls-22" cx="166.39" cy="410.61" r="3.98"/><path class="cls-23" d="M185.27,433.56c.29-3,1-5.48,3.39-6.36a2,2,0,0,1,2.28.84,1.25,1.25,0,0,1,.09,1,1.86,1.86,0,0,1,1.22.51,2,2,0,0,1,.25,2.27c-1.16,2.07-3.63,2.57-6.62,2.44Z"/><path class="cls-24" d="M185.71,434.54c2.74-1.16,5.3-1.73,7.21-.08a2,2,0,0,1,.36,2.4,1.21,1.21,0,0,1-.84.57,1.88,1.88,0,0,1,.14,1.31,2,2,0,0,1-1.87,1.32c-2.38,0-4-1.95-5.33-4.63Z"/><path class="cls-25" d="M184.17,434.11c-2.47-1.67-4.34-3.51-4-6a2,2,0,0,1,1.82-1.61,1.24,1.24,0,0,1,.93.4,1.8,1.8,0,0,1,3.15,0c1.28,2,.54,4.41-1,7Z"/><path class="cls-26" d="M184.72,435.17c-2.27,1.92-4.54,3.23-6.85,2.22a2,2,0,0,1-1.06-2.19,1.21,1.21,0,0,1,.63-.79,1.89,1.89,0,0,1-.52-1.21,1.94,1.94,0,0,1,1.4-1.81c2.27-.69,4.39.67,6.45,2.84Z"/><path class="cls-27" d="M185.3,435c1.8,2.36,3,4.7,1.85,7a2,2,0,0,1-2.24.94,1.17,1.17,0,0,1-.75-.67,1.88,1.88,0,0,1-1.24.46,2,2,0,0,1-1.74-1.49c-.56-2.31.9-4.36,3.18-6.3Z"/><ellipse class="cls-28" cx="185.17" cy="434.11" rx="1.35" ry="1.32" transform="translate(-181.77 137.3) rotate(-27.93)"/><circle class="cls-29" cx="185.32" cy="434.04" r="2.32"/><path class="cls-30" d="M65,385.31c-1-1.85-1.53-3.61-.47-5.05a1.4,1.4,0,0,1,1.66-.39.86.86,0,0,1,.45.56,1.3,1.3,0,0,1,.91-.18,1.38,1.38,0,0,1,1,1.24c.12,1.67-1.13,2.92-2.94,4Z"/><path class="cls-31" d="M65.67,385.72c1.16-1.75,2.44-3.08,4.21-2.84A1.41,1.41,0,0,1,71,384.15a.9.9,0,0,1-.27.66,1.35,1.35,0,0,1,.59.71,1.37,1.37,0,0,1-.6,1.5c-1.4.91-3.1.41-4.92-.65Z"/><path class="cls-32" d="M64.59,386.06c-2.09,0-3.91-.38-4.67-2a1.43,1.43,0,0,1,.45-1.66.84.84,0,0,1,.7-.12,1.35,1.35,0,0,1,.28-.89,1.38,1.38,0,0,1,1.58-.32c1.53.69,2,2.39,2.12,4.49Z"/><path class="cls-33" d="M65.33,386.47c-.59,2-1.42,3.66-3.17,4a1.41,1.41,0,0,1-1.47-.87.83.83,0,0,1,.07-.71,1.35,1.35,0,0,1-.78-.51,1.37,1.37,0,0,1,.12-1.61c1.07-1.28,2.84-1.31,4.9-.83Z"/><path class="cls-34" d="M65.59,386.13c2,.69,3.58,1.61,3.79,3.37a1.41,1.41,0,0,1-.95,1.43.87.87,0,0,1-.71-.11,1.28,1.28,0,0,1-.54.75,1.37,1.37,0,0,1-1.6-.2c-1.23-1.14-1.16-2.91-.58-4.94Z"/><ellipse class="cls-35" cx="65.19" cy="385.67" rx="0.95" ry="0.93" transform="translate(-304.49 257.87) rotate(-61.34)"/><circle class="cls-36" cx="65.25" cy="385.58" r="1.63"/><path class="cls-37" d="M77.83,403.33c2.3-4.55,5-8.14,9.35-8.08A3.44,3.44,0,0,1,90.31,398a2.08,2.08,0,0,1-.47,1.68,3.23,3.23,0,0,1,1.63,1.56,3.34,3.34,0,0,1-1,3.8c-3.13,2.6-7.38,1.87-12.09-.18Z"/><path class="cls-38" d="M77.94,405.18c5.1-.18,9.55.49,11.58,4.31a3.44,3.44,0,0,1-.9,4.07,2.08,2.08,0,0,1-1.69.39,3.23,3.23,0,0,1-.59,2.18,3.35,3.35,0,0,1-3.81.95c-3.78-1.5-5.2-5.58-5.66-10.69Z"/><path class="cls-39" d="M75.74,403.53c-2.92-4.19-4.78-8.28-2.67-12.07A3.44,3.44,0,0,1,77,390a2.08,2.08,0,0,1,1.25,1.21,3.18,3.18,0,0,1,2.15-.69,3.34,3.34,0,0,1,2.86,2.68c.81,4-1.85,7.39-5.89,10.56Z"/><path class="cls-40" d="M76,405.57c-4.81,1.68-9.26,2.37-12.34-.68a3.45,3.45,0,0,1-.34-4.15,2.07,2.07,0,0,1,1.5-.88,3.22,3.22,0,0,1-.09-2.26,3.35,3.35,0,0,1,3.36-2c4.06.3,6.61,3.78,8.57,8.53Z"/><path class="cls-41" d="M77,405.6c1.43,4.9,1.88,9.37-1.32,12.29a3.47,3.47,0,0,1-4.17.13,2.13,2.13,0,0,1-.79-1.55,3.24,3.24,0,0,1-2.26,0A3.36,3.36,0,0,1,66.61,413c.52-4,4.12-6.41,9-8.12Z"/><ellipse class="cls-42" cx="77.35" cy="404.16" rx="2.31" ry="2.26" transform="translate(-47.62 12.1) rotate(-6.84)"/><circle class="cls-43" cx="77.63" cy="404.14" r="3.98"/><path class="cls-6" d="M39,332c43,22,139,25,184,1-4.12-34.91-9.53-51.9-21-67-23.75,18.54-70.06,32-145,4.77C48.94,292.59,41.39,314.05,39,332Z"/><path class="cls-5" d="M136.65,252.3c-14.58,39.57.16,76,38.82,109.79a876,876,0,0,0,74.61-87.34C218.61,262.23,181.48,254.21,136.65,252.3Z"/><path class="cls-5" d="M32.53,295.16a315,315,0,0,1,44.89-47.31c25.41,35.23,18.36,79.39.4,105.91C60.86,343,47.4,314,32.53,295.16Z"/><path class="cls-9" d="M44.28,289.44c9.45-12.68,18.89-23,28.32-28.9,3.78,0,12.18,18.17,7.91,20.71C68.87,288.17,52.45,290.78,44.28,289.44Z"/><path class="cls-9" d="M142.53,300.42c-3.75-15.13-5.07-29.21-1.16-41,11.64-.31,20.76,1.77,25.44,8.09C166.83,266.47,147.85,279.7,142.53,300.42Z"/><path class="cls-12" d="M158.43,330.79a36.73,36.73,0,0,0,16.23,18.84c19.51-12.66,38.33-33.36,56.82-58C201.78,309.94,176.73,325.29,158.43,330.79Z"/><path class="cls-12" d="M51.75,317.74c6.93,11.74,14.55,21.87,23.48,29l3.19-6.38C70.1,335.39,61.11,327.38,51.75,317.74Z"/><path class="cls-12" d="M218.44,319.48c-9.66,12.61-28.9,31.74-41.55,43.71l4.28,1.67C195,354.5,213.61,337.81,218.44,319.48Z"/><path class="cls-12" d="M53.11,333.57c7.06,8.91,15.57,18.2,25.73,23.45,4.11-4.91,6.56-11,8.19-16.2,3.7,1.09,5.77,2.77,4.92,5.5C90.42,351,86.12,356.41,81.23,362,65.35,357.78,57.33,347.22,53.11,333.57Z"/><path class="cls-13" d="M82.62,249.81c17.95,30.87,18,59.19,7.95,86.06l5.73-.44c8-30.67,8.08-59.14-8.82-83Z"/><path class="cls-13" d="M132.69,302.76C146,340,160.25,348,175.31,363.84l.56,3.53c-17.16-19.88-33.86-27.36-44.51-60Z"/><path class="cls-44" d="M104.26,337.43c-.24-1.31-.24-2.48.67-3.15a.91.91,0,0,1,1.08.08.53.53,0,0,1,.16.42.8.8,0,0,1,.59.07.89.89,0,0,1,.39.94c-.24,1-1.24,1.55-2.53,1.87Z"/><path class="cls-45" d="M104.58,337.79c1-.84,2-1.4,3.07-.93a.91.91,0,0,1,.46,1,.55.55,0,0,1-.29.35.8.8,0,0,1-.42,1.34c-1,.29-2-.33-2.85-1.32Z"/><path class="cls-46" d="M103.86,337.8c-1.26-.41-2.29-1-2.45-2.08a.9.9,0,0,1,.58-.91.54.54,0,0,1,.45.05.84.84,0,0,1,.33-.48.9.9,0,0,1,1,.1c.79.7.78,1.82.44,3.12Z"/><path class="cls-47" d="M104.23,338.18c-.73,1.11-1.54,1.95-2.66,1.8a.89.89,0,0,1-.72-.8.56.56,0,0,1,.17-.42.81.81,0,0,1-.37-.45.87.87,0,0,1,.37-.95c.89-.58,2-.26,3.12.41Z"/><path class="cls-48" d="M104.45,338c1.07.78,1.87,1.64,1.66,2.75a.91.91,0,0,1-.84.68.56.56,0,0,1-.41-.2.81.81,0,0,1-.47.35.86.86,0,0,1-.93-.42c-.53-.92-.15-2,.58-3.09Z"/><ellipse class="cls-49" cx="104.29" cy="337.67" rx="0.6" ry="0.59" transform="translate(-205.6 167.78) rotate(-44.1)"/><circle class="cls-50" cx="104.35" cy="337.63" r="1.03"/><path class="cls-51" d="M127.87,306.06c-.46-.52-.78-1.06-.56-1.61a.48.48,0,0,1,.51-.26.27.27,0,0,1,.19.15.43.43,0,0,1,.29-.13.44.44,0,0,1,.43.32c.18.53-.13,1-.63,1.54Z"/><path class="cls-52" d="M128.12,306.14c.23-.66.54-1.2,1.14-1.26a.46.46,0,0,1,.47.32.26.26,0,0,1,0,.23.48.48,0,0,1,.25.19.47.47,0,0,1-.07.54c-.39.41-1,.38-1.66.18Z"/><path class="cls-53" d="M127.79,306.34c-.68.16-1.3.19-1.68-.27a.48.48,0,0,1,0-.58.27.27,0,0,1,.22-.09.49.49,0,0,1,0-.32.48.48,0,0,1,.49-.23c.55.1.85.62,1.05,1.3Z"/><path class="cls-54" d="M128.07,306.41c0,.71-.17,1.31-.72,1.55a.47.47,0,0,1-.55-.17.27.27,0,0,1,0-.23.44.44,0,0,1-.3-.11.46.46,0,0,1-.09-.53c.25-.51.82-.66,1.53-.67Z"/><path class="cls-55" d="M128.12,306.28c.7.07,1.3.24,1.51.8a.47.47,0,0,1-.19.54.3.3,0,0,1-.24,0,.48.48,0,0,1-.12.29.46.46,0,0,1-.54.06c-.49-.27-.61-.85-.59-1.56Z"/><ellipse class="cls-56" cx="127.95" cy="306.17" rx="0.32" ry="0.31" transform="translate(-200.73 351.74) rotate(-75.21)"/><circle class="cls-57" cx="127.97" cy="306.13" r="0.55"/><path class="cls-58" d="M122.46,298.63c-.35-1.88-.35-3.56,1-4.52a1.28,1.28,0,0,1,1.55.1.78.78,0,0,1,.24.61,1.15,1.15,0,0,1,1.4,1.45c-.34,1.48-1.77,2.23-3.63,2.68Z"/><path class="cls-59" d="M122.91,299.15c1.48-1.21,3-2,4.42-1.34a1.28,1.28,0,0,1,.65,1.42.77.77,0,0,1-.41.5,1.2,1.2,0,0,1,.32.78,1.26,1.26,0,0,1-.92,1.14c-1.47.41-2.81-.48-4.11-1.9Z"/><path class="cls-60" d="M121.88,299.16c-1.82-.59-3.3-1.38-3.53-3a1.29,1.29,0,0,1,.84-1.31.75.75,0,0,1,.64.08,1.23,1.23,0,0,1,.48-.7,1.26,1.26,0,0,1,1.46.15c1.15,1,1.13,2.62.64,4.48Z"/><path class="cls-61" d="M122.41,299.71c-1,1.59-2.22,2.8-3.82,2.59a1.29,1.29,0,0,1-1-1.15.78.78,0,0,1,.25-.6,1.28,1.28,0,0,1-.54-.66,1.27,1.27,0,0,1,.54-1.36c1.28-.83,2.83-.37,4.48.59Z"/><path class="cls-62" d="M122.73,299.49c1.53,1.13,2.68,2.36,2.38,3.95a1.27,1.27,0,0,1-1.21,1,.76.76,0,0,1-.58-.28,1.25,1.25,0,0,1-.68.51,1.27,1.27,0,0,1-1.34-.61c-.76-1.32-.22-2.84.83-4.45Z"/><ellipse class="cls-63" cx="122.5" cy="298.98" rx="0.86" ry="0.85" transform="translate(-173.54 169.54) rotate(-44.1)"/><circle class="cls-64" cx="122.58" cy="298.91" r="1.49"/><path class="cls-65" d="M123.29,290c-.46-.52-.78-1.05-.56-1.61a.48.48,0,0,1,.51-.26.27.27,0,0,1,.19.15.43.43,0,0,1,.29-.13.46.46,0,0,1,.43.32c.18.53-.13,1-.63,1.54Z"/><path class="cls-66" d="M123.54,290.06c.23-.66.54-1.2,1.14-1.26a.46.46,0,0,1,.47.32.28.28,0,0,1,0,.24.47.47,0,0,1,.25.18.47.47,0,0,1-.07.54c-.39.41-1,.38-1.66.18Z"/><path class="cls-67" d="M123.21,290.26c-.68.16-1.3.19-1.68-.27a.47.47,0,0,1,0-.57.25.25,0,0,1,.22-.1.46.46,0,0,1,0-.31.45.45,0,0,1,.49-.23c.55.1.85.61,1,1.29Z"/><path class="cls-68" d="M123.49,290.34c0,.7-.17,1.3-.72,1.54a.48.48,0,0,1-.55-.16.29.29,0,0,1,0-.24.49.49,0,0,1-.3-.1.48.48,0,0,1-.09-.54c.25-.5.82-.66,1.53-.67Z"/><path class="cls-69" d="M123.54,290.2c.7.07,1.3.24,1.51.8a.47.47,0,0,1-.19.54.3.3,0,0,1-.24,0,.48.48,0,0,1-.12.29.46.46,0,0,1-.54.06c-.49-.27-.61-.85-.58-1.56Z"/><ellipse class="cls-70" cx="123.38" cy="290.09" rx="0.32" ry="0.31" transform="translate(-188.59 335.34) rotate(-75.21)"/><circle class="cls-71" cx="123.39" cy="290.05" r="0.55"/><path class="cls-72" d="M103.45,328.44c0,.71-.06,1.32-.58,1.6a.48.48,0,0,1-.57-.12.28.28,0,0,1,0-.23.43.43,0,0,1-.3-.08.46.46,0,0,1-.14-.52c.2-.53.77-.72,1.47-.79Z"/><path class="cls-73" d="M103.31,328.23c-.6.36-1.18.58-1.68.26a.48.48,0,0,1-.17-.55.3.3,0,0,1,.18-.17.41.41,0,0,1-.08-.3.49.49,0,0,1,.4-.37c.55-.07,1,.32,1.4.91Z"/><path class="cls-74" d="M103.69,328.28c.63.31,1.13.67,1.13,1.27a.48.48,0,0,1-.37.44.29.29,0,0,1-.23-.06.54.54,0,0,1-.22.23.46.46,0,0,1-.52-.14c-.37-.42-.28-1,0-1.66Z"/><path class="cls-75" d="M103.52,328.05c.47-.53,1-.91,1.53-.75a.49.49,0,0,1,.33.48.28.28,0,0,1-.13.2.42.42,0,0,1-.1.74c-.51.24-1.05,0-1.61-.45Z"/><path class="cls-76" d="M103.39,328.11c-.5-.49-.85-1-.66-1.56a.46.46,0,0,1,.49-.3.29.29,0,0,1,.2.13.46.46,0,0,1,.28-.15.47.47,0,0,1,.45.3c.21.52-.06,1.05-.53,1.58Z"/><ellipse class="cls-77" cx="103.45" cy="328.31" rx="0.32" ry="0.31" transform="translate(-173.21 123.5) rotate(-36)"/><circle class="cls-78" cx="103.42" cy="328.33" r="0.55"/><path class="cls-79" d="M185.94,393.63c-.91,1.67-2,3-3.59,2.9a1.3,1.3,0,0,1-1.14-1.07.82.82,0,0,1,.2-.62,1.19,1.19,0,0,1-.59-.6,1.26,1.26,0,0,1,.42-1.41c1.21-.93,2.79-.61,4.52.22Z"/><path class="cls-80" d="M185.93,392.94c-1.91,0-3.56-.31-4.27-1.76a1.29,1.29,0,0,1,.38-1.51.75.75,0,0,1,.64-.12,1.23,1.23,0,0,1,.25-.81,1.24,1.24,0,0,1,1.43-.31c1.4.61,1.87,2.15,2,4.07Z"/><path class="cls-81" d="M186.73,393.58c1,1.6,1.68,3.15.84,4.54a1.28,1.28,0,0,1-1.47.49.73.73,0,0,1-.45-.46,1.16,1.16,0,0,1-1.85-.81c-.25-1.5.78-2.74,2.33-3.87Z"/><path class="cls-82" d="M186.67,392.81c1.82-.56,3.49-.76,4.6.42a1.27,1.27,0,0,1,.07,1.55.77.77,0,0,1-.57.31,1.21,1.21,0,0,1,0,.84,1.25,1.25,0,0,1-1.28.72c-1.52-.16-2.43-1.5-3.1-3.29Z"/><path class="cls-83" d="M186.28,392.79c-.47-1.85-.58-3.53.65-4.57a1.29,1.29,0,0,1,1.56,0,.76.76,0,0,1,.27.59,1.23,1.23,0,0,1,.85,0,1.26,1.26,0,0,1,.65,1.32c-.25,1.5-1.62,2.34-3.45,2.91Z"/><ellipse class="cls-84" cx="186.14" cy="393.32" rx="0.86" ry="0.85" transform="translate(-32.84 17.29) rotate(-4.89)"/><circle class="cls-85" cx="186.03" cy="393.33" r="1.49"/><path class="cls-86" d="M96.83,343.8c0,.7-.06,1.31-.58,1.6a.47.47,0,0,1-.56-.12.31.31,0,0,1-.06-.24.44.44,0,0,1-.3-.07.49.49,0,0,1-.14-.53c.21-.52.77-.72,1.47-.79Z"/><path class="cls-87" d="M96.69,343.58c-.6.36-1.18.58-1.68.26a.49.49,0,0,1-.17-.55.31.31,0,0,1,.18-.16.48.48,0,0,1-.07-.3.44.44,0,0,1,.39-.37c.56-.08,1,.32,1.4.9Z"/><path class="cls-88" d="M97.07,343.63c.63.31,1.13.68,1.13,1.28a.46.46,0,0,1-.37.43.26.26,0,0,1-.23-.06.47.47,0,0,1-.21.23.46.46,0,0,1-.53-.13,1.58,1.58,0,0,1,0-1.67Z"/><path class="cls-89" d="M96.91,343.4c.46-.53,1-.91,1.53-.75a.5.5,0,0,1,.32.48.3.3,0,0,1-.12.21.43.43,0,0,1,.16.26.47.47,0,0,1-.27.47c-.51.24-1,0-1.61-.45Z"/><path class="cls-90" d="M96.78,343.47c-.5-.5-.86-1-.67-1.57a.49.49,0,0,1,.49-.3.28.28,0,0,1,.2.14.43.43,0,0,1,.28-.15.45.45,0,0,1,.45.29c.21.52-.06,1.05-.53,1.58Z"/><ellipse class="cls-91" cx="96.83" cy="343.66" rx="0.32" ry="0.31" transform="translate(-183.5 122.55) rotate(-36)"/><circle class="cls-92" cx="96.8" cy="343.68" r="0.55"/></g></svg>