<svg xmlns="http://www.w3.org/2000/svg" xmlns:xlink="http://www.w3.org/1999/xlink" width="1001" height="807" viewBox="0 0 1001 807"><defs><style>.cls-1{fill:url(#linear-gradient);}.cls-2{fill:url(#radial-gradient);}.cls-3{fill:url(#linear-gradient-2);}.cls-4{fill:url(#radial-gradient-2);}.cls-5{fill:url(#linear-gradient-3);}.cls-6{fill:url(#linear-gradient-4);}.cls-7{fill:url(#linear-gradient-5);}.cls-8{fill:url(#linear-gradient-6);}.cls-9{fill:url(#linear-gradient-7);}</style><linearGradient id="linear-gradient" x1="499.93" y1="780.29" x2="501.29" y2="444.33" gradientTransform="matrix(1, 0, 0, -1, 0, 1015.33)" gradientUnits="userSpaceOnUse"><stop offset="0" stop-color="#c04a22"/><stop offset="0.62" stop-color="#a53518"/><stop offset="1" stop-color="#932611"/></linearGradient><radialGradient id="radial-gradient" cx="472.72" cy="406.13" r="179.53" gradientTransform="translate(23.33 -17.14) scale(1.01 1.04)" gradientUnits="userSpaceOnUse"><stop offset="0.55" stop-color="#fff800"/><stop offset="0.64" stop-color="#fff800" stop-opacity="0.84"/><stop offset="0.85" stop-color="#fff800" stop-opacity="0.42"/><stop offset="1" stop-color="#fff800" stop-opacity="0.1"/></radialGradient><linearGradient id="linear-gradient-2" x1="-4481.48" y1="749.44" x2="-4480.37" y2="473.16" gradientTransform="translate(-3981.5 1014.5) rotate(180)" gradientUnits="userSpaceOnUse"><stop offset="0" stop-color="#932611"/><stop offset="0.62" stop-color="#ae3b1b"/><stop offset="1" stop-color="#c04a22"/></linearGradient><radialGradient id="radial-gradient-2" cx="471.71" cy="406.13" r="179.53" gradientTransform="translate(23.33 -17.14) scale(1.01 1.04)" gradientUnits="userSpaceOnUse"><stop offset="0.04" stop-color="#fff800"/><stop offset="0.15" stop-color="#fff800" stop-opacity="0.98"/><stop offset="0.28" stop-color="#fff800" stop-opacity="0.93"/><stop offset="0.41" stop-color="#fff800" stop-opacity="0.84"/><stop offset="0.55" stop-color="#fff800" stop-opacity="0.71"/><stop offset="0.69" stop-color="#fff800" stop-opacity="0.55"/><stop offset="0.84" stop-color="#fff800" stop-opacity="0.36"/><stop offset="0.98" stop-color="#fff800" stop-opacity="0.13"/><stop offset="1" stop-color="#fff800" stop-opacity="0.1"/></radialGradient><linearGradient id="linear-gradient-3" x1="542.46" y1="338.76" x2="555.36" y2="338.76" gradientTransform="matrix(1, 0, 0, 1, 0, 0)" xlink:href="#linear-gradient-2"/><linearGradient id="linear-gradient-4" x1="472.06" y1="339.59" x2="488.07" y2="339.59" gradientTransform="matrix(1, 0, 0, 1, 0, 0)" xlink:href="#linear-gradient-2"/><linearGradient id="linear-gradient-5" x1="471.12" y1="459.5" x2="480.27" y2="459.5" gradientTransform="matrix(1, 0, 0, 1, 0, 0)" xlink:href="#linear-gradient-2"/><linearGradient id="linear-gradient-6" x1="509.5" y1="334.7" x2="518.65" y2="334.7" gradientTransform="matrix(1, 0, 0, 1, 0, 0)" xlink:href="#linear-gradient-2"/><linearGradient id="linear-gradient-7" x1="349.22" y1="403.5" x2="651.78" y2="403.5" gradientTransform="matrix(1, 0, 0, 1, 0, 0)" xlink:href="#linear-gradient-2"/></defs><g id="Opening-titles"><circle class="cls-1" cx="500.61" cy="403.5" r="183.96"/><ellipse class="cls-2" cx="501.51" cy="403.5" rx="183.05" ry="184.45"/><circle class="cls-3" cx="499.42" cy="403.59" r="151.28"/><ellipse class="cls-4" cx="500.5" cy="403.5" rx="183.05" ry="184.45"/><path class="cls-5" d="M543.19,309.17a71.84,71.84,0,0,0-.73,10.82q0,6.56.84,22.88.72,14.46.72,23v2.5a7.26,7.26,0,0,0,3.85-1.09,9.82,9.82,0,0,0,3-3,21.18,21.18,0,0,0,1.92-4.21,31.73,31.73,0,0,0,1.3-4.94,61.64,61.64,0,0,0,1.15-9.57c.06-.83.1-2,.1-3.64Q555.36,310.52,543.19,309.17Z"/><path class="cls-6" d="M486.72,320.2v-1.88a11.31,11.31,0,0,0-2.65-6.86,7.53,7.53,0,0,0-6-2.91q-3.54,0-4.68,4.05a27.84,27.84,0,0,0-1,8.33c0,1.31,0,2.42.1,3.32v2.81l-.2,4.78c-.14,1.46-.21,3.06-.21,4.79q0,5.61.31,11.13a91.11,91.11,0,0,0,2.08,15.18q1.67,7.69,4.89,7.7a4.86,4.86,0,0,0,3.43-1.51,9.71,9.71,0,0,0,2.39-4.11,40.12,40.12,0,0,0,2.39-11.44q.52-5.31.52-9.15,0-4.68-.73-12.27Q486.73,324.15,486.72,320.2Z"/><path class="cls-7" d="M478.3,451l-1-10.82q-4.49,24.45-6.14,36.92c1,.7,4.09,1.25,9.15,1.67A20,20,0,0,1,480,475,218.47,218.47,0,0,0,478.3,451Z"/><path class="cls-8" d="M518.34,350.15a218.85,218.85,0,0,0-1.67-23.92l-1-10.82q-4.47,24.45-6.13,36.92c1,.7,4.09,1.25,9.15,1.67A20,20,0,0,1,518.34,350.15Z"/><path class="cls-9" d="M500.5,252.22A151.28,151.28,0,1,0,651.78,403.5,151.28,151.28,0,0,0,500.5,252.22Zm-.36,118.1.1-.41a462.52,462.52,0,0,0,10.4-52.73c0-.28,0-.74.1-1.4s.14-1.62.21-2.86c.21-2.57.43-4.61.68-6.14a8.08,8.08,0,0,1,1.19-3.43h3.54a4.51,4.51,0,0,1,2.5.67,2.19,2.19,0,0,1,1,1.93,184.41,184.41,0,0,0,2.18,23.5q2.08,16,2.08,22.47a23.72,23.72,0,0,0,.52,3.22,19.16,19.16,0,0,1,.52,3.12q0,.74,1,6.24a47.87,47.87,0,0,1,.94,6.45v.1c0,1.53-.56,2.5-1.67,2.91a6.77,6.77,0,0,1-3.53-.72,3,3,0,0,1-1.15-2.71,89.93,89.93,0,0,0-1-10.6l-.41-2.19-10.3-1.56q-.63,2.4-1.77,9.67-.62,5.1-2,6.76a2.47,2.47,0,0,1-2.08.94,3.71,3.71,0,0,1-2.29-.78,2.32,2.32,0,0,1-1-1.93ZM457.5,499.08a2.29,2.29,0,0,1-1.77.83,3.51,3.51,0,0,1-3.54-2.19v-.1l-2.28,1.14a11.3,11.3,0,0,1-5.31,1.77,13.44,13.44,0,0,1-9.46-3.43q-3-2.49-5.51-8.53a48.42,48.42,0,0,1-2.5-11.13,88,88,0,0,1-.73-11c-.07-.9-.1-2.46-.1-4.68V454q0-4.47.31-10.71a76.41,76.41,0,0,1,1.66-10.81,27.56,27.56,0,0,1,4-9.16,14.21,14.21,0,0,1,7-5.61,18.07,18.07,0,0,1,4.89-.73q4.37,0,4.37,2.91a2.27,2.27,0,0,1-.78,1.82,3,3,0,0,1-2,.68,6.36,6.36,0,0,1-1.45-.31l-1.46-.21a5.7,5.7,0,0,0-3.54,1.19,9,9,0,0,0-2.6,3.49,37,37,0,0,0-3.22,10.92,95.45,95.45,0,0,0-1.25,12.69q-.21,4.68-.21,9.88v2.8c-.07,1-.1,2.19-.1,3.64a101.28,101.28,0,0,0,.52,10.4,31.92,31.92,0,0,0,2.29,10.4,11.52,11.52,0,0,0,5.41,6.87,8.48,8.48,0,0,0,4.36,1q4.58,0,7.7-4.37-.1-3.64-.52-7.12a11.9,11.9,0,0,0-1.25-4.74l-.47.06-1.09.15-2.49.21c-2.36,0-3.54-1-3.54-3a2.06,2.06,0,0,1,1-1.66,7.09,7.09,0,0,1,2.81-1,22,22,0,0,1,5.2-.73,3.76,3.76,0,0,1,3.22,1.56,6.53,6.53,0,0,1,1.15,4,56.7,56.7,0,0,0,1,9.36,56.15,56.15,0,0,1,1,9.26A3,3,0,0,1,457.5,499.08ZM458,372.35a2.37,2.37,0,0,1-1.82.89A5.76,5.76,0,0,1,455,373l-.41-.1a15.08,15.08,0,0,1-2,.1h-1.77a11.75,11.75,0,0,0-1.66-.1,3.6,3.6,0,0,1-2.91,1.24,3.55,3.55,0,0,1-2.45-1,3,3,0,0,1-1.09-2.34,7.93,7.93,0,0,1,.42-2.28,12.13,12.13,0,0,0,.31-2.19q0-9.25-1-35.57-1.05-22.46-1-35.46a1.82,1.82,0,0,1,.73-1.51,2.75,2.75,0,0,1,1.76-.57,3.13,3.13,0,0,1,2.19.88,2.84,2.84,0,0,1,.93,2.14q0,6.24.63,18.72.51,13.83.52,18.72l.1,1.24v2.5q.31,9,.31,27v2.7h8q2.19,1.56,2.19,3.12A3,3,0,0,1,458,372.35Zm30.83,123.5c0,1.53-.55,2.5-1.66,2.91a6.79,6.79,0,0,1-3.54-.72,3,3,0,0,1-1.14-2.71,90.23,90.23,0,0,0-1-10.61l-.42-2.18L470.71,481q-.63,2.4-1.77,9.67-.63,5.1-2,6.76a2.47,2.47,0,0,1-2.08.94,3.75,3.75,0,0,1-2.29-.78,2.34,2.34,0,0,1-1-1.93l.21-.52.1-.41A460.35,460.35,0,0,0,472.26,442c0-.28,0-.74.11-1.4s.14-1.62.21-2.86c.21-2.57.43-4.61.67-6.14a8.07,8.07,0,0,1,1.2-3.43H478a4.47,4.47,0,0,1,2.5.67,2.19,2.19,0,0,1,1,1.93q0,7.9,2.19,23.5,2.07,16,2.08,22.47a24.76,24.76,0,0,0,.51,3.22,19.16,19.16,0,0,1,.52,3.12q0,.74,1,6.24a46.19,46.19,0,0,1,.94,6.45ZM479.75,375a8.17,8.17,0,0,1-5-1.71,12.93,12.93,0,0,1-3.74-4.63,41.38,41.38,0,0,1-3.75-13.83,104.67,104.67,0,0,1-.93-13.63,17.29,17.29,0,0,1,.1-2.08v-1.87c0-.34,0-.52-.1-.52v-1.87l.1-7.28c.07-2.22.35-5.75.83-10.61a36,36,0,0,1,2.4-9.67,7.77,7.77,0,0,1,1.87-3.17,3.65,3.65,0,0,1,2.6-1.09,18.05,18.05,0,0,1,7.49,1.5,15.78,15.78,0,0,1,5.61,4.22,23.64,23.64,0,0,1,3.54,6.39,38,38,0,0,1,2.08,8.06,66.42,66.42,0,0,1,.62,9.26v.83c0,2.15,0,4.09.11,5.82l.1,5.93Q493.69,375,479.75,375Zm62.4,126.88a3.07,3.07,0,0,1-2.49,1.36q-3.23,0-3.23-6.45V483.48q0-5.21-.73-13.63-.83-9.47-.83-13l.21-6.45q.21-2.81.21-6.34-.42,1.35-3.43,14.35-3,12.58-6.24,23.3Q522.5,492,520.52,492a4.25,4.25,0,0,1-3.17-1.19,4.43,4.43,0,0,1-1.2-3.28q0-4.57-3.69-19.45t-6.71-24.33l-.62,11.75q-.84,14.88-1.15,24.75-.21,9.57-.2,13.11a11.06,11.06,0,0,0,.1,1.56v1.45a4.07,4.07,0,0,1-.73,2.65,3.36,3.36,0,0,1-2.7.89,3.07,3.07,0,0,1-2-.78,2.23,2.23,0,0,1-.93-1.72q0-10.61,1.56-31.82t1.56-31.83a3.46,3.46,0,0,1-.63-2,2.13,2.13,0,0,1,1.2-1.93,5.71,5.71,0,0,1,2.86-.67q1.35,0,5,9.77t7.28,22.16Q520,473.5,521,479c.55-1.87,1-3.6,1.35-5.2l.63-2.49q3.32-14.56,6.65-26.31a76.31,76.31,0,0,1,3.85-11.24q1.88-4.36,3.43-4.36a4.73,4.73,0,0,1,2.65.78,2.33,2.33,0,0,1,1.2,2q0,7.5.63,22.47.72,13.93.72,21.63l-.1,5.51-.21,5.51a32.57,32.57,0,0,0,.31,3.75l.32,3.64c.06.62.12,1.11.15,1.45s0,.56,0,.63a6.25,6.25,0,0,1,.52,2A5,5,0,0,1,542.15,501.88Zm9.57-131.35a28.7,28.7,0,0,1-4.78,3.12h-7.49q-2.72,0-2.71-13.62L537,343.6q.1-7.29.11-16.33,0-3.33-.63-10.3-.52-7.59-.52-9.25a3.16,3.16,0,0,1,1.15-2.4,3.64,3.64,0,0,1,2.49-1,16,16,0,0,1,7,1.62,18.78,18.78,0,0,1,6,4.52,32.18,32.18,0,0,1,7.28,13.94,31.67,31.67,0,0,1,.94,7.59c0,.9,0,1.73-.11,2.49l-.1,2.81V343a102.29,102.29,0,0,1-.42,10.51,32.63,32.63,0,0,1-2.39,9.25A24.07,24.07,0,0,1,551.72,370.53ZM572.88,498.4a6,6,0,0,1-3.17.78h-8.84a3.63,3.63,0,0,1-2.44-.94,3.23,3.23,0,0,1-1.2-2.28v-4.79a19.87,19.87,0,0,1-.1-2.18c0-1.46-.11-3.68-.31-6.66l-.21-6.65q0-5.1.31-15.19.42-9,.42-15.18c0-1-.11-2.43-.32-4.37s-.31-3.47-.31-4.37q0-7.38,4.37-7.38a28.35,28.35,0,0,1,8,1.35c3,.9,4.52,2,4.52,3.22a2.72,2.72,0,0,1-.88,1.93,6.36,6.36,0,0,1-2.14,1.4,42.12,42.12,0,0,0-7.9-2.08c.07,1,.1,2.53.1,4.47,0,2.78,0,5.27-.1,7.49q-.32,5-.31,7.49l.31,1.66,1.66-.1a17.29,17.29,0,0,1,2.08-.1q5,0,5,2.91a2.42,2.42,0,0,1-.94,1.92,3.6,3.6,0,0,1-2.39.78,15.49,15.49,0,0,1-2.91-.21h-2.6c.13,1.81.2,4.44.2,7.91s0,6.59-.1,9.36q-.32,6.35-.31,9.46,0,5.83.21,5.83l3.43-.11c1.18-.07,2.6-.1,4.26-.1,2.64,0,3.95.83,3.95,2.49A2.46,2.46,0,0,1,572.88,498.4Z"/></g></svg>