<svg xmlns="http://www.w3.org/2000/svg" width="130" height="113" viewBox="0 0 130 113"><defs><style>.cls-1{fill:#d7e9f4;}.cls-2{fill:#6a3f90;}.cls-3{fill:#583e13;}.cls-4{fill:#e7f4fb;opacity:0.47;}.cls-5{fill:#fff;opacity:0.9;}</style></defs><g id="mt_fuji" data-name="mt fuji"><path class="cls-1" d="M54.33,43.44,47.5,89.93a3.55,3.55,0,0,0,4.82,3.82L96,76.42a3.56,3.56,0,0,0,.9-6.09L60.05,41.17A3.55,3.55,0,0,0,54.33,43.44Z"/><path class="cls-2" d="M86.55,77.06,59.41,87.83a5.44,5.44,0,0,1-7.34-6.13l3.46-17.11a42,42,0,0,0,6.36-3A25.28,25.28,0,0,1,72,56.48L87.69,67.57A5.43,5.43,0,0,1,86.55,77.06Z"/><rect class="cls-1" x="48.89" y="21.53" width="11.96" height="30.03" rx="1.29" transform="translate(-9.61 22.81) rotate(-21.64)"/><rect class="cls-1" x="41.94" y="20.28" width="14.38" height="4.34" rx="0.92" transform="translate(-4.81 19.7) rotate(-21.64)"/><rect class="cls-3" x="41.9" y="20.47" width="14.38" height="4.34" rx="0.92" transform="translate(-4.89 19.7) rotate(-21.64)"/><path class="cls-4" d="M86.47,77.11,59.32,87.88A5.45,5.45,0,0,1,52,81.75l3.46-17.11a41.56,41.56,0,0,0,6.36-3,25.28,25.28,0,0,1,10.14-5.08L87.61,67.62A5.44,5.44,0,0,1,86.47,77.11Z"/><rect class="cls-5" x="50.41" y="27.18" width="2.05" height="21.95" rx="0.44" transform="translate(-10.45 21.65) rotate(-21.64)"/><rect class="cls-5" x="53.94" y="55.63" width="2.05" height="21.95" rx="0.44" transform="translate(10.27 -7.29) rotate(8.36)"/></g></svg>