<svg xmlns="http://www.w3.org/2000/svg" xmlns:xlink="http://www.w3.org/1999/xlink" width="427" height="163" viewBox="0 0 427 163"><defs><style>.cls-1{fill:#dae9f3;}.cls-2{fill:#e9f4fa;}.cls-3{fill:url(#linear-gradient);}.cls-4{fill:url(#radial-gradient);}.cls-5{fill:url(#radial-gradient-2);}.cls-6{fill:url(#radial-gradient-3);}.cls-7{fill:url(#radial-gradient-4);}.cls-8{fill:url(#radial-gradient-5);}.cls-9{fill:url(#radial-gradient-6);}.cls-10{fill:url(#radial-gradient-7);}.cls-11{fill:url(#radial-gradient-8);}.cls-12{fill:url(#radial-gradient-9);}.cls-13{fill:url(#radial-gradient-10);}.cls-14{fill:url(#radial-gradient-11);}.cls-15{fill:url(#radial-gradient-12);}.cls-16{fill:url(#radial-gradient-13);}.cls-17{fill:url(#radial-gradient-14);}.cls-18{fill:url(#radial-gradient-15);}.cls-19{fill:url(#radial-gradient-16);}.cls-20{fill:#b68153;}.cls-21{fill:#f9f8f7;}.cls-21,.cls-22{opacity:0.83;}.cls-22,.cls-28{fill:#fff;}.cls-23{opacity:0.23;}.cls-24{opacity:0.15;}.cls-25{fill:#ffeb3b;}.cls-26{filter:url(#AI_Turbulence_5);}.cls-27{filter:url(#AI_Alpha_4);}.cls-28{opacity:0.9;}.cls-29{fill:#494847;opacity:0.31;}</style><linearGradient id="linear-gradient" x1="62.43" y1="136.73" x2="58.64" y2="30.03" gradientUnits="userSpaceOnUse"><stop offset="0.02" stop-color="#ffeb3b"/><stop offset="0.04" stop-color="#ffeb3d" stop-opacity="0.93"/><stop offset="0.11" stop-color="#feea41" stop-opacity="0.74"/><stop offset="0.19" stop-color="#fdea44" stop-opacity="0.56"/><stop offset="0.26" stop-color="#fce947" stop-opacity="0.41"/><stop offset="0.35" stop-color="#fbe94a" stop-opacity="0.28"/><stop offset="0.44" stop-color="#fbe94c" stop-opacity="0.18"/><stop offset="0.53" stop-color="#fae84e" stop-opacity="0.1"/><stop offset="0.64" stop-color="#fae84f" stop-opacity="0.04"/><stop offset="0.78" stop-color="#fae850" stop-opacity="0.01"/><stop offset="1" stop-color="#fae850" stop-opacity="0"/></linearGradient><radialGradient id="radial-gradient" cx="87.64" cy="116.05" r="5.83" gradientUnits="userSpaceOnUse"><stop offset="0" stop-color="#ffeb3b"/><stop offset="0.11" stop-color="#feea3f" stop-opacity="0.83"/><stop offset="0.37" stop-color="#fce947" stop-opacity="0.42"/><stop offset="0.61" stop-color="#fae850" stop-opacity="0"/><stop offset="1" stop-color="#fae84f" stop-opacity="0.14"/></radialGradient><radialGradient id="radial-gradient-2" cx="60.04" cy="84.44" r="5.83" xlink:href="#radial-gradient"/><radialGradient id="radial-gradient-3" cx="28.87" cy="116.08" r="5.83" xlink:href="#radial-gradient"/><radialGradient id="radial-gradient-4" cx="65.38" cy="127.59" r="5.83" xlink:href="#radial-gradient"/><radialGradient id="radial-gradient-5" cx="49.12" cy="54.33" r="5.83" gradientUnits="userSpaceOnUse"><stop offset="0" stop-color="#ffeb3b"/><stop offset="0.17" stop-color="#feea3f" stop-opacity="0.83"/><stop offset="0.55" stop-color="#fce947" stop-opacity="0.42"/><stop offset="0.91" stop-color="#fae850" stop-opacity="0"/></radialGradient><radialGradient id="radial-gradient-6" cx="80.32" cy="98.78" r="5.83" xlink:href="#radial-gradient-5"/><radialGradient id="radial-gradient-7" cx="80.45" cy="53.31" r="5.83" xlink:href="#radial-gradient-5"/><radialGradient id="radial-gradient-8" cx="38.22" cy="102.05" r="5.83" xlink:href="#radial-gradient-5"/><radialGradient id="radial-gradient-9" cx="42.04" cy="123.41" r="5.83" xlink:href="#radial-gradient-5"/><radialGradient id="radial-gradient-10" cx="84.38" cy="126.84" r="5.83" xlink:href="#radial-gradient-5"/><radialGradient id="radial-gradient-11" cx="60.13" cy="107.33" r="5.83" xlink:href="#radial-gradient"/><radialGradient id="radial-gradient-12" cx="90.47" cy="72.18" r="7.44" xlink:href="#radial-gradient"/><radialGradient id="radial-gradient-13" cx="31.66" cy="59.44" r="5.83" xlink:href="#radial-gradient"/><radialGradient id="radial-gradient-14" cx="65.55" cy="55.53" r="5.83" xlink:href="#radial-gradient"/><radialGradient id="radial-gradient-15" cx="38.65" cy="72.79" r="5.83" xlink:href="#radial-gradient"/><radialGradient id="radial-gradient-16" cx="144.19" cy="437.47" r="5.83" gradientTransform="translate(-103.02 -350.19) rotate(-4.31)" xlink:href="#radial-gradient-5"/><filter id="AI_Turbulence_5" x="0" y="0" width="100%" height="100%" name="AI_Turbulence_5"><feTurbulence result="turb" baseFrequency="0.4" numOctaves="4" type="fractalNoise"/><feComposite operator="in" in="turb" in2="SourceAlpha"/></filter><filter id="AI_Alpha_4" x="0" y="0" width="100%" height="100%" name="AI_Alpha_4"><feTurbulence result="turb" baseFrequency="0.1" numOctaves="4" type="fractalNoise"/><feComposite operator="in" in="SourceGraphic" in2="turb"/></filter></defs><g id="koki"><path class="cls-1" d="M89.89,146.86a272.16,272.16,0,0,1-58.2,0A17.31,17.31,0,0,1,14.44,129.6V44.14A17.31,17.31,0,0,1,31.69,26.88h58.2a17.31,17.31,0,0,1,17.26,17.26V129.6A17.31,17.31,0,0,1,89.89,146.86Z"/><path class="cls-2" d="M87.89,143.51c-17.08,2.3-35.07,2.11-53.73,0A17.31,17.31,0,0,1,16.9,126.26V46.58A17.31,17.31,0,0,1,34.16,29.32H87.89a17.31,17.31,0,0,1,17.25,17.26v79.68A17.3,17.3,0,0,1,87.89,143.51Z"/><path class="cls-3" d="M87.08,143.71c-16.81,2.3-34.49,2.1-52.86,0a17.16,17.16,0,0,1-17-17.25V46.78a17.17,17.17,0,0,1,17-17.26H87.08a17.17,17.17,0,0,1,17,17.26v79.68A17.16,17.16,0,0,1,87.08,143.71Z"/><circle class="cls-4" cx="87.64" cy="116.05" r="5.83"/><circle class="cls-5" cx="60.04" cy="84.44" r="5.83"/><circle class="cls-6" cx="28.87" cy="116.08" r="5.83"/><circle class="cls-7" cx="65.38" cy="127.59" r="5.83"/><circle class="cls-8" cx="49.12" cy="54.33" r="5.83"/><circle class="cls-9" cx="80.32" cy="98.78" r="5.83"/><circle class="cls-10" cx="80.45" cy="53.31" r="5.83"/><circle class="cls-11" cx="38.22" cy="102.05" r="5.83"/><circle class="cls-12" cx="42.04" cy="123.41" r="5.83"/><circle class="cls-13" cx="84.38" cy="126.84" r="5.83"/><circle class="cls-14" cx="60.13" cy="107.33" r="5.83"/><circle class="cls-15" cx="90.47" cy="72.18" r="7.44"/><circle class="cls-16" cx="31.66" cy="59.44" r="5.83"/><circle class="cls-17" cx="65.55" cy="55.53" r="5.83"/><circle class="cls-18" cx="38.65" cy="72.79" r="5.83"/><circle class="cls-19" cx="73.63" cy="75.2" r="5.83"/><rect class="cls-20" x="13.72" y="10.76" width="92.96" height="21.97" rx="3.04"/><path class="cls-20" d="M407,77.59V91.36A17.74,17.74,0,0,1,389.32,109H107.15V59.91H389.32A17.73,17.73,0,0,1,407,77.59Z"/><path class="cls-21" d="M401.66,79V90c0,7.75-7.87,14.09-17.46,14.09h-277V64.92h277C393.79,64.92,401.66,71.23,401.66,79Z"/><rect class="cls-21" x="19.71" y="43.68" width="5.72" height="88.59" rx="1.18"/><path class="cls-22" d="M23.15,21.65a18.92,18.92,0,0,0,2.1,9h-5c-2.34,0-4.26-3.33-4.26-7.39V20c0-4.06,1.92-7.38,4.26-7.38h5A18.85,18.85,0,0,0,23.15,21.65Z"/><path class="cls-23" d="M94.75,12.54h5.13c2.4,0,4.37,3.31,4.38,7.36v3.26c0,4.05-1.93,7.39-4.32,7.39l-5.15,0C92.71,28.2,92.58,14.89,94.75,12.54Z"/><rect class="cls-24" x="95.97" y="47.29" width="5.72" height="76.59" rx="1.18"/><path class="cls-25" d="M135,67.94H107.14v35.4h27.91c.92-1,1.62-4.16,1.76-12.63V80.9C136.72,70.51,136,68.1,135,67.94Z"/><g class="cls-26"><path class="cls-25" d="M135,67.83H107.09v35.41H135c.92-1,1.62-4.16,1.76-12.63V80.8C136.67,70.41,135.91,68,135,67.83Z"/></g><g class="cls-27"><path class="cls-25" d="M135,67.49H107.1V102.9H135c.92-1.05,1.62-4.16,1.76-12.63V80.46C136.68,70.06,135.91,67.66,135,67.49Z"/></g><path class="cls-28" d="M136.81,84.35c-.18-10.07-1.4-10.28-1.88-10.25L107.11,73V67.49l28-.11C136.26,67.59,136.77,72.05,136.81,84.35Z"/><path class="cls-29" d="M136.79,88.26c-.25,6.31-1.38,9.35-1.86,9.33H107.09l0,5.75h27.91C136.25,103.32,136.82,95.54,136.79,88.26Z"/></g></svg>