<svg xmlns="http://www.w3.org/2000/svg" xmlns:xlink="http://www.w3.org/1999/xlink" width="427" height="163" viewBox="0 0 427 163"><defs><style>.cls-1{fill:none;}.cls-2{fill:#dae9f3;}.cls-3{fill:#e9f4fa;}.cls-4{fill:url(#linear-gradient);}.cls-5{fill:url(#radial-gradient);}.cls-6{fill:url(#radial-gradient-2);}.cls-7{fill:url(#radial-gradient-3);}.cls-8{fill:url(#radial-gradient-4);}.cls-9{fill:url(#radial-gradient-5);}.cls-10{fill:url(#radial-gradient-6);}.cls-11{fill:url(#radial-gradient-7);}.cls-12{fill:url(#radial-gradient-8);}.cls-13{fill:url(#radial-gradient-9);}.cls-14{fill:url(#radial-gradient-10);}.cls-15{fill:url(#radial-gradient-11);}.cls-16{fill:url(#radial-gradient-12);}.cls-17{fill:url(#radial-gradient-13);}.cls-18{fill:url(#radial-gradient-14);}.cls-19{fill:url(#radial-gradient-15);}.cls-20{fill:url(#radial-gradient-16);}.cls-21{fill:#b68153;}.cls-22{fill:#f9f8f7;}.cls-22,.cls-23{opacity:0.83;}.cls-23,.cls-27{fill:#fff;}.cls-24{opacity:0.23;}.cls-25{opacity:0.15;}.cls-26{clip-path:url(#clip-path);}.cls-27{opacity:0.9;}.cls-28{fill:#494847;opacity:0.31;}.cls-29{fill:#ffeb3b;}.cls-30{filter:url(#AI_Turbulence_5);}.cls-31{filter:url(#AI_Alpha_4);}</style><linearGradient id="linear-gradient" x1="62.43" y1="136.73" x2="58.64" y2="30.03" gradientUnits="userSpaceOnUse"><stop offset="0.02" stop-color="#ffeb3b"/><stop offset="0.04" stop-color="#ffeb3d" stop-opacity="0.93"/><stop offset="0.11" stop-color="#feea41" stop-opacity="0.74"/><stop offset="0.19" stop-color="#fdea44" stop-opacity="0.56"/><stop offset="0.26" stop-color="#fce947" stop-opacity="0.41"/><stop offset="0.35" stop-color="#fbe94a" stop-opacity="0.28"/><stop offset="0.44" stop-color="#fbe94c" stop-opacity="0.18"/><stop offset="0.53" stop-color="#fae84e" stop-opacity="0.1"/><stop offset="0.64" stop-color="#fae84f" stop-opacity="0.04"/><stop offset="0.78" stop-color="#fae850" stop-opacity="0.01"/><stop offset="1" stop-color="#fae850" stop-opacity="0"/></linearGradient><radialGradient id="radial-gradient" cx="87.64" cy="116.05" r="5.83" gradientUnits="userSpaceOnUse"><stop offset="0" stop-color="#ffeb3b"/><stop offset="0.11" stop-color="#feea3f" stop-opacity="0.83"/><stop offset="0.37" stop-color="#fce947" stop-opacity="0.42"/><stop offset="0.61" stop-color="#fae850" stop-opacity="0"/><stop offset="1" stop-color="#fae84f" stop-opacity="0.14"/></radialGradient><radialGradient id="radial-gradient-2" cx="60.04" cy="84.44" r="5.83" xlink:href="#radial-gradient"/><radialGradient id="radial-gradient-3" cx="28.87" cy="116.08" r="5.83" xlink:href="#radial-gradient"/><radialGradient id="radial-gradient-4" cx="65.38" cy="127.59" r="5.83" xlink:href="#radial-gradient"/><radialGradient id="radial-gradient-5" cx="49.12" cy="54.33" r="5.83" gradientUnits="userSpaceOnUse"><stop offset="0" stop-color="#ffeb3b"/><stop offset="0.17" stop-color="#feea3f" stop-opacity="0.83"/><stop offset="0.55" stop-color="#fce947" stop-opacity="0.42"/><stop offset="0.91" stop-color="#fae850" stop-opacity="0"/></radialGradient><radialGradient id="radial-gradient-6" cx="80.32" cy="98.78" r="5.83" xlink:href="#radial-gradient-5"/><radialGradient id="radial-gradient-7" cx="80.45" cy="53.31" r="5.83" xlink:href="#radial-gradient-5"/><radialGradient id="radial-gradient-8" cx="38.22" cy="102.05" r="5.83" xlink:href="#radial-gradient-5"/><radialGradient id="radial-gradient-9" cx="42.04" cy="123.41" r="5.83" xlink:href="#radial-gradient-5"/><radialGradient id="radial-gradient-10" cx="84.38" cy="126.84" r="5.83" xlink:href="#radial-gradient-5"/><radialGradient id="radial-gradient-11" cx="60.13" cy="107.33" r="5.83" xlink:href="#radial-gradient"/><radialGradient id="radial-gradient-12" cx="90.47" cy="72.18" r="7.44" xlink:href="#radial-gradient"/><radialGradient id="radial-gradient-13" cx="31.66" cy="59.44" r="5.83" xlink:href="#radial-gradient"/><radialGradient id="radial-gradient-14" cx="65.55" cy="55.53" r="5.83" xlink:href="#radial-gradient"/><radialGradient id="radial-gradient-15" cx="38.65" cy="72.79" r="5.83" xlink:href="#radial-gradient"/><radialGradient id="radial-gradient-16" cx="142.77" cy="475.17" r="5.83" gradientTransform="translate(-104.44 -387.9) rotate(-4.31)" xlink:href="#radial-gradient-5"/><clipPath id="clip-path"><path class="cls-1" d="M122.24,79.8v9.89c0,7-4,12.72-8.8,12.72h-6.09l0-35.33h6.14C118.27,67.08,122.24,72.78,122.24,79.8Z"/></clipPath><filter id="AI_Turbulence_5" x="0" y="0" width="100%" height="100%" name="AI_Turbulence_5"><feTurbulence result="turb" baseFrequency="0.4" numOctaves="4" type="fractalNoise"/><feComposite operator="in" in="turb" in2="SourceAlpha"/></filter><filter id="AI_Alpha_4" x="0" y="0" width="100%" height="100%" name="AI_Alpha_4"><feTurbulence result="turb" baseFrequency="0.1" numOctaves="4" type="fractalNoise"/><feComposite operator="in" in="SourceGraphic" in2="turb"/></filter></defs><g id="koki"><path class="cls-2" d="M89.89,146.86a272.16,272.16,0,0,1-58.2,0A17.31,17.31,0,0,1,14.44,129.6V44.14A17.31,17.31,0,0,1,31.69,26.88h58.2a17.31,17.31,0,0,1,17.26,17.26V129.6A17.31,17.31,0,0,1,89.89,146.86Z"/><path class="cls-3" d="M87.89,143.51c-17.08,2.3-35.07,2.11-53.73,0A17.31,17.31,0,0,1,16.9,126.26V46.58A17.31,17.31,0,0,1,34.16,29.32H87.89a17.31,17.31,0,0,1,17.25,17.26v79.68A17.3,17.3,0,0,1,87.89,143.51Z"/><path class="cls-4" d="M87.08,143.71c-16.81,2.3-34.49,2.1-52.86,0a17.16,17.16,0,0,1-17-17.25V46.78a17.17,17.17,0,0,1,17-17.26H87.08a17.17,17.17,0,0,1,17,17.26v79.68A17.16,17.16,0,0,1,87.08,143.71Z"/><circle class="cls-5" cx="87.64" cy="116.05" r="5.83"/><circle class="cls-6" cx="60.04" cy="84.44" r="5.83"/><circle class="cls-7" cx="28.87" cy="116.08" r="5.83"/><circle class="cls-8" cx="65.38" cy="127.59" r="5.83"/><circle class="cls-9" cx="49.12" cy="54.33" r="5.83"/><circle class="cls-10" cx="80.32" cy="98.78" r="5.83"/><circle class="cls-11" cx="80.45" cy="53.31" r="5.83"/><circle class="cls-12" cx="38.22" cy="102.05" r="5.83"/><circle class="cls-13" cx="42.04" cy="123.41" r="5.83"/><circle class="cls-14" cx="84.38" cy="126.84" r="5.83"/><circle class="cls-15" cx="60.13" cy="107.33" r="5.83"/><circle class="cls-16" cx="90.47" cy="72.18" r="7.44"/><circle class="cls-17" cx="31.66" cy="59.44" r="5.83"/><circle class="cls-18" cx="65.55" cy="55.53" r="5.83"/><circle class="cls-19" cx="38.65" cy="72.79" r="5.83"/><circle class="cls-20" cx="73.63" cy="75.2" r="5.83"/><rect class="cls-21" x="13.72" y="10.76" width="92.96" height="21.97" rx="3.04"/><path class="cls-21" d="M407,77.59V91.36A17.74,17.74,0,0,1,389.32,109H107.15V59.91H389.32A17.73,17.73,0,0,1,407,77.59Z"/><path class="cls-22" d="M401.66,79V90c0,7.75-7.87,14.09-17.46,14.09h-277V64.92h277C393.79,64.92,401.66,71.23,401.66,79Z"/><rect class="cls-22" x="19.71" y="43.68" width="5.72" height="88.59" rx="1.18"/><path class="cls-23" d="M23.15,21.65a18.92,18.92,0,0,0,2.1,9h-5c-2.34,0-4.26-3.33-4.26-7.39V20c0-4.06,1.92-7.38,4.26-7.38h5A18.85,18.85,0,0,0,23.15,21.65Z"/><path class="cls-24" d="M94.75,12.54h5.13c2.4,0,4.37,3.31,4.38,7.36v3.26c0,4.05-1.93,7.39-4.32,7.39l-5.15,0C92.71,28.2,92.58,14.89,94.75,12.54Z"/><rect class="cls-25" x="95.97" y="47.29" width="5.72" height="76.59" rx="1.18"/><g class="cls-26"><g id="_6p6xUM.tif" data-name="6p6xUM.tif"><image id="Layer_0" data-name="Layer 0" width="1006" height="704" transform="translate(-44.29 14.16) scale(0.19 0.38)" xlink:href="score-bar_31.png"/></g></g><path class="cls-27" d="M122.23,80.48C121,71.88,114.44,70.2,112,70.25h-4.68V67H113C118.93,67.17,122.48,73.29,122.23,80.48Z"/><path class="cls-28" d="M122.11,91.65c-.56,5.29-3.3,10.75-9.27,10.78h-5.49V100h4.49C114.24,100,120.87,98,122.11,91.65Z"/><path class="cls-29" d="M148.29,66.47H107.47v35.4h40.9c1.34-1,2.37-4.15,2.57-12.63V79.43C150.8,69,149.68,66.63,148.29,66.47Z"/><g class="cls-30"><path class="cls-29" d="M148.23,66.36H107.41v35.41h40.9c1.34-1,2.36-4.16,2.57-12.63V79.33C150.74,68.94,149.62,66.53,148.23,66.36Z"/></g><g class="cls-31"><path class="cls-29" d="M148.23,66H107.41v35.41h40.9c1.34-1.05,2.37-4.16,2.58-12.63V79C150.75,68.59,149.63,66.19,148.23,66Z"/></g><path class="cls-27" d="M150.93,82.88c-.25-10.07-2-10.28-2.74-10.25l-40.76-1.12,0-5.49,41-.11C150.14,66.12,150.88,70.58,150.93,82.88Z"/><path class="cls-28" d="M150.9,86.8c-.36,6.3-2,9.34-2.71,9.32H107.4l.07,5.75h40.9C150.12,101.85,151,94.07,150.9,86.8Z"/></g></svg>