<svg xmlns="http://www.w3.org/2000/svg" xmlns:xlink="http://www.w3.org/1999/xlink" width="427" height="163" viewBox="0 0 427 163"><defs><style>.cls-1{fill:none;}.cls-2{clip-path:url(#clip-path);}.cls-3{fill:#dae9f3;}.cls-4{fill:#e9f4fa;}.cls-5{fill:url(#linear-gradient);}.cls-6{fill:url(#radial-gradient);}.cls-7{fill:url(#radial-gradient-2);}.cls-8{fill:url(#radial-gradient-3);}.cls-9{fill:url(#radial-gradient-4);}.cls-10{fill:url(#radial-gradient-5);}.cls-11{fill:url(#radial-gradient-6);}.cls-12{fill:url(#radial-gradient-7);}.cls-13{fill:url(#radial-gradient-8);}.cls-14{fill:url(#radial-gradient-9);}.cls-15{fill:url(#radial-gradient-10);}.cls-16{fill:url(#radial-gradient-11);}.cls-17{fill:url(#radial-gradient-12);}.cls-18{fill:url(#radial-gradient-13);}.cls-19{fill:url(#radial-gradient-14);}.cls-20{fill:url(#radial-gradient-15);}.cls-21{fill:url(#radial-gradient-16);}.cls-22{fill:#b68153;}.cls-23{fill:#f9f8f7;}.cls-23,.cls-24{opacity:0.83;}.cls-24,.cls-30{fill:#fff;}.cls-25{opacity:0.23;}.cls-26{opacity:0.15;}.cls-27{fill:#ffeb3b;}.cls-28{filter:url(#AI_Turbulence_5);}.cls-29{filter:url(#AI_Alpha_4);}.cls-30{opacity:0.9;}.cls-31{fill:#494847;opacity:0.31;}</style><clipPath id="clip-path"><path class="cls-1" d="M121.53-148.47v9.88c0,7-4,12.72-8.8,12.72h-6.09l0-35.33h6.14C117.56-161.2,121.53-155.49,121.53-148.47Z"/></clipPath><linearGradient id="linear-gradient" x1="62.43" y1="136.73" x2="58.64" y2="30.03" gradientUnits="userSpaceOnUse"><stop offset="0.02" stop-color="#ffeb3b"/><stop offset="0.04" stop-color="#ffeb3d" stop-opacity="0.93"/><stop offset="0.11" stop-color="#feea41" stop-opacity="0.74"/><stop offset="0.19" stop-color="#fdea44" stop-opacity="0.56"/><stop offset="0.26" stop-color="#fce947" stop-opacity="0.41"/><stop offset="0.35" stop-color="#fbe94a" stop-opacity="0.28"/><stop offset="0.44" stop-color="#fbe94c" stop-opacity="0.18"/><stop offset="0.53" stop-color="#fae84e" stop-opacity="0.1"/><stop offset="0.64" stop-color="#fae84f" stop-opacity="0.04"/><stop offset="0.78" stop-color="#fae850" stop-opacity="0.01"/><stop offset="1" stop-color="#fae850" stop-opacity="0"/></linearGradient><radialGradient id="radial-gradient" cx="87.64" cy="116.05" r="5.83" gradientUnits="userSpaceOnUse"><stop offset="0" stop-color="#ffeb3b"/><stop offset="0.11" stop-color="#feea3f" stop-opacity="0.83"/><stop offset="0.37" stop-color="#fce947" stop-opacity="0.42"/><stop offset="0.61" stop-color="#fae850" stop-opacity="0"/><stop offset="1" stop-color="#fae84f" stop-opacity="0.14"/></radialGradient><radialGradient id="radial-gradient-2" cx="60.04" cy="84.44" r="5.83" xlink:href="#radial-gradient"/><radialGradient id="radial-gradient-3" cx="28.87" cy="116.08" r="5.83" xlink:href="#radial-gradient"/><radialGradient id="radial-gradient-4" cx="65.38" cy="127.59" r="5.83" xlink:href="#radial-gradient"/><radialGradient id="radial-gradient-5" cx="49.12" cy="54.33" r="5.83" gradientUnits="userSpaceOnUse"><stop offset="0" stop-color="#ffeb3b"/><stop offset="0.17" stop-color="#feea3f" stop-opacity="0.83"/><stop offset="0.55" stop-color="#fce947" stop-opacity="0.42"/><stop offset="0.91" stop-color="#fae850" stop-opacity="0"/></radialGradient><radialGradient id="radial-gradient-6" cx="80.32" cy="98.78" r="5.83" xlink:href="#radial-gradient-5"/><radialGradient id="radial-gradient-7" cx="80.45" cy="53.31" r="5.83" xlink:href="#radial-gradient-5"/><radialGradient id="radial-gradient-8" cx="38.22" cy="102.05" r="5.83" xlink:href="#radial-gradient-5"/><radialGradient id="radial-gradient-9" cx="42.04" cy="123.41" r="5.83" xlink:href="#radial-gradient-5"/><radialGradient id="radial-gradient-10" cx="84.38" cy="126.84" r="5.83" xlink:href="#radial-gradient-5"/><radialGradient id="radial-gradient-11" cx="60.13" cy="107.33" r="5.83" xlink:href="#radial-gradient"/><radialGradient id="radial-gradient-12" cx="90.47" cy="72.18" r="7.44" xlink:href="#radial-gradient"/><radialGradient id="radial-gradient-13" cx="31.66" cy="59.44" r="5.83" xlink:href="#radial-gradient"/><radialGradient id="radial-gradient-14" cx="65.55" cy="55.53" r="5.83" xlink:href="#radial-gradient"/><radialGradient id="radial-gradient-15" cx="38.65" cy="72.79" r="5.83" xlink:href="#radial-gradient"/><radialGradient id="radial-gradient-16" cx="76.2" cy="360.81" r="5.83" gradientTransform="translate(-29.47 -278.86) rotate(-4.31)" xlink:href="#radial-gradient-5"/><filter id="AI_Turbulence_5" x="0" y="0" width="100%" height="100%" name="AI_Turbulence_5"><feTurbulence result="turb" baseFrequency="0.4" numOctaves="4" type="fractalNoise"/><feComposite operator="in" in="turb" in2="SourceAlpha"/></filter><filter id="AI_Alpha_4" x="0" y="0" width="100%" height="100%" name="AI_Alpha_4"><feTurbulence result="turb" baseFrequency="0.1" numOctaves="4" type="fractalNoise"/><feComposite operator="in" in="SourceGraphic" in2="turb"/></filter></defs><g id="koki"><g class="cls-2"><g id="_6p6xUM.tif" data-name="6p6xUM.tif"><image id="Layer_0" data-name="Layer 0" width="1006" height="704" transform="translate(-45 -214.12) scale(0.19 0.38)" xlink:href="score-bar_161.png"/></g></g><path class="cls-3" d="M89.89,146.86a272.16,272.16,0,0,1-58.2,0A17.31,17.31,0,0,1,14.44,129.6V44.14A17.31,17.31,0,0,1,31.69,26.88h58.2a17.31,17.31,0,0,1,17.26,17.26V129.6A17.31,17.31,0,0,1,89.89,146.86Z"/><path class="cls-4" d="M87.89,143.51c-17.08,2.3-35.07,2.11-53.73,0A17.31,17.31,0,0,1,16.9,126.26V46.58A17.31,17.31,0,0,1,34.16,29.32H87.89a17.31,17.31,0,0,1,17.25,17.26v79.68A17.3,17.3,0,0,1,87.89,143.51Z"/><path class="cls-5" d="M87.08,143.71c-16.81,2.3-34.49,2.1-52.86,0a17.16,17.16,0,0,1-17-17.25V46.78a17.17,17.17,0,0,1,17-17.26H87.08a17.17,17.17,0,0,1,17,17.26v79.68A17.16,17.16,0,0,1,87.08,143.71Z"/><circle class="cls-6" cx="87.64" cy="116.05" r="5.83"/><circle class="cls-7" cx="60.04" cy="84.44" r="5.83"/><circle class="cls-8" cx="28.87" cy="116.08" r="5.83"/><circle class="cls-9" cx="65.38" cy="127.59" r="5.83"/><circle class="cls-10" cx="49.12" cy="54.33" r="5.83"/><circle class="cls-11" cx="80.32" cy="98.78" r="5.83"/><circle class="cls-12" cx="80.45" cy="53.31" r="5.83"/><circle class="cls-13" cx="38.22" cy="102.05" r="5.83"/><circle class="cls-14" cx="42.04" cy="123.41" r="5.83"/><circle class="cls-15" cx="84.38" cy="126.84" r="5.83"/><circle class="cls-16" cx="60.13" cy="107.33" r="5.83"/><circle class="cls-17" cx="90.47" cy="72.18" r="7.44"/><circle class="cls-18" cx="31.66" cy="59.44" r="5.83"/><circle class="cls-19" cx="65.55" cy="55.53" r="5.83"/><circle class="cls-20" cx="38.65" cy="72.79" r="5.83"/><circle class="cls-21" cx="73.63" cy="75.2" r="5.83"/><rect class="cls-22" x="13.72" y="10.76" width="92.96" height="21.97" rx="3.04"/><path class="cls-22" d="M407,77.59V91.36A17.74,17.74,0,0,1,389.32,109H107.15V59.91H389.32A17.73,17.73,0,0,1,407,77.59Z"/><path class="cls-23" d="M401.66,79V90c0,7.75-7.87,14.09-17.46,14.09h-277V64.92h277C393.79,64.92,401.66,71.23,401.66,79Z"/><rect class="cls-23" x="19.71" y="43.68" width="5.72" height="88.59" rx="1.18"/><path class="cls-24" d="M23.15,21.65a18.92,18.92,0,0,0,2.1,9h-5c-2.34,0-4.26-3.33-4.26-7.39V20c0-4.06,1.92-7.38,4.26-7.38h5A18.85,18.85,0,0,0,23.15,21.65Z"/><path class="cls-25" d="M94.75,12.54h5.13c2.4,0,4.37,3.31,4.38,7.36v3.26c0,4.05-1.93,7.39-4.32,7.39l-5.15,0C92.71,28.2,92.58,14.89,94.75,12.54Z"/><rect class="cls-26" x="95.97" y="47.29" width="5.72" height="76.59" rx="1.18"/><path class="cls-27" d="M330.21,66.1H107.31v35.41H330.64c7.33-1.05,12.93-4.16,14.07-12.63V79.07C343.94,68.68,337.83,66.27,330.21,66.1Z"/><g class="cls-28"><path class="cls-27" d="M329.88,66H107v35.4H330.3c7.33-1,12.94-4.15,14.07-12.63V79C343.6,68.57,337.49,66.16,329.88,66Z"/></g><g class="cls-29"><path class="cls-27" d="M329.9,65.65H107v35.41H330.32c7.33-1,12.94-4.16,14.08-12.63V78.62C343.63,68.23,337.51,65.82,329.9,65.65Z"/></g><path class="cls-30" d="M344.65,82.51c-1.36-10.06-11.15-10.28-15-10.25L107.09,71.14,107,65.65l223.87-.1C340.32,65.76,344.34,70.21,344.65,82.51Z"/><path class="cls-31" d="M344.5,86.43c-2,6.31-11,9.34-14.84,9.32H106.94l.37,5.76H330.64C340.21,101.49,344.8,93.7,344.5,86.43Z"/></g></svg>