<svg xmlns="http://www.w3.org/2000/svg" xmlns:xlink="http://www.w3.org/1999/xlink" width="721" height="567" viewBox="0 0 721 567"><defs><style>.cls-1{fill:#c04a22;}.cls-2,.cls-4,.cls-6{fill:#fff;}.cls-3{fill:#ffe600;}.cls-4{opacity:0.89;}.cls-5{fill:#be8049;}.cls-21,.cls-6{opacity:0.83;}.cls-7{opacity:0.23;}.cls-8{fill:url(#radial-gradient);}.cls-9{fill:#ffec00;}.cls-10,.cls-14{fill:#d7e9f4;}.cls-11,.cls-15{fill:#e7f4fb;}.cls-12{fill:#e42320;}.cls-13{fill:url(#radial-gradient-2);}.cls-14{opacity:0.59;}.cls-15{opacity:0.69;}.cls-16{fill:url(#linear-gradient);}.cls-17{fill:url(#radial-gradient-3);}.cls-18{fill:url(#radial-gradient-4);}.cls-19{fill:url(#radial-gradient-5);}.cls-20{fill:url(#radial-gradient-6);}.cls-21{fill:#f9f9f7;}.cls-22{opacity:0.15;}</style><radialGradient id="radial-gradient" cx="-4276.6" cy="538.63" r="8.65" gradientTransform="matrix(-1, 0.08, 0.08, 1, -3893.25, 157.92)" gradientUnits="userSpaceOnUse"><stop offset="0" stop-color="#ffec00"/><stop offset="0.14" stop-color="#ffec00" stop-opacity="0.99"/><stop offset="0.25" stop-color="#ffec01" stop-opacity="0.95"/><stop offset="0.36" stop-color="#ffec02" stop-opacity="0.88"/><stop offset="0.47" stop-color="#feec03" stop-opacity="0.78"/><stop offset="0.57" stop-color="#feeb04" stop-opacity="0.65"/><stop offset="0.67" stop-color="#feeb06" stop-opacity="0.5"/><stop offset="0.76" stop-color="#fdeb09" stop-opacity="0.32"/><stop offset="0.85" stop-color="#fcea0c" stop-opacity="0.11"/><stop offset="0.9" stop-color="#fcea0d" stop-opacity="0"/></radialGradient><radialGradient id="radial-gradient-2" cx="-3671.88" cy="1426.67" r="8.65" gradientTransform="matrix(-0.89, 0.45, 0.45, 0.89, -3463.49, 764.88)" xlink:href="#radial-gradient"/><linearGradient id="linear-gradient" x1="-1937.99" y1="-1695.17" x2="-1941.16" y2="-1784.5" gradientTransform="matrix(0.08, 1.02, -1, 0.08, -1253.91, 2490.64)" gradientUnits="userSpaceOnUse"><stop offset="0.02" stop-opacity="0.5"/><stop offset="0.15" stop-opacity="0.32"/><stop offset="1" stop-opacity="0"/></linearGradient><radialGradient id="radial-gradient-3" cx="-1904.72" cy="-1573.09" r="4.88" gradientTransform="translate(-1102.86 2399.56) rotate(85.25)" gradientUnits="userSpaceOnUse"><stop offset="0" stop-color="#ffec00"/><stop offset="0.11" stop-color="#feec02" stop-opacity="0.83"/><stop offset="0.37" stop-color="#fdeb08" stop-opacity="0.42"/><stop offset="0.61" stop-color="#fcea0d" stop-opacity="0"/><stop offset="1" stop-color="#fce907" stop-opacity="0.14"/></radialGradient><radialGradient id="radial-gradient-4" cx="-1916.56" cy="-1600.06" r="4.88" xlink:href="#radial-gradient-3"/><radialGradient id="radial-gradient-5" cx="-1919.73" cy="-1555.96" r="4.88" gradientTransform="translate(-1102.86 2399.56) rotate(85.25)" gradientUnits="userSpaceOnUse"><stop offset="0" stop-color="#ffec00"/><stop offset="0.17" stop-color="#feec02" stop-opacity="0.83"/><stop offset="0.55" stop-color="#fdeb08" stop-opacity="0.42"/><stop offset="0.91" stop-color="#fcea0d" stop-opacity="0"/></radialGradient><radialGradient id="radial-gradient-6" cx="-1892.44" cy="-1599.93" r="4.88" xlink:href="#radial-gradient-5"/></defs><g id="Opening-titles"><path class="cls-1" d="M659.43,501H72.57C47.51,501,27,482.7,27,460.32V94.54c0-22.37,22.58-33.33,45.57-40.68C253.74,9.46,447.05,9.48,658.22,55.42,676.37,60.9,705,72.17,705,94.54V460.32C705,482.7,684.49,501,659.43,501Z"/><path class="cls-1" d="M544,551l-324-1a34.1,34.1,0,0,1-34-34V500a34.1,34.1,0,0,1,34-34H535c18.7,0,45,15.3,45,34l-1,19C579,537.7,562.7,551,544,551Z"/><path class="cls-2" d="M181.14,154a8,8,0,0,1-1.69-3.85q-.67-3.74-1.2-9.25l-.3-3-.85-6q-.72-4-4-17.51t-4-17.52c0-.23-.1-.66-.17-1.31s-.24-1.65-.49-3c-.19-1.52-.49-3.38-.88-5.57-1-5.5-2-8.94-3-10.32a26.09,26.09,0,0,0-2.88.87l-3.13.8a4.28,4.28,0,0,1-2.76-.38,2.71,2.71,0,0,1-1.53-2c-.16-.91.61-1.87,2.29-2.87q3.72-2.07,13.13-4.35c2.53-.61,4.07-1,4.6-1.06a4,4,0,0,1,2.65.46,2.84,2.84,0,0,1,1.54,2.06,2.87,2.87,0,0,1-.57,2.38,3.57,3.57,0,0,1-2.28,1.28l-2.06.26a15.38,15.38,0,0,0-2.05.25l-1.13.2a137.94,137.94,0,0,1,3.29,13.78l1.2,7.27c.31,2.2.72,4.66,1.21,7.37q1,5.43,2.79,12.94,2.27,9.28,2.91,12.91.78,4.31,2.29,10.11t2.29,10.1c.66,3.7-.1,5.74-2.29,6.14A3,3,0,0,1,181.14,154Z"/><path class="cls-2" d="M201.47,147.7q-.42-2.73,3-3.24l1.37-.21a4.14,4.14,0,0,0,1,0,1.49,1.49,0,0,0,1.22-.77,3.8,3.8,0,0,0,.09-2.11q-1.47-9.66-5.15-26.2Q199.37,97.9,198,89c-.32-2.12-.58-4.06-.76-5.81l-.77-5.82a48.17,48.17,0,0,0-1.29-6.2,7.75,7.75,0,0,1-2.55.85c-1.74.26-2.75-.51-3-2.33a2.91,2.91,0,0,1,1.29-2.64,12,12,0,0,1,4-2.13,52,52,0,0,1,8-2,3.31,3.31,0,0,1,2.47.56,2.9,2.9,0,0,1,1.29,2,3.33,3.33,0,0,1-.41,2.27,2.34,2.34,0,0,1-1.74,1.2,4.75,4.75,0,0,1-1.15.06l-.91.14a2.27,2.27,0,0,0-1.57.76,2.65,2.65,0,0,0-.23,2q1.83,12.06,6.52,33,4.74,22,6.43,33.1l.65,4.32a18.51,18.51,0,0,1,2.26-.46q4.77-.72,5.38,3.26l.1.68-2.55,2.36-.67.17c-.37.09-1.13.22-2.27.4-2.55.54-4.13.86-4.74.95Q202,151.12,201.47,147.7Z"/><path class="cls-2" d="M264.35,144.87a6.49,6.49,0,0,1-1.06-3.24l-2-16.9c-.23-1.44-.54-3.83-.92-7.19q-1.43-10.61-2.94-24l-.65-5.83q-.42,5.61-1.81,15.83-1.35,10.56-1.63,17.31l.08.69-.1,2.21a22.16,22.16,0,0,1-.56,5.27q-.84,2.87-3.24,3.14-4.11.47-5.32-10.28a74.36,74.36,0,0,0-2.64-12.6q-2-6.68-5.72-16.31l-4.87-12.42,1.32,13.74q.7,6.18,3.23,23.48l1.1,7.74,2,15.63a6.38,6.38,0,0,1-1.22,4.54c-1.9.21-3.29-.23-4.14-1.33a10,10,0,0,1-1.67-5.07l-.83-9.4q-.36-6.21-.7-9.3l-2.72-22-2.73-22.14q-.56-4.91-1.43-14.77L226,59.5a3,3,0,0,1,2,1.11,19.68,19.68,0,0,1,2.49,3.59q3.66,6.76,10.63,27.51a47.29,47.29,0,0,1,1.47,4.81q2.11,6.47,3.07,9.83l2.71,8.61.37-3.86,1.12-9.62q.9-8.43,1.4-14.74t.84-13.63q.28-8.72,0-14.47L252,58a3.49,3.49,0,0,1,1.11-2.5,4.41,4.41,0,0,1,2.64-1.17,2.41,2.41,0,0,1,1.93.71,2.87,2.87,0,0,1,1,1.85q1.55,13.73,5.66,40.91,2.07,13.3,3.75,26.08.88,5.8,1.89,14.72a8.29,8.29,0,0,1-.84,4.84,3.84,3.84,0,0,1-2.86,2.4A2.07,2.07,0,0,1,264.35,144.87Z"/><path class="cls-2" d="M286.84,141.17c-1.33-.29-2-1.31-2.18-3.07l-4.79-66.64a36.3,36.3,0,0,0-1.11-5.8,27.36,27.36,0,0,1-1.22-5.79l0-.35a25.87,25.87,0,0,1,2.57-4.33,25.58,25.58,0,0,0,4.21-.77,23.47,23.47,0,0,1,4.21-.76,6.6,6.6,0,0,1,3.64.83A3.14,3.14,0,0,1,294.05,57c.16,2.29-1.52,3.57-5,3.82l-1.61.12a8.62,8.62,0,0,0-1.61,0,4,4,0,0,0-1.26.2c.19,2.6.57,5.73,1.14,9.37l.46,3.2.68,6.29c.11,1.46.15,3.68.14,6.68l.23,6.44,1.58-.46a13.63,13.63,0,0,1,3.73-1,3.27,3.27,0,0,1,2.37.81,3,3,0,0,1,1.19,2.16,3.87,3.87,0,0,1-.68,2.53,2.6,2.6,0,0,1-2,1.24H292l-1.49.1a3.06,3.06,0,0,0-2.35,1l2.55,35.44,6.4-.8c4.35-.32,6.61.52,6.75,2.51l0,.46a5.12,5.12,0,0,1-2.36,2.42,12.33,12.33,0,0,1-3.48,1.34l-3.77.39-3.56.25A11.07,11.07,0,0,1,286.84,141.17Z"/><path class="cls-2" d="M333.24,134.9q0-2.76,3.4-2.83l1.38,0a4.61,4.61,0,0,0,1,.1,1.52,1.52,0,0,0,1.31-.61,3.79,3.79,0,0,0,.36-2.07q-.21-9.78-1.71-26.65-1.39-17.58-1.59-26.54c-.05-2.15-.05-4.1,0-5.87V64.54a48.71,48.71,0,0,0-.47-6.32,7.85,7.85,0,0,1-2.64.52c-1.76,0-2.66-.87-2.7-2.71a2.91,2.91,0,0,1,1.62-2.45A12,12,0,0,1,337.48,52a50.92,50.92,0,0,1,8.15-1,3.33,3.33,0,0,1,2.38.87,2.92,2.92,0,0,1,1,2.16,3.35,3.35,0,0,1-.7,2.2,2.31,2.31,0,0,1-1.88,1,4.82,4.82,0,0,1-1.15-.09l-.92,0a2.28,2.28,0,0,0-1.66.56,2.69,2.69,0,0,0-.47,1.9q.25,12.2,2.2,33.54,1.85,22.39,2.08,33.66l.09,4.37a18.9,18.9,0,0,1,2.3-.16q4.83-.1,4.91,3.92l0,.69-2.83,2c-.08,0-.31,0-.69.07s-1.15.08-2.3.1c-2.6.21-4.21.32-4.82.34Q333.31,138.35,333.24,134.9Z"/><path class="cls-2" d="M364.27,139c-1.22-.71-1.82-1.52-1.81-2.44a3.5,3.5,0,0,1,.71-2.23,2.36,2.36,0,0,1,2-.84,9.61,9.61,0,0,1,3.32,1,13.31,13.31,0,0,0,3,1,5.31,5.31,0,0,0,4-1.86,13.27,13.27,0,0,0,2.87-5,30.83,30.83,0,0,0,2.19-10.32,38.19,38.19,0,0,0-1.44-10.43A57.81,57.81,0,0,0,375,97.14l-1.8-3.7q-2.81-5.77-4.32-9.13A50.93,50.93,0,0,1,366.23,77a35.67,35.67,0,0,1-1.61-10.71,21.26,21.26,0,0,1,1.53-7.81,15.73,15.73,0,0,1,4.38-6.16,9.88,9.88,0,0,1,7.16-2.68,7.7,7.7,0,0,1,4,1.25A6.78,6.78,0,0,1,384.42,54l-2,2.4A7.4,7.4,0,0,1,378,55.2a5.5,5.5,0,0,0-3.65,2,12.71,12.71,0,0,0-2.4,4,14.84,14.84,0,0,0-.74,4.37,34.71,34.71,0,0,0,1.11,8.92,46.59,46.59,0,0,0,3.07,8.6l7.87,16.19a44.6,44.6,0,0,1,3,9.35,47.36,47.36,0,0,1,1,10.36,29,29,0,0,1-3.83,14.22,15.49,15.49,0,0,1-5.12,5.41,12.43,12.43,0,0,1-6.93,1.93A15.74,15.74,0,0,1,364.27,139Z"/><path class="cls-2" d="M429.32,141.3a17.68,17.68,0,0,1-4-5.93q-2.89-6.42-3.74-17.32-.63-7.55-.52-17.33l.31-6.09.43-6.19q.11-3,.39-7.24a115.91,115.91,0,0,1,1.43-12.12,45.2,45.2,0,0,1,3.06-10.74,12.45,12.45,0,0,1,5.74-6.28,10,10,0,0,1,4.19-.63,11.35,11.35,0,0,1,9.3,5.49,29.85,29.85,0,0,1,4.32,12.41,80.41,80.41,0,0,1,1,15.52q-.11,8.18-.62,15.4l-.45,6.54q-.15,2-1.09,7.3a67.91,67.91,0,0,0-1,7.2l0,.46a36.9,36.9,0,0,0-1.22,7.52,17.9,17.9,0,0,1-1.84,6.56,16.39,16.39,0,0,1-4.31,5.57,7.64,7.64,0,0,1-5.93,2.36A8.76,8.76,0,0,1,429.32,141.3Zm10.35-7.81a41.26,41.26,0,0,0,2.65-9.09q1-5.41,2-12.26c.29-2,.55-4.53.77-7.67l.62-10.56q.21-6.21-.29-15.58a52.82,52.82,0,0,0-2.46-14.24,12.47,12.47,0,0,0-2.56-4.68,5.32,5.32,0,0,0-3.56-1.86q-2.87-.19-4.56,4.18a42.63,42.63,0,0,0-3,10.16c-.75,4-1.28,7.87-1.62,11.53l-.38,3.78c-.15,1.07-.29,2.51-.42,4.35l0,.46a137.18,137.18,0,0,0,.28,19q.76,15.39,3.88,22.06,2,4.17,4.53,4.35Q437.77,137.63,439.67,133.49Z"/><path class="cls-2" d="M469,139.38a40.11,40.11,0,0,1-4.54-16.14,135,135,0,0,1-.26-21.1q.55-10.11,1.9-21.89l1.07-9.48q.57-4,1.08-8.44a3.15,3.15,0,0,1-.66-2.39,3.52,3.52,0,0,1,1.31-2.34,3.13,3.13,0,0,1,2.41-.83q4.11.46,3.19,8.58-.58,5.27-1.68,20t-1.69,20a29.31,29.31,0,0,1,.42,6.06,66.91,66.91,0,0,1-.32,7.37,30.89,30.89,0,0,0,.09,6.32,48.37,48.37,0,0,0,1.44,7.74,19.58,19.58,0,0,0,3.14,7,7,7,0,0,0,4.74,3.15,3.76,3.76,0,0,0,2.8-.73,5.26,5.26,0,0,0,1.77-2.81,30.5,30.5,0,0,0,1.39-6.2l2.53-22.29a91.81,91.81,0,0,0,.42-10.83c.08-4.85.27-8.49.54-10.93l.1-.8c.13-1.22.22-2.33.26-3.33l.26-3.32q.36-3.21.76-9.76.19-5.88.66-9.87a2.63,2.63,0,0,1,1.55-2,5,5,0,0,1,3-.58l2.56,2.95-.22,1.94a14.77,14.77,0,0,1-.83,3.27q-.83,3.15-.87,3.6-1.19,10.39-2.12,28.81-1.14,19.32-2.35,29.94a39.92,39.92,0,0,1-2.28,9.93,12.19,12.19,0,0,1-2.37,4,10.25,10.25,0,0,1-3.56,2.38,10,10,0,0,1-5.16.57A12.9,12.9,0,0,1,469,139.38Z"/><path class="cls-2" d="M510.86,148a7.92,7.92,0,0,1-.35-4.18c.38-2.5,1-5.55,1.85-9.14l.67-2.92,1.14-6q.6-4,1.89-17.85T518,90.09c0-.23.12-.66.26-1.3s.3-1.64.51-3,.62-3.35,1-5.55q1.25-8.3.46-10.75a26.42,26.42,0,0,0-3-.1l-3.22-.26a4.25,4.25,0,0,1-2.48-1.25,2.65,2.65,0,0,1-.8-2.39c.13-.91,1.16-1.56,3.09-2q4.18-.76,13.82.11c2.6.24,4.17.4,4.7.48a4,4,0,0,1,2.36,1.29,3,3,0,0,1-.51,4.52,3.59,3.59,0,0,1-2.57.48l-2-.42a17.45,17.45,0,0,0-2-.43l-1.14-.17A139.72,139.72,0,0,1,525,83.48l-1.22,7.26c-.41,2.19-.82,4.64-1.23,7.37q-.82,5.46-1.52,13.15-.87,9.52-1.41,13.16-.66,4.32-1.1,10.3T517.43,145q-.85,5.58-4.14,5.08A3,3,0,0,1,510.86,148Z"/><path class="cls-2" d="M535,154.09a4.33,4.33,0,0,1-.65-3.27,5.28,5.28,0,0,1,2-3.32,4.3,4.3,0,0,1,3.56-.95,4.25,4.25,0,0,1,3.06,2.13,5.88,5.88,0,0,1,.61,4.13q-.7,4-6.26,3A3.55,3.55,0,0,1,535,154.09Zm6.17-20.51a28.52,28.52,0,0,1,.53-8.9q.36-2,1.6-7.66c.65-2.76,1.27-5.85,1.88-9.24l3.08-18.61,3.08-18.61a4.08,4.08,0,0,1,2-2.85,5,5,0,0,1,3.52-.72,2.71,2.71,0,0,1,1.78,1.14,2.81,2.81,0,0,1,.43,2.18q-1.77,10-6,26.85-4.61,18.69-6.06,26.84-1.08,6-1.72,8.63a12.72,12.72,0,0,1-1.2,3.47,1.28,1.28,0,0,1-1.35.69C542,136.66,541.48,135.59,541.14,133.58Z"/><path class="cls-3" d="M184.8,158.42a8,8,0,0,1-1.69-3.85q-.68-3.73-1.2-9.24l-.3-3-.85-6q-.72-4-4-17.51t-4-17.51q-.06-.34-.18-1.32c-.07-.64-.23-1.65-.48-3-.2-1.53-.49-3.38-.88-5.57q-1.5-8.26-3-10.32a25.44,25.44,0,0,0-2.88.87l-3.13.79a4.28,4.28,0,0,1-2.76-.38,2.7,2.7,0,0,1-1.53-2c-.16-.9.6-1.86,2.29-2.87q3.72-2.07,13.12-4.35c2.54-.61,4.07-1,4.6-1.06a4,4,0,0,1,2.66.46,3,3,0,0,1,1,4.44,3.63,3.63,0,0,1-2.28,1.29l-2.06.25a17,17,0,0,0-2.05.25l-1.14.21a138.18,138.18,0,0,1,3.3,13.78l1.19,7.26q.48,3.3,1.22,7.38,1,5.43,2.79,12.93,2.26,9.3,2.91,12.91.78,4.31,2.29,10.11c1,3.95,1.78,7.31,2.28,10.11.67,3.69-.09,5.74-2.28,6.13A3,3,0,0,1,184.8,158.42Z"/><path class="cls-3" d="M205.13,152.13q-.42-2.73,3-3.25l1.37-.21a3.72,3.72,0,0,0,1,0,1.5,1.5,0,0,0,1.22-.76,3.81,3.81,0,0,0,.09-2.11q-1.47-9.66-5.15-26.21-3.66-17.23-5-26.1-.48-3.2-.77-5.82l-.76-5.82a48.54,48.54,0,0,0-1.29-6.2,7.53,7.53,0,0,1-2.55.85q-2.61.41-3-2.33a2.91,2.91,0,0,1,1.29-2.64,12,12,0,0,1,4-2.12,50.89,50.89,0,0,1,7.95-2,3.3,3.3,0,0,1,2.47.55,2.9,2.9,0,0,1,1.29,2,3.34,3.34,0,0,1-.41,2.27,2.32,2.32,0,0,1-1.74,1.19,4.75,4.75,0,0,1-1.15.06l-.91.14a2.31,2.31,0,0,0-1.57.76,2.66,2.66,0,0,0-.23,2q1.83,12.06,6.52,33,4.74,22,6.42,33.11l.66,4.32a16.76,16.76,0,0,1,2.26-.46c3.18-.49,5,.6,5.38,3.25l.1.68-2.55,2.37-.67.16c-.38.1-1.13.23-2.27.4-2.55.55-4.13.86-4.74,1Q205.64,155.53,205.13,152.13Z"/><path class="cls-3" d="M268,149.29a6.66,6.66,0,0,1-1.06-3.24l-2-16.9c-.24-1.44-.54-3.83-.92-7.18q-1.42-10.6-2.94-24l-.65-5.82Q260,97.77,258.6,108q-1.35,10.58-1.63,17.31l.07.69L257,128.2a21.68,21.68,0,0,1-.57,5.27c-.55,1.92-1.63,3-3.23,3.15q-4.11.45-5.32-10.28a74.46,74.46,0,0,0-2.64-12.61q-2-6.66-5.72-16.31L234.6,85l1.32,13.74q.69,6.16,3.23,23.47l1.1,7.75,2,15.63a6.4,6.4,0,0,1-1.22,4.53q-2.86.33-4.14-1.32a10.12,10.12,0,0,1-1.68-5.08l-.82-9.4c-.24-4.14-.47-7.23-.7-9.29L231,103l-2.73-22.14Q227.68,76,226.8,66.1l2.88-2.18a3,3,0,0,1,2,1.11,19.47,19.47,0,0,1,2.49,3.6q3.66,6.77,10.63,27.5a45.16,45.16,0,0,1,1.46,4.81q2.13,6.48,3.08,9.84l2.71,8.6.37-3.86,1.12-9.61q.9-8.44,1.4-14.74c.34-4.21.61-8.75.84-13.64q.28-8.72,0-14.46l-.08-.69a3.5,3.5,0,0,1,1.11-2.5,4.46,4.46,0,0,1,2.64-1.16,2.38,2.38,0,0,1,1.93.71,2.94,2.94,0,0,1,1,1.85Q263.9,75,268,102.19q2.07,13.31,3.75,26.08.89,5.79,1.89,14.71a8.28,8.28,0,0,1-.85,4.84,3.8,3.8,0,0,1-2.85,2.41A2.11,2.11,0,0,1,268,149.29Z"/><path class="cls-3" d="M290.5,145.6c-1.33-.29-2.05-1.31-2.18-3.07l-4.79-66.65a38.74,38.74,0,0,0-1.11-5.8,27.36,27.36,0,0,1-1.22-5.79l0-.34a26.1,26.1,0,0,1,2.57-4.34,26.68,26.68,0,0,0,4.21-.76,23.58,23.58,0,0,1,4.21-.77,6.52,6.52,0,0,1,3.64.84,3.08,3.08,0,0,1,1.9,2.45c.17,2.3-1.51,3.57-5,3.82l-1.61.12a10.89,10.89,0,0,0-1.62,0,3.84,3.84,0,0,0-1.25.21q.29,3.9,1.14,9.37l.46,3.19.68,6.3c.1,1.45.15,3.67.13,6.67l.24,6.44,1.58-.46a13.63,13.63,0,0,1,3.73-1,3.3,3.3,0,0,1,2.37.81,3,3,0,0,1,1.19,2.17,3.84,3.84,0,0,1-.68,2.52,2.61,2.61,0,0,1-2.05,1.25l-1.38,0-1.49.11a3.06,3.06,0,0,0-2.35,1l2.55,35.45,6.4-.81c4.35-.31,6.6.52,6.75,2.51l0,.46a5.08,5.08,0,0,1-2.36,2.42,12.37,12.37,0,0,1-3.48,1.35l-3.78.38-3.55.26A11.56,11.56,0,0,1,290.5,145.6Z"/><path class="cls-3" d="M336.9,139.33c0-1.84,1.1-2.79,3.39-2.83l1.38,0a4.24,4.24,0,0,0,1,.09A1.49,1.49,0,0,0,344,136a3.84,3.84,0,0,0,.36-2.08q-.21-9.76-1.71-26.65-1.41-17.57-1.59-26.54c-.05-2.14-.05-4.1,0-5.86V69a46.93,46.93,0,0,0-.48-6.32,7.51,7.51,0,0,1-2.63.52c-1.76,0-2.66-.87-2.7-2.7A2.91,2.91,0,0,1,336.86,58a12.16,12.16,0,0,1,4.28-1.59,50.75,50.75,0,0,1,8.15-1,3.36,3.36,0,0,1,2.38.86,3,3,0,0,1,1,2.17,3.37,3.37,0,0,1-.7,2.2,2.37,2.37,0,0,1-1.88,1,4.82,4.82,0,0,1-1.15-.09l-.92,0a2.28,2.28,0,0,0-1.66.55A2.71,2.71,0,0,0,345.9,64q.25,12.18,2.2,33.54,1.86,22.4,2.09,33.66l.09,4.37a18.52,18.52,0,0,1,2.3-.17c3.22-.06,4.86,1.24,4.91,3.93l0,.69-2.84,2-.68.07c-.39.05-1.15.08-2.3.11-2.61.21-4.21.32-4.83.33Q337,142.78,336.9,139.33Z"/><path class="cls-3" d="M367.93,143.42c-1.22-.7-1.82-1.51-1.81-2.43a3.53,3.53,0,0,1,.71-2.24,2.36,2.36,0,0,1,2-.84,9.61,9.61,0,0,1,3.32,1,12.75,12.75,0,0,0,3,.95,5.34,5.34,0,0,0,4-1.85,13.35,13.35,0,0,0,2.87-5,31.18,31.18,0,0,0,2.19-10.33,38.51,38.51,0,0,0-1.44-10.42,57.9,57.9,0,0,0-4.08-10.69l-1.8-3.69q-2.81-5.79-4.32-9.14a52,52,0,0,1-2.63-7.27,36.08,36.08,0,0,1-1.6-10.72,21.37,21.37,0,0,1,1.52-7.8,15.86,15.86,0,0,1,4.38-6.16,9.88,9.88,0,0,1,7.17-2.68,7.52,7.52,0,0,1,4,1.25,6.78,6.78,0,0,1,2.72,3.08l-2,2.39a7.27,7.27,0,0,1-4.47-1.2,5.59,5.59,0,0,0-3.65,2,12.47,12.47,0,0,0-2.4,4.06,14.72,14.72,0,0,0-.74,4.36A34.78,34.78,0,0,0,376,78.94a47.11,47.11,0,0,0,3.07,8.6l7.87,16.19a44.41,44.41,0,0,1,3,9.35,47.3,47.3,0,0,1,1,10.36,29,29,0,0,1-3.83,14.22,15.48,15.48,0,0,1-5.13,5.4A12.38,12.38,0,0,1,375,145,15.74,15.74,0,0,1,367.93,143.42Z"/><path class="cls-3" d="M433,145.72a17.44,17.44,0,0,1-4-5.93q-2.89-6.42-3.75-17.32-.61-7.53-.51-17.33l.31-6.09.43-6.19c.06-2,.2-4.4.39-7.24a116.56,116.56,0,0,1,1.43-12.12,45.26,45.26,0,0,1,3.06-10.73,12.47,12.47,0,0,1,5.74-6.29,10.32,10.32,0,0,1,4.19-.63,11.38,11.38,0,0,1,9.3,5.5,29.76,29.76,0,0,1,4.32,12.4,80.45,80.45,0,0,1,1,15.52q-.12,8.17-.62,15.41l-.46,6.53c-.09,1.31-.45,3.74-1.08,7.31a67.77,67.77,0,0,0-1,7.19l0,.46a36.34,36.34,0,0,0-1.22,7.52,17.85,17.85,0,0,1-1.84,6.56,16.52,16.52,0,0,1-4.31,5.58,7.63,7.63,0,0,1-5.93,2.35A8.66,8.66,0,0,1,433,145.72Zm10.35-7.8a41.36,41.36,0,0,0,2.65-9.1q1-5.4,2-12.26.44-3,.76-7.67l.63-10.56q.19-6.21-.29-15.58a52.56,52.56,0,0,0-2.47-14.24A12.27,12.27,0,0,0,444,63.84,5.38,5.38,0,0,0,440.46,62q-2.86-.19-4.56,4.18a42.85,42.85,0,0,0-3,10.17q-1.12,6-1.62,11.53l-.38,3.77q-.22,1.6-.42,4.35l0,.46a137.15,137.15,0,0,0,.28,19q.76,15.39,3.87,22.07,2,4.17,4.54,4.35Q441.43,142,443.33,137.92Z"/><path class="cls-3" d="M472.68,143.8a40,40,0,0,1-4.54-16.14,136.12,136.12,0,0,1-.27-21.09q.57-10.12,1.91-21.89l1.07-9.49c.38-2.65.74-5.47,1.08-8.44a3.14,3.14,0,0,1-.66-2.39A3.54,3.54,0,0,1,472.58,62,3.12,3.12,0,0,1,475,61.2q4.11.46,3.19,8.58-.6,5.25-1.68,19.94t-1.69,20a29.31,29.31,0,0,1,.42,6.06,67.23,67.23,0,0,1-.32,7.38,30.79,30.79,0,0,0,.09,6.31,47.59,47.59,0,0,0,1.44,7.75,19.48,19.48,0,0,0,3.14,7,7,7,0,0,0,4.74,3.14,3.81,3.81,0,0,0,2.8-.72,5.23,5.23,0,0,0,1.76-2.81,29.83,29.83,0,0,0,1.4-6.21l2.53-22.28a92,92,0,0,0,.42-10.83c.08-4.85.27-8.5.54-10.94l.09-.8c.14-1.21.23-2.32.26-3.32l.27-3.33q.36-3.19.76-9.75.19-5.88.65-9.88a2.66,2.66,0,0,1,1.56-2,5,5,0,0,1,3-.59l2.56,3-.22,1.94a15.42,15.42,0,0,1-.83,3.26c-.55,2.1-.84,3.3-.88,3.61q-1.17,10.4-2.11,28.81-1.14,19.31-2.35,29.94a39.84,39.84,0,0,1-2.28,9.92,12.35,12.35,0,0,1-2.37,4,10.32,10.32,0,0,1-3.57,2.37,10,10,0,0,1-5.15.57A12.85,12.85,0,0,1,472.68,143.8Z"/><path class="cls-3" d="M514.52,152.47a8,8,0,0,1-.35-4.19q.55-3.75,1.85-9.14l.67-2.92,1.14-6q.6-4,1.89-17.86t1.89-17.86c0-.22.12-.66.25-1.3s.31-1.64.52-3,.62-3.36,1-5.56q1.26-8.3.47-10.74a25.56,25.56,0,0,0-3-.11l-3.22-.25a4.31,4.31,0,0,1-2.48-1.25,2.68,2.68,0,0,1-.81-2.39q.21-1.36,3.09-2c2.8-.5,7.4-.47,13.83.12,2.6.24,4.16.4,4.7.48a4,4,0,0,1,2.36,1.29,3,3,0,0,1-.51,4.51,3.65,3.65,0,0,1-2.57.49l-2-.43a18,18,0,0,0-2-.42L530,73.8a139.79,139.79,0,0,1-1.32,14.1l-1.22,7.26q-.62,3.28-1.23,7.38c-.55,3.63-1.06,8-1.52,13.14q-.87,9.52-1.42,13.16c-.43,2.88-.8,6.32-1.09,10.3s-.67,7.5-1.1,10.31q-.84,5.56-4.14,5.07A3,3,0,0,1,514.52,152.47Z"/><path class="cls-3" d="M538.63,158.51a4.33,4.33,0,0,1-.65-3.27,5.33,5.33,0,0,1,2-3.32,4.42,4.42,0,0,1,6.62,1.18,5.9,5.9,0,0,1,.61,4.14q-.71,4-6.26,3A3.55,3.55,0,0,1,538.63,158.51ZM544.79,138a28.58,28.58,0,0,1,.54-8.9q.36-2,1.6-7.65,1-4.15,1.88-9.25l3.08-18.61L555,75a4.12,4.12,0,0,1,2-2.85,4.89,4.89,0,0,1,3.51-.71,2.66,2.66,0,0,1,1.79,1.13,2.82,2.82,0,0,1,.43,2.18q-1.79,10-6,26.86-4.62,18.69-6.06,26.84c-.72,4-1.29,6.87-1.72,8.63a12.75,12.75,0,0,1-1.2,3.46,1.28,1.28,0,0,1-1.35.69Q545.32,141,544.79,138Z"/><rect class="cls-4" x="42" y="175" width="648" height="288" rx="42.24"/><rect class="cls-5" x="393.29" y="394.6" width="77.83" height="18.4" rx="3.04" transform="translate(874.51 796.49) rotate(178.55)"/><path class="cls-6" d="M463.21,403.09a15.85,15.85,0,0,0-1.94-7.48l4.2-.11c2-.05,3.63,2.7,3.72,6.09l.07,2.73c.09,3.39-1.44,6.21-3.41,6.26l-4.21.11A15.94,15.94,0,0,0,463.21,403.09Z"/><path class="cls-7" d="M403.48,412.23l-4.3.12c-2,.06-3.72-2.68-3.82-6.07l-.07-2.72c-.1-3.4,1.45-6.23,3.46-6.28l4.3-.13C404.86,399.09,405.25,410.22,403.48,412.23Z"/><circle class="cls-8" cx="412.78" cy="351.94" r="8.65"/><path class="cls-3" d="M410.8,352.61c1.22,4.71,5.6.15,11.71-1.44s11.64.4,10.41-4.31-7.17-7.25-13.28-5.66S409.57,347.9,410.8,352.61Z"/><path class="cls-9" d="M410.41,353c1,3.79,5.4.82,8.37-.41-.65-2.87-3.2-5.86-5.8-7.47C410.76,347.31,409.7,350.19,410.41,353Z"/><path class="cls-10" d="M421.6,338c.61,1.9,3.82,6.55,5.73,5.94s1.78-6.27,1.17-8.17a3.63,3.63,0,1,0-6.9,2.23Z"/><path class="cls-11" d="M419.29,341c1.32,1.51,6.1,4.51,7.61,3.19s-.83-6.46-2.15-8a3.63,3.63,0,1,0-5.46,4.77Z"/><circle cx="429.62" cy="346.38" r="0.4"/><circle class="cls-2" cx="429.5" cy="346.22" r="0.2"/><circle class="cls-2" cx="429.8" cy="346.47" r="0.08"/><circle cx="431.49" cy="346.27" r="0.4"/><circle class="cls-2" cx="431.38" cy="346.11" r="0.2"/><circle class="cls-2" cx="431.67" cy="346.36" r="0.08"/><path d="M430.13,347.74h0a.4.4,0,0,0,.47.4.42.42,0,0,0,.45-.46v0l0-.53a.06.06,0,0,0-.06-.05l-.79.06s-.06,0-.06.06Z"/><path d="M431.05,347.74v0h0Z"/><ellipse class="cls-12" cx="430.6" cy="347.89" rx="0.4" ry="0.26" transform="translate(-26.51 35.64) rotate(-4.6)"/><circle class="cls-13" cx="456.06" cy="370.93" r="8.65"/><path class="cls-3" d="M454.48,372.31c2.93,3.89,5.24-2,10.28-5.79s10.92-4.07,8-8-9.39-4-14.43-.17S451.55,368.42,454.48,372.31Z"/><path class="cls-9" d="M454.25,372.77c2.36,3.13,5.31-1.3,7.59-3.57-1.69-2.41-5.19-4.2-8.21-4.7C452.43,367.42,452.54,370.49,454.25,372.77Z"/><path class="cls-10" d="M458.89,354.65c1.29,1.53,6,4.6,7.56,3.31s-.73-6.47-2-8a3.63,3.63,0,1,0-5.53,4.69Z"/><path class="cls-11" d="M457.92,358.35c1.79.89,7.36,1.85,8.25,0s-3.23-5.65-5-6.55a3.63,3.63,0,1,0-3.23,6.5Z"/><circle cx="469.51" cy="359.38" r="0.4"/><circle class="cls-2" cx="469.35" cy="359.27" r="0.2"/><circle class="cls-2" cx="469.72" cy="359.39" r="0.08"/><circle cx="471.2" cy="358.57" r="0.4"/><circle class="cls-2" cx="471.04" cy="358.46" r="0.2"/><circle class="cls-2" cx="471.41" cy="358.58" r="0.08"/><path d="M470.51,360.44h0a.39.39,0,0,0,.58.19.41.41,0,0,0,.24-.59v0l-.23-.47a.07.07,0,0,0-.08,0l-.71.36s0,.05,0,.08Z"/><path d="M471.36,360.09h0Z"/><ellipse class="cls-12" cx="471" cy="360.4" rx="0.4" ry="0.26" transform="translate(-112.23 252.83) rotate(-26.97)"/><path class="cls-14" d="M272.7,399.23a227.71,227.71,0,0,1-4-48.56,14.49,14.49,0,0,1,13.2-15.59l71.31-5.92c7.91-.65,10.64,5.25,15.59,13.2,4.41,7.11,9.62,27.92,4,48.56,0,0-5.28,14.94-13.2,15.59l-71.31,5.92A14.48,14.48,0,0,1,272.7,399.23Z"/><path class="cls-15" d="M275.35,397.33a183.81,183.81,0,0,1-3.72-44.83,14.48,14.48,0,0,1,13.2-15.59l66.48-5.52a14.48,14.48,0,0,1,15.59,13.2l3.72,44.83A14.48,14.48,0,0,1,357.42,405l-66.48,5.52A14.5,14.5,0,0,1,275.35,397.33Z"/><path class="cls-16" d="M273.94,396.93a186.67,186.67,0,0,1-3.6-45.23A14.55,14.55,0,0,1,283.58,336l66.5-5.3a14.56,14.56,0,0,1,15.56,13.38l3.6,45.23A14.55,14.55,0,0,1,356,405l-66.5,5.3A14.56,14.56,0,0,1,273.94,396.93Z"/><circle class="cls-17" cx="307.25" cy="371.22" r="4.88"/><circle class="cls-18" cx="333.15" cy="357.19" r="4.88"/><circle class="cls-19" cx="288.94" cy="357.68" r="4.88"/><circle class="cls-20" cx="335.02" cy="381.24" r="4.88"/><rect class="cls-21" x="314.76" y="301.9" width="4.79" height="74.17" rx="1.18" transform="matrix(0.08, 1, -1, 0.08, 628.74, -5.13)"/><rect class="cls-22" x="322.05" y="370.38" width="4.79" height="64.12" rx="1.18" transform="translate(698.66 45.82) rotate(85.25)"/><path class="cls-2" d="M292.91,519.11c-.28-4.11-.42-9.69-.42-16.71s.1-11.57.3-13.65a3.15,3.15,0,0,1,2.64-2.55,24.54,24.54,0,0,1,6.18-.63,17.55,17.55,0,0,1,9.51,2.43,7.93,7.93,0,0,1,3.87,7.17,17.07,17.07,0,0,1-1.08,6.51,9.25,9.25,0,0,1-2.7,3.87c-1.76,1.37-4.36,2-7.8,2a37.09,37.09,0,0,1-5.82-.6q.3,12,.24,15.12t-2.1,3.12c-.88,0-1.44-.15-1.68-.48a6.59,6.59,0,0,1-.48-.69,3,3,0,0,1-.24-.63c-.08-.27-.14-.51-.18-.69a5.43,5.43,0,0,1-.09-.81,6.32,6.32,0,0,0-.09-.84Q292.91,520.19,292.91,519.11ZM310,495.32a4.27,4.27,0,0,0-2.64-3.84,11.79,11.79,0,0,0-5.64-1.41,11.34,11.34,0,0,0-4.2.54q-.24,3.54-.24,6.51t.24,5.37q1.62.18,2.22.3a23.82,23.82,0,0,0,2.67.18q1.11,0,1.5,0t1.5-.18a3.39,3.39,0,0,0,1.59-.51q.48-.36,1.2-1a3.36,3.36,0,0,0,1-1.38A13.41,13.41,0,0,0,310,495.32Z"/><path class="cls-2" d="M320,516.89l.06-4.68.54-25.08a1.27,1.27,0,0,1,.78-1.14,4.15,4.15,0,0,1,2-.42q2.88,0,2.88,2c0,.44-.23,3.81-.69,10.08s-.69,10.05-.69,11.28v6.36q0,4.5.6,4.92a6.37,6.37,0,0,0,2.1.3l8.64-.6q2.82,0,2.82,2a2.48,2.48,0,0,1-1.53,2.37,7.77,7.77,0,0,1-3,.84q-1.5.09-3.66.09-9.42,0-10.2-.6-.42-.36-.48-2.73t-.09-3.33Q320,517.68,320,516.89Z"/><path class="cls-2" d="M356.21,485.69a3.08,3.08,0,0,1,2.52,1.32,25.42,25.42,0,0,1,2.64,5.46q3.78,9.79,7.38,30.66a3,3,0,0,1,.06.69,1.37,1.37,0,0,1-.57,1,2.35,2.35,0,0,1-1.62.51,3,3,0,0,1-1.77-.51,2.57,2.57,0,0,1-1-1.68q-.24-1.17-.9-4.59-1.44-7.62-1.92-7.92a19.27,19.27,0,0,0-4.77-.9c-2.7-.31-4.49-.48-5.37-.48a2.83,2.83,0,0,0-1.56.24c-.72.64-1.7,5.51-2.94,14.58q-.24,1.14-2.28,1.14t-2-1.74q0-4.32,3.18-16.5t5.28-16.14Q353.21,485.69,356.21,485.69Zm-.24,6.66q-.9,0-3.12,5.31t-2.22,6.57a.59.59,0,0,0,.12.42q.48.48,3.78.84t4.38.36q1.08,0,1.2-.15a2.08,2.08,0,0,0,.12-1,51,51,0,0,0-1.62-6.6C357.53,494.29,356.65,492.35,356,492.35Z"/><path class="cls-2" d="M380.63,510.71l.06-3.06a5.5,5.5,0,0,0-1-3.06q-1-1.5-4.77-8.7t-3.78-8.13a2.28,2.28,0,0,1,.78-1.68,2.26,2.26,0,0,1,1.53-.75q.75,0,1.8,1.38A69.86,69.86,0,0,1,379.4,494q3.09,5.88,3.57,6.48,5.76-10.2,9.24-14.4a2.4,2.4,0,0,1,1.35-.78,1.76,1.76,0,0,1,.75.12q1.44.6,1.44,1.59a3,3,0,0,1-.48,1.71q-.48.72-2.64,3.78a70.16,70.16,0,0,0-5.49,9q-2.31,4.53-2.31,5.55v11l.18,4.8a2.09,2.09,0,0,1-.72,1.83,3,3,0,0,1-1.77.51,1.41,1.41,0,0,1-1.41-1.14,11.47,11.47,0,0,1-.42-3c0-1.23-.06-3.06-.06-5.46Z"/><path class="cls-2" d="M425.81,485.69a3.08,3.08,0,0,1,2.52,1.32,25.42,25.42,0,0,1,2.64,5.46q3.78,9.79,7.38,30.66a3,3,0,0,1,.06.69,1.37,1.37,0,0,1-.57,1,2.35,2.35,0,0,1-1.62.51,3,3,0,0,1-1.77-.51,2.57,2.57,0,0,1-1-1.68q-.24-1.17-.9-4.59-1.44-7.62-1.92-7.92a19.27,19.27,0,0,0-4.77-.9c-2.7-.31-4.49-.48-5.37-.48a2.83,2.83,0,0,0-1.56.24c-.72.64-1.7,5.51-2.94,14.58q-.24,1.14-2.28,1.14t-2-1.74q0-4.32,3.18-16.5t5.28-16.14Q422.81,485.69,425.81,485.69Zm-.24,6.66q-.9,0-3.12,5.31t-2.22,6.57a.59.59,0,0,0,.12.42q.48.48,3.78.84t4.38.36q1.08,0,1.2-.15a2.08,2.08,0,0,0,.12-1,51,51,0,0,0-1.62-6.6C427.13,494.29,426.25,492.35,425.57,492.35Z"/><path class="cls-2" d="M459.41,485.39a12.6,12.6,0,0,1,5.73,1.44q2.85,1.44,2.85,3.24c0,1.85-.76,2.76-2.28,2.76a8,8,0,0,1-2.94-1.08,8.12,8.12,0,0,0-3.54-1.08,10.38,10.38,0,0,0-8.61,4.62c-2.3,3.09-3.45,7-3.45,11.76a18.22,18.22,0,0,0,2.34,9.36q2.34,4,5.55,4a6.29,6.29,0,0,0,5-2.13,7.21,7.21,0,0,0,1.83-4.83,12.3,12.3,0,0,0-.21-2.49,3.49,3.49,0,0,0-1.05-1.8,3.06,3.06,0,0,0-2.22-.81,5.88,5.88,0,0,1-2.61-.6,1.81,1.81,0,0,1-1.23-1.62,3.4,3.4,0,0,1,.6-1.92,2.38,2.38,0,0,1,1.62-1.08q4.08,0,5.49.84t2.13,1.38a3.94,3.94,0,0,1,1.2,1.8q.48,1.26.75,2.1a12.37,12.37,0,0,1,.39,2.7q.12,3.12.12,7.29t-.6,5.13a2.07,2.07,0,0,1-1.8.81,2.19,2.19,0,0,1-1.74-.51,4.37,4.37,0,0,1-.6-2.4,12.43,12.43,0,0,1-3.63,2.13,10.69,10.69,0,0,1-3.87.87q-5.28,0-8.88-5.61a24.52,24.52,0,0,1-3.6-13.53,25.46,25.46,0,0,1,1.38-8.25,20.75,20.75,0,0,1,3.72-6.81A15.4,15.4,0,0,1,459.41,485.39Z"/><path class="cls-2" d="M483.89,485.69a3.08,3.08,0,0,1,2.52,1.32,25.42,25.42,0,0,1,2.64,5.46q3.78,9.79,7.38,30.66a3,3,0,0,1,.06.69,1.37,1.37,0,0,1-.57,1,2.35,2.35,0,0,1-1.62.51,3,3,0,0,1-1.77-.51,2.57,2.57,0,0,1-1-1.68q-.24-1.17-.9-4.59-1.44-7.62-1.92-7.92a19.27,19.27,0,0,0-4.77-.9c-2.7-.31-4.49-.48-5.37-.48a2.83,2.83,0,0,0-1.56.24c-.72.64-1.7,5.51-2.94,14.58q-.24,1.14-2.28,1.14t-2-1.74q0-4.32,3.18-16.5t5.28-16.14Q480.89,485.69,483.89,485.69Zm-.24,6.66q-.9,0-3.12,5.31t-2.22,6.57a.59.59,0,0,0,.12.42q.48.48,3.78.84t4.38.36q1.08,0,1.2-.15a2.08,2.08,0,0,0,.12-1,51,51,0,0,0-1.62-6.6C485.21,494.29,484.33,492.35,483.65,492.35Z"/><path class="cls-2" d="M503.6,487.07a3.84,3.84,0,0,1,2.13-.6q1.2,0,1.5,1.38.06,7,.24,20.82,0,8.46-.48,14.34a2.35,2.35,0,0,1-1.11,1.59,3.49,3.49,0,0,1-2,.69,1.51,1.51,0,0,1-1.68-1.74q.6-6,.6-14.88l-.36-20.16A2.61,2.61,0,0,1,503.6,487.07Z"/><path class="cls-2" d="M538.67,485.51a2.37,2.37,0,0,1,1.74.81,2.64,2.64,0,0,1,.78,1.89q0,23.46.21,28.35t.21,5a4.65,4.65,0,0,1-.72,2.49q-.72,1.17-1.59,1.17a7.23,7.23,0,0,1-1.32-.09,6.77,6.77,0,0,1-.81-.21,1.89,1.89,0,0,1-.72-.48l-.6-.6a4.44,4.44,0,0,1-.63-.93l-.63-1.11c-.16-.27-.41-.77-.75-1.47s-1.08-2.13-2.22-4.29-2.17-4.09-3.09-5.82a92.9,92.9,0,0,0-8.82-13.74q0,19.51-1.08,27.06-.18,1.44-2.22,1.44a2.55,2.55,0,0,1-1.59-.48,1.84,1.84,0,0,1-.63-1.56q0-1.08.45-11.88t.45-13.47v-3.39q0-4.32.66-4.86a2.15,2.15,0,0,1,1.38-.54q3.3,0,10.08,10.8,1.32,2.1,5,8.79c2.48,4.47,4,7.21,4.44,8.25l-.72-24.9q0-5.16,1.14-5.88A3,3,0,0,1,538.67,485.51Z"/><path class="cls-3" d="M295.26,522.68q-.42-6.18-.42-16.71t.3-13.65a3.15,3.15,0,0,1,2.64-2.55,24.54,24.54,0,0,1,6.18-.63,17.55,17.55,0,0,1,9.51,2.43,7.93,7.93,0,0,1,3.87,7.17,17.1,17.1,0,0,1-1.08,6.51,9.25,9.25,0,0,1-2.7,3.87q-2.64,2-7.8,2a37.09,37.09,0,0,1-5.82-.6q.3,12,.24,15.12t-2.1,3.12q-1.32,0-1.68-.48a7.88,7.88,0,0,1-.48-.69,3,3,0,0,1-.24-.63q-.12-.42-.18-.69a5.43,5.43,0,0,1-.09-.81,6.32,6.32,0,0,0-.09-.84Q295.26,523.76,295.26,522.68Zm17.1-23.79a4.27,4.27,0,0,0-2.64-3.84,11.79,11.79,0,0,0-5.64-1.41,11.34,11.34,0,0,0-4.2.54q-.24,3.54-.24,6.51t.24,5.37q1.62.18,2.22.3a23.82,23.82,0,0,0,2.67.18q1.11,0,1.5,0t1.5-.18a3.51,3.51,0,0,0,1.59-.51q.48-.36,1.2-1a3.36,3.36,0,0,0,1-1.38A13.41,13.41,0,0,0,312.36,498.89Z"/><path class="cls-3" d="M322.32,520.46l.06-4.68.54-25.08a1.27,1.27,0,0,1,.78-1.14,4.15,4.15,0,0,1,2-.42q2.88,0,2.88,2c0,.44-.24,3.8-.69,10.08s-.69,10-.69,11.28v6.36q0,4.5.6,4.92a6.6,6.6,0,0,0,2.1.3l8.64-.6q2.82,0,2.82,2a2.48,2.48,0,0,1-1.53,2.37,8,8,0,0,1-3,.84q-1.5.09-3.66.09-9.42,0-10.2-.6-.42-.36-.48-2.73t-.09-3.33C322.32,521.56,322.32,521,322.32,520.46Z"/><path class="cls-3" d="M358.56,489.26a3.07,3.07,0,0,1,2.51,1.32,25.31,25.31,0,0,1,2.65,5.46q3.76,9.78,7.38,30.66a3.9,3.9,0,0,1,0,.69,1.4,1.4,0,0,1-.56,1,2.38,2.38,0,0,1-1.62.51,3,3,0,0,1-1.78-.51,2.63,2.63,0,0,1-1-1.68c-.16-.78-.46-2.31-.89-4.59-1-5.08-1.61-7.72-1.92-7.92a18.77,18.77,0,0,0-4.77-.9c-2.71-.32-4.5-.48-5.38-.48s-1.4.08-1.55.24q-1.08,1-3,14.58c-.16.76-.91,1.14-2.27,1.14s-2-.58-2-1.74q0-4.32,3.18-16.5t5.28-16.14C354.68,491,356.55,489.26,358.56,489.26Zm-.25,6.66c-.59,0-1.64,1.77-3.12,5.31S353,507,353,507.8a.54.54,0,0,0,.12.42c.31.32,1.58.6,3.78.84s3.65.36,4.38.36,1.11-.05,1.2-.15a2.34,2.34,0,0,0,.11-1,52,52,0,0,0-1.61-6.6C359.88,497.85,359,495.92,358.31,495.92Z"/><path class="cls-3" d="M383,514.28l.06-3.06a5.5,5.5,0,0,0-1-3.06q-1-1.5-4.77-8.7t-3.78-8.13a2.28,2.28,0,0,1,.78-1.68,2.26,2.26,0,0,1,1.53-.75q.75,0,1.8,1.38a69.86,69.86,0,0,1,4.14,7.26q3.09,5.88,3.57,6.48,5.76-10.2,9.24-14.4a2.34,2.34,0,0,1,1.35-.78,1.76,1.76,0,0,1,.75.12q1.44.6,1.44,1.59a3,3,0,0,1-.48,1.71q-.48.72-2.64,3.78a70.16,70.16,0,0,0-5.49,9q-2.31,4.53-2.31,5.55v11l.18,4.8a2.09,2.09,0,0,1-.72,1.83,3,3,0,0,1-1.77.51,1.41,1.41,0,0,1-1.41-1.14,11.47,11.47,0,0,1-.42-3q-.06-1.86-.06-5.46Z"/><path class="cls-3" d="M428.15,489.26a3.08,3.08,0,0,1,2.52,1.32,25.42,25.42,0,0,1,2.64,5.46q3.78,9.78,7.38,30.66a3,3,0,0,1,.06.69,1.38,1.38,0,0,1-.57,1,2.35,2.35,0,0,1-1.62.51,3,3,0,0,1-1.77-.51,2.59,2.59,0,0,1-1-1.68q-.24-1.17-.9-4.59-1.44-7.62-1.92-7.92a18.77,18.77,0,0,0-4.77-.9q-4-.48-5.37-.48a2.83,2.83,0,0,0-1.56.24q-1.08,1-2.94,14.58-.24,1.14-2.28,1.14t-2-1.74q0-4.32,3.18-16.5t5.28-16.14Q425.15,489.26,428.15,489.26Zm-.24,6.66q-.9,0-3.12,5.31t-2.22,6.57a.59.59,0,0,0,.12.42q.48.48,3.78.84t4.38.36q1.08,0,1.2-.15a2.11,2.11,0,0,0,.12-1,51,51,0,0,0-1.62-6.6Q428.93,495.92,427.91,495.92Z"/><path class="cls-3" d="M461.75,489a12.6,12.6,0,0,1,5.73,1.44q2.85,1.44,2.85,3.24,0,2.76-2.28,2.76a8,8,0,0,1-2.94-1.08,8.12,8.12,0,0,0-3.54-1.08,10.38,10.38,0,0,0-8.61,4.62q-3.45,4.62-3.45,11.76a18.27,18.27,0,0,0,2.34,9.36q2.34,4,5.55,4a6.29,6.29,0,0,0,5-2.13,7.21,7.21,0,0,0,1.83-4.83,12.3,12.3,0,0,0-.21-2.49,3.49,3.49,0,0,0-1.05-1.8,3.06,3.06,0,0,0-2.22-.81,5.88,5.88,0,0,1-2.61-.6,1.82,1.82,0,0,1-1.23-1.62,3.4,3.4,0,0,1,.6-1.92,2.38,2.38,0,0,1,1.62-1.08q4.08,0,5.49.84t2.13,1.38a3.94,3.94,0,0,1,1.2,1.8q.48,1.26.75,2.1a12.27,12.27,0,0,1,.39,2.7q.12,3.12.12,7.29t-.6,5.13a2.1,2.1,0,0,1-1.8.81,2.19,2.19,0,0,1-1.74-.51,4.4,4.4,0,0,1-.6-2.4,12.43,12.43,0,0,1-3.63,2.13,10.69,10.69,0,0,1-3.87.87q-5.28,0-8.88-5.61a24.52,24.52,0,0,1-3.6-13.53,25.42,25.42,0,0,1,1.38-8.25,20.75,20.75,0,0,1,3.72-6.81A15.4,15.4,0,0,1,461.75,489Z"/><path class="cls-3" d="M486.23,489.26a3.08,3.08,0,0,1,2.52,1.32,25.42,25.42,0,0,1,2.64,5.46q3.78,9.78,7.38,30.66a3,3,0,0,1,.06.69,1.38,1.38,0,0,1-.57,1,2.35,2.35,0,0,1-1.62.51,3,3,0,0,1-1.77-.51,2.59,2.59,0,0,1-1-1.68q-.24-1.17-.9-4.59-1.44-7.62-1.92-7.92a18.77,18.77,0,0,0-4.77-.9q-4.05-.48-5.37-.48a2.83,2.83,0,0,0-1.56.24q-1.08,1-2.94,14.58-.24,1.14-2.28,1.14t-2-1.74q0-4.32,3.18-16.5t5.28-16.14Q483.23,489.26,486.23,489.26Zm-.24,6.66q-.9,0-3.12,5.31t-2.22,6.57a.59.59,0,0,0,.12.42q.48.48,3.78.84t4.38.36q1.08,0,1.2-.15a2.11,2.11,0,0,0,.12-1,51,51,0,0,0-1.62-6.6Q487,495.92,486,495.92Z"/><path class="cls-3" d="M505.94,490.64a3.84,3.84,0,0,1,2.13-.6q1.2,0,1.5,1.38.06,7,.24,20.82,0,8.46-.48,14.34a2.35,2.35,0,0,1-1.11,1.59,3.49,3.49,0,0,1-2,.69,1.51,1.51,0,0,1-1.68-1.74q.6-6,.6-14.88l-.36-20.16A2.58,2.58,0,0,1,505.94,490.64Z"/><path class="cls-3" d="M541,489.08a2.37,2.37,0,0,1,1.74.81,2.64,2.64,0,0,1,.78,1.89q0,23.46.21,28.35t.21,5a4.67,4.67,0,0,1-.72,2.49q-.72,1.17-1.59,1.17a7.23,7.23,0,0,1-1.32-.09,6.77,6.77,0,0,1-.81-.21,1.89,1.89,0,0,1-.72-.48l-.6-.6a4.74,4.74,0,0,1-.63-.93l-.63-1.11q-.24-.42-.75-1.47T534,519.62q-1.71-3.24-3.09-5.82a92.9,92.9,0,0,0-8.82-13.74q0,19.5-1.08,27.06-.18,1.44-2.22,1.44a2.55,2.55,0,0,1-1.59-.48,1.84,1.84,0,0,1-.63-1.56q0-1.08.45-11.88t.45-13.47v-3.39q0-4.32.66-4.86a2.15,2.15,0,0,1,1.38-.54q3.3,0,10.08,10.8,1.32,2.1,5,8.79t4.44,8.25l-.72-24.9q0-5.16,1.14-5.88A3,3,0,0,1,541,489.08Z"/></g></svg>