<svg xmlns="http://www.w3.org/2000/svg" xmlns:xlink="http://www.w3.org/1999/xlink" width="1076" height="953" viewBox="0 0 1076 953"><defs><style>.cls-1{fill:#c04a22;}.cls-14,.cls-15,.cls-17,.cls-2,.cls-5{fill:#fff;}.cls-3{fill:#fcee21;}.cls-4{fill:#a7221c;}.cls-5{opacity:0.77;}.cls-6{fill:#20346b;}.cls-7{opacity:0.21;}.cls-8{fill:#efcfac;}.cls-18,.cls-9{fill:#1d1d1b;}.cls-10{fill:#d92d20;}.cls-11{fill:#b14643;}.cls-12{fill:#e5a4ba;}.cls-13{fill:#e96584;}.cls-14,.cls-44{opacity:0.83;}.cls-15{opacity:0.81;}.cls-16,.cls-18{opacity:0.23;}.cls-17{opacity:0.63;}.cls-19{fill:url(#radial-gradient);}.cls-20{fill:#ffe600;}.cls-21{fill:#ffec00;}.cls-22,.cls-24{fill:#d7e9f4;}.cls-23,.cls-25{fill:#e7f4fb;}.cls-24{opacity:0.59;}.cls-25{opacity:0.69;}.cls-26{fill:url(#linear-gradient);}.cls-27{fill:url(#radial-gradient-2);}.cls-28{fill:url(#radial-gradient-3);}.cls-29{fill:url(#radial-gradient-4);}.cls-30{fill:url(#radial-gradient-5);}.cls-31{fill:url(#radial-gradient-6);}.cls-32{fill:url(#radial-gradient-7);}.cls-33{fill:url(#radial-gradient-8);}.cls-34{fill:url(#radial-gradient-9);}.cls-35{fill:url(#radial-gradient-10);}.cls-36{fill:url(#radial-gradient-11);}.cls-37{fill:url(#radial-gradient-12);}.cls-38{fill:url(#radial-gradient-13);}.cls-39{fill:url(#radial-gradient-14);}.cls-40{fill:url(#radial-gradient-15);}.cls-41{fill:url(#radial-gradient-16);}.cls-42{fill:url(#radial-gradient-17);}.cls-43{fill:#be8049;}.cls-44{fill:#f9f9f7;}.cls-45{opacity:0.15;}.cls-46{fill:url(#radial-gradient-18);}.cls-47{fill:url(#radial-gradient-19);}.cls-48{fill:url(#radial-gradient-20);}.cls-49{fill:#e42320;}.cls-50{fill:url(#radial-gradient-21);}.cls-51{fill:url(#radial-gradient-22);}.cls-52{fill:none;stroke:#1d1d1b;stroke-miterlimit:10;stroke-width:0.2px;}.cls-53{fill:url(#radial-gradient-23);}.cls-54{fill:url(#radial-gradient-24);}.cls-55{fill:url(#radial-gradient-25);}.cls-56{fill:url(#radial-gradient-26);}.cls-57{fill:url(#radial-gradient-27);}.cls-58{fill:url(#linear-gradient-2);}.cls-59{fill:url(#linear-gradient-3);}.cls-60{fill:url(#linear-gradient-4);}.cls-61{fill:url(#linear-gradient-5);}.cls-62{fill:url(#linear-gradient-6);}.cls-63{fill:url(#linear-gradient-7);}.cls-64{fill:url(#radial-gradient-28);}.cls-65{fill:url(#linear-gradient-8);}.cls-66{fill:url(#linear-gradient-9);}.cls-67{fill:url(#linear-gradient-10);}.cls-68{fill:url(#linear-gradient-11);}.cls-69{fill:url(#linear-gradient-12);}.cls-70{fill:url(#linear-gradient-13);}.cls-71{fill:url(#radial-gradient-29);}.cls-72{fill:url(#linear-gradient-14);}.cls-73{fill:url(#linear-gradient-15);}.cls-74{fill:url(#linear-gradient-16);}.cls-75{fill:url(#linear-gradient-17);}.cls-76{fill:url(#linear-gradient-18);}.cls-77{fill:url(#linear-gradient-19);}.cls-78{fill:url(#radial-gradient-30);}.cls-79{fill:url(#linear-gradient-20);}.cls-80{fill:url(#linear-gradient-21);}.cls-81{fill:url(#linear-gradient-22);}.cls-82{fill:url(#linear-gradient-23);}.cls-83{fill:url(#linear-gradient-24);}.cls-84{fill:url(#linear-gradient-25);}.cls-85{fill:url(#radial-gradient-31);}</style><radialGradient id="radial-gradient" cx="-1520.61" cy="592.5" r="12.15" gradientTransform="matrix(-0.92, 0.4, 0.4, 0.92, -1396.49, 662.22)" gradientUnits="userSpaceOnUse"><stop offset="0" stop-color="#ffec00"/><stop offset="0.14" stop-color="#ffec00" stop-opacity="0.99"/><stop offset="0.25" stop-color="#ffec01" stop-opacity="0.95"/><stop offset="0.36" stop-color="#ffec02" stop-opacity="0.88"/><stop offset="0.47" stop-color="#feec03" stop-opacity="0.78"/><stop offset="0.57" stop-color="#feeb04" stop-opacity="0.65"/><stop offset="0.67" stop-color="#feeb06" stop-opacity="0.5"/><stop offset="0.76" stop-color="#fdeb09" stop-opacity="0.32"/><stop offset="0.85" stop-color="#fcea0c" stop-opacity="0.11"/><stop offset="0.9" stop-color="#fcea0d" stop-opacity="0"/></radialGradient><linearGradient id="linear-gradient" x1="258.67" y1="752.75" x2="255.5" y2="663.42" gradientTransform="translate(95.97 -79.27) rotate(9.01)" gradientUnits="userSpaceOnUse"><stop offset="0.02" stop-color="#ffec00"/><stop offset="0.04" stop-color="#ffec01" stop-opacity="0.93"/><stop offset="0.11" stop-color="#feeb03" stop-opacity="0.74"/><stop offset="0.19" stop-color="#feeb06" stop-opacity="0.56"/><stop offset="0.26" stop-color="#fdeb08" stop-opacity="0.41"/><stop offset="0.35" stop-color="#fdeb09" stop-opacity="0.28"/><stop offset="0.44" stop-color="#fdea0b" stop-opacity="0.18"/><stop offset="0.53" stop-color="#fcea0c" stop-opacity="0.1"/><stop offset="0.64" stop-color="#fcea0c" stop-opacity="0.04"/><stop offset="0.78" stop-color="#fcea0d" stop-opacity="0.01"/><stop offset="1" stop-color="#fcea0d" stop-opacity="0"/></linearGradient><radialGradient id="radial-gradient-2" cx="279.59" cy="734.45" r="4.88" gradientTransform="translate(95.97 -79.27) rotate(9.01)" gradientUnits="userSpaceOnUse"><stop offset="0" stop-color="#ffec00"/><stop offset="0.11" stop-color="#feec02" stop-opacity="0.83"/><stop offset="0.37" stop-color="#fdeb08" stop-opacity="0.42"/><stop offset="0.61" stop-color="#fcea0d" stop-opacity="0"/><stop offset="1" stop-color="#fce907" stop-opacity="0.14"/></radialGradient><radialGradient id="radial-gradient-3" cx="256.48" cy="707.99" r="4.88" xlink:href="#radial-gradient-2"/><radialGradient id="radial-gradient-4" cx="230.38" cy="734.48" r="4.88" xlink:href="#radial-gradient-2"/><radialGradient id="radial-gradient-5" cx="260.95" cy="744.11" r="4.88" xlink:href="#radial-gradient-2"/><radialGradient id="radial-gradient-6" cx="247.34" cy="682.78" r="4.88" gradientTransform="translate(95.97 -79.27) rotate(9.01)" gradientUnits="userSpaceOnUse"><stop offset="0" stop-color="#ffec00"/><stop offset="0.17" stop-color="#feec02" stop-opacity="0.83"/><stop offset="0.55" stop-color="#fdeb08" stop-opacity="0.42"/><stop offset="0.91" stop-color="#fcea0d" stop-opacity="0"/></radialGradient><radialGradient id="radial-gradient-7" cx="273.46" cy="719.99" r="4.88" xlink:href="#radial-gradient-6"/><radialGradient id="radial-gradient-8" cx="273.57" cy="681.92" r="4.88" xlink:href="#radial-gradient-6"/><radialGradient id="radial-gradient-9" cx="238.21" cy="722.73" r="4.88" xlink:href="#radial-gradient-6"/><radialGradient id="radial-gradient-10" cx="241.41" cy="740.62" r="4.88" xlink:href="#radial-gradient-6"/><radialGradient id="radial-gradient-11" cx="276.86" cy="743.48" r="4.88" xlink:href="#radial-gradient-6"/><radialGradient id="radial-gradient-12" cx="256.55" cy="727.15" r="4.88" xlink:href="#radial-gradient-2"/><radialGradient id="radial-gradient-13" cx="281.95" cy="697.73" r="6.23" xlink:href="#radial-gradient-2"/><radialGradient id="radial-gradient-14" cx="232.72" cy="687.06" r="4.88" xlink:href="#radial-gradient-2"/><radialGradient id="radial-gradient-15" cx="261.09" cy="683.78" r="4.88" xlink:href="#radial-gradient-2"/><radialGradient id="radial-gradient-16" cx="238.57" cy="698.23" r="4.88" xlink:href="#radial-gradient-2"/><radialGradient id="radial-gradient-17" cx="136.66" cy="774.01" r="4.88" gradientTransform="matrix(1, 0.08, -0.08, 1, 178.1, -128.32)" xlink:href="#radial-gradient-6"/><radialGradient id="radial-gradient-18" cx="303.79" cy="662.84" r="84.04" gradientTransform="translate(946.07 379.33) rotate(90)" gradientUnits="userSpaceOnUse"><stop offset="0.02"/><stop offset="0.16" stop-opacity="0.54"/><stop offset="1" stop-opacity="0"/></radialGradient><radialGradient id="radial-gradient-19" cx="488.22" cy="666.17" r="84.04" gradientTransform="translate(-470.76 1120.83) rotate(-90)" xlink:href="#radial-gradient-18"/><radialGradient id="radial-gradient-20" cx="697.82" cy="545.74" r="12.15" gradientTransform="matrix(-1, 0, 0, 1, 1000.7, 0)" xlink:href="#radial-gradient"/><radialGradient id="radial-gradient-21" cx="655.36" cy="539.36" r="12.15" gradientTransform="matrix(-0.92, 0.38, 0.38, 0.92, 765.91, -201.71)" xlink:href="#radial-gradient"/><radialGradient id="radial-gradient-22" cx="278.8" cy="579.84" r="12.15" gradientTransform="matrix(0.92, 0.38, -0.38, 0.92, 247.45, -70.51)" xlink:href="#radial-gradient"/><radialGradient id="radial-gradient-23" cx="579.29" cy="489.22" r="19.27" gradientTransform="matrix(-1, 0.09, 0.09, 1, 953.49, -48.25)" xlink:href="#radial-gradient"/><radialGradient id="radial-gradient-24" cx="834.3" cy="408.88" r="27.99" gradientTransform="matrix(-1, 0, 0, 1, 1318.12, 0)" xlink:href="#radial-gradient"/><radialGradient id="radial-gradient-25" cx="610.9" cy="335.01" r="50.45" gradientTransform="matrix(-1, 0, 0, 1, 1318.12, 0)" xlink:href="#radial-gradient"/><radialGradient id="radial-gradient-26" cx="800.56" cy="298.8" r="27.99" gradientTransform="matrix(-1, 0, 0, 1, 1318.12, 0)" xlink:href="#radial-gradient"/><radialGradient id="radial-gradient-27" cx="703.52" cy="412.19" r="27.99" gradientTransform="matrix(-0.9, 0.43, 0.43, 0.9, 1059.2, -269.52)" xlink:href="#radial-gradient"/><linearGradient id="linear-gradient-2" x1="623.21" y1="876.43" x2="623.16" y2="861.58" gradientTransform="translate(-78.11 -195.61) rotate(15.77)" gradientUnits="userSpaceOnUse"><stop offset="0" stop-color="#932611"/><stop offset="0.62" stop-color="#ae3b1b"/><stop offset="1" stop-color="#c04a22"/></linearGradient><linearGradient id="linear-gradient-3" x1="626.93" y1="880.08" x2="638.68" y2="871.79" xlink:href="#linear-gradient-2"/><linearGradient id="linear-gradient-4" x1="620.32" y1="879.09" x2="608.47" y2="872.59" xlink:href="#linear-gradient-2"/><linearGradient id="linear-gradient-5" x1="621.47" y1="881.21" x2="613.5" y2="891.34" xlink:href="#linear-gradient-2"/><linearGradient id="linear-gradient-6" x1="626.48" y1="885.08" x2="635.82" y2="892.54" xlink:href="#linear-gradient-2"/><linearGradient id="linear-gradient-7" x1="927.76" y1="1096.78" x2="934.57" y2="1096.78" gradientTransform="translate(1379.36 -111.72) rotate(90)" gradientUnits="userSpaceOnUse"><stop offset="0" stop-color="#932611"/><stop offset="0.53" stop-color="#952712"/><stop offset="0.72" stop-color="#9c2d14"/><stop offset="0.85" stop-color="#a73619"/><stop offset="0.96" stop-color="#b8441f"/><stop offset="1" stop-color="#c04a22"/></linearGradient><radialGradient id="radial-gradient-28" cx="931.18" cy="1096.36" r="5.98" gradientTransform="translate(-8.37 -589.58) rotate(28.66)" gradientUnits="userSpaceOnUse"><stop offset="0" stop-color="#fff800"/><stop offset="0.15" stop-color="#fff800" stop-opacity="0.99"/><stop offset="0.28" stop-color="#fff700" stop-opacity="0.95"/><stop offset="0.4" stop-color="#fff600" stop-opacity="0.88"/><stop offset="0.52" stop-color="#fff500" stop-opacity="0.78"/><stop offset="0.63" stop-color="#fff300" stop-opacity="0.65"/><stop offset="0.74" stop-color="#fff100" stop-opacity="0.5"/><stop offset="0.85" stop-color="#fe0" stop-opacity="0.32"/><stop offset="0.95" stop-color="#ffeb00" stop-opacity="0.11"/><stop offset="1" stop-color="#ffe900" stop-opacity="0"/></radialGradient><linearGradient id="linear-gradient-8" x1="1343.78" y1="751.06" x2="1343.74" y2="742.4" gradientTransform="matrix(0.65, 0.76, -0.76, 0.65, -1.99, -661.08)" xlink:href="#linear-gradient-2"/><linearGradient id="linear-gradient-9" x1="1345.94" y1="753.19" x2="1352.8" y2="748.35" gradientTransform="matrix(0.65, 0.76, -0.76, 0.65, -1.99, -661.08)" xlink:href="#linear-gradient-2"/><linearGradient id="linear-gradient-10" x1="1342.09" y1="752.61" x2="1335.18" y2="748.82" gradientTransform="matrix(0.65, 0.76, -0.76, 0.65, -1.99, -661.08)" xlink:href="#linear-gradient-2"/><linearGradient id="linear-gradient-11" x1="1342.76" y1="753.85" x2="1338.11" y2="759.75" gradientTransform="matrix(0.65, 0.76, -0.76, 0.65, -1.99, -661.08)" xlink:href="#linear-gradient-2"/><linearGradient id="linear-gradient-12" x1="1345.68" y1="756.11" x2="1351.13" y2="760.45" gradientTransform="matrix(0.65, 0.76, -0.76, 0.65, -1.99, -661.08)" xlink:href="#linear-gradient-2"/><linearGradient id="linear-gradient-13" x1="1603.47" y1="812.86" x2="1607.44" y2="812.86" gradientTransform="translate(1119.82 -757.83) rotate(90)" xlink:href="#linear-gradient-7"/><radialGradient id="radial-gradient-29" cx="1605.46" cy="812.61" r="3.49" gradientTransform="translate(273.13 -951.57) rotate(62.07)" xlink:href="#radial-gradient-28"/><linearGradient id="linear-gradient-14" x1="460.4" y1="887.2" x2="460.38" y2="881.1" xlink:href="#linear-gradient-2"/><linearGradient id="linear-gradient-15" x1="461.93" y1="888.69" x2="466.76" y2="885.29" xlink:href="#linear-gradient-2"/><linearGradient id="linear-gradient-16" x1="459.22" y1="888.29" x2="454.35" y2="885.62" xlink:href="#linear-gradient-2"/><linearGradient id="linear-gradient-17" x1="459.69" y1="889.16" x2="456.41" y2="893.32" xlink:href="#linear-gradient-2"/><linearGradient id="linear-gradient-18" x1="461.75" y1="890.75" x2="465.58" y2="893.81" xlink:href="#linear-gradient-2"/><linearGradient id="linear-gradient-19" x1="773.25" y1="1142.23" x2="776.05" y2="1142.23" gradientTransform="translate(1265.67 9.59) rotate(90)" xlink:href="#linear-gradient-7"/><radialGradient id="radial-gradient-30" cx="774.66" cy="1142.05" r="2.46" xlink:href="#radial-gradient-28"/><linearGradient id="linear-gradient-20" x1="1571.17" y1="535.77" x2="1571.12" y2="520.92" gradientTransform="translate(116.18 -847.89) rotate(70.27)" xlink:href="#linear-gradient-2"/><linearGradient id="linear-gradient-21" x1="1574.89" y1="539.42" x2="1586.64" y2="531.13" gradientTransform="translate(116.18 -847.89) rotate(70.27)" xlink:href="#linear-gradient-2"/><linearGradient id="linear-gradient-22" x1="1568.29" y1="538.43" x2="1556.43" y2="531.92" gradientTransform="translate(116.18 -847.89) rotate(70.27)" xlink:href="#linear-gradient-2"/><linearGradient id="linear-gradient-23" x1="1569.43" y1="540.55" x2="1561.46" y2="550.67" gradientTransform="translate(116.18 -847.89) rotate(70.27)" xlink:href="#linear-gradient-2"/><linearGradient id="linear-gradient-24" x1="1574.45" y1="544.42" x2="1583.79" y2="551.87" gradientTransform="translate(116.18 -847.89) rotate(70.27)" xlink:href="#linear-gradient-2"/><linearGradient id="linear-gradient-25" x1="1775.84" y1="553.23" x2="1782.65" y2="553.23" gradientTransform="translate(693.38 -966.7) rotate(90)" xlink:href="#linear-gradient-7"/><radialGradient id="radial-gradient-31" cx="1779.26" cy="552.81" r="5.98" gradientTransform="translate(477.39 -1019.95) rotate(83.16)" xlink:href="#radial-gradient-28"/></defs><g id="Opening-titles"><path class="cls-1" d="M962.74,807H122.26C86.37,807,57,776.73,57,739.73V134.78c0-37,32.33-55.12,65.26-67.27C381.72-5.93,658.58-5.89,961,70.08c26,9.07,67,27.7,67,64.7v605C1028,776.73,998.63,807,962.74,807Z"/><path class="cls-2" d="M125.33,236.08a23.78,23.78,0,0,1-9.2-3.37,42,42,0,0,1-8.08-7.41,69.66,69.66,0,0,1-7.45-10.39,185.79,185.79,0,0,1-12.76-25.5q-1.66-3.87-5.29-13.46l-4.07-10.78q-1.58-4.68-3.45-9.65a88.13,88.13,0,0,1-4.82-16.38A28.57,28.57,0,0,1,67.69,134a21.85,21.85,0,0,1,1.43-19.51q5.31-9.26,17.12-13.71a16,16,0,0,1,9.12-.71q4.68,1,6,4.57a3.45,3.45,0,0,1-.33,3.25,6,6,0,0,1-3,2.33,15.51,15.51,0,0,1-3.87.87,3.88,3.88,0,0,1-3.07-.6l-2.22.84-.13-.34a20.63,20.63,0,0,0-9.58,6.75c-1.49,2.26-2.16,5.31-2,9.17a23.51,23.51,0,0,0,.78,5.18,48.59,48.59,0,0,0,1.67,5.44,56.86,56.86,0,0,0,1.9,5.54l2.6,5.86,2.37,5.76A33.14,33.14,0,0,1,88,161a38.74,38.74,0,0,0,1.41,6.31L91,171.39q2.53,6.68,7.44,18.12a110,110,0,0,0,9.6,18.68,41.47,41.47,0,0,0,11.64,13.21q6.57,4.95,13.59,2.3c1.94-.74,3.94-2.67,6-5.8q3.47-4.83,5.34-5.54,2.4-.92,5.94.69a12.08,12.08,0,0,1-1.11,11.57,26,26,0,0,1-9.12,7.95Q137,234.21,135,235A19.14,19.14,0,0,1,125.33,236.08Z"/><path class="cls-2" d="M194.93,213.12q-2.3-.66-3.27-4a156.38,156.38,0,0,0-7-17.4l-1.78-3.49-18.16,2.44q.12,4.35,1.78,17.21,1.46,8.93,0,12.4a4.39,4.39,0,0,1-3.06,2.6,6.54,6.54,0,0,1-4.25-.19,4.09,4.09,0,0,1-2.7-2.73l.09-1,0-.76A813.63,813.63,0,0,0,148.14,124c-.14-.47-.31-1.27-.52-2.42s-.56-2.79-1.06-4.94Q145.2,110,144.68,106a14.08,14.08,0,0,1,.32-6.39l6-1.74a7.87,7.87,0,0,1,4.55-.09,3.81,3.81,0,0,1,2.7,2.73q3.9,13.35,15.28,38.63,11.42,26,14.6,36.91a40.33,40.33,0,0,0,2.46,5.19,33.74,33.74,0,0,1,2.42,5q.36,1.23,4.83,10a81.4,81.4,0,0,1,4.76,10.43l.06.18q1.13,3.87-1.38,5.74Q197.23,213.8,194.93,213.12Zm-17.53-37.2q-4.62-15.81-14.61-39.58l-7.09-17.76q4.5,43.49,7.84,65.39,3.15,1,16.28-1.7A35.55,35.55,0,0,1,177.4,175.92Z"/><path class="cls-2" d="M226.55,201.76l-1.81-6.91c-.6-2-1.18-4.23-1.77-6.73l-1.25-6.1q-1-1.83-11.84-38.38t-13.67-47c-6.94,1.38-11.51,1.7-13.68,1a4.1,4.1,0,0,1-2.72-2.75c-.22-1,.2-2,1.27-3a7.44,7.44,0,0,1,3.55-2.06q5-1.17,12.29-2.13a96.4,96.4,0,0,0,12.32-2l1.42-.33,1.43-.34q5.52-1.29,6.53,3a4.27,4.27,0,0,1-1,3.89,6.82,6.82,0,0,1-3.78,2.3,29.06,29.06,0,0,1-4.76.55l-3.73.13,0,.93,0,.94q3.74,15.85,14.92,49.88,10.51,31.94,14.74,49.92a4.9,4.9,0,0,1-1,4.18,6.47,6.47,0,0,1-3.81,2.59Z"/><path class="cls-2" d="M277.58,195.34a26,26,0,0,1-7.24-1.33q-13.51-5.44-20-40l-.92-4.85-1.06-5.57-.82-4.32q-1.37-7.19-2.26-12.89T243.62,114a74.46,74.46,0,0,1-.55-11.73,59.91,59.91,0,0,1,1.71-10.66,22.65,22.65,0,0,1,3.77-9.09,26.71,26.71,0,0,1,7.26-6.41A28.26,28.26,0,0,1,266.58,72a6.21,6.21,0,0,1,4.38.48,4.17,4.17,0,0,1,2.05,3,5.07,5.07,0,0,1-.56,3.46A4.14,4.14,0,0,1,270,81l-8.45,1.61c-2.4.45-4.21,2.35-5.44,5.68a32.52,32.52,0,0,0-1.56,12.41,133.19,133.19,0,0,0,1.75,22l.17.89L259.35,141q1.11,7.81,2.95,17.51A95.17,95.17,0,0,0,265,169.52a35.86,35.86,0,0,0,5.1,10.21,13.51,13.51,0,0,0,8.7,5.61,15.88,15.88,0,0,0,6.14-.05,6.76,6.76,0,0,0,3.69-2.18,7.13,7.13,0,0,1,4.05.25,3.37,3.37,0,0,1,2.09,2.68q1.33,7-8.56,8.89A33.33,33.33,0,0,1,277.58,195.34Z"/><path class="cls-2" d="M331.83,154.49l-1.32-10.35-1-8.36-.08-.54-.26-1.81a31.66,31.66,0,0,0-.32-3.47,1.52,1.52,0,0,0-.68-.83c-.41-.31-.64-.58-.67-.82l0-.18a10.15,10.15,0,0,1-3.21.83,29.08,29.08,0,0,1-5.9.12q-1.11,0-5.92-.07l3,20.83q.68,4.71,2.69,14.77,2,9.88,2.7,14.77a7.92,7.92,0,0,1-.77,4.92,4.5,4.5,0,0,1-3.51,2.54q-3.45.51-5.86-6a90.21,90.21,0,0,1-4.05-17.72l-1.76-14.72q-.72-6.18-1.71-13.07l-.45-3.07-.37-2.54a24.91,24.91,0,0,0-.73-3.78l-.13-.9-1-10.59q-1-6.87-3.51-20.38t-3.51-20.39a5.59,5.59,0,0,1,.9-4,4.66,4.66,0,0,1,3.38-2.16q5.79-.84,7.37,10l2.9,22.51q1.09,10.2,2.92,22.69c1.89.34,5.2.17,9.91-.51l6.7-1a7,7,0,0,0,0-2.23q-1.26-8.69-4.81-25.56-3.58-15.75-5-25.71a4.35,4.35,0,0,1,1.05-3.58,5.48,5.48,0,0,1,3.52-1.89,10.9,10.9,0,0,1,3.75.38l1.74.49q3.72,25.71,11.76,68.37l8.27,45.59a4.79,4.79,0,0,1-1.33,4.26,7.17,7.17,0,0,1-4.22,2.09Q336.16,184.37,331.83,154.49Z"/><path class="cls-2" d="M362,175.22q-.48-4.36,5.16-5l2-.21,1.83,0a2.15,2.15,0,0,0,1.91-1.13,7,7,0,0,0,.19-3.33q-.34-3.09-1.42-9.6-1-4.3-3-15.51-4.67-27.66-6.21-41.85c-.37-3.39-.64-6.49-.83-9.3L360.84,80a76.12,76.12,0,0,0-1.64-10,19.53,19.53,0,0,1-4.1,1.18c-2.91.32-4.53-1-4.84-3.89q-.24-2.19,2.31-4.12a20.22,20.22,0,0,1,6.66-3.11A66,66,0,0,1,372,57.25a5.09,5.09,0,0,1,3.89,1.14,4.94,4.94,0,0,1,1.94,3.38,5.37,5.37,0,0,1-.81,3.58,3.72,3.72,0,0,1-2.84,1.78,7.61,7.61,0,0,1-1.84,0l-1.46.16a3.67,3.67,0,0,0-2.55,1.1,4.24,4.24,0,0,0-.49,3.09q1.92,17.66,8,52.89,1.08,6.51,3.55,19.13a159,159,0,0,1,2.77,17l.75,6.91a26.14,26.14,0,0,1,3.62-.58c5.1-.55,7.87,1.3,8.34,5.54l.11,1.09-4.21,3.59c-.12,0-.51.09-1.17.22s-1.9.3-3.72.5q-5.79,1-7.42,1.17Q362.59,180.69,362,175.22Z"/><path class="cls-2" d="M455.64,172a8.48,8.48,0,0,1-1.92-4l-1.33-3.39,0-.37,0-.55q-.4-6-15.26-40.24T414,72.93l6.15,91.84.82,1.23c.13.24.41.64.81,1.23a3.47,3.47,0,0,1,.67,1.79,5.44,5.44,0,0,1-1.37,4.12,5.5,5.5,0,0,1-3.91,1.92q-5.83.39-6.59-10.75l-2.27-31.21q-1.12-14-2.28-31.4-.4-5.83-.59-17-.23-11.55-.59-17a16,16,0,0,1,5.67-14l.07,1.09a6.09,6.09,0,0,1,1.44-.46q4.19-.29,11.56,13.9a247.88,247.88,0,0,1,10.87,24q5,12.69,13.34,36.16l2.26,6.45q5.19,14.51,7.81,20.75,1-39.49-2.56-93l-.15-2.37a13.93,13.93,0,0,1-.35-2.36c-.24-3.66,1.1-5.58,4-5.78a4.48,4.48,0,0,1,4.06,1.75,8.93,8.93,0,0,1,1.71,5l.92,13.69q1.51,28.16,1.89,61.14t-1.9,37.36A37.45,37.45,0,0,1,459,173,4.29,4.29,0,0,1,455.64,172Z"/><path class="cls-2" d="M509.64,170a22.36,22.36,0,0,1-7.25-4.88,24.77,24.77,0,0,1-4.55-7.4,52,52,0,0,1-3.13-9.45,61.52,61.52,0,0,1-1.68-10q-.69-6.58-1-11.33l-.23-10.61-.16-7.32q-.23-10.6,0-17.39a102.74,102.74,0,0,1,2-17.43A41.11,41.11,0,0,1,499,59.59a19.88,19.88,0,0,1,10.61-8.83,21.27,21.27,0,0,1,7.65-1.45q7.88-.16,8,4.41a4.33,4.33,0,0,1-1.66,3.6,6.44,6.44,0,0,1-4.09,1.46,10,10,0,0,1-2-.14,7.55,7.55,0,0,0-1.83-.14q-3.1.06-5.42,3.41a29.16,29.16,0,0,0-3.82,9.24,146.88,146.88,0,0,0-3.5,24.78q-.46,12.46-.33,18.5.14,6.22.92,17a76.45,76.45,0,0,0,3.49,17.5,26.11,26.11,0,0,0,3.17,7,15.59,15.59,0,0,0,4.58,4.38,11.67,11.67,0,0,0,6.44,1.88q8.79-.19,8.15-29.47l-.18-8.41a11.57,11.57,0,0,0-4.22-.46l-1.64,0-2,0c-4.27.09-6.43-1.26-6.49-4.07a4.7,4.7,0,0,1,1.65-4,7,7,0,0,1,4.45-1.47v.18l2.56,0q16.47-.36,16.59,5.31a46.53,46.53,0,0,1-.78,6.61,30.51,30.51,0,0,0-1,6.61c0,2.07.3,5.3.76,9.68l.57,9.69q.2,8.79-5.83,13.95a22.71,22.71,0,0,1-14.8,5.35A22.24,22.24,0,0,1,509.64,170Z"/><path class="cls-2" d="M594.87,158.92Q595.5,137.7,595,91T592.9,41.69a9,9,0,0,1,4.26-7.75,14.43,14.43,0,0,1,4.17-1.43,20.58,20.58,0,0,1,4.86-.49,34.89,34.89,0,0,1,4.58-.05c2.8.09,4.8.6,6,1.56s1.75,2.58,1.68,4.9a3.41,3.41,0,0,1-1.56,3,6.32,6.32,0,0,1-3.68.9l-1.83-.24L608.82,42q-5.12-.15-5.18,1.86-.28,9.51.53,24.92.72,12.84.73,24.37,1.29-.33,4.89-1a27.28,27.28,0,0,1,5.42-.66,4.41,4.41,0,0,1,3.42,1.85,5.9,5.9,0,0,1,1.34,4,3.76,3.76,0,0,1-2.48,3.59c-.25.12-.84.37-1.77.77a10.57,10.57,0,0,1-3.59.72c-1.1.09-2.93.22-5.5.38l-2-.06q-.35,11,.93,29.87,1.05,19.8.75,29.87l-.21.72-.19.36a11.73,11.73,0,0,1,.11,2.39,4.67,4.67,0,0,1-1.76,3.7,6.68,6.68,0,0,1-4.43,1.24Q594.51,170.63,594.87,158.92Z"/><path class="cls-2" d="M631.47,166c.17-2.92,2.14-4.28,5.91-4.06l2,.11,1.82.29a2.14,2.14,0,0,0,2.06-.8,6.93,6.93,0,0,0,.74-3.26q.16-3.1.18-9.7c-.2-3-.33-8.2-.38-15.79q-.06-28,.75-42.3c.2-3.4.43-6.51.71-9.3l.72-9.31a76.77,76.77,0,0,0,0-10.08,19.61,19.61,0,0,1-4.24.49c-2.93-.16-4.3-1.71-4.14-4.63q.12-2.19,3-3.68a19.9,19.9,0,0,1,7.08-2,67.28,67.28,0,0,1,13.05-.73,5.16,5.16,0,0,1,3.66,1.77,4.91,4.91,0,0,1,1.35,3.65,5.37,5.37,0,0,1-1.38,3.4,3.74,3.74,0,0,1-3.1,1.29,7.66,7.66,0,0,1-1.82-.28L658,61a3.68,3.68,0,0,0-2.7.67,4.26,4.26,0,0,0-1,3q-1,17.73-.84,53.48,0,6.6.36,19.45a159.71,159.71,0,0,1-.06,17.22l-.4,6.95a26.22,26.22,0,0,1,3.67,0q7.66.44,7.31,6.83l-.07,1.1-4.74,2.85c-.12,0-.52,0-1.19,0s-1.93,0-3.75-.12c-3.92,0-6.42,0-7.52-.06Q631.17,171.51,631.47,166Z"/><path class="cls-2" d="M703.35,171.07a99.63,99.63,0,0,1-4-20l-.74-6.31q-3-26.52-4.18-30.3l-2.18-.19c-.31,3.53-.65,6.74-1,9.65l-.87,10q-2.11,24.44.17,38.4l-2.44,4.75-5.1-.44-2.13-2.94,1.24-12.2q1.41-16.41,2.66-49.91,1.62-35.69,2.85-49.9c.51-5.84,2.76-8.58,6.78-8.24q9.84.86,15.69,6.51t5.06,14.76L714.07,87.5a25.54,25.54,0,0,1-1.45,6.22,30.37,30.37,0,0,1-2.5,5.56l-4,6.27-3.39,5.22.54,4.45,1.43,13.17q1.33,14.25,3,23.21A89.64,89.64,0,0,0,712.07,168l.9,2.28a14.05,14.05,0,0,1,1.32,6,4.94,4.94,0,0,1-1.37,3.1,3.54,3.54,0,0,1-3,1.11Q705.87,180.11,703.35,171.07ZM701.58,95a56.39,56.39,0,0,0,4.27-16.43,40,40,0,0,0-.51-11.07,8,8,0,0,0-7.68-6.73l-.45.89-.51,1.6-1.49,21.55q-.47,9.51-1.42,20.63Q698,103.75,701.58,95Z"/><path class="cls-2" d="M734.88,180.75a5.68,5.68,0,0,1-1.6-4.25l.57-4.73.44-3.63a34.56,34.56,0,0,1,.29-3.84q.45-3.81.87-11.69l1-11.67q1.08-8.9,3.77-26.45,2.65-15.72,4-26.44c.2-1.69.33-4.26.38-7.69s.19-6.13.38-7.7q1.57-12.9,9.2-12a50,50,0,0,1,13.61,4q7.62,3.33,7.22,6.6a4.73,4.73,0,0,1-1.95,3.17,11.63,11.63,0,0,1-4,2,73.8,73.8,0,0,0-13.36-5.32q-.15,2.76-.77,7.84-.88,7.26-1.77,13.06-1.6,8.64-2.14,13l.19,3,2.93.17a32.8,32.8,0,0,1,3.66.26q8.72,1.06,8.1,6.15a4.25,4.25,0,0,1-2,3.16,6.36,6.36,0,0,1-4.34.86,27.79,27.79,0,0,1-5-1l-4.55-.56q-.21,4.77-1.31,13.85t-2.17,16.33q-1.9,11-2.56,16.46C743,170.56,742.74,174,743,174l6,.55q3.11.19,7.47.73,6.9.84,6.37,5.19a4.33,4.33,0,0,1-2.75,3.63,10.53,10.53,0,0,1-5.7.69L739,182.9A6.44,6.44,0,0,1,734.88,180.75Z"/><path class="cls-2" d="M778.28,184q4.07-14.7,10.44-45.54,6.59-32.1,8.09-38.53l.76-4.32q3.84-17.53,5-24.39a4.62,4.62,0,0,1,2.77-3.6,8.4,8.4,0,0,1,5-.6,93.91,93.91,0,0,1,13.32,3.47,21.82,21.82,0,0,1,7.07,3.66q2.51,2.12,2.09,4.46-.89,5-10.08,3.42-3.11-2.4-9.05-3.45l-2.16-.38-.38,2.16q-1.25,7-3.87,17.71-2.68,9.95-4.11,18l-.86,4.86,1.44.26,1.81.32c5.88,1,8.55,3.12,8,6.24a4.6,4.6,0,0,1-2.56,3.45,7.45,7.45,0,0,1-4.85.63,23.14,23.14,0,0,1-6.87-2.14l-9,51q-1.39,7.93-6.08,7.11C782.49,187.51,780.48,186.23,778.28,184Zm58.61,12.19a11.56,11.56,0,0,1-6.44.72,4.67,4.67,0,0,1-3.37-2.54,6.43,6.43,0,0,1-.81-4.32q2.67-15.15,8.38-40.15,5.8-26.67,8.16-40l.22-1.26q.93-11.55,1.91-17.13,3-17.13,9.32-16a4.38,4.38,0,0,1,2.92,1.9,4.43,4.43,0,0,1,.8,3.4q-.39,2.16-1.75,6.75a62.26,62.26,0,0,0-1.75,6.75q-2.13,12.07-3.66,21.84-1.52,9.59-3.64,21.66a25.32,25.32,0,0,0-2.23,7.41l-.38,2.16-2.87,14.18q-1.49,6.24-2.9,14.35-2.2,12.44,3.75,13.48a9,9,0,0,0,1.19.12c.55,0,1.3.14,2.27.31a38.33,38.33,0,0,1,4.17.55q9.74,1.71,8.78,7.12a3.82,3.82,0,0,1-2.16,2.78,8.61,8.61,0,0,1-4.25.92A52.08,52.08,0,0,0,836.89,196.17Z"/><path class="cls-2" d="M866.23,195.77q1-4.28,6.54-3l2,.46,1.73.6a2.13,2.13,0,0,0,2.17-.42,7,7,0,0,0,1.3-3.08c.48-2,1.1-5.19,1.88-9.52q.48-4.41,2.38-15.61,4.86-27.63,8.15-41.52,1.17-5,2.33-9l2.33-9a77.69,77.69,0,0,0,1.79-9.93,20.25,20.25,0,0,1-4.27-.25q-4.28-1-3.26-5.29c.34-1.43,1.52-2.46,3.56-3.11a20.38,20.38,0,0,1,7.31-.71,67.68,67.68,0,0,1,13,1.57,5.13,5.13,0,0,1,3.29,2.38,4.91,4.91,0,0,1,.7,3.83,5.35,5.35,0,0,1-2,3.11,3.73,3.73,0,0,1-3.28.73,7.94,7.94,0,0,1-1.74-.6L910.7,97a3.66,3.66,0,0,0-2.78.19,4.3,4.3,0,0,0-1.49,2.75q-4.09,17.28-10.19,52.5-1.15,6.5-3,19.22a158.55,158.55,0,0,1-3.07,16.94l-1.61,6.77a24.77,24.77,0,0,1,3.61.67q7.47,1.77,6,8l-.25,1.07-5.17,2c-.12,0-.52-.09-1.18-.18s-1.89-.36-3.67-.78q-5.79-1-7.39-1.37Q865,201.12,866.23,195.77Z"/><path class="cls-2" d="M913.91,214.21a5.72,5.72,0,0,1-.91-4.45l1.32-4.58,1-3.51a37.8,37.8,0,0,1,.89-3.75q1.06-3.69,2.72-11.4l2.89-11.36q2.49-8.61,7.93-25.52,5.12-15.09,8.1-25.47c.47-1.64,1-4.15,1.6-7.54s1.17-6,1.61-7.53q3.58-12.5,11-10.36a49.66,49.66,0,0,1,12.79,6.16q7,4.5,6.08,7.66a4.74,4.74,0,0,1-2.43,2.82,11.53,11.53,0,0,1-4.29,1.34,73.79,73.79,0,0,0-12.35-7.37q-.58,2.69-2,7.61-2,7-3.82,12.61-3,8.28-4.18,12.51l-.28,3,2.86.64a29.17,29.17,0,0,1,3.57.84q8.44,2.43,7,7.35a4.25,4.25,0,0,1-2.52,2.8,6.39,6.39,0,0,1-4.42.15,27,27,0,0,1-4.82-1.77l-4.4-1.27q-1,4.68-3.5,13.47T930.61,183q-3.61,10.58-5.14,15.85-2.84,9.84-2.48,9.94l5.85,1.5c2,.46,4.45,1.09,7.26,1.9,4.45,1.29,6.28,3.33,5.46,6.15a4.34,4.34,0,0,1-3.28,3.15,10.74,10.74,0,0,1-5.75-.23L917.59,217A6.44,6.44,0,0,1,913.91,214.21Z"/><path class="cls-2" d="M955.84,226.27a7,7,0,0,1-.91-5.37l2.94-2.26a13.36,13.36,0,0,1,3,1.86,23.92,23.92,0,0,0,3.78,1.92,7.88,7.88,0,0,0,6.59-.77,18.39,18.39,0,0,0,6.28-5.92,61.48,61.48,0,0,0,7.51-14q4-11.37,1.27-26.54l-.73-4q-1.26-6.85-1.9-12.13a63.33,63.33,0,0,1-.37-11A48.59,48.59,0,0,1,986,133.88a43.77,43.77,0,0,1,9.09-14.64,17.19,17.19,0,0,1,7.21-4.72,12,12,0,0,1,8,0,10.17,10.17,0,0,1,5.08,4,6.15,6.15,0,0,1,1,5.7,3,3,0,0,1-2.06,2,5.2,5.2,0,0,1-3.24-.18,7.28,7.28,0,0,1-3.25-2.32q-3.85-1.17-8.43,4.58a37.21,37.21,0,0,0-5.45,9.33,36.72,36.72,0,0,0-2,10.64,45.91,45.91,0,0,0,.69,10.63L994,167.2l2,13.53a53.16,53.16,0,0,1-.1,12.58,61.65,61.65,0,0,1-3.13,13.46,46.13,46.13,0,0,1-11.93,18.28,21,21,0,0,1-9.57,5.34,18.25,18.25,0,0,1-10.79-.53l-.18.52A11.86,11.86,0,0,1,955.84,226.27Z"/><path class="cls-3" d="M130,241.5a23.78,23.78,0,0,1-9.2-3.37,42,42,0,0,1-8.08-7.41,69.66,69.66,0,0,1-7.45-10.39,185.79,185.79,0,0,1-12.76-25.5q-1.66-3.87-5.29-13.46l-4.07-10.78q-1.58-4.69-3.45-9.65a88.35,88.35,0,0,1-4.82-16.38,28.57,28.57,0,0,1-2.52-5.11,21.87,21.87,0,0,1,1.43-19.52q5.31-9.24,17.12-13.7a16,16,0,0,1,9.12-.71q4.68,1,6,4.57a3.48,3.48,0,0,1-.33,3.25,5.92,5.92,0,0,1-3,2.32,15.07,15.07,0,0,1-3.87.88,3.88,3.88,0,0,1-3.07-.6l-2.22.84-.13-.34a20.56,20.56,0,0,0-9.58,6.75c-1.49,2.26-2.17,5.31-2,9.17a23.6,23.6,0,0,0,.78,5.18A48.59,48.59,0,0,0,84.28,143q.34,1.43,1.89,5.54l2.61,5.86,2.37,5.76a33.14,33.14,0,0,1,1.58,6.25,38.74,38.74,0,0,0,1.41,6.31l1.55,4.11q2.52,6.67,7.44,18.12a110,110,0,0,0,9.6,18.68,41.32,41.32,0,0,0,11.64,13.2q6.57,5,13.59,2.31c1.94-.74,3.94-2.67,6-5.8,2.31-3.22,4.08-5.07,5.34-5.54q2.4-.92,5.94.69A12.08,12.08,0,0,1,154.15,230a25.94,25.94,0,0,1-9.13,8q-3.28,1.63-5.34,2.41A19.14,19.14,0,0,1,130,241.5Z"/><path class="cls-3" d="M199.62,218.54c-1.53-.44-2.62-1.78-3.27-4a156.31,156.31,0,0,0-7-17.41l-1.78-3.48-18.17,2.44q.14,4.35,1.79,17.21,1.46,8.92,0,12.39a4.38,4.38,0,0,1-3.06,2.61,6.54,6.54,0,0,1-4.25-.19,4.09,4.09,0,0,1-2.7-2.73l.09-1,0-.75a813.63,813.63,0,0,0-8.43-94.19c-.14-.47-.31-1.28-.52-2.42s-.56-2.8-1.06-4.94q-1.37-6.65-1.88-10.7a14,14,0,0,1,.32-6.38l6-1.75a8,8,0,0,1,4.55-.09,3.84,3.84,0,0,1,2.7,2.74q3.9,13.35,15.28,38.62,11.42,26,14.59,36.92a42.61,42.61,0,0,0,2.47,5.19,34.85,34.85,0,0,1,2.42,5q.36,1.23,4.83,10a82.26,82.26,0,0,1,4.76,10.43l.06.18q1.13,3.87-1.38,5.74C203.26,218.81,201.14,219,199.62,218.54Zm-17.54-37.2q-4.61-15.81-14.6-39.58L160.39,124q4.5,43.49,7.84,65.39,3.15,1,16.28-1.71A35.83,35.83,0,0,1,182.08,181.34Z"/><path class="cls-3" d="M231.24,207.17l-1.81-6.9c-.6-2-1.18-4.23-1.77-6.73l-1.25-6.1q-1-1.83-11.84-38.38t-13.67-47q-10.41,2.07-13.69,1a4.1,4.1,0,0,1-2.71-2.75c-.22-1,.2-2,1.26-3a7.39,7.39,0,0,1,3.56-2.06q5-1.17,12.28-2.13a96.29,96.29,0,0,0,12.33-2l1.42-.33,1.43-.34q5.52-1.29,6.53,3a4.27,4.27,0,0,1-1,3.89,6.82,6.82,0,0,1-3.78,2.3,29.06,29.06,0,0,1-4.76.55l-3.73.13,0,.93,0,.93q3.74,15.87,14.92,49.89Q235.57,184,239.79,202a4.91,4.91,0,0,1-1,4.18,6.47,6.47,0,0,1-3.81,2.59Z"/><path class="cls-3" d="M282.27,200.76a26,26,0,0,1-7.24-1.33q-13.51-5.44-20-40l-.92-4.85L253,149l-.82-4.32q-1.37-7.18-2.26-12.89t-1.61-12.45a74.46,74.46,0,0,1-.55-11.73A59.91,59.91,0,0,1,249.47,97a22.65,22.65,0,0,1,3.77-9.09,26.55,26.55,0,0,1,7.26-6.41,28.2,28.2,0,0,1,10.77-4.09,6.17,6.17,0,0,1,4.37.48,4.16,4.16,0,0,1,2.06,3,5.12,5.12,0,0,1-.56,3.46,4.14,4.14,0,0,1-2.48,2.14L266.21,88q-3.6.69-5.44,5.69a32.52,32.52,0,0,0-1.56,12.41,133.19,133.19,0,0,0,1.75,22l.17.89L264,146.38q1.11,7.8,2.95,17.51a95.17,95.17,0,0,0,2.65,11.05,35.6,35.6,0,0,0,5.11,10.21,13.46,13.46,0,0,0,8.7,5.61,16,16,0,0,0,6.13,0,6.82,6.82,0,0,0,3.69-2.18,7.13,7.13,0,0,1,4.05.25,3.37,3.37,0,0,1,2.09,2.68q1.33,7-8.56,8.89A33.33,33.33,0,0,1,282.27,200.76Z"/><path class="cls-3" d="M336.52,159.91l-1.32-10.35-1-8.36-.08-.54-.27-1.81a29,29,0,0,0-.31-3.47,1.52,1.52,0,0,0-.68-.83c-.41-.31-.64-.58-.67-.83l0-.18a9.82,9.82,0,0,1-3.21.84,29.08,29.08,0,0,1-5.9.12c-.74,0-2.71,0-5.92-.07l3,20.83q.67,4.71,2.69,14.77,2,9.89,2.7,14.77a7.92,7.92,0,0,1-.77,4.92,4.5,4.5,0,0,1-3.51,2.54q-3.45.5-5.86-6a90.38,90.38,0,0,1-4.05-17.72l-1.77-14.72q-.71-6.18-1.7-13.07l-.45-3.08-.37-2.53a24.91,24.91,0,0,0-.73-3.78l-.13-.9-1-10.59q-1-6.87-3.51-20.38t-3.51-20.39a5.58,5.58,0,0,1,.9-4,4.66,4.66,0,0,1,3.38-2.16q5.79-.84,7.37,10l2.9,22.51q1.09,10.2,2.91,22.69,2.85.51,9.92-.51l6.7-1a6.91,6.91,0,0,0,0-2.22q-1.26-8.7-4.81-25.56-3.58-15.75-5-25.71a4.31,4.31,0,0,1,1-3.58,5.54,5.54,0,0,1,3.52-1.9,11.23,11.23,0,0,1,3.75.39l1.74.48q3.72,25.73,11.76,68.38l8.27,45.58a4.78,4.78,0,0,1-1.33,4.26,7.13,7.13,0,0,1-4.22,2.1Q340.85,189.79,336.52,159.91Z"/><path class="cls-3" d="M366.68,180.64q-.48-4.37,5.16-5l2-.21,1.84,0a2.17,2.17,0,0,0,1.91-1.13,7,7,0,0,0,.19-3.33q-.34-3.09-1.42-9.6-1-4.32-3-15.51-4.67-27.66-6.21-41.85c-.37-3.39-.64-6.49-.83-9.3l-.82-9.3a76.22,76.22,0,0,0-1.64-9.94,19.69,19.69,0,0,1-4.1,1.18c-2.91.32-4.53-1-4.84-3.89q-.24-2.19,2.31-4.12a20,20,0,0,1,6.66-3.11,66,66,0,0,1,12.76-2.86,5.09,5.09,0,0,1,3.89,1.14,4.89,4.89,0,0,1,1.93,3.37,5.33,5.33,0,0,1-.8,3.59,3.72,3.72,0,0,1-2.85,1.78,7.53,7.53,0,0,1-1.83,0l-1.46.16a3.67,3.67,0,0,0-2.55,1.1,4.24,4.24,0,0,0-.49,3.09q1.92,17.65,8,52.89,1.08,6.51,3.55,19.12a159.61,159.61,0,0,1,2.77,17l.75,6.91a26.14,26.14,0,0,1,3.62-.58q7.65-.83,8.33,5.54l.12,1.09-4.21,3.59c-.12,0-.51.09-1.17.22s-1.9.3-3.72.49q-5.79,1-7.42,1.18Q367.28,186.11,366.68,180.64Z"/><path class="cls-3" d="M460.33,177.44a8.39,8.39,0,0,1-1.92-4l-1.33-3.4,0-.36,0-.55q-.4-6-15.26-40.24t-23.1-50.55l6.15,91.85.82,1.23c.13.24.41.64.81,1.23a3.47,3.47,0,0,1,.67,1.79,5.63,5.63,0,0,1-5.28,6q-5.85.39-6.59-10.75L413,138.52q-1.12-14.06-2.29-31.4-.39-5.84-.58-17-.23-11.55-.59-17a16,16,0,0,1,5.66-14l.08,1.09a6.21,6.21,0,0,1,1.43-.46q4.2-.29,11.57,13.9a247.88,247.88,0,0,1,10.87,24q5,12.69,13.34,36.16l2.26,6.45q5.19,14.5,7.81,20.75,1-39.5-2.56-93l-.16-2.38a14.71,14.71,0,0,1-.34-2.36q-.36-5.48,4-5.77a4.48,4.48,0,0,1,4.06,1.75,8.93,8.93,0,0,1,1.71,5L470.18,78q1.51,28.15,1.89,61.14t-1.9,37.35a37.9,37.9,0,0,1-6.48,1.91A4.29,4.29,0,0,1,460.33,177.44Z"/><path class="cls-3" d="M514.33,175.43a22.36,22.36,0,0,1-7.25-4.88,24.77,24.77,0,0,1-4.55-7.4,52.74,52.74,0,0,1-3.13-9.45,62.6,62.6,0,0,1-1.68-10q-.69-6.57-1-11.32l-.23-10.62-.16-7.31q-.23-10.62,0-17.39a102.74,102.74,0,0,1,2-17.44A41.05,41.05,0,0,1,503.71,65a19.83,19.83,0,0,1,10.61-8.83A21.06,21.06,0,0,1,522,54.73q7.88-.16,8,4.4a4.34,4.34,0,0,1-1.66,3.61,6.42,6.42,0,0,1-4.09,1.46,10,10,0,0,1-2-.14,7.55,7.55,0,0,0-1.83-.14q-3.11.06-5.42,3.41a29.42,29.42,0,0,0-3.83,9.23,148.2,148.2,0,0,0-3.49,24.79q-.47,12.47-.33,18.5.14,6.21.92,17a76.25,76.25,0,0,0,3.49,17.49,26.11,26.11,0,0,0,3.17,7,15.49,15.49,0,0,0,4.58,4.39,11.58,11.58,0,0,0,6.44,1.87q8.79-.18,8.15-29.46l-.18-8.41a11.57,11.57,0,0,0-4.22-.46l-1.65,0-2,.05q-6.4.13-6.49-4.07a4.7,4.7,0,0,1,1.65-4,7,7,0,0,1,4.45-1.47V120l2.56-.06q16.47-.34,16.59,5.32a47.57,47.57,0,0,1-.77,6.61,30,30,0,0,0-1,6.61c0,2.07.3,5.3.76,9.68l.57,9.69q.2,8.78-5.83,14a22.77,22.77,0,0,1-14.8,5.35A22.24,22.24,0,0,1,514.33,175.43Z"/><path class="cls-3" d="M599.56,164.34q.63-21.22.12-67.92T597.59,47.1a8.94,8.94,0,0,1,4.26-7.74A14.17,14.17,0,0,1,606,37.93a20.71,20.71,0,0,1,4.87-.49,34.89,34.89,0,0,1,4.58,0q4.2.12,6,1.55t1.68,4.91a3.41,3.41,0,0,1-1.56,3,6.32,6.32,0,0,1-3.68.9l-1.83-.24-2.56-.08q-5.12-.15-5.18,1.86-.29,9.51.53,24.91.71,12.84.73,24.38c.86-.22,2.49-.57,4.88-1a27.44,27.44,0,0,1,5.43-.66,4.43,4.43,0,0,1,3.42,1.84,6,6,0,0,1,1.34,4,3.76,3.76,0,0,1-2.48,3.59l-1.77.77a10.57,10.57,0,0,1-3.59.72c-1.1.09-2.93.21-5.5.38l-2-.06q-.33,11,.94,29.87,1.05,19.8.75,29.86l-.21.73-.19.36a11.62,11.62,0,0,1,.11,2.38,4.64,4.64,0,0,1-1.76,3.7,6.57,6.57,0,0,1-4.43,1.24Q599.2,176.05,599.56,164.34Z"/><path class="cls-3" d="M636.16,171.45c.17-2.92,2.14-4.28,5.91-4.06l2,.11,1.82.29A2.16,2.16,0,0,0,648,167a6.93,6.93,0,0,0,.74-3.26q.16-3.1.18-9.7-.3-4.42-.38-15.79-.06-28.05.75-42.3c.2-3.41.43-6.51.71-9.31l.72-9.3a76.77,76.77,0,0,0,0-10.08,20.29,20.29,0,0,1-4.24.49c-2.93-.17-4.3-1.71-4.14-4.63.09-1.47,1.07-2.69,3-3.69a20.33,20.33,0,0,1,7.08-2,67.21,67.21,0,0,1,13-.72,5.08,5.08,0,0,1,3.66,1.77,4.91,4.91,0,0,1,1.35,3.65,5.39,5.39,0,0,1-1.38,3.4,3.74,3.74,0,0,1-3.1,1.29,7.14,7.14,0,0,1-1.82-.29l-1.46-.08a3.68,3.68,0,0,0-2.7.67,4.26,4.26,0,0,0-1,3q-1,17.73-.84,53.48,0,6.58.36,19.45a159.72,159.72,0,0,1-.06,17.22l-.4,6.95a24.72,24.72,0,0,1,3.67,0q7.66.43,7.3,6.83l-.06,1.1L664.2,178,663,178c-.68,0-1.93,0-3.76-.12q-5.87,0-7.51-.07Q635.86,176.93,636.16,171.45Z"/><path class="cls-3" d="M708,176.49a99.77,99.77,0,0,1-4-20l-.74-6.31q-3-26.52-4.18-30.3l-2.18-.19c-.31,3.53-.65,6.74-1,9.65l-.87,10q-2.12,24.44.17,38.4l-2.44,4.75-5.1-.44-2.13-2.94,1.24-12.2q1.41-16.41,2.66-49.92,1.62-35.67,2.85-49.9c.51-5.83,2.76-8.57,6.78-8.23q9.84.86,15.69,6.5t5.06,14.77l-1.11,12.76a25.37,25.37,0,0,1-1.45,6.21,30.2,30.2,0,0,1-2.5,5.57l-4,6.27-3.39,5.21.54,4.46,1.43,13.16q1.33,14.26,2.95,23.22a89.64,89.64,0,0,0,4.46,16.37l.9,2.28a14.05,14.05,0,0,1,1.32,6,4.94,4.94,0,0,1-1.37,3.1,3.54,3.54,0,0,1-3,1.11Q710.56,185.52,708,176.49Zm-1.77-76.11a56.37,56.37,0,0,0,4.27-16.44A39.58,39.58,0,0,0,710,72.88a8,8,0,0,0-7.69-6.73l-.44.88-.51,1.61L699.9,90.19q-.46,9.51-1.42,20.63Q702.67,109.17,706.27,100.38Z"/><path class="cls-3" d="M739.57,186.17a5.7,5.7,0,0,1-1.6-4.25l.57-4.73.44-3.63a34.39,34.39,0,0,1,.29-3.84q.47-3.81.87-11.69l1.05-11.67q1.08-8.9,3.77-26.46,2.65-15.7,4-26.43c.2-1.7.33-4.26.38-7.7s.19-6.12.39-7.69q1.56-12.9,9.19-12a49.77,49.77,0,0,1,13.62,4q7.61,3.33,7.21,6.59a4.73,4.73,0,0,1-2,3.18,11.67,11.67,0,0,1-4,2,74.16,74.16,0,0,0-13.37-5.32c-.1,1.83-.36,4.45-.77,7.84q-.89,7.26-1.77,13-1.61,8.66-2.14,13l.19,3,2.93.17a32.8,32.8,0,0,1,3.66.26q8.71,1.06,8.1,6.15a4.26,4.26,0,0,1-2.05,3.16,6.36,6.36,0,0,1-4.34.86,27.83,27.83,0,0,1-5-1l-4.55-.55q-.21,4.77-1.31,13.85t-2.17,16.33q-1.9,11-2.56,16.46c-.83,6.79-1.12,10.19-.88,10.22l6,.55q3.1.19,7.47.72,6.9.84,6.37,5.2a4.34,4.34,0,0,1-2.74,3.63,10.58,10.58,0,0,1-5.71.69l-15.44-1.88A6.44,6.44,0,0,1,739.57,186.17Z"/><path class="cls-3" d="M783,189.4q4.08-14.7,10.45-45.54,6.58-32.1,8.09-38.53l.76-4.32q3.84-17.54,5-24.39a4.65,4.65,0,0,1,2.78-3.6,8.38,8.38,0,0,1,5-.6,92.58,92.58,0,0,1,13.32,3.47,21.92,21.92,0,0,1,7.07,3.66c1.67,1.41,2.37,2.9,2.09,4.45q-.89,5.06-10.08,3.43-3.1-2.4-9-3.45l-2.17-.38-.38,2.16q-1.23,7-3.86,17.71-2.68,9.94-4.11,18l-.86,4.86,1.44.26,1.81.32q8.82,1.55,8,6.24a4.62,4.62,0,0,1-2.56,3.45,7.45,7.45,0,0,1-4.85.63,23.14,23.14,0,0,1-6.87-2.14l-9,51q-1.39,7.94-6.08,7.11C787.17,192.93,785.17,191.65,783,189.4Zm58.62,12.19a11.59,11.59,0,0,1-6.45.72,4.67,4.67,0,0,1-3.36-2.54,6.39,6.39,0,0,1-.81-4.33q2.67-15.13,8.37-40.14,5.82-26.67,8.17-40l.22-1.26q.91-11.55,1.91-17.13,3-17.13,9.32-16a4.66,4.66,0,0,1,3.71,5.29A66,66,0,0,1,860.92,93a62.26,62.26,0,0,0-1.75,6.75q-2.13,12.08-3.67,21.84-1.5,9.58-3.63,21.66a25.13,25.13,0,0,0-2.23,7.41l-.38,2.16L846.39,167c-1,4.16-1.95,8.94-2.91,14.35q-2.19,12.44,3.76,13.48a9,9,0,0,0,1.19.12c.55,0,1.3.14,2.27.31a38.33,38.33,0,0,1,4.17.55q9.74,1.71,8.78,7.12a3.82,3.82,0,0,1-2.16,2.78,8.61,8.61,0,0,1-4.25.92A52.08,52.08,0,0,0,841.58,201.59Z"/><path class="cls-3" d="M870.92,201.19q1-4.27,6.54-3l2,.46,1.73.6a2.13,2.13,0,0,0,2.17-.42,7,7,0,0,0,1.3-3.08c.48-2,1.1-5.2,1.88-9.52q.48-4.41,2.38-15.61Q893.74,143,897,129.14q1.17-5,2.33-9l2.33-9a75.32,75.32,0,0,0,1.78-9.92,19.36,19.36,0,0,1-4.26-.26q-4.28-1-3.26-5.28c.34-1.43,1.52-2.46,3.56-3.11a20.38,20.38,0,0,1,7.31-.71,67.68,67.68,0,0,1,13,1.57,5.13,5.13,0,0,1,3.29,2.38,5,5,0,0,1,.7,3.83,5.35,5.35,0,0,1-2,3.11,3.73,3.73,0,0,1-3.28.73,7.94,7.94,0,0,1-1.74-.6l-1.42-.34a3.63,3.63,0,0,0-2.77.19,4.25,4.25,0,0,0-1.5,2.75q-4.1,17.28-10.19,52.5-1.15,6.49-3,19.21a155.89,155.89,0,0,1-3.08,16.95l-1.6,6.77a24.77,24.77,0,0,1,3.61.67q7.47,1.77,6,8l-.26,1.07-5.16,2c-.12,0-.52-.09-1.18-.18s-1.89-.36-3.67-.78q-5.79-1-7.39-1.37Q869.66,206.53,870.92,201.19Z"/><path class="cls-3" d="M918.6,219.62a5.71,5.71,0,0,1-.91-4.45L919,210.6l1-3.51a37.8,37.8,0,0,1,.89-3.75q1.07-3.69,2.72-11.4l2.89-11.36q2.49-8.61,7.93-25.52,5.1-15.09,8.1-25.47c.47-1.64,1-4.15,1.6-7.54s1.16-6,1.6-7.53q3.6-12.49,11-10.36a49.66,49.66,0,0,1,12.79,6.16q7,4.5,6.08,7.66a4.74,4.74,0,0,1-2.43,2.82,11.53,11.53,0,0,1-4.29,1.34,73.79,73.79,0,0,0-12.35-7.37q-.59,2.69-2,7.61-2,7-3.82,12.61-3,8.28-4.18,12.51l-.28,3,2.86.64a29.17,29.17,0,0,1,3.57.84q8.45,2.43,7,7.35a4.25,4.25,0,0,1-2.52,2.8,6.39,6.39,0,0,1-4.42.15,28.28,28.28,0,0,1-4.83-1.77l-4.39-1.27q-1,4.68-3.5,13.47t-4.74,15.77q-3.62,10.58-5.14,15.85-2.83,9.86-2.49,10l5.86,1.5q3,.69,7.26,1.9,6.68,1.92,5.46,6.15a4.32,4.32,0,0,1-3.28,3.14,10.63,10.63,0,0,1-5.75-.22l-14.94-4.31A6.41,6.41,0,0,1,918.6,219.62Z"/><path class="cls-3" d="M960.52,231.69a6.94,6.94,0,0,1-.9-5.37l2.94-2.26a13.44,13.44,0,0,1,3,1.85,23.3,23.3,0,0,0,3.78,1.93,7.88,7.88,0,0,0,6.59-.77,18.39,18.39,0,0,0,6.28-5.92,61.48,61.48,0,0,0,7.51-14q4-11.37,1.27-26.54l-.73-3.95q-1.26-6.85-1.91-12.13a64.35,64.35,0,0,1-.36-11,48.26,48.26,0,0,1,2.71-14.18,43.61,43.61,0,0,1,9.09-14.64,17.19,17.19,0,0,1,7.21-4.72,12,12,0,0,1,8,0,10.06,10.06,0,0,1,5.07,4,6.12,6.12,0,0,1,1,5.7,3,3,0,0,1-2.06,2,5.2,5.2,0,0,1-3.24-.18,7.28,7.28,0,0,1-3.25-2.32c-2.58-.78-5.38.74-8.43,4.58a37.21,37.21,0,0,0-5.45,9.33,36.65,36.65,0,0,0-2,10.64,45.91,45.91,0,0,0,.69,10.63l1.34,8.25,2,13.52a53.24,53.24,0,0,1-.1,12.59,61.43,61.43,0,0,1-3.13,13.45,46.16,46.16,0,0,1-11.93,18.29,21,21,0,0,1-9.57,5.34,18.25,18.25,0,0,1-10.79-.53l-.18.52A11.89,11.89,0,0,1,960.52,231.69Z"/><path class="cls-4" d="M361.08,888.68c24.74-17.84,3.34-173.14-47.73-278.36-27.08-55.8-13.06-43.19,1.81-133.11-20-10.82-84.94-34-112-29.82C82.64,599.14,41.54,741,50.49,890.73,167.76,935.79,268.3,925.15,361.08,888.68Z"/><path class="cls-5" d="M211.12,456.46c-4.64,1-79.23,116.39-77,126,.49,2.12,42.72-6.87,44-8-5.07-17.8,17.15-57,28.32-77.61C198.15,498.63,221.84,457,211.12,456.46Z"/><path class="cls-2" d="M234.87,497.32l-1.65,1.75c4.59,8.71,10.93,18.58,19,24.94C245.65,515.93,239.51,505.56,234.87,497.32Z"/><path class="cls-2" d="M227,570c8.27-21.87,31-64.32,48.31-77.4l2.49,1.34C261.22,506.54,237.1,548.49,227,570Z"/><path class="cls-2" d="M265.74,506.23h0a25.88,25.88,0,0,1,8,12c-4.28-6.6-8-9.84-11-9.25l3-2.78"/><path class="cls-2" d="M261.36,511.93l-2.13,2.88a5.5,5.5,0,0,1,4.71,2C264.19,515.1,263.22,513.5,261.36,511.93Z"/><path class="cls-2" d="M257.42,517.26c2.6.86,4.4,3.52,6.12,6.37-2.63-1.78-5.3-3.42-8.49-3.45Z"/><path class="cls-6" d="M158,748.5c46.48,18.43,92.83,17.57,139,0V671.8c-42.89,13.36-89.78,13.46-139,0Z"/><path class="cls-7" d="M226.12,465.46c11.11,5.11,64,4,82,14-3,18-9,55-13.9,76C299.55,528,293.07,502.21,226.12,465.46Z"/><ellipse class="cls-8" cx="284.06" cy="374.78" rx="109.05" ry="109.08" transform="translate(-125.05 606.68) rotate(-82.39)"/><path class="cls-9" d="M145.7,426.66c2.3,12.06,37.24,39.69,54.86,35.37-1.54-35.29,20.22-126.8,27.34-132.52,43.29,31.47,92.51,40.81,145.7,26.26-2.15,20.4-3.2,25.92-6.82,44.3C363,419.64,348.16,460,341.63,476.59c5.39,1.72,32.21-6.94,38.75-13.66,10.55-16.85,20-55.83,22.89-76.15h0q.84-4.21,1.42-8.57c9.52-71.23-36-136.1-101.74-144.88-51.56-6.9-109.59,19.39-132.73,66.91C166.1,306.9,138.18,410.24,145.7,426.66Z"/><path class="cls-9" d="M380.61,377.11c-61.6,13.18-116.84,9.38-167.84-19.66l10.27-50L387.85,332.8Z"/><path class="cls-10" d="M303.35,291.35c18.8-1,39,5.1,57.18,9.15,13.94-24.32,11.89-48.66,1.7-50.33-22,3.48-39,.44-54.11-2.59Z"/><path class="cls-10" d="M303.35,291.35c-21.08-1.92-37.32-2.27-53,.79l6-58.59c15.54,6.63,32.95,10.92,51.83,14Z"/><ellipse class="cls-4" cx="250.72" cy="262.76" rx="29.98" ry="15.15" transform="translate(-36.1 485.57) rotate(-84.19)"/><path class="cls-11" d="M300,269c-1.25,12.21.86,22.15,4.48,22.52s7.36-9,8.61-21.19-.73-22.31-4.34-22.68S301.25,256.74,300,269Z"/><path class="cls-9" d="M241.43,410.62c6-.22,13.66.95,22.75,3.44a1,1,0,0,0,.83-1.79c-8.76-5.93-16.83-10.74-22.37-11.36a1,1,0,0,1-.71-.42L239.57,397l.86,3.41-2.62-2.81.85,3.49-2.8-2.48.74,2.93a1,1,0,0,1-.21.89l-.69.81a1.06,1.06,0,0,0-.26.67c.07,2.6,2.27,4.72,5.44,6.61A1,1,0,0,0,241.43,410.62Z"/><path class="cls-9" d="M332.13,419.31c-6-1-13.68-.74-23,.61a1,1,0,0,1-.6-1.88c9.42-4.81,18-8.59,23.6-8.52a1,1,0,0,0,.76-.34l2.77-3.21-1.27,3.29,2.95-2.47-1.28,3.36,3.08-2.12L338,410.84a1,1,0,0,0,.1.92l.59.88a1.09,1.09,0,0,1,.17.7c-.39,2.58-2.83,4.4-6.22,5.89A1,1,0,0,1,332.13,419.31Z"/><ellipse class="cls-12" cx="243.74" cy="428.06" rx="4.71" ry="12.91" transform="translate(-231.77 556.64) rotate(-75.47)"/><ellipse class="cls-12" cx="318.8" cy="438.86" rx="12.91" ry="4.71" transform="translate(-5.08 3.73) rotate(-0.67)"/><path class="cls-13" d="M263.89,451.14a2.19,2.19,0,0,0,.32,1.92,28.41,28.41,0,0,0,7.49,7.87c4.72,3.24,10,4,15.86,2.39a34.43,34.43,0,0,0,9-4c2.77-1.71,3.43-4.95,1.23-7.34a13.09,13.09,0,0,0-7.87-3.79c-1.61-.22-3.37,1-5,2.16a3.9,3.9,0,0,1-5.18-.74c-1.2-1.63-2.58-3.31-4.3-3.54C270,445.3,265.12,447.54,263.89,451.14Z"/><path class="cls-14" d="M75.14,727.46C58.26,766.77,50.56,839.88,60.05,880.34c7,5.56,16.83,9.81,33.35,14.12,8.22-36.44,12.49-93.23-.79-138C86.66,744.57,83,731.62,75.14,727.46Z"/><path class="cls-15" d="M363.13,254.16a46.4,46.4,0,0,0-12.32.11c7.19,3.64,8.48,17.18,6.61,36C360.83,291.69,370.84,259.89,363.13,254.16Z"/><path class="cls-14" d="M277.81,243.93A107.85,107.85,0,0,1,266,240.59a11.23,11.23,0,0,1,2.34,6.58C269.79,245.53,273.24,244.55,277.81,243.93Z"/><path class="cls-15" d="M218.4,347.32c1.29-16.77,4.72-34.35,13.39-52.63,6.16,4.91,13.5,8,21.35,10.19-2,17.25-20,49.58-20,49.58S221.52,351.32,218.4,347.32Z"/><path class="cls-7" d="M234.78,901.13c46.5-12.78,114-58.17,126.34-75.67,5,10-1.95,37.07-2.59,49.67C325.23,895.23,282.59,907.94,234.78,901.13Z"/><path class="cls-7" d="M76.12,706.46a568.52,568.52,0,0,0,58,64.06L127,773.29C107.62,753.35,87.56,733.93,76.12,706.46Z"/><path class="cls-7" d="M339.12,712.46c-10.53,15.59-22.9,34-39,44-.18.14-1.25,4.95-1,5C324.17,746.08,333.3,729.24,339.12,712.46Z"/><path class="cls-16" d="M311.12,758.46c14-4.68,17.57-16.25,29.57-31.26,7.85,30,19.87,66.26,16.43,93.84-13.79,8.56-17,17.42-31,26.42C330.43,822.57,321.7,778.79,311.12,758.46Z"/><path class="cls-17" d="M207.12,429.46c2.73-1.07,6-2.84,6.5-4.83.5-12.17,4.06-31.49,10.5-54.17-1.8-1.24-3.07-4-4.94-1.77C213.58,391,210.12,413.46,207.12,429.46Z"/><path class="cls-18" d="M354.12,429.46c-2,12.65-5.78,25.72-8.51,30.3-1.33,3.08-20.12,12.84-22.49,11.7C328.34,468,351,445.54,354.12,429.46Z"/><path class="cls-16" d="M291.12,582.46c-27.48,46.41-30.19,95.14-10,146l-7,1c-19-56-16-107,13-148Z"/><path class="cls-16" d="M205.12,588.46c21.87,72.15-6.21,130.56-66,181l10,1c55.69-46.59,82.38-104.21,62-177Z"/><circle class="cls-19" cx="234.34" cy="601.19" r="12.15"/><path class="cls-20" d="M232,603c3.76,5.71,7.51-2.33,14.91-7.21s15.65-4.76,11.89-10.46-12.82-6.38-20.22-1.5S228.25,597.28,232,603Z"/><path class="cls-21" d="M231.64,603.61c3,4.59,7.57-1.36,11-4.34-2.16-3.52-6.91-6.34-11.09-7.29C229.56,596,229.45,600.26,231.64,603.61Z"/><path class="cls-22" d="M239.72,578.62c1.68,2.25,8.05,7,10.31,5.29s-.47-9.13-2.15-11.38a5.09,5.09,0,1,0-8.16,6.09Z"/><path class="cls-23" d="M238,583.72c2.43,1.41,10.15,3.23,11.55.79s-4-8.2-6.46-9.61a5.09,5.09,0,1,0-5.09,8.82Z"/><circle cx="254.2" cy="586.18" r="0.55"/><circle class="cls-2" cx="253.97" cy="586.01" r="0.28"/><circle class="cls-2" cx="254.48" cy="586.21" r="0.11"/><path d="M256.1,586.55c.3.12.33.32,0,.59a.8.8,0,0,1-.33.11c-.31-.06-.38-.28-.31-.59,0-.09-.1-.1-.17,0a.56.56,0,0,0,.19.72.69.69,0,0,0,.61,0,.76.76,0,0,0,.41-.51.59.59,0,0,0-.23-.52s-.09-.06-.14,0A.12.12,0,0,0,256.1,586.55Z"/><circle cx="256.64" cy="585.18" r="0.55"/><circle class="cls-2" cx="256.41" cy="585.02" r="0.28"/><circle class="cls-2" cx="256.92" cy="585.22" r="0.11"/><path class="cls-24" d="M254.93,715.67A227.77,227.77,0,0,1,206.8,708a14.47,14.47,0,0,1-12-16.53L206,620.84a14.48,14.48,0,0,1,16.53-12l48.12,7.63a14.49,14.49,0,0,1,12,16.53l-11.2,70.67A14.49,14.49,0,0,1,254.93,715.67Z"/><path class="cls-25" d="M253.71,712.64a183,183,0,0,1-44.43-7,14.49,14.49,0,0,1-12-16.53l10.45-65.89a14.49,14.49,0,0,1,16.53-12l44.43,7a14.5,14.5,0,0,1,12,16.53l-10.44,65.89A14.49,14.49,0,0,1,253.71,712.64Z"/><path class="cls-26" d="M253.05,713.7a177.47,177.47,0,0,1-43.71-6.93,14.36,14.36,0,0,1-11.77-16.49L208,624.39a14.38,14.38,0,0,1,16.3-12L268,619.28a14.38,14.38,0,0,1,11.77,16.49l-10.45,65.89A14.35,14.35,0,0,1,253.05,713.7Z"/><circle class="cls-27" cx="257.11" cy="689.9" r="4.88"/><circle class="cls-28" cx="238.43" cy="660.15" r="4.88"/><circle class="cls-29" cx="208.5" cy="682.23" r="4.88"/><circle class="cls-30" cx="237.18" cy="696.52" r="4.88"/><circle class="cls-31" cx="233.35" cy="633.82" r="4.88"/><circle class="cls-32" cx="253.32" cy="674.67" r="4.88"/><circle class="cls-33" cx="259.39" cy="637.08" r="4.88"/><circle class="cls-34" cx="218.08" cy="671.84" r="4.88"/><circle class="cls-35" cx="218.43" cy="690.01" r="4.88"/><circle class="cls-36" cx="252.99" cy="698.39" r="4.88"/><circle class="cls-37" cx="235.49" cy="679.09" r="4.88"/><circle class="cls-38" cx="265.19" cy="654" r="6.23"/><circle class="cls-39" cx="218.23" cy="635.76" r="4.88"/><circle class="cls-40" cx="246.77" cy="636.96" r="4.88"/><circle class="cls-41" cx="222.26" cy="647.71" r="4.88"/><circle class="cls-42" cx="250.87" cy="654.29" r="4.88"/><rect class="cls-43" x="207.86" y="599.13" width="77.83" height="18.4" rx="3.04" transform="translate(98.3 -31.14) rotate(9.01)"/><rect class="cls-44" x="204.58" y="621.08" width="4.79" height="74.17" rx="1.18" transform="translate(105.61 -24.29) rotate(9.01)"/><path class="cls-14" d="M216.15,603.39a16,16,0,0,0,.56,7.71l-4.15-.66c-1.95-.31-3.09-3.31-2.56-6.66l.43-2.69c.53-3.36,2.55-5.86,4.49-5.55l4.16.66A15.87,15.87,0,0,0,216.15,603.39Z"/><path class="cls-16" d="M276.55,605.25l4.25.66c2,.3,3.17,3.31,2.65,6.66l-.42,2.69c-.52,3.36-2.56,5.86-4.54,5.55l-4.26-.66C272.81,617.92,274.45,606.9,276.55,605.25Z"/><rect class="cls-45" x="267.95" y="634.11" width="4.79" height="64.12" rx="1.18" transform="translate(107.65 -34.11) rotate(9.01)"/><ellipse class="cls-46" cx="283.12" cy="661.96" rx="55.5" ry="21" transform="translate(-393.4 908.26) rotate(-86.85)"/><path class="cls-10" d="M371.93,657a521.2,521.2,0,0,0-74.26-78.28C255.62,637,267.28,710.05,297,753.92,325.06,736.17,347.32,688.14,371.93,657Z"/><path class="cls-14" d="M351.12,638.46c-15.67-20.66-28.41-36.16-44-46-19-18.37-45,71-23,120,.79,1.76-8.57-87.8,13-111C306.88,591,335.12,626.46,351.12,638.46Z"/><ellipse class="cls-47" cx="195.53" cy="653.77" rx="55.5" ry="21" transform="translate(-464.87 825.57) rotate(-87.93)"/><path class="cls-10" d="M201.66,588.07c24.13,65.46-.25,125.69-64.22,181.64C95.29,726.06,53.9,679,14,625.2,66.07,604.49,127.5,591.22,201.66,588.07Z"/><path class="cls-14" d="M36.5,638.63c-6.72-5.54-27.77-13.52,25.35-25.12l.4-.15c4.59-2.14,125.62-28.09,136.67-18.1a1.33,1.33,0,0,1,.33.48c.67,1.53,2.62,6.66.87,6.72C184.91,603,51.55,607.8,38.86,638A1.51,1.51,0,0,1,36.5,638.63Z"/><path class="cls-7" d="M147.12,745.46c-8,9-1,2-11,11-30.87-21.28-62.92-63.63-95-104C90.26,682.71,126.12,740.46,147.12,745.46Z"/><path class="cls-7" d="M341.14,695.33c-11.47,19.42-24.09,36.18-38.85,48L297,732.74C310.77,724.54,325.65,711.29,341.14,695.33Z"/><circle class="cls-48" cx="302.88" cy="545.74" r="12.15"/><path class="cls-20" d="M300,546.46c1.18,6.73,7.82.84,16.55-.69s16.25,1.86,15.07-4.87-9.22-10.95-18-9.41S298.85,539.73,300,546.46Z"/><path class="cls-21" d="M299.45,546.89c.95,5.42,7.47,1.76,11.76.37-.58-4.09-3.81-8.56-7.27-11.1C300.57,539,298.76,543,299.45,546.89Z"/><path class="cls-22" d="M316.79,527.17c.65,2.74,4.62,9.6,7.36,9s3.2-8.56,2.56-11.29a5.1,5.1,0,1,0-9.92,2.34Z"/><path class="cls-23" d="M313.22,531.18c1.68,2.26,8,7,10.29,5.32s-.44-9.13-2.11-11.39a5.09,5.09,0,0,0-8.18,6.07Z"/><circle cx="327.07" cy="539.86" r="0.55"/><circle class="cls-2" cx="326.93" cy="539.62" r="0.28"/><circle class="cls-2" cx="327.32" cy="540.01" r="0.11"/><circle cx="329.71" cy="539.92" r="0.55"/><circle class="cls-2" cx="329.57" cy="539.68" r="0.28"/><circle class="cls-2" cx="329.95" cy="540.07" r="0.11"/><path d="M327.64,541.82h0a.56.56,0,0,0,.61.61.58.58,0,0,0,.68-.58v-.78a.08.08,0,0,0-.08-.08h-1.11a.08.08,0,0,0-.09.07Z"/><path d="M328.93,541.92v0h0Z"/><ellipse class="cls-49" cx="328.28" cy="542.08" rx="0.56" ry="0.36"/><circle class="cls-50" cx="365.19" cy="546.52" r="12.15"/><path class="cls-20" d="M362.83,548.27c3.65,5.77,7.55-2.2,15-6.94s15.74-4.47,12.08-10.24-12.7-6.61-20.19-1.87S359.17,542.49,362.83,548.27Z"/><path class="cls-21" d="M362.45,548.88c2.95,4.66,7.59-1.21,11-4.13-2.09-3.56-6.78-6.47-11-7.5C360.51,541.2,360.32,545.5,362.45,548.88Z"/><path class="cls-22" d="M371,524.05c1.64,2.28,7.92,7.12,10.2,5.48s-.29-9.14-1.93-11.42a5.09,5.09,0,1,0-8.27,5.94Z"/><path class="cls-23" d="M369.21,529.12c2.41,1.45,10.09,3.41,11.54,1s-3.88-8.28-6.29-9.73a5.09,5.09,0,0,0-5.25,8.73Z"/><circle cx="385.32" cy="531.87" r="0.55"/><circle class="cls-2" cx="385.1" cy="531.7" r="0.28"/><circle class="cls-2" cx="385.6" cy="531.91" r="0.11"/><circle cx="387.78" cy="530.92" r="0.55"/><circle class="cls-2" cx="387.56" cy="530.75" r="0.28"/><circle class="cls-2" cx="388.06" cy="530.96" r="0.11"/><path d="M386.59,533.46h0a.55.55,0,0,0,.79.33.59.59,0,0,0,.4-.8v0l-.27-.69a.08.08,0,0,0-.11,0l-1,.42a.09.09,0,0,0-.05.1Z"/><path d="M387.82,533.07v0h0Z"/><ellipse class="cls-49" cx="387.28" cy="533.46" rx="0.56" ry="0.36" transform="translate(-173.91 187.58) rotate(-22.37)"/><circle class="cls-51" cx="284.14" cy="571.82" r="12.15"/><path class="cls-20" d="M286.5,573.58c-3.66,5.77-7.55-2.21-15-7s-15.73-4.48-12.07-10.25,12.7-6.6,20.19-1.85S290.16,567.8,286.5,573.58Z"/><path class="cls-21" d="M286.88,574.19c-2.95,4.65-7.59-1.22-11-4.14,2.09-3.56,6.79-6.46,11-7.49C288.83,566.51,289,570.81,286.88,574.19Z"/><path class="cls-22" d="M278.36,549.35c-1.65,2.28-7.93,7.12-10.21,5.48s.3-9.14,1.94-11.43a5.09,5.09,0,1,1,8.27,6Z"/><path class="cls-23" d="M280.13,554.42c-2.41,1.45-10.09,3.41-11.54,1s3.88-8.28,6.29-9.73a5.09,5.09,0,0,1,5.25,8.73Z"/><path class="cls-52" d="M264.46,557.59a1.62,1.62,0,0,0-1.4.36.07.07,0,0,0,0,.12,1.55,1.55,0,0,1,1.09.5"/><ellipse class="cls-9" cx="264.46" cy="557.59" rx="0.1" ry="0.09" transform="translate(-351.84 589.51) rotate(-67.59)"/><ellipse class="cls-9" cx="264.18" cy="558.57" rx="0.1" ry="0.1" transform="translate(-352.92 589.86) rotate(-67.59)"/><path class="cls-52" d="M261.3,556.29a1.63,1.63,0,0,1,.75,1.24c0,.06-.07.1-.11.06a1.56,1.56,0,0,0-1.13-.41"/><ellipse class="cls-9" cx="261.3" cy="556.29" rx="0.1" ry="0.09" transform="translate(-352.59 585.78) rotate(-67.59)"/><ellipse class="cls-9" cx="260.81" cy="557.18" rx="0.1" ry="0.1" transform="translate(-353.72 585.88) rotate(-67.59)"/><path d="M262,558.69c-.3.13-.33.32,0,.59a.8.8,0,0,0,.33.11c.31-.07.37-.29.3-.6,0-.09.1-.11.17,0a.57.57,0,0,1-.18.72.69.69,0,0,1-.61,0,.72.72,0,0,1-.41-.5.6.6,0,0,1,.21-.53s.09,0,.14,0A.12.12,0,0,1,262,558.69Z"/><circle class="cls-53" cx="421.27" cy="491.79" r="19.27"/><path class="cls-20" d="M416.87,493.34c2.85,10.47,12.48.2,26-3.49s25.94.59,23.1-9.87-16.16-16-29.72-12.26S414,482.88,416.87,493.34Z"/><path class="cls-21" d="M416,494.1c2.3,8.43,12.07,1.71,18.64-1.11-1.51-6.38-7.26-13-13.1-16.49C416.66,481.54,414.36,488,416,494.1Z"/><path class="cls-22" d="M440.56,460.45c1.42,4.23,8.68,14.49,12.9,13.07s3.83-14,2.41-18.21a8.07,8.07,0,1,0-15.31,5.14Z"/><path class="cls-23" d="M435.49,467.3c3,3.33,13.7,9.89,17,6.92s-2-14.36-5-17.69a8.08,8.08,0,0,0-12,10.77Z"/><path class="cls-52" d="M457,477.2a2.59,2.59,0,0,1,2,1.21.1.1,0,0,1-.1.16,2.51,2.51,0,0,0-1.9.25"/><ellipse class="cls-9" cx="456.99" cy="477.21" rx="0.15" ry="0.16" transform="translate(-41.64 43.7) rotate(-5.24)"/><ellipse class="cls-9" cx="456.95" cy="478.82" rx="0.15" ry="0.16" transform="translate(-41.79 43.7) rotate(-5.24)"/><path d="M458.9,481.06v0c0,.59.38.89,1,.87a.93.93,0,0,0,1-1v-.05l-.1-1.19c0-.06-.07-.11-.14-.11l-1.75.17a.12.12,0,0,0-.12.12Z"/><path d="M461,481.05v0h0Z"/><ellipse class="cls-49" cx="459.95" cy="481.39" rx="0.9" ry="0.57" transform="translate(-42.01 43.98) rotate(-5.24)"/><path class="cls-52" d="M462.39,476.71a2.58,2.58,0,0,0-1.71,1.54.1.1,0,0,0,.13.14,2.45,2.45,0,0,1,1.91-.09"/><ellipse class="cls-9" cx="462.39" cy="476.71" rx="0.15" ry="0.16" transform="matrix(1, -0.09, 0.09, 1, -41.58, 44.19)"/><ellipse class="cls-9" cx="462.72" cy="478.29" rx="0.15" ry="0.16" transform="translate(-41.72 44.22) rotate(-5.24)"/><circle class="cls-54" cx="483.82" cy="408.88" r="27.99"/><path class="cls-20" d="M477.25,410.54c2.73,15.51,18,1.94,38.13-1.59s37.44,4.29,34.71-11.22-21.25-25.22-41.36-21.68S474.52,395,477.25,410.54Z"/><path class="cls-21" d="M475.91,411.52c2.2,12.5,17.22,4.07,27.1.87-1.33-9.43-8.78-19.73-16.76-25.59C478.51,393.44,474.34,402.44,475.91,411.52Z"/><path class="cls-22" d="M515.87,366.1c1.49,6.31,10.63,22.12,16.94,20.63s7.39-19.73,5.89-26a11.73,11.73,0,1,0-22.83,5.4Z"/><path class="cls-23" d="M507.64,375.34c3.86,5.21,18.5,16.12,23.7,12.26s-1-21-4.86-26.24a11.73,11.73,0,0,0-18.84,14Z"/><circle cx="539.55" cy="395.34" r="1.28"/><circle class="cls-2" cx="539.23" cy="394.78" r="0.64"/><circle class="cls-2" cx="540.12" cy="395.67" r="0.25"/><path d="M543.22,397.86c.53.55.42,1-.47,1.28a1.87,1.87,0,0,1-.81-.06c-.59-.42-.54-.94-.1-1.53.11-.19-.12-.32-.37-.18a1.31,1.31,0,0,0-.25,1.69,1.56,1.56,0,0,0,1.26.64,1.67,1.67,0,0,0,1.33-.7,1.36,1.36,0,0,0,0-1.3c-.06-.07-.14-.21-.26-.23S543.1,397.67,543.22,397.86Z"/><circle cx="545.62" cy="395.48" r="1.28"/><circle class="cls-2" cx="545.29" cy="394.92" r="0.64"/><circle class="cls-2" cx="546.19" cy="395.81" r="0.25"/><circle class="cls-55" cx="707.22" cy="335.01" r="50.45"/><path class="cls-20" d="M695.38,338c4.92,27.95,32.48,3.5,68.73-2.88s67.47,7.74,62.55-20.22-38.29-45.44-74.54-39.06S690.47,310.05,695.38,338Z"/><path class="cls-21" d="M693,339.77c4,22.52,31,7.33,48.86,1.56-2.41-17-15.84-35.56-30.22-46.12C697.65,307.18,690.13,323.41,693,339.77Z"/><path class="cls-22" d="M765,257.91c2.69,11.36,19.16,39.86,30.52,37.17s13.32-35.54,10.63-46.91A21.14,21.14,0,0,0,765,257.91Z"/><path class="cls-23" d="M750.15,274.57c7,9.37,33.35,29.05,42.72,22.09s-1.81-37.92-8.77-47.29a21.14,21.14,0,1,0-34,25.2Z"/><circle cx="807.66" cy="310.6" r="2.3"/><circle class="cls-2" cx="807.08" cy="309.6" r="1.16"/><circle class="cls-2" cx="808.69" cy="311.2" r="0.45"/><circle cx="818.6" cy="310.85" r="2.3"/><circle class="cls-2" cx="818.01" cy="309.85" r="1.16"/><circle class="cls-2" cx="819.62" cy="311.45" r="0.45"/><path d="M810,318.72v0c0,1.55.8,2.43,2.53,2.53a2.43,2.43,0,0,0,2.8-2.44s0-.08,0-.12l0-3.11a.33.33,0,0,0-.34-.32h-4.62a.32.32,0,0,0-.34.3Z"/><path d="M815.36,319.17a.44.44,0,0,0,0-.1v0C815.37,319.08,815.37,319.12,815.36,319.17Z"/><ellipse class="cls-49" cx="812.67" cy="319.81" rx="2.34" ry="1.49"/><circle class="cls-56" cx="517.56" cy="298.8" r="27.99"/><path class="cls-20" d="M511,300.46c2.73,15.51,18,1.94,38.13-1.59s37.43,4.29,34.71-11.22S562.59,262.43,542.48,266,508.27,285,511,300.46Z"/><path class="cls-21" d="M509.65,301.44c2.2,12.5,17.23,4.07,27.11.87-1.34-9.43-8.79-19.73-16.77-25.59C512.25,283.36,508.08,292.36,509.65,301.44Z"/><path class="cls-22" d="M549.62,256c1.49,6.31,10.63,22.12,16.93,20.63s7.39-19.73,5.9-26a11.73,11.73,0,1,0-22.83,5.4Z"/><path class="cls-23" d="M541.38,265.26c3.86,5.21,18.51,16.12,23.71,12.26s-1-21-4.87-26.24a11.73,11.73,0,0,0-18.84,14Z"/><circle cx="573.3" cy="285.26" r="1.28"/><circle class="cls-2" cx="572.97" cy="284.7" r="0.64"/><circle class="cls-2" cx="573.86" cy="285.59" r="0.25"/><circle cx="579.36" cy="285.4" r="1.28"/><circle class="cls-2" cx="579.04" cy="284.84" r="0.64"/><circle class="cls-2" cx="579.93" cy="285.73" r="0.25"/><path d="M574.61,289.76v0a1.28,1.28,0,0,0,1.4,1.4,1.35,1.35,0,0,0,1.56-1.35.17.17,0,0,1,0-.07V288a.18.18,0,0,0-.19-.17h-2.56a.18.18,0,0,0-.19.17Z"/><path d="M577.57,290a.43.43,0,0,1,0-.05v0A.17.17,0,0,0,577.57,290Z"/><ellipse class="cls-49" cx="576.07" cy="290.37" rx="1.3" ry="0.83"/><circle class="cls-57" cx="601.26" cy="405.12" r="27.99"/><path class="cls-20" d="M596.05,409.44c9.13,12.83,17.1-6,33.74-17.84s35.64-12.22,26.51-25.05-30-13.63-46.66-1.79S586.92,396.61,596.05,409.44Z"/><path class="cls-21" d="M595.26,410.9c7.36,10.34,17.3-3.73,24.84-10.87-5.26-7.94-16.42-14-26.14-15.89C589.83,393.46,589.94,403.38,595.26,410.9Z"/><path class="cls-22" d="M611.81,352.71c4.06,5.05,19.11,15.4,24.16,11.34s-1.81-21-5.87-26a11.73,11.73,0,1,0-18.29,14.69Z"/><path class="cls-23" d="M608.35,364.6c5.72,3,23.64,6.59,26.67.87s-9.95-18.56-15.67-21.6a11.73,11.73,0,0,0-11,20.73Z"/><path class="cls-52" d="M642.62,367.3a3.7,3.7,0,0,1,3.27.65.15.15,0,0,1-.06.28,3.59,3.59,0,0,0-2.45,1.29"/><ellipse class="cls-9" cx="642.62" cy="367.3" rx="0.21" ry="0.23" transform="translate(-95.49 311.98) rotate(-25.47)"/><ellipse class="cls-9" cx="643.38" cy="369.52" rx="0.22" ry="0.24" transform="translate(-96.37 312.53) rotate(-25.47)"/><path class="cls-52" d="M649.73,363.91a3.76,3.76,0,0,0-1.56,2.95.15.15,0,0,0,.25.13A3.65,3.65,0,0,1,651,365.9"/><ellipse class="cls-9" cx="649.73" cy="363.91" rx="0.21" ry="0.23" transform="translate(-93.34 314.71) rotate(-25.47)"/><ellipse class="cls-9" cx="650.97" cy="365.9" rx="0.22" ry="0.24" transform="translate(-94.08 315.44) rotate(-25.47)"/><path d="M647.17,371.59v0a1.27,1.27,0,0,0,1.87.66,1.36,1.36,0,0,0,.82-1.89.14.14,0,0,1,0-.06l-.73-1.57a.19.19,0,0,0-.25-.08l-2.31,1.11a.18.18,0,0,0-.1.23Z"/><path d="M650,370.55s0,0,0-.05v0Z"/><ellipse class="cls-49" cx="648.75" cy="371.51" rx="1.3" ry="0.83" transform="translate(-96.71 315.03) rotate(-25.47)"/><path class="cls-2" d="M733.25,580.69q-.42-6.18-.42-16.71t.3-13.65a3.15,3.15,0,0,1,2.64-2.55,24.54,24.54,0,0,1,6.18-.63,17.55,17.55,0,0,1,9.51,2.43,7.93,7.93,0,0,1,3.87,7.17,17.1,17.1,0,0,1-1.08,6.51,9.25,9.25,0,0,1-2.7,3.87q-2.64,2-7.8,2a37.09,37.09,0,0,1-5.82-.6q.3,12,.24,15.12t-2.1,3.12q-1.32,0-1.68-.48a7.88,7.88,0,0,1-.48-.69,3,3,0,0,1-.24-.63q-.12-.42-.18-.69a5.43,5.43,0,0,1-.09-.81,6.32,6.32,0,0,0-.09-.84Q733.25,581.77,733.25,580.69Zm17.1-23.79a4.27,4.27,0,0,0-2.64-3.84,11.79,11.79,0,0,0-5.64-1.41,11.34,11.34,0,0,0-4.2.54q-.24,3.54-.24,6.51t.24,5.37q1.62.18,2.22.3a23.82,23.82,0,0,0,2.67.18q1.11,0,1.5,0t1.5-.18a3.51,3.51,0,0,0,1.59-.51q.48-.36,1.2-1a3.36,3.36,0,0,0,1-1.38A13.41,13.41,0,0,0,750.35,556.9Z"/><path class="cls-2" d="M760.31,578.47l.06-4.68.54-25.08a1.27,1.27,0,0,1,.78-1.14,4.15,4.15,0,0,1,2-.42q2.88,0,2.88,2c0,.44-.24,3.8-.69,10.08s-.69,10-.69,11.28v6.36q0,4.5.6,4.92a6.6,6.6,0,0,0,2.1.3l8.64-.6c1.87,0,2.82.68,2.82,2a2.48,2.48,0,0,1-1.53,2.37,8,8,0,0,1-3,.84q-1.5.09-3.66.09c-6.28,0-9.69-.2-10.2-.6q-.43-.36-.48-2.73c0-1.58-.07-2.69-.09-3.33S760.31,579,760.31,578.47Z"/><path class="cls-2" d="M796.54,547.27a3.08,3.08,0,0,1,2.52,1.32,25.81,25.81,0,0,1,2.65,5.46q3.76,9.78,7.37,30.66a3,3,0,0,1,.06.69,1.4,1.4,0,0,1-.56,1,2.38,2.38,0,0,1-1.62.51,3,3,0,0,1-1.78-.51,2.63,2.63,0,0,1-1-1.68c-.16-.78-.46-2.31-.89-4.59-1-5.08-1.61-7.72-1.92-7.92a19,19,0,0,0-4.78-.9q-4.05-.48-5.37-.48c-.88,0-1.4.08-1.55.24q-1.08,1-3,14.58c-.16.76-.92,1.14-2.27,1.14s-2-.58-2-1.74q0-4.32,3.17-16.5t5.29-16.14C792.67,549,794.54,547.27,796.54,547.27Zm-.24,6.66c-.59,0-1.64,1.77-3.12,5.31S791,565,791,565.81a.59.59,0,0,0,.12.42c.32.32,1.59.6,3.79.84s3.65.36,4.38.36,1.11,0,1.2-.15a2.34,2.34,0,0,0,.11-1,52,52,0,0,0-1.61-6.6C797.87,555.86,797,553.93,796.3,553.93Z"/><path class="cls-2" d="M821,572.29l.06-3.06a5.5,5.5,0,0,0-1-3.06q-1-1.5-4.77-8.7t-3.78-8.13a2.28,2.28,0,0,1,.78-1.68,2.26,2.26,0,0,1,1.53-.75q.75,0,1.8,1.38a69.86,69.86,0,0,1,4.14,7.26q3.09,5.88,3.57,6.48,5.76-10.2,9.24-14.4a2.34,2.34,0,0,1,1.35-.78,1.76,1.76,0,0,1,.75.12q1.44.6,1.44,1.59a3,3,0,0,1-.48,1.71q-.48.72-2.64,3.78a70.16,70.16,0,0,0-5.49,9q-2.31,4.53-2.31,5.55v11l.18,4.8a2.09,2.09,0,0,1-.72,1.83,3,3,0,0,1-1.77.51,1.41,1.41,0,0,1-1.41-1.14,11.47,11.47,0,0,1-.42-3q-.06-1.86-.06-5.46Z"/><path class="cls-20" d="M735.59,582.26q-.42-6.18-.42-16.71t.3-13.65a3.15,3.15,0,0,1,2.64-2.55,24.54,24.54,0,0,1,6.18-.63,17.55,17.55,0,0,1,9.51,2.43,7.93,7.93,0,0,1,3.87,7.17,17.1,17.1,0,0,1-1.08,6.51,9.25,9.25,0,0,1-2.7,3.87q-2.64,2-7.8,2a37.09,37.09,0,0,1-5.82-.6q.3,12,.24,15.12t-2.1,3.12q-1.32,0-1.68-.48a7.88,7.88,0,0,1-.48-.69,3,3,0,0,1-.24-.63q-.12-.42-.18-.69a5.43,5.43,0,0,1-.09-.81,6.32,6.32,0,0,0-.09-.84Q735.59,583.34,735.59,582.26Zm17.1-23.79a4.27,4.27,0,0,0-2.64-3.84,11.79,11.79,0,0,0-5.64-1.41,11.34,11.34,0,0,0-4.2.54q-.24,3.54-.24,6.51t.24,5.37q1.62.18,2.22.3a23.82,23.82,0,0,0,2.67.18q1.11,0,1.5,0t1.5-.18a3.51,3.51,0,0,0,1.59-.51q.48-.36,1.2-1a3.36,3.36,0,0,0,1-1.38A13.41,13.41,0,0,0,752.69,558.47Z"/><path class="cls-20" d="M762.65,580l.06-4.68.54-25.08a1.27,1.27,0,0,1,.78-1.14,4.15,4.15,0,0,1,2-.42q2.88,0,2.88,2,0,.66-.69,10.08t-.69,11.28v6.36q0,4.5.6,4.92a6.65,6.65,0,0,0,2.1.3l8.64-.6q2.82,0,2.82,2a2.48,2.48,0,0,1-1.53,2.37,7.94,7.94,0,0,1-3,.84q-1.5.09-3.66.09-9.42,0-10.2-.6-.42-.36-.48-2.73t-.09-3.33Q762.65,580.82,762.65,580Z"/><path class="cls-20" d="M798.89,548.84a3.08,3.08,0,0,1,2.52,1.32,25.42,25.42,0,0,1,2.64,5.46q3.78,9.78,7.38,30.66a3,3,0,0,1,.06.69,1.38,1.38,0,0,1-.57,1,2.35,2.35,0,0,1-1.62.51,3,3,0,0,1-1.77-.51,2.59,2.59,0,0,1-1-1.68q-.24-1.17-.9-4.59-1.44-7.62-1.92-7.92a18.77,18.77,0,0,0-4.77-.9q-4.05-.48-5.37-.48a2.83,2.83,0,0,0-1.56.24q-1.08,1-2.94,14.58-.24,1.14-2.28,1.14t-2-1.74q0-4.32,3.18-16.5t5.28-16.14Q795.89,548.84,798.89,548.84Zm-.24,6.66q-.9,0-3.12,5.31t-2.22,6.57a.59.59,0,0,0,.12.42q.48.48,3.78.84t4.38.36q1.08,0,1.2-.15a2.11,2.11,0,0,0,.12-1,51,51,0,0,0-1.62-6.6Q799.67,555.5,798.65,555.5Z"/><path class="cls-20" d="M823.31,573.86l.06-3.06a5.5,5.5,0,0,0-1-3.06q-1-1.5-4.77-8.7t-3.78-8.13a2.28,2.28,0,0,1,.78-1.68,2.26,2.26,0,0,1,1.53-.75q.75,0,1.8,1.38a69.86,69.86,0,0,1,4.14,7.26q3.09,5.88,3.57,6.48,5.76-10.2,9.24-14.4a2.34,2.34,0,0,1,1.35-.78,1.76,1.76,0,0,1,.75.12q1.44.6,1.44,1.59a3,3,0,0,1-.48,1.71q-.48.72-2.64,3.78a70.16,70.16,0,0,0-5.49,9q-2.31,4.53-2.31,5.55v11l.18,4.8a2.09,2.09,0,0,1-.72,1.83,3,3,0,0,1-1.77.51,1.41,1.41,0,0,1-1.41-1.14,11.47,11.47,0,0,1-.42-3q-.06-1.86-.06-5.46Z"/><path class="cls-2" d="M615.41,649.65a3.84,3.84,0,0,1,2.13-.6q1.2,0,1.5,1.38.06,7,.24,20.82,0,8.46-.48,14.34a2.35,2.35,0,0,1-1.11,1.59,3.49,3.49,0,0,1-2,.69,1.51,1.51,0,0,1-1.68-1.74q.6-6,.6-14.88l-.36-20.16A2.58,2.58,0,0,1,615.41,649.65Z"/><path class="cls-2" d="M650.48,648.09a2.37,2.37,0,0,1,1.74.81,2.64,2.64,0,0,1,.78,1.89q0,23.46.21,28.35t.21,5a4.67,4.67,0,0,1-.72,2.49q-.72,1.17-1.59,1.17a7.23,7.23,0,0,1-1.32-.09,6.77,6.77,0,0,1-.81-.21,1.89,1.89,0,0,1-.72-.48l-.6-.6a4.74,4.74,0,0,1-.63-.93l-.63-1.11q-.24-.42-.75-1.47t-2.22-4.29q-1.71-3.24-3.09-5.82a92.9,92.9,0,0,0-8.82-13.74q0,19.5-1.08,27.06-.18,1.44-2.22,1.44a2.55,2.55,0,0,1-1.59-.48,1.84,1.84,0,0,1-.63-1.56q0-1.08.45-11.88t.45-13.47v-3.39q0-4.32.66-4.86a2.15,2.15,0,0,1,1.38-.54q3.3,0,10.08,10.8,1.32,2.1,5,8.79t4.44,8.25l-.72-24.9q0-5.16,1.14-5.88A3,3,0,0,1,650.48,648.09Z"/><path class="cls-2" d="M671.42,648.09a15.13,15.13,0,0,1,6.63,1.32q2.73,1.32,2.73,3.36a2.7,2.7,0,0,1-.45,1.56A1.5,1.5,0,0,1,679,655a12.39,12.39,0,0,1-3.75-1.35,12.52,12.52,0,0,0-5.25-1.35,9.55,9.55,0,0,0-4.89,1.5q-2.52,1.5-2.52,3.66a4.54,4.54,0,0,0,3.06,4.32,30.86,30.86,0,0,0,6.54,1.83,13.82,13.82,0,0,1,7,3.3q2.7,2.49,2.7,7.53,0,7.68-4.62,11.34-2.58,2-7.29,2a19.29,19.29,0,0,1-9.39-2.58q-3.06-1.62-3.06-3.24a2.35,2.35,0,0,1,.51-1.32,4,4,0,0,1,1.41-1.2,1.82,1.82,0,0,1,1.65-.15q.75.33,2.43,1.17t2.46,1.14a13.35,13.35,0,0,0,4.74,1A6,6,0,0,0,675,680.4a7.52,7.52,0,0,0,2.07-5.37q0-4.2-4.2-5.88a21,21,0,0,0-4.62-1.26q-5.34-1-8-3.21t-2.7-6.81a8.19,8.19,0,0,1,3.9-7.17A17.67,17.67,0,0,1,671.42,648.09Z"/><path class="cls-2" d="M685.64,648.87l24.3-.36q1.74.54,1.74,1.74,0,3-2.46,3-4.5,0-9.54.24-.3,5.16-.3,7.77v3.33l.24,21.06q0,1.86-1,2.16a5.77,5.77,0,0,1-1.8.24q-1.74,0-1.92-2-.36-4.62-.36-17.25t.36-15.21q-1.26.06-3.72.06t-6.12-.06a1.91,1.91,0,0,1-1.5-.6,2.12,2.12,0,0,1-.54-1.47,2.57,2.57,0,0,1,.75-1.71A2.8,2.8,0,0,1,685.64,648.87Z"/><path class="cls-2" d="M717.26,687.18a3,3,0,0,1-2.07.87q-1.11,0-1.53-1.44-.18-7.92-.18-15.78l-.18-15.12a6.19,6.19,0,0,1,4-6.24A18.14,18.14,0,0,1,725,648a12.54,12.54,0,0,1,4.89,1.11,14.28,14.28,0,0,1,4.68,3.24,6.53,6.53,0,0,1,2.07,4.62,8.77,8.77,0,0,1-2.28,5.34,23.74,23.74,0,0,1-5.64,5,29.36,29.36,0,0,1-6.54,3.27A60.11,60.11,0,0,1,731.9,679q4.14,4.47,4.14,6.93a2,2,0,0,1-.78,1.47,2.75,2.75,0,0,1-1.89.69,2.36,2.36,0,0,1-1.89-1,20.56,20.56,0,0,0-5-6.69,58.6,58.6,0,0,0-8.61-6.69l.36,11.52A2.59,2.59,0,0,1,717.26,687.18ZM727,663.87q5-3.18,5-5.73a4.3,4.3,0,0,0-2.52-3.93,12.25,12.25,0,0,0-6-1.38,14.72,14.72,0,0,0-5.49.84q-.06,3.06-.06,13.56Q722,667.05,727,663.87Z"/><path class="cls-2" d="M764.3,648.81a2.43,2.43,0,0,1,1.86-1,2.11,2.11,0,0,1,1.74,1,61.26,61.26,0,0,1,1,11.7v4.56a53.61,53.61,0,0,1-.18,6.09q-.18.93-.36,2.07c-.12.76-.24,1.34-.33,1.74s-.26.94-.45,1.62a13.89,13.89,0,0,1-1.86,4,14.13,14.13,0,0,1-4.74,5.28,10.84,10.84,0,0,1-6,1.92,9.9,9.9,0,0,1-6.24-2.64,20.54,20.54,0,0,1-5.25-6.6,30.62,30.62,0,0,1-3.12-14.1c0-1.88.27-6.34.84-13.38a4.67,4.67,0,0,1,1.29-1.71,2.69,2.69,0,0,1,1.77-.75q1.3,0,1.62,1.8-.84,10.38-.84,13.14a25.57,25.57,0,0,0,2.58,11.7,18.84,18.84,0,0,0,4,5.61,6.88,6.88,0,0,0,4.65,2.25c2.51,0,4.68-2,6.48-5.88q1.13-2,1.26-6.54a7.32,7.32,0,0,1,.12-1.68l.12-7.92a56.73,56.73,0,0,0-.84-10.08A3.22,3.22,0,0,1,764.3,648.81Z"/><path class="cls-2" d="M791.47,648.57a29.28,29.28,0,0,1,8.88,1.56,2.35,2.35,0,0,1,1.08,1.83,2.16,2.16,0,0,1-1,1.74,3.63,3.63,0,0,1-2.25.75,24.22,24.22,0,0,0-6.06-.84q-6.48,0-9.84,3.84t-3.36,11.4q0,7.56,4,11.82a6.38,6.38,0,0,0,4.86,2.22q2.82,0,9-3a9,9,0,0,1,2.88-1q1.56,0,1.56,1.62a3.22,3.22,0,0,1-1.5,2.7,56.27,56.27,0,0,1-8,3.63,16.6,16.6,0,0,1-5,.93,9.87,9.87,0,0,1-7.38-3.18q-5.46-5.88-5.46-16.05T779,653.46A17.52,17.52,0,0,1,791.47,648.57Z"/><path class="cls-2" d="M806.83,648.87l24.3-.36q1.74.54,1.74,1.74,0,3-2.46,3-4.5,0-9.54.24-.3,5.16-.3,7.77v3.33l.24,21.06q0,1.86-1,2.16a5.77,5.77,0,0,1-1.8.24q-1.74,0-1.92-2-.36-4.62-.36-17.25t.36-15.21q-1.26.06-3.72.06t-6.12-.06a1.91,1.91,0,0,1-1.5-.6,2.12,2.12,0,0,1-.54-1.47,2.57,2.57,0,0,1,.75-1.71A2.8,2.8,0,0,1,806.83,648.87Z"/><path class="cls-2" d="M838.24,649.65a3.84,3.84,0,0,1,2.13-.6q1.2,0,1.5,1.38.06,7,.24,20.82,0,8.46-.48,14.34a2.35,2.35,0,0,1-1.11,1.59,3.49,3.49,0,0,1-2,.69,1.51,1.51,0,0,1-1.68-1.74q.6-6,.6-14.88l-.36-20.16A2.58,2.58,0,0,1,838.24,649.65Z"/><path class="cls-2" d="M864.73,647.91a10.18,10.18,0,0,1,7.14,2.7q5.76,5.16,5.76,16.29t-6.36,17.49a11.91,11.91,0,0,1-7.62,3.48,10.82,10.82,0,0,1-8.88-3.9,23.82,23.82,0,0,1-4.53-8.73,34.61,34.61,0,0,1-1.35-9.33q0-7.68,3.66-12.66Q856.39,647.91,864.73,647.91Zm-.42,5q-8,0-10,7.62a18.91,18.91,0,0,0-.6,5.22,27.34,27.34,0,0,0,1.2,7.38q1.62,5.64,4.8,7.92a7.13,7.13,0,0,0,4.5,1.44,6.23,6.23,0,0,0,4.74-2.37,13,13,0,0,0,2.88-6,35.31,35.31,0,0,0,.78-7.38q0-6.6-1.89-10.2A6.63,6.63,0,0,0,864.31,652.89Z"/><path class="cls-2" d="M906.67,648.09a2.37,2.37,0,0,1,1.74.81,2.64,2.64,0,0,1,.78,1.89q0,23.46.21,28.35t.21,5a4.67,4.67,0,0,1-.72,2.49q-.72,1.17-1.59,1.17a7.23,7.23,0,0,1-1.32-.09,6.77,6.77,0,0,1-.81-.21,1.89,1.89,0,0,1-.72-.48l-.6-.6a4.74,4.74,0,0,1-.63-.93l-.63-1.11q-.24-.42-.75-1.47t-2.22-4.29q-1.71-3.24-3.09-5.82a92.9,92.9,0,0,0-8.82-13.74q0,19.5-1.08,27.06-.18,1.44-2.22,1.44a2.55,2.55,0,0,1-1.59-.48,1.84,1.84,0,0,1-.63-1.56q0-1.08.45-11.88t.45-13.47v-3.39q0-4.32.66-4.86a2.15,2.15,0,0,1,1.38-.54q3.3,0,10.08,10.8,1.32,2.1,5,8.79t4.44,8.25l-.72-24.9q0-5.16,1.14-5.88A3,3,0,0,1,906.67,648.09Z"/><path class="cls-2" d="M927.61,648.09a15.13,15.13,0,0,1,6.63,1.32q2.73,1.32,2.73,3.36a2.7,2.7,0,0,1-.45,1.56,1.5,1.5,0,0,1-1.32.66,12.39,12.39,0,0,1-3.75-1.35,12.52,12.52,0,0,0-5.25-1.35,9.55,9.55,0,0,0-4.89,1.5q-2.52,1.5-2.52,3.66a4.54,4.54,0,0,0,3.06,4.32,30.86,30.86,0,0,0,6.54,1.83,13.82,13.82,0,0,1,7,3.3q2.7,2.49,2.7,7.53,0,7.68-4.62,11.34-2.58,2-7.29,2a19.29,19.29,0,0,1-9.39-2.58q-3.06-1.62-3.06-3.24a2.35,2.35,0,0,1,.51-1.32,4,4,0,0,1,1.41-1.2,1.82,1.82,0,0,1,1.65-.15q.75.33,2.43,1.17t2.46,1.14a13.35,13.35,0,0,0,4.74,1,6,6,0,0,0,4.29-2.19,7.52,7.52,0,0,0,2.07-5.37q0-4.2-4.2-5.88a21,21,0,0,0-4.62-1.26q-5.34-1-8-3.21t-2.7-6.81a8.19,8.19,0,0,1,3.9-7.17A17.67,17.67,0,0,1,927.61,648.09Z"/><path class="cls-20" d="M617.5,651.52a3.84,3.84,0,0,1,2.13-.6q1.2,0,1.5,1.38.06,7,.25,20.82c0,5.64-.17,10.42-.48,14.34a2.38,2.38,0,0,1-1.11,1.59,3.51,3.51,0,0,1-2,.69,1.52,1.52,0,0,1-1.69-1.74q.6-6,.61-14.88L616.33,653A2.58,2.58,0,0,1,617.5,651.52Z"/><path class="cls-20" d="M652.58,650a2.37,2.37,0,0,1,1.73.81,2.64,2.64,0,0,1,.78,1.89q0,23.46.21,28.35t.21,5a4.67,4.67,0,0,1-.72,2.49c-.48.78-1,1.17-1.58,1.17a7.28,7.28,0,0,1-1.33-.09,6.13,6.13,0,0,1-.8-.21,1.85,1.85,0,0,1-.73-.48l-.6-.6a4.74,4.74,0,0,1-.63-.93c-.26-.46-.47-.83-.62-1.11s-.42-.77-.75-1.47-1.08-2.13-2.23-4.29-2.17-4.1-3.09-5.82a93.77,93.77,0,0,0-8.81-13.74q0,19.5-1.08,27.06c-.12,1-.87,1.44-2.23,1.44a2.55,2.55,0,0,1-1.59-.48,1.84,1.84,0,0,1-.63-1.56c0-.72.16-4.68.45-11.88s.46-11.69.46-13.47v-3.39c0-2.88.21-4.5.65-4.86a2.16,2.16,0,0,1,1.39-.54q3.29,0,10.08,10.8,1.3,2.1,5,8.79c2.48,4.46,4,7.21,4.44,8.25l-.71-24.9c0-3.44.37-5.4,1.13-5.88A3,3,0,0,1,652.58,650Z"/><path class="cls-20" d="M673.51,650a15.13,15.13,0,0,1,6.63,1.32c1.82.88,2.74,2,2.74,3.36a2.71,2.71,0,0,1-.46,1.56,1.5,1.5,0,0,1-1.32.66,12.39,12.39,0,0,1-3.75-1.35,12.52,12.52,0,0,0-5.25-1.35,9.55,9.55,0,0,0-4.89,1.5c-1.67,1-2.52,2.22-2.52,3.66a4.54,4.54,0,0,0,3.06,4.32,30.86,30.86,0,0,0,6.54,1.83,13.78,13.78,0,0,1,7,3.3c1.8,1.66,2.71,4.17,2.71,7.53q0,7.68-4.63,11.34-2.58,2-7.29,2a19.29,19.29,0,0,1-9.39-2.58q-3.06-1.62-3.06-3.24a2.35,2.35,0,0,1,.51-1.32,4.07,4.07,0,0,1,1.41-1.2,1.84,1.84,0,0,1,1.66-.15c.49.22,1.3.61,2.42,1.17s1.94.94,2.46,1.14a13.35,13.35,0,0,0,4.74,1,5.94,5.94,0,0,0,4.29-2.19,7.52,7.52,0,0,0,2.07-5.37q0-4.2-4.19-5.88a21.23,21.23,0,0,0-4.63-1.26q-5.34-1-8-3.21c-1.79-1.5-2.7-3.77-2.7-6.81a8.18,8.18,0,0,1,3.91-7.17A17.62,17.62,0,0,1,673.51,650Z"/><path class="cls-20" d="M687.73,650.74l24.31-.36c1.15.36,1.73.94,1.73,1.74q0,3-2.46,3-4.5,0-9.54.24-.3,5.16-.3,7.77v3.33l.24,21.06q0,1.86-1,2.16a5.74,5.74,0,0,1-1.79.24q-1.76,0-1.92-2-.37-4.62-.37-17.25t.37-15.21c-.85,0-2.09.06-3.73.06s-3.68,0-6.12-.06a1.91,1.91,0,0,1-1.5-.6,2.12,2.12,0,0,1-.54-1.47,2.57,2.57,0,0,1,.75-1.71A2.8,2.8,0,0,1,687.73,650.74Z"/><path class="cls-20" d="M719.35,689.05a3,3,0,0,1-2.07.87q-1.11,0-1.53-1.44-.18-7.92-.18-15.78l-.18-15.12a6.19,6.19,0,0,1,4-6.24,18.14,18.14,0,0,1,7.68-1.5A12.54,12.54,0,0,1,732,651a14.28,14.28,0,0,1,4.68,3.24,6.53,6.53,0,0,1,2.07,4.62,8.77,8.77,0,0,1-2.28,5.34,23.74,23.74,0,0,1-5.64,5,29.36,29.36,0,0,1-6.54,3.27,60.11,60.11,0,0,1,9.72,8.37q4.14,4.47,4.14,6.93a2,2,0,0,1-.78,1.47,2.75,2.75,0,0,1-1.89.69,2.36,2.36,0,0,1-1.89-1,20.56,20.56,0,0,0-5-6.69,58.6,58.6,0,0,0-8.61-6.69l.36,11.52A2.59,2.59,0,0,1,719.35,689.05Zm9.75-23.31q5-3.18,5-5.73a4.3,4.3,0,0,0-2.52-3.93,12.25,12.25,0,0,0-6-1.38,14.72,14.72,0,0,0-5.49.84q-.06,3.06-.06,13.56Q724.09,668.92,729.1,665.74Z"/><path class="cls-20" d="M766.39,650.68a2.45,2.45,0,0,1,1.86-1,2.09,2.09,0,0,1,1.74,1,61.26,61.26,0,0,1,1,11.7V667a53.61,53.61,0,0,1-.18,6.09q-.18.93-.36,2.07t-.33,1.74q-.15.6-.45,1.62a13.89,13.89,0,0,1-1.86,4,14.13,14.13,0,0,1-4.74,5.28,10.81,10.81,0,0,1-6,1.92,10,10,0,0,1-6.24-2.64,20.68,20.68,0,0,1-5.25-6.6,30.62,30.62,0,0,1-3.12-14.1q0-2.82.84-13.38a4.78,4.78,0,0,1,1.29-1.71,2.71,2.71,0,0,1,1.77-.75q1.32,0,1.62,1.8-.84,10.38-.84,13.14a25.57,25.57,0,0,0,2.58,11.7,19,19,0,0,0,4,5.61,6.9,6.9,0,0,0,4.65,2.25q3.78,0,6.48-5.88,1.14-2,1.26-6.54a8,8,0,0,1,.12-1.68l.12-7.92a55.8,55.8,0,0,0-.84-10.08A3.27,3.27,0,0,1,766.39,650.68Z"/><path class="cls-20" d="M793.57,650.44a29.28,29.28,0,0,1,8.88,1.56,2.35,2.35,0,0,1,1.08,1.83,2.16,2.16,0,0,1-1,1.74,3.63,3.63,0,0,1-2.25.75,24.22,24.22,0,0,0-6.06-.84q-6.48,0-9.84,3.84T781,670.72q0,7.56,4,11.82a6.38,6.38,0,0,0,4.86,2.22q2.82,0,9-3a9,9,0,0,1,2.88-1q1.56,0,1.56,1.62a3.22,3.22,0,0,1-1.5,2.7,56.27,56.27,0,0,1-8,3.63,16.6,16.6,0,0,1-5,.93,9.87,9.87,0,0,1-7.38-3.18q-5.46-5.88-5.46-16.05t5.19-15.06A17.52,17.52,0,0,1,793.57,650.44Z"/><path class="cls-20" d="M808.93,650.74l24.3-.36q1.74.54,1.74,1.74,0,3-2.46,3-4.5,0-9.54.24-.3,5.16-.3,7.77v3.33l.24,21.06q0,1.86-1,2.16a5.77,5.77,0,0,1-1.8.24q-1.74,0-1.92-2-.36-4.62-.36-17.25t.36-15.21q-1.26.06-3.72.06t-6.12-.06a1.91,1.91,0,0,1-1.5-.6,2.12,2.12,0,0,1-.54-1.47,2.57,2.57,0,0,1,.75-1.71A2.8,2.8,0,0,1,808.93,650.74Z"/><path class="cls-20" d="M840.34,651.52a3.84,3.84,0,0,1,2.13-.6q1.2,0,1.5,1.38.06,7,.24,20.82,0,8.46-.48,14.34a2.35,2.35,0,0,1-1.11,1.59,3.49,3.49,0,0,1-2,.69,1.51,1.51,0,0,1-1.68-1.74q.6-6,.6-14.88L839.17,653A2.58,2.58,0,0,1,840.34,651.52Z"/><path class="cls-20" d="M866.83,649.78a10.18,10.18,0,0,1,7.14,2.7q5.76,5.16,5.76,16.29t-6.36,17.49a11.91,11.91,0,0,1-7.62,3.48,10.82,10.82,0,0,1-8.88-3.9,23.82,23.82,0,0,1-4.53-8.73,34.61,34.61,0,0,1-1.35-9.33q0-7.68,3.66-12.66Q858.49,649.78,866.83,649.78Zm-.42,5q-8,0-10,7.62a18.91,18.91,0,0,0-.6,5.22A27.34,27.34,0,0,0,857,675q1.62,5.64,4.8,7.92a7.13,7.13,0,0,0,4.5,1.44A6.23,6.23,0,0,0,871,682a13,13,0,0,0,2.88-6,35.31,35.31,0,0,0,.78-7.38q0-6.6-1.89-10.2A6.63,6.63,0,0,0,866.41,654.76Z"/><path class="cls-20" d="M908.77,650a2.37,2.37,0,0,1,1.74.81,2.64,2.64,0,0,1,.78,1.89q0,23.46.21,28.35t.21,5a4.67,4.67,0,0,1-.72,2.49q-.72,1.17-1.59,1.17a7.23,7.23,0,0,1-1.32-.09,6.77,6.77,0,0,1-.81-.21,1.89,1.89,0,0,1-.72-.48l-.6-.6a4.74,4.74,0,0,1-.63-.93l-.63-1.11q-.24-.42-.75-1.47t-2.22-4.29q-1.71-3.24-3.09-5.82a92.9,92.9,0,0,0-8.82-13.74q0,19.5-1.08,27.06-.18,1.44-2.22,1.44a2.55,2.55,0,0,1-1.59-.48,1.84,1.84,0,0,1-.63-1.56q0-1.08.45-11.88t.45-13.47v-3.39q0-4.32.66-4.86a2.15,2.15,0,0,1,1.38-.54q3.3,0,10.08,10.8,1.32,2.1,5,8.79t4.44,8.25l-.72-24.9q0-5.16,1.14-5.88A3,3,0,0,1,908.77,650Z"/><path class="cls-20" d="M929.71,650a15.13,15.13,0,0,1,6.63,1.32q2.73,1.32,2.73,3.36a2.7,2.7,0,0,1-.45,1.56,1.5,1.5,0,0,1-1.32.66,12.39,12.39,0,0,1-3.75-1.35,12.52,12.52,0,0,0-5.25-1.35,9.55,9.55,0,0,0-4.89,1.5q-2.52,1.5-2.52,3.66a4.54,4.54,0,0,0,3.06,4.32,30.86,30.86,0,0,0,6.54,1.83,13.82,13.82,0,0,1,7,3.3q2.7,2.49,2.7,7.53,0,7.68-4.62,11.34-2.58,2-7.29,2a19.29,19.29,0,0,1-9.39-2.58q-3.06-1.62-3.06-3.24a2.35,2.35,0,0,1,.51-1.32,4,4,0,0,1,1.41-1.2,1.82,1.82,0,0,1,1.65-.15q.75.33,2.43,1.17t2.46,1.14a13.35,13.35,0,0,0,4.74,1,6,6,0,0,0,4.29-2.19,7.52,7.52,0,0,0,2.07-5.37q0-4.2-4.2-5.88a21,21,0,0,0-4.62-1.26q-5.34-1-8-3.21t-2.7-6.81a8.19,8.19,0,0,1,3.9-7.17A17.67,17.67,0,0,1,929.71,650Z"/><path class="cls-58" d="M282,818.12c-3.58-6.79-5.59-13.26-1.73-18.51,1.56-1.81,3.59-2.3,6.1-1.44a3.15,3.15,0,0,1,1.63,2,4.88,4.88,0,0,1,3.35-.63c2.91,1.08,3.52,2.76,3.77,4.54.45,6.11-4.15,10.69-10.78,14.67Z"/><path class="cls-59" d="M284.35,819.61c4.23-6.4,8.94-11.27,15.4-10.42q3.51.75,4.2,4.66a3.16,3.16,0,0,1-1,2.41,4.86,4.86,0,0,1,2.17,2.63c.45,3.08-.74,4.42-2.17,5.5-5.14,3.33-11.38,1.49-18.05-2.41Z"/><path class="cls-60" d="M280.39,820.86c-7.67-.08-14.32-1.38-17.11-7.27a5.18,5.18,0,0,1,1.63-6.05,3.15,3.15,0,0,1,2.58-.47,4.88,4.88,0,0,1,1-3.25c2.34-2.05,4.11-1.78,5.8-1.16,5.59,2.5,7.43,8.74,7.78,16.46Z"/><path class="cls-61" d="M283.1,822.37c-2.15,7.36-5.2,13.41-11.62,14.51-2.39.22-4.18-.85-5.39-3.2a3.17,3.17,0,0,1,.24-2.61,4.85,4.85,0,0,1-2.84-1.86c-1.35-2.81-.61-4.44.44-5.89,3.92-4.71,10.42-4.81,17.94-3.06Z"/><path class="cls-62" d="M284.05,821.12c7.25,2.53,13.13,5.89,13.89,12.36.09,2.39-1.06,4.13-3.48,5.21a3.12,3.12,0,0,1-2.59-.38,4.85,4.85,0,0,1-2,2.75c-2.87,1.2-4.46.38-5.86-.75-4.5-4.16-4.25-10.65-2.11-18.08Z"/><ellipse class="cls-63" cx="282.57" cy="819.45" rx="3.48" ry="3.41" transform="matrix(0.48, -0.88, 0.88, 0.48, -571.99, 674.32)"/><circle class="cls-64" cx="282.79" cy="819.08" r="5.98"/><path class="cls-65" d="M307.1,846.79c.44-4.46,1.54-8.25,5.1-9.57a3,3,0,0,1,3.44,1.26,1.86,1.86,0,0,1,.14,1.52,2.85,2.85,0,0,1,1.83.76,3,3,0,0,1,.38,3.42c-1.74,3.12-5.46,3.88-10,3.68Z"/><path class="cls-66" d="M307.77,848.27c4.12-1.76,8-2.62,10.85-.13a3,3,0,0,1,.54,3.62,1.84,1.84,0,0,1-1.26.85,2.85,2.85,0,0,1,.21,2,2.94,2.94,0,0,1-2.82,2c-3.57,0-6-2.92-8-7Z"/><path class="cls-67" d="M305.44,847.61c-3.71-2.5-6.52-5.27-6-9a3,3,0,0,1,2.74-2.42,1.82,1.82,0,0,1,1.4.6,2.83,2.83,0,0,1,1.54-1.25,3,3,0,0,1,3.2,1.29c1.91,3,.81,6.64-1.5,10.51Z"/><path class="cls-68" d="M306.28,849.21c-3.41,2.9-6.84,4.86-10.32,3.34a3,3,0,0,1-1.59-3.29,1.81,1.81,0,0,1,.95-1.19,2.9,2.9,0,0,1-.79-1.83,3,3,0,0,1,2.11-2.72c3.42-1,6.62,1,9.72,4.27Z"/><path class="cls-69" d="M307.14,848.91c2.72,3.55,4.5,7.08,2.8,10.48a3,3,0,0,1-3.37,1.42,1.87,1.87,0,0,1-1.14-1,2.81,2.81,0,0,1-1.86.69,2.94,2.94,0,0,1-2.61-2.25c-.86-3.46,1.35-6.55,4.77-9.48Z"/><ellipse class="cls-70" cx="306.96" cy="847.62" rx="2.03" ry="1.99" transform="translate(-361.27 242.52) rotate(-27.93)"/><circle class="cls-71" cx="307.18" cy="847.51" r="3.49"/><path class="cls-72" d="M123.2,783.7c-1.47-2.79-2.29-5.45-.71-7.61a2.14,2.14,0,0,1,2.51-.59,1.32,1.32,0,0,1,.67.84,2,2,0,0,1,1.37-.26,2.07,2.07,0,0,1,1.55,1.87c.19,2.51-1.71,4.39-4.43,6Z"/><path class="cls-73" d="M124.17,784.31c1.74-2.63,3.67-4.63,6.33-4.28a2.12,2.12,0,0,1,1.72,1.91,1.31,1.31,0,0,1-.41,1,2,2,0,0,1,.89,1.07,2.08,2.08,0,0,1-.89,2.26c-2.12,1.37-4.68.62-7.42-1Z"/><path class="cls-74" d="M122.55,784.82c-3.16,0-5.89-.56-7-3a2.13,2.13,0,0,1,.67-2.49,1.26,1.26,0,0,1,1-.19,2,2,0,0,1,.43-1.33,2.06,2.06,0,0,1,2.38-.48c2.29,1,3,3.59,3.19,6.76Z"/><path class="cls-75" d="M123.66,785.44c-.89,3-2.14,5.51-4.78,6a2.12,2.12,0,0,1-2.21-1.31,1.27,1.27,0,0,1,.1-1.07,2,2,0,0,1-1.17-.77,2.08,2.08,0,0,1,.18-2.42c1.61-1.93,4.28-2,7.37-1.25Z"/><path class="cls-76" d="M124.05,784.93c3,1,5.39,2.42,5.7,5.08a2.12,2.12,0,0,1-1.43,2.14,1.29,1.29,0,0,1-1.06-.16,1.94,1.94,0,0,1-.83,1.13,2.05,2.05,0,0,1-2.4-.31c-1.85-1.71-1.75-4.37-.87-7.42Z"/><ellipse class="cls-77" cx="123.44" cy="784.24" rx="1.43" ry="1.4" transform="translate(-623.9 516.37) rotate(-61.34)"/><circle class="cls-78" cx="123.53" cy="784.09" r="2.46"/><path class="cls-79" d="M140.88,811.3c3.46-6.86,7.55-12.25,14.07-12.16,2.39.22,4,1.59,4.72,4.13a3.15,3.15,0,0,1-.72,2.52,4.79,4.79,0,0,1,2.46,2.35c.82,3-.2,4.47-1.5,5.71-4.71,3.92-11.12,2.83-18.21-.26Z"/><path class="cls-80" d="M141.05,814.08c7.67-.27,14.37.74,17.42,6.49q1.44,3.3-1.35,6.12a3.14,3.14,0,0,1-2.55.59,4.86,4.86,0,0,1-.88,3.28c-2.24,2.16-4,2-5.74,1.43-5.69-2.25-7.82-8.39-8.52-16.09Z"/><path class="cls-81" d="M137.73,811.59c-4.39-6.29-7.19-12.46-4-18.15,1.33-2,3.28-2.73,5.87-2.19a3.16,3.16,0,0,1,1.88,1.82,4.87,4.87,0,0,1,3.24-1c3,.71,3.84,2.3,4.31,4,1.21,6-2.79,11.12-8.88,15.89Z"/><path class="cls-82" d="M138.08,814.67c-7.25,2.53-13.94,3.56-18.57-1-1.56-1.82-1.74-3.9-.52-6.25a3.12,3.12,0,0,1,2.26-1.31,4.89,4.89,0,0,1-.14-3.4c1.51-2.73,3.26-3.08,5.06-3.07,6.11.46,10,5.7,12.91,12.84Z"/><path class="cls-83" d="M139.65,814.72c2.14,7.36,2.83,14.1-2,18.48q-2.84,2.2-6.26.2a3.14,3.14,0,0,1-1.2-2.33,4.84,4.84,0,0,1-3.4,0c-2.65-1.64-2.9-3.41-2.8-5.21.78-6.07,6.2-9.65,13.49-12.22Z"/><ellipse class="cls-84" cx="140.15" cy="812.54" rx="3.48" ry="3.41" transform="translate(-95.84 22.49) rotate(-6.84)"/><circle class="cls-85" cx="140.57" cy="812.51" r="5.98"/></g></svg>