<svg xmlns="http://www.w3.org/2000/svg" width="252" height="75" viewBox="0 0 252 75"><defs><style>.cls-1{fill:#ccc07a;}</style></defs><g id="Layer_8" data-name="Layer 8"><path class="cls-1" d="M35.38,36.15C26.37,27,20,17.61,23.64,7.32q2.45-5.51,9.08-5.27a5.28,5.28,0,0,1,3.61,2.49,8.17,8.17,0,0,1,5.05-2.65c5.2.32,7,2.73,8.26,5.46,3.68,9.57-1.48,19.15-10.18,28.73Z"/><path class="cls-1" d="M39.89,37.38C43.58,25.08,48.76,15,59.53,13.23q6-.51,9,5.43A5.28,5.28,0,0,1,68.07,23a8.12,8.12,0,0,1,4.74,3.16c2.22,4.71,1,7.43-.81,9.86-6.62,7.83-17.51,7.9-30.09,4.88Z"/><path class="cls-1" d="M34.16,41.32C21.82,44.91,10.54,46,3.2,38Q-.48,33.2,2.89,27.46a5.27,5.27,0,0,1,3.9-2,8.17,8.17,0,0,1,.07-5.69c2.75-4.43,5.72-4.86,8.72-4.68C25.76,16.4,31.73,25.49,36,37.7Z"/><path class="cls-1" d="M39.23,42.41c.12,12.85-1.83,24-11.6,28.9q-5.56,2.26-10.18-2.52a5.3,5.3,0,0,1-.88-4.3,8.14,8.14,0,0,1-5.46-1.6C7.59,59,8,56.07,9,53.23c4-9.45,14.37-12.75,27.28-13.59Z"/><path class="cls-1" d="M40.14,40C53,40.49,64,43,68.4,53q2,5.69-3.05,10a5.28,5.28,0,0,1-4.34.65,8.14,8.14,0,0,1-1.89,5.38c-4,3.31-7,2.77-9.76,1.64-9.22-4.49-12-15-12.15-28Z"/><ellipse class="cls-1" cx="36.97" cy="37.99" rx="5.82" ry="5.7" transform="translate(-7.8 66.38) rotate(-78.16)"/><circle class="cls-1" cx="37.14" cy="37.3" r="10.02"/><path class="cls-1" d="M122,36.15C113,27,106.65,17.61,110.28,7.32q2.44-5.51,9.08-5.27A5.28,5.28,0,0,1,123,4.54,8.17,8.17,0,0,1,128,1.89c5.2.32,7,2.73,8.26,5.46C140,16.92,134.8,26.5,126.1,36.08Z"/><path class="cls-1" d="M126.53,37.38c3.69-12.3,8.87-22.39,19.64-24.15q6-.51,9,5.43a5.25,5.25,0,0,1-.44,4.36,8.12,8.12,0,0,1,4.74,3.16c2.22,4.71,1,7.43-.81,9.86-6.62,7.83-17.5,7.9-30.09,4.88Z"/><path class="cls-1" d="M120.8,41.32C108.46,44.91,97.18,46,89.85,38q-3.69-4.76-.32-10.49a5.28,5.28,0,0,1,3.9-2,8.17,8.17,0,0,1,.07-5.69c2.75-4.43,5.72-4.86,8.72-4.68,10.18,1.31,16.15,10.4,20.45,22.61Z"/><path class="cls-1" d="M125.87,42.41c.12,12.85-1.83,24-11.6,28.9q-5.56,2.26-10.18-2.52a5.3,5.3,0,0,1-.88-4.3,8.14,8.14,0,0,1-5.46-1.6c-3.52-3.85-3.13-6.82-2.15-9.66,4-9.45,14.37-12.75,27.28-13.59Z"/><path class="cls-1" d="M126.78,40C139.62,40.49,150.68,43,155,53q2,5.69-3,10a5.28,5.28,0,0,1-4.34.65,8.14,8.14,0,0,1-1.89,5.38c-4,3.31-7,2.77-9.76,1.64-9.22-4.49-12-15-12.15-28Z"/><ellipse class="cls-1" cx="123.61" cy="37.99" rx="5.82" ry="5.7" transform="translate(61.07 151.17) rotate(-78.16)"/><circle class="cls-1" cx="123.78" cy="37.3" r="10.02"/><path class="cls-1" d="M210.19,36.36c-9-9.16-15.38-18.55-11.75-28.84q2.44-5.49,9.08-5.27a5.3,5.3,0,0,1,3.62,2.49,8.08,8.08,0,0,1,5-2.64c5.21.31,7,2.72,8.26,5.45,3.68,9.57-1.48,19.15-10.18,28.73Z"/><path class="cls-1" d="M214.69,37.59c3.69-12.31,8.87-22.4,19.64-24.16q6-.51,9,5.43a5.25,5.25,0,0,1-.44,4.36,8.17,8.17,0,0,1,4.75,3.16c2.22,4.71,1,7.44-.82,9.86-6.62,7.83-17.5,7.91-30.08,4.88Z"/><path class="cls-1" d="M209,41.52c-12.34,3.59-23.62,4.72-31-3.37q-3.67-4.76-.32-10.49a5.3,5.3,0,0,1,3.9-2,8.11,8.11,0,0,1,.08-5.69c2.75-4.43,5.72-4.86,8.72-4.68,10.17,1.31,16.14,10.4,20.44,22.61Z"/><path class="cls-1" d="M214,42.62c.13,12.84-1.83,24-11.59,28.89q-5.58,2.26-10.19-2.52a5.25,5.25,0,0,1-.87-4.29,8.15,8.15,0,0,1-5.47-1.61c-3.52-3.85-3.13-6.82-2.15-9.66,4-9.45,14.37-12.75,27.29-13.59Z"/><path class="cls-1" d="M215,40.15c12.83.54,23.89,3.08,28.25,13.08q2,5.69-3,10a5.25,5.25,0,0,1-4.33.65,8.15,8.15,0,0,1-1.9,5.38c-4,3.31-7,2.77-9.75,1.64-9.23-4.49-12-15-12.15-28Z"/><ellipse class="cls-1" cx="211.77" cy="38.19" rx="5.82" ry="5.7" transform="translate(130.95 237.62) rotate(-78.16)"/><circle class="cls-1" cx="211.94" cy="37.5" r="10.02"/></g></svg>