<svg xmlns="http://www.w3.org/2000/svg" xmlns:xlink="http://www.w3.org/1999/xlink" width="252" height="75" viewBox="0 0 252 75"><defs><style>.cls-1{fill:url(#linear-gradient);}.cls-2{fill:url(#linear-gradient-2);}.cls-3{fill:url(#linear-gradient-3);}.cls-4{fill:url(#linear-gradient-4);}.cls-5{fill:url(#linear-gradient-5);}.cls-6{fill:url(#linear-gradient-6);}.cls-7{fill:url(#radial-gradient);}.cls-8{fill:#ccc07a;}</style><linearGradient id="linear-gradient" x1="46.78" y1="27.83" x2="46.69" y2="2.96" gradientTransform="matrix(1, -0.02, 0.02, 1, -9.83, 7.01)" gradientUnits="userSpaceOnUse"><stop offset="0" stop-color="#932611"/><stop offset="0.62" stop-color="#ae3b1b"/><stop offset="1" stop-color="#c04a22"/></linearGradient><linearGradient id="linear-gradient-2" x1="53.01" y1="33.93" x2="72.69" y2="20.05" xlink:href="#linear-gradient"/><linearGradient id="linear-gradient-3" x1="41.95" y1="32.28" x2="22.09" y2="21.39" xlink:href="#linear-gradient"/><linearGradient id="linear-gradient-4" x1="43.87" y1="35.82" x2="30.52" y2="52.78" xlink:href="#linear-gradient"/><linearGradient id="linear-gradient-5" x1="52.26" y1="42.31" x2="67.9" y2="54.79" xlink:href="#linear-gradient"/><linearGradient id="linear-gradient-6" x1="70.62" y1="33.53" x2="82.03" y2="33.53" gradientTransform="translate(70.77 -38.42) rotate(90)" gradientUnits="userSpaceOnUse"><stop offset="0" stop-color="#932611"/><stop offset="0.53" stop-color="#952712"/><stop offset="0.72" stop-color="#9c2d14"/><stop offset="0.85" stop-color="#a73619"/><stop offset="0.96" stop-color="#b8441f"/><stop offset="1" stop-color="#c04a22"/></linearGradient><radialGradient id="radial-gradient" cx="76.36" cy="32.82" r="10.02" gradientTransform="translate(-30.58 -10.57) rotate(11.84)" gradientUnits="userSpaceOnUse"><stop offset="0" stop-color="#fff800"/><stop offset="0.15" stop-color="#fff800" stop-opacity="0.99"/><stop offset="0.28" stop-color="#fff700" stop-opacity="0.95"/><stop offset="0.4" stop-color="#fff600" stop-opacity="0.88"/><stop offset="0.52" stop-color="#fff500" stop-opacity="0.78"/><stop offset="0.63" stop-color="#fff300" stop-opacity="0.65"/><stop offset="0.74" stop-color="#fff100" stop-opacity="0.5"/><stop offset="0.85" stop-color="#fe0" stop-opacity="0.32"/><stop offset="0.95" stop-color="#ffeb00" stop-opacity="0.11"/><stop offset="1" stop-color="#ffe900" stop-opacity="0"/></radialGradient></defs><g id="Layer_8" data-name="Layer 8"><path class="cls-1" d="M35.67,36.07c-9-9.15-15.38-18.54-11.75-28.84Q26.37,1.74,33,2a5.27,5.27,0,0,1,3.61,2.48,8.23,8.23,0,0,1,5-2.64c5.2.32,7,2.73,8.26,5.46C53.6,16.84,48.44,26.41,39.74,36Z"/><path class="cls-2" d="M40.17,37.3C43.86,25,49,14.91,59.81,13.14q6-.5,9,5.43a5.24,5.24,0,0,1-.44,4.36,8.16,8.16,0,0,1,4.74,3.16c2.22,4.72,1,7.44-.81,9.86-6.62,7.84-17.5,7.91-30.09,4.89Z"/><path class="cls-3" d="M34.44,41.24C22.1,44.82,10.82,46,3.49,37.87q-3.67-4.75-.32-10.49a5.28,5.28,0,0,1,3.9-2,8.2,8.2,0,0,1,.07-5.7c2.76-4.42,5.72-4.85,8.73-4.67C26,16.31,32,25.41,36.31,37.61Z"/><path class="cls-4" d="M39.51,42.33c.12,12.85-1.83,24-11.59,28.9-3.72,1.5-7.12.67-10.19-2.52a5.27,5.27,0,0,1-.87-4.3,8.15,8.15,0,0,1-5.47-1.61C7.87,59,8.26,56,9.24,53.14c4-9.44,14.37-12.74,27.28-13.59Z"/><path class="cls-5" d="M40.43,39.87c12.83.54,23.89,3.07,28.25,13.08q2,5.69-3.05,10a5.27,5.27,0,0,1-4.34.65A8.07,8.07,0,0,1,59.4,69c-4,3.32-7,2.77-9.75,1.64-9.23-4.48-12-15-12.15-27.95Z"/><ellipse class="cls-6" cx="37.25" cy="37.9" rx="5.82" ry="5.7" transform="translate(-7.49 66.59) rotate(-78.16)"/><circle class="cls-7" cx="37.42" cy="37.22" r="10.02"/><path class="cls-8" d="M122.31,36.07c-9-9.15-15.38-18.54-11.75-28.84Q113,1.74,119.64,2a5.31,5.31,0,0,1,3.62,2.48,8.18,8.18,0,0,1,5-2.64c5.2.32,7,2.73,8.26,5.46,3.68,9.57-1.48,19.14-10.18,28.73Z"/><path class="cls-8" d="M126.81,37.3c3.69-12.31,8.87-22.39,19.64-24.16q6-.5,9,5.43a5.24,5.24,0,0,1-.44,4.36,8.16,8.16,0,0,1,4.74,3.16c2.23,4.72,1,7.44-.81,9.86-6.62,7.84-17.5,7.91-30.09,4.89Z"/><path class="cls-8" d="M121.08,41.24C108.74,44.82,97.46,46,90.13,37.87q-3.67-4.75-.32-10.49a5.28,5.28,0,0,1,3.9-2,8.2,8.2,0,0,1,.07-5.7c2.76-4.42,5.72-4.85,8.73-4.67,10.17,1.3,16.14,10.4,20.44,22.6Z"/><path class="cls-8" d="M126.15,42.33c.12,12.85-1.83,24-11.59,28.9-3.72,1.5-7.12.67-10.19-2.52a5.27,5.27,0,0,1-.87-4.3A8.15,8.15,0,0,1,98,62.8C94.51,59,94.9,56,95.88,53.14c4-9.44,14.37-12.74,27.28-13.59Z"/><path class="cls-8" d="M127.07,39.87C139.9,40.41,151,42.94,155.32,53q2,5.69-3,10a5.25,5.25,0,0,1-4.33.65A8.12,8.12,0,0,1,146,69c-4,3.32-7,2.77-9.75,1.64-9.23-4.48-12-15-12.15-27.95Z"/><ellipse class="cls-8" cx="123.89" cy="37.9" rx="5.82" ry="5.7" transform="translate(61.38 151.38) rotate(-78.16)"/><circle class="cls-8" cx="124.06" cy="37.22" r="10.02"/><path class="cls-8" d="M210.31,36.07c-9-9.15-15.38-18.54-11.75-28.84Q201,1.74,207.64,2a5.31,5.31,0,0,1,3.62,2.48,8.18,8.18,0,0,1,5-2.64c5.2.32,7,2.73,8.26,5.46,3.68,9.57-1.48,19.14-10.18,28.73Z"/><path class="cls-8" d="M214.81,37.3c3.69-12.31,8.87-22.39,19.64-24.16q6-.5,9,5.43a5.24,5.24,0,0,1-.44,4.36,8.16,8.16,0,0,1,4.74,3.16c2.23,4.72,1,7.44-.81,9.86-6.62,7.84-17.5,7.91-30.09,4.89Z"/><path class="cls-8" d="M209.08,41.24c-12.34,3.58-23.62,4.71-31-3.37q-3.67-4.75-.32-10.49a5.28,5.28,0,0,1,3.9-2,8.2,8.2,0,0,1,.07-5.7c2.76-4.42,5.72-4.85,8.73-4.67,10.17,1.3,16.14,10.4,20.44,22.6Z"/><path class="cls-8" d="M214.15,42.33c.12,12.85-1.83,24-11.59,28.9-3.72,1.5-7.12.67-10.19-2.52a5.27,5.27,0,0,1-.87-4.3A8.15,8.15,0,0,1,186,62.8c-3.52-3.84-3.13-6.81-2.15-9.66,4-9.44,14.37-12.74,27.28-13.59Z"/><path class="cls-8" d="M215.07,39.87C227.9,40.41,239,42.94,243.32,53q2,5.69-3,10a5.25,5.25,0,0,1-4.33.65A8.12,8.12,0,0,1,234,69c-4,3.32-7,2.77-9.75,1.64-9.23-4.48-12-15-12.15-27.95Z"/><ellipse class="cls-8" cx="211.89" cy="37.9" rx="5.82" ry="5.7" transform="translate(131.32 237.51) rotate(-78.16)"/><circle class="cls-8" cx="212.06" cy="37.22" r="10.02"/></g></svg>