<svg xmlns="http://www.w3.org/2000/svg" xmlns:xlink="http://www.w3.org/1999/xlink" width="252" height="75" viewBox="0 0 252 75"><defs><style>.cls-1{fill:url(#linear-gradient);}.cls-2{fill:url(#linear-gradient-2);}.cls-3{fill:url(#linear-gradient-3);}.cls-4{fill:url(#linear-gradient-4);}.cls-5{fill:url(#linear-gradient-5);}.cls-6{fill:url(#linear-gradient-6);}.cls-7{fill:url(#radial-gradient);}.cls-8{fill:url(#linear-gradient-7);}.cls-9{fill:url(#linear-gradient-8);}.cls-10{fill:url(#linear-gradient-9);}.cls-11{fill:url(#linear-gradient-10);}.cls-12{fill:url(#linear-gradient-11);}.cls-13{fill:url(#linear-gradient-12);}.cls-14{fill:url(#radial-gradient-2);}.cls-15{fill:url(#linear-gradient-13);}.cls-16{fill:url(#linear-gradient-14);}.cls-17{fill:url(#linear-gradient-15);}.cls-18{fill:url(#linear-gradient-16);}.cls-19{fill:url(#linear-gradient-17);}.cls-20{fill:url(#linear-gradient-18);}.cls-21{fill:url(#radial-gradient-3);}</style><linearGradient id="linear-gradient" x1="49.94" y1="27.94" x2="49.85" y2="3.07" gradientTransform="matrix(1, -0.02, 0.02, 1, -13.27, 7.04)" gradientUnits="userSpaceOnUse"><stop offset="0" stop-color="#932611"/><stop offset="0.62" stop-color="#ae3b1b"/><stop offset="1" stop-color="#c04a22"/></linearGradient><linearGradient id="linear-gradient-2" x1="56.16" y1="34.04" x2="75.84" y2="20.16" xlink:href="#linear-gradient"/><linearGradient id="linear-gradient-3" x1="45.1" y1="32.39" x2="25.25" y2="21.5" xlink:href="#linear-gradient"/><linearGradient id="linear-gradient-4" x1="47.03" y1="35.93" x2="33.67" y2="52.89" xlink:href="#linear-gradient"/><linearGradient id="linear-gradient-5" x1="55.42" y1="42.42" x2="71.06" y2="54.9" xlink:href="#linear-gradient"/><linearGradient id="linear-gradient-6" x1="31.93" y1="37.65" x2="43.34" y2="37.65" gradientTransform="translate(74.62 0.35) rotate(90)" gradientUnits="userSpaceOnUse"><stop offset="0" stop-color="#932611"/><stop offset="0.53" stop-color="#952712"/><stop offset="0.72" stop-color="#9c2d14"/><stop offset="0.85" stop-color="#a73619"/><stop offset="0.96" stop-color="#b8441f"/><stop offset="1" stop-color="#c04a22"/></linearGradient><radialGradient id="radial-gradient" cx="37.66" cy="36.94" r="10.02" gradientTransform="translate(7.85 -6.58) rotate(11.84)" gradientUnits="userSpaceOnUse"><stop offset="0" stop-color="#fff800"/><stop offset="0.15" stop-color="#fff800" stop-opacity="0.99"/><stop offset="0.28" stop-color="#fff700" stop-opacity="0.95"/><stop offset="0.4" stop-color="#fff600" stop-opacity="0.88"/><stop offset="0.52" stop-color="#fff500" stop-opacity="0.78"/><stop offset="0.63" stop-color="#fff300" stop-opacity="0.65"/><stop offset="0.74" stop-color="#fff100" stop-opacity="0.5"/><stop offset="0.85" stop-color="#fe0" stop-opacity="0.32"/><stop offset="0.95" stop-color="#ffeb00" stop-opacity="0.11"/><stop offset="1" stop-color="#ffe900" stop-opacity="0"/></radialGradient><linearGradient id="linear-gradient-7" x1="136.56" y1="29.53" x2="136.47" y2="4.66" xlink:href="#linear-gradient"/><linearGradient id="linear-gradient-8" x1="142.79" y1="35.63" x2="162.47" y2="21.75" xlink:href="#linear-gradient"/><linearGradient id="linear-gradient-9" x1="131.73" y1="33.98" x2="111.87" y2="23.09" xlink:href="#linear-gradient"/><linearGradient id="linear-gradient-10" x1="133.65" y1="37.52" x2="120.3" y2="54.48" xlink:href="#linear-gradient"/><linearGradient id="linear-gradient-11" x1="142.04" y1="44.01" x2="157.68" y2="56.49" xlink:href="#linear-gradient"/><linearGradient id="linear-gradient-12" x1="116.73" y1="19.87" x2="128.14" y2="19.87" gradientTransform="translate(143.48 -84.45) rotate(90)" xlink:href="#linear-gradient-6"/><radialGradient id="radial-gradient-2" cx="122.46" cy="19.17" r="10.02" xlink:href="#radial-gradient"/><linearGradient id="linear-gradient-13" x1="224.55" y1="31.14" x2="224.46" y2="6.28" xlink:href="#linear-gradient"/><linearGradient id="linear-gradient-14" x1="230.78" y1="37.25" x2="250.45" y2="23.37" xlink:href="#linear-gradient"/><linearGradient id="linear-gradient-15" x1="219.71" y1="35.6" x2="199.86" y2="24.7" xlink:href="#linear-gradient"/><linearGradient id="linear-gradient-16" x1="221.64" y1="39.14" x2="208.28" y2="56.1" xlink:href="#linear-gradient"/><linearGradient id="linear-gradient-17" x1="230.03" y1="45.63" x2="245.67" y2="58.1" xlink:href="#linear-gradient"/><linearGradient id="linear-gradient-18" x1="202.86" y1="1.82" x2="214.27" y2="1.82" gradientTransform="translate(213.43 -170.58) rotate(90)" xlink:href="#linear-gradient-6"/><radialGradient id="radial-gradient-3" cx="208.59" cy="1.11" r="10.02" xlink:href="#radial-gradient"/></defs><g id="Layer_8" data-name="Layer 8"><path class="cls-1" d="M35.38,36.15C26.37,27,20,17.61,23.64,7.32q2.45-5.51,9.08-5.27a5.28,5.28,0,0,1,3.61,2.49,8.17,8.17,0,0,1,5.05-2.65c5.2.32,7,2.73,8.26,5.46,3.68,9.57-1.48,19.15-10.18,28.73Z"/><path class="cls-2" d="M39.89,37.38C43.58,25.08,48.76,15,59.53,13.23q6-.51,9,5.43A5.28,5.28,0,0,1,68.07,23a8.12,8.12,0,0,1,4.74,3.16c2.22,4.71,1,7.43-.81,9.86-6.62,7.83-17.51,7.9-30.09,4.88Z"/><path class="cls-3" d="M34.16,41.32C21.82,44.91,10.54,46,3.2,38Q-.48,33.2,2.89,27.46a5.27,5.27,0,0,1,3.9-2,8.17,8.17,0,0,1,.07-5.69c2.75-4.43,5.72-4.86,8.72-4.68C25.76,16.4,31.73,25.49,36,37.7Z"/><path class="cls-4" d="M39.23,42.41c.12,12.85-1.83,24-11.6,28.9q-5.56,2.26-10.18-2.52a5.3,5.3,0,0,1-.88-4.3,8.14,8.14,0,0,1-5.46-1.6C7.59,59,8,56.07,9,53.23c4-9.45,14.37-12.75,27.28-13.59Z"/><path class="cls-5" d="M40.14,40C53,40.49,64,43,68.4,53q2,5.69-3.05,10a5.28,5.28,0,0,1-4.34.65,8.14,8.14,0,0,1-1.89,5.38c-4,3.31-7,2.77-9.76,1.64-9.22-4.49-12-15-12.15-28Z"/><ellipse class="cls-6" cx="36.97" cy="37.99" rx="5.82" ry="5.7" transform="translate(-7.8 66.38) rotate(-78.16)"/><circle class="cls-7" cx="37.14" cy="37.3" r="10.02"/><path class="cls-8" d="M122,36.15C113,27,106.65,17.61,110.28,7.32q2.44-5.51,9.08-5.27A5.28,5.28,0,0,1,123,4.54,8.17,8.17,0,0,1,128,1.89c5.2.32,7,2.73,8.26,5.46C140,16.92,134.8,26.5,126.1,36.08Z"/><path class="cls-9" d="M126.53,37.38c3.69-12.3,8.87-22.39,19.64-24.15q6-.51,9,5.43a5.25,5.25,0,0,1-.44,4.36,8.12,8.12,0,0,1,4.74,3.16c2.22,4.71,1,7.43-.81,9.86-6.62,7.83-17.5,7.9-30.09,4.88Z"/><path class="cls-10" d="M120.8,41.32C108.46,44.91,97.18,46,89.85,38q-3.69-4.76-.32-10.49a5.28,5.28,0,0,1,3.9-2,8.17,8.17,0,0,1,.07-5.69c2.75-4.43,5.72-4.86,8.72-4.68,10.18,1.31,16.15,10.4,20.45,22.61Z"/><path class="cls-11" d="M125.87,42.41c.12,12.85-1.83,24-11.6,28.9q-5.56,2.26-10.18-2.52a5.3,5.3,0,0,1-.88-4.3,8.14,8.14,0,0,1-5.46-1.6c-3.52-3.85-3.13-6.82-2.15-9.66,4-9.45,14.37-12.75,27.28-13.59Z"/><path class="cls-12" d="M126.78,40C139.62,40.49,150.68,43,155,53q2,5.69-3,10a5.28,5.28,0,0,1-4.34.65,8.14,8.14,0,0,1-1.89,5.38c-4,3.31-7,2.77-9.76,1.64-9.22-4.49-12-15-12.15-28Z"/><ellipse class="cls-13" cx="123.61" cy="37.99" rx="5.82" ry="5.7" transform="translate(61.07 151.17) rotate(-78.16)"/><circle class="cls-14" cx="123.78" cy="37.3" r="10.02"/><path class="cls-15" d="M210,36.15C201,27,194.65,17.61,198.28,7.32q2.44-5.51,9.08-5.27A5.28,5.28,0,0,1,211,4.54,8.17,8.17,0,0,1,216,1.89c5.2.32,7,2.73,8.26,5.46C228,16.92,222.8,26.5,214.1,36.08Z"/><path class="cls-16" d="M214.53,37.38c3.69-12.3,8.87-22.39,19.64-24.15q6-.51,9,5.43a5.25,5.25,0,0,1-.44,4.36,8.12,8.12,0,0,1,4.74,3.16c2.22,4.71,1,7.43-.81,9.86-6.62,7.83-17.5,7.9-30.09,4.88Z"/><path class="cls-17" d="M208.8,41.32c-12.34,3.59-23.62,4.72-31-3.37q-3.69-4.76-.32-10.49a5.28,5.28,0,0,1,3.9-2,8.17,8.17,0,0,1,.07-5.69c2.75-4.43,5.72-4.86,8.72-4.68,10.18,1.31,16.15,10.4,20.45,22.61Z"/><path class="cls-18" d="M213.87,42.41c.12,12.85-1.83,24-11.6,28.9q-5.57,2.26-10.18-2.52a5.3,5.3,0,0,1-.88-4.3,8.14,8.14,0,0,1-5.46-1.6c-3.52-3.85-3.13-6.82-2.15-9.66,4-9.45,14.37-12.75,27.28-13.59Z"/><path class="cls-19" d="M214.78,40C227.62,40.49,238.68,43,243,53q2,5.69-3,10a5.28,5.28,0,0,1-4.34.65,8.14,8.14,0,0,1-1.89,5.38c-4,3.31-7,2.77-9.76,1.64-9.22-4.49-12-15-12.15-28Z"/><ellipse class="cls-20" cx="211.61" cy="37.99" rx="5.82" ry="5.7" transform="translate(131.02 237.3) rotate(-78.16)"/><circle class="cls-21" cx="211.78" cy="37.3" r="10.02"/></g></svg>