<svg xmlns="http://www.w3.org/2000/svg" xmlns:xlink="http://www.w3.org/1999/xlink" width="95" height="93" viewBox="0 0 95 93"><defs><style>.cls-1{opacity:0.4;fill:url(#radial-gradient);}.cls-2{fill:url(#linear-gradient);}.cls-3{fill:url(#radial-gradient-2);}.cls-4{fill:url(#linear-gradient-2);}.cls-5{fill:url(#radial-gradient-3);}.cls-6{fill:#fcee21;}</style><radialGradient id="radial-gradient" cx="47.5" cy="46.5" r="42.69" gradientUnits="userSpaceOnUse"><stop offset="0" stop-color="#fff800"/><stop offset="0.16" stop-color="#fff700" stop-opacity="0.99"/><stop offset="0.29" stop-color="#fff400" stop-opacity="0.95"/><stop offset="0.42" stop-color="#fe0" stop-opacity="0.88"/><stop offset="0.54" stop-color="#ffe600" stop-opacity="0.78"/><stop offset="0.66" stop-color="#fd0" stop-opacity="0.66"/><stop offset="0.77" stop-color="#ffd000" stop-opacity="0.5"/><stop offset="0.88" stop-color="#ffc200" stop-opacity="0.32"/><stop offset="0.99" stop-color="#ffb100" stop-opacity="0.12"/><stop offset="1" stop-color="#ffb000" stop-opacity="0.1"/></radialGradient><linearGradient id="linear-gradient" x1="47.41" y1="2638.93" x2="47.62" y2="2586.88" gradientTransform="matrix(1, 0, 0, -1, 0, 2659.33)" gradientUnits="userSpaceOnUse"><stop offset="0" stop-color="#c04a22"/><stop offset="0.62" stop-color="#a53518"/><stop offset="1" stop-color="#932611"/></linearGradient><radialGradient id="radial-gradient-2" cx="30.74" cy="89.78" r="27.81" gradientTransform="translate(16.56 -46.49) scale(1.01 1.04)" gradientUnits="userSpaceOnUse"><stop offset="0.55" stop-color="#fff800"/><stop offset="0.64" stop-color="#fff800" stop-opacity="0.84"/><stop offset="0.85" stop-color="#fff800" stop-opacity="0.42"/><stop offset="1" stop-color="#fff800" stop-opacity="0.1"/></radialGradient><linearGradient id="linear-gradient-2" x1="-2856.92" y1="2633.45" x2="-2856.75" y2="2590.64" gradientTransform="translate(-2809.5 2658.5) rotate(180)" gradientUnits="userSpaceOnUse"><stop offset="0" stop-color="#932611"/><stop offset="0.62" stop-color="#ae3b1b"/><stop offset="1" stop-color="#c04a22"/></linearGradient><radialGradient id="radial-gradient-3" cx="45.43" cy="45.92" r="30.52" gradientUnits="userSpaceOnUse"><stop offset="0" stop-color="#fff800"/><stop offset="0.02" stop-color="#fff800" stop-opacity="0.94"/><stop offset="0.07" stop-color="#fff800" stop-opacity="0.76"/><stop offset="0.14" stop-color="#fff800" stop-opacity="0.6"/><stop offset="0.2" stop-color="#fff800" stop-opacity="0.47"/><stop offset="0.28" stop-color="#fff800" stop-opacity="0.35"/><stop offset="0.36" stop-color="#fff800" stop-opacity="0.26"/><stop offset="0.45" stop-color="#fff800" stop-opacity="0.19"/><stop offset="0.56" stop-color="#fff800" stop-opacity="0.14"/><stop offset="0.7" stop-color="#fff800" stop-opacity="0.11"/><stop offset="1" stop-color="#fff800" stop-opacity="0.1"/></radialGradient></defs><g id="Opening-titles"><circle class="cls-1" cx="47.5" cy="46.5" r="42.69"/><circle class="cls-2" cx="47.52" cy="46.5" r="28.5"/><ellipse class="cls-3" cx="47.66" cy="46.5" rx="28.36" ry="28.58"/><circle class="cls-4" cx="47.33" cy="46.51" r="23.44"/><ellipse class="cls-5" cx="47.5" cy="46.5" rx="28.36" ry="28.58"/><path class="cls-6" d="M52.7,37.67c0-.66-.51-1.26-1.54-1.78A6.87,6.87,0,0,0,48,35.1a8.54,8.54,0,0,0-2.91.48,4.8,4.8,0,0,0-1.94,1.14c-1.13,1.1-2,1.66-2.61,1.66-1.74,0-2.61-.59-2.61-1.75s1.07-2.11,3.22-3.21a14.62,14.62,0,0,1,6.73-1.63,10.91,10.91,0,0,1,7.87,2.77,4.39,4.39,0,0,1,1.58,3.11c0,1.82-1.09,3.58-3.27,5.26-.93.72-1.86,1.4-2.79,2Q48,47.24,48,48a2.58,2.58,0,0,0,.84,1.65c.53.61.79,1,.79,1.25a1.29,1.29,0,0,1-.3.74,2.78,2.78,0,0,1-2.09.75,4.17,4.17,0,0,1-2.76-1.26,3.74,3.74,0,0,1-1.39-2.8q0-2.7,3-4.89a26.77,26.77,0,0,1,2.6-1.74Q52.71,39.08,52.7,37.67ZM44.52,57.79a1.71,1.71,0,0,1,.82-1.35,3.69,3.69,0,0,1,2.27-.62,4.32,4.32,0,0,1,2.09.37c.43.25.64.79.64,1.62q0,2.19-2.91,2.19a3.12,3.12,0,0,1-2-.74A2,2,0,0,1,44.52,57.79Z"/></g></svg>