<svg xmlns="http://www.w3.org/2000/svg" xmlns:xlink="http://www.w3.org/1999/xlink" width="130" height="113" viewBox="0 0 130 113"><defs><style>.cls-1{opacity:0.4;fill:url(#radial-gradient);}.cls-2{fill:url(#linear-gradient);}.cls-3{fill:url(#radial-gradient-2);}.cls-4{fill:url(#linear-gradient-2);}.cls-5{fill:#fcee21;}.cls-6{fill:url(#radial-gradient-3);}.cls-7{fill:url(#radial-gradient-4);}.cls-8{fill:url(#radial-gradient-5);}</style><radialGradient id="radial-gradient" cx="64.67" cy="56.67" r="54.89" gradientUnits="userSpaceOnUse"><stop offset="0" stop-color="#fff800"/><stop offset="0.16" stop-color="#fff700" stop-opacity="0.99"/><stop offset="0.29" stop-color="#fff400" stop-opacity="0.95"/><stop offset="0.42" stop-color="#fe0" stop-opacity="0.88"/><stop offset="0.54" stop-color="#ffe600" stop-opacity="0.78"/><stop offset="0.66" stop-color="#fd0" stop-opacity="0.66"/><stop offset="0.77" stop-color="#ffd000" stop-opacity="0.5"/><stop offset="0.88" stop-color="#ffc200" stop-opacity="0.32"/><stop offset="0.99" stop-color="#ffb100" stop-opacity="0.12"/><stop offset="1" stop-color="#ffb000" stop-opacity="0.1"/></radialGradient><linearGradient id="linear-gradient" x1="64.53" y1="2636.22" x2="64.8" y2="2569.3" gradientTransform="matrix(1, 0, 0, -1, 0, 2659.33)" gradientUnits="userSpaceOnUse"><stop offset="0" stop-color="#c04a22"/><stop offset="0.62" stop-color="#a53518"/><stop offset="1" stop-color="#932611"/></linearGradient><radialGradient id="radial-gradient-2" cx="50.58" cy="99.6" r="35.76" gradientTransform="translate(13.5 -46.49) scale(1.01 1.04)" gradientUnits="userSpaceOnUse"><stop offset="0.55" stop-color="#fff800"/><stop offset="0.64" stop-color="#fff800" stop-opacity="0.84"/><stop offset="0.85" stop-color="#fff800" stop-opacity="0.42"/><stop offset="1" stop-color="#fff800" stop-opacity="0.1"/></radialGradient><linearGradient id="linear-gradient-2" x1="-2344.28" y1="2629.42" x2="-2344.05" y2="2574.39" gradientTransform="translate(-2279.5 2658.5) rotate(180)" gradientUnits="userSpaceOnUse"><stop offset="0" stop-color="#932611"/><stop offset="0.62" stop-color="#ae3b1b"/><stop offset="1" stop-color="#c04a22"/></linearGradient><radialGradient id="radial-gradient-3" cx="51.98" cy="70.95" r="19.56" gradientUnits="userSpaceOnUse"><stop offset="0.04" stop-color="#fff800"/><stop offset="0.1" stop-color="#fff800" stop-opacity="0.9"/><stop offset="0.23" stop-color="#fff800" stop-opacity="0.69"/><stop offset="0.36" stop-color="#fff800" stop-opacity="0.51"/><stop offset="0.49" stop-color="#fff800" stop-opacity="0.36"/><stop offset="0.62" stop-color="#fff800" stop-opacity="0.25"/><stop offset="0.75" stop-color="#fff800" stop-opacity="0.17"/><stop offset="0.88" stop-color="#fff800" stop-opacity="0.12"/><stop offset="1" stop-color="#fff800" stop-opacity="0.1"/></radialGradient><radialGradient id="radial-gradient-4" cx="73.38" cy="67.49" r="20.64" xlink:href="#radial-gradient-3"/><radialGradient id="radial-gradient-5" cx="70.07" cy="45.28" r="33.46" gradientUnits="userSpaceOnUse"><stop offset="0.04" stop-color="#fff800"/><stop offset="0.04" stop-color="#fff800" stop-opacity="0.99"/><stop offset="0.11" stop-color="#fff800" stop-opacity="0.8"/><stop offset="0.18" stop-color="#fff800" stop-opacity="0.64"/><stop offset="0.25" stop-color="#fff800" stop-opacity="0.49"/><stop offset="0.33" stop-color="#fff800" stop-opacity="0.37"/><stop offset="0.42" stop-color="#fff800" stop-opacity="0.27"/><stop offset="0.51" stop-color="#fff800" stop-opacity="0.19"/><stop offset="0.62" stop-color="#fff800" stop-opacity="0.14"/><stop offset="0.76" stop-color="#fff800" stop-opacity="0.11"/><stop offset="1" stop-color="#fff800" stop-opacity="0.1"/></radialGradient></defs><g id="GAME_OVER-_TIME_OUT" data-name="GAME OVER- TIME OUT"><circle class="cls-1" cx="64.67" cy="56.67" r="54.89"/><circle class="cls-2" cx="64.67" cy="56.67" r="36.64"/><ellipse class="cls-3" cx="64.67" cy="56.67" rx="36.46" ry="36.74"/><circle class="cls-4" cx="64.67" cy="56.67" r="30.13"/><path class="cls-5" d="M78.51,48.92V63.06l0,3.69v1a5.44,5.44,0,0,1-5.59,4.47,5.34,5.34,0,0,1-5.62-5c0-2.77,2.51-5,5.62-5a6.05,6.05,0,0,1,2.86.7h0v.14H76l-.23-.14V49.57l-17.9,4.31V66L58,70.1l0,.78c0,.07,0,.13,0,.19a5.4,5.4,0,0,1-5.6,4.6,5.34,5.34,0,0,1-5.62-5c0-2.77,2.51-5,5.62-5a6,6,0,0,1,2.73.64V54.54l0-1.88.14-9.2,22.83-5.79.31,10.22Z"/><ellipse class="cls-6" cx="65.44" cy="57.09" rx="36.88" ry="36.2"/><ellipse class="cls-7" cx="64.53" cy="56.22" rx="36.88" ry="36.2"/><ellipse class="cls-8" cx="64.53" cy="56.22" rx="36.88" ry="36.2"/></g></svg>