<svg xmlns="http://www.w3.org/2000/svg" xmlns:xlink="http://www.w3.org/1999/xlink" width="130" height="113" viewBox="0 0 130 113"><defs><style>.cls-1{fill:url(#linear-gradient);}.cls-2{fill:url(#linear-gradient-2);}.cls-3{fill:#541d0e;}</style><linearGradient id="linear-gradient" x1="70.53" y1="2382.22" x2="70.8" y2="2315.3" gradientTransform="translate(0 -2292)" gradientUnits="userSpaceOnUse"><stop offset="0" stop-color="#c04a22"/><stop offset="0.62" stop-color="#a53518"/><stop offset="1" stop-color="#932611"/></linearGradient><linearGradient id="linear-gradient-2" x1="-2344.28" y1="2375.42" x2="-2344.05" y2="2320.39" gradientTransform="matrix(-1, 0, 0, 1, -2273.5, -2291.16)" gradientUnits="userSpaceOnUse"><stop offset="0" stop-color="#932611"/><stop offset="0.62" stop-color="#ae3b1b"/><stop offset="1" stop-color="#c04a22"/></linearGradient></defs><g id="GAME_OVER-_TIME_OUT" data-name="GAME OVER- TIME OUT"><circle class="cls-1" cx="70.67" cy="56.67" r="36.64"/><circle class="cls-2" cx="70.67" cy="56.67" r="30.13"/><path class="cls-3" d="M84.51,48.92V63.06l0,3.69v1a5.44,5.44,0,0,1-5.59,4.47,5.34,5.34,0,0,1-5.62-5c0-2.77,2.51-5,5.62-5a6.05,6.05,0,0,1,2.86.7h0v.14H82l-.23-.14V49.57l-17.9,4.31V66L64,70.1l0,.78c0,.07,0,.13,0,.19a5.4,5.4,0,0,1-5.6,4.6,5.34,5.34,0,0,1-5.62-5c0-2.77,2.51-5,5.62-5a6,6,0,0,1,2.73.64V54.54l0-1.88.14-9.2,22.83-5.79.31,10.22Z"/></g></svg>