<svg xmlns="http://www.w3.org/2000/svg" xmlns:xlink="http://www.w3.org/1999/xlink" width="95" height="93" viewBox="0 0 95 93"><defs><style>.cls-1{opacity:0.4;fill:url(#radial-gradient);}.cls-2{fill:url(#linear-gradient);}.cls-3{fill:url(#radial-gradient-2);}.cls-4{fill:url(#linear-gradient-2);}.cls-5{fill:url(#radial-gradient-3);}.cls-6{fill:#ffec00;}.cls-7{fill:url(#radial-gradient-4);}.cls-8{fill:url(#radial-gradient-5);}</style><radialGradient id="radial-gradient" cx="47.5" cy="46.5" r="42.69" gradientUnits="userSpaceOnUse"><stop offset="0" stop-color="#fff800"/><stop offset="0.16" stop-color="#fff700" stop-opacity="0.99"/><stop offset="0.29" stop-color="#fff400" stop-opacity="0.95"/><stop offset="0.42" stop-color="#fe0" stop-opacity="0.88"/><stop offset="0.54" stop-color="#ffe600" stop-opacity="0.78"/><stop offset="0.66" stop-color="#fd0" stop-opacity="0.66"/><stop offset="0.77" stop-color="#ffd000" stop-opacity="0.5"/><stop offset="0.88" stop-color="#ffc200" stop-opacity="0.32"/><stop offset="0.99" stop-color="#ffb100" stop-opacity="0.12"/><stop offset="1" stop-color="#ffb000" stop-opacity="0.1"/></radialGradient><linearGradient id="linear-gradient" x1="47.41" y1="2638.93" x2="47.62" y2="2586.88" gradientTransform="matrix(1, 0, 0, -1, 0, 2659.33)" gradientUnits="userSpaceOnUse"><stop offset="0" stop-color="#c04a22"/><stop offset="0.62" stop-color="#a53518"/><stop offset="1" stop-color="#932611"/></linearGradient><radialGradient id="radial-gradient-2" cx="29.43" cy="89.78" r="27.81" gradientTransform="translate(17.89 -46.49) scale(1.01 1.04)" gradientUnits="userSpaceOnUse"><stop offset="0.55" stop-color="#fff800"/><stop offset="0.64" stop-color="#fff800" stop-opacity="0.84"/><stop offset="0.85" stop-color="#fff800" stop-opacity="0.42"/><stop offset="1" stop-color="#fff800" stop-opacity="0.1"/></radialGradient><linearGradient id="linear-gradient-2" x1="-3086.92" y1="2633.45" x2="-3086.75" y2="2590.64" gradientTransform="translate(-3039.5 2658.5) rotate(180)" gradientUnits="userSpaceOnUse"><stop offset="0" stop-color="#932611"/><stop offset="0.62" stop-color="#ae3b1b"/><stop offset="1" stop-color="#c04a22"/></linearGradient><radialGradient id="radial-gradient-3" cx="51.21" cy="37.61" r="21.49" gradientUnits="userSpaceOnUse"><stop offset="0.04" stop-color="#fff800"/><stop offset="0.1" stop-color="#fff800" stop-opacity="0.9"/><stop offset="0.23" stop-color="#fff800" stop-opacity="0.69"/><stop offset="0.36" stop-color="#fff800" stop-opacity="0.51"/><stop offset="0.49" stop-color="#fff800" stop-opacity="0.36"/><stop offset="0.62" stop-color="#fff800" stop-opacity="0.25"/><stop offset="0.75" stop-color="#fff800" stop-opacity="0.17"/><stop offset="0.88" stop-color="#fff800" stop-opacity="0.12"/><stop offset="1" stop-color="#fff800" stop-opacity="0.1"/></radialGradient><radialGradient id="radial-gradient-4" cx="45.12" cy="54.36" r="16.58" xlink:href="#radial-gradient-3"/><radialGradient id="radial-gradient-5" cx="-5.18" cy="43.32" r="12" gradientTransform="translate(45.42) scale(1.03 1)" xlink:href="#radial-gradient-3"/></defs><g id="GAME_OVER-_TIME_OUT" data-name="GAME OVER- TIME OUT"><circle class="cls-1" cx="47.5" cy="46.5" r="42.69"/><circle class="cls-2" cx="47.52" cy="46.5" r="28.5"/><ellipse class="cls-3" cx="47.66" cy="46.5" rx="28.36" ry="28.58"/><circle class="cls-4" cx="47.33" cy="46.51" r="23.44"/><ellipse class="cls-5" cx="47.5" cy="46.5" rx="28.36" ry="28.58"/><path class="cls-6" d="M58.8,46.88a11.31,11.31,0,1,1-21.93-4.82,11,11,0,0,1,9.85-7.48,12.76,12.76,0,0,1,1.51,0v-2.1a1.31,1.31,0,0,1,2.14-1l5.91,4.78a1.29,1.29,0,0,1,0,2L50.37,43a1.32,1.32,0,0,1-2.14-1v-2a5.16,5.16,0,0,0-.68,0,5.82,5.82,0,1,0,5.73,6.86.84.84,0,0,1,.83-.7h4.07A.62.62,0,0,1,58.8,46.88Z"/><ellipse class="cls-7" cx="47.84" cy="46.37" rx="28.36" ry="28.58"/><ellipse class="cls-8" cx="47.12" cy="46.09" rx="29.11" ry="28.58"/></g></svg>