<svg xmlns="http://www.w3.org/2000/svg" xmlns:xlink="http://www.w3.org/1999/xlink" width="129.77" height="129.77" viewBox="0 0 129.77 129.77"><defs><style>.cls-1{opacity:0.4;fill:url(#radial-gradient);}.cls-2{fill:url(#linear-gradient);}.cls-3{fill:url(#radial-gradient-2);}.cls-4{fill:url(#linear-gradient-2);}.cls-5{fill:url(#radial-gradient-3);}.cls-6{fill:#ffec00;}.cls-7{fill:url(#radial-gradient-4);}.cls-8{fill:url(#radial-gradient-5);}</style><radialGradient id="radial-gradient" cx="64.88" cy="64.88" r="64.88" gradientUnits="userSpaceOnUse"><stop offset="0" stop-color="#fff800"/><stop offset="0.16" stop-color="#fff700" stop-opacity="0.99"/><stop offset="0.29" stop-color="#fff400" stop-opacity="0.95"/><stop offset="0.42" stop-color="#fe0" stop-opacity="0.88"/><stop offset="0.54" stop-color="#ffe600" stop-opacity="0.78"/><stop offset="0.66" stop-color="#fd0" stop-opacity="0.66"/><stop offset="0.77" stop-color="#ffd000" stop-opacity="0.5"/><stop offset="0.88" stop-color="#ffc200" stop-opacity="0.32"/><stop offset="0.99" stop-color="#ffb100" stop-opacity="0.12"/><stop offset="1" stop-color="#ffb000" stop-opacity="0.1"/></radialGradient><linearGradient id="linear-gradient" x1="64.75" y1="2446.55" x2="65.07" y2="2367.44" gradientTransform="matrix(1, 0, 0, -1, 0, 2471.77)" gradientUnits="userSpaceOnUse"><stop offset="0" stop-color="#c04a22"/><stop offset="0.62" stop-color="#a53518"/><stop offset="1" stop-color="#932611"/></linearGradient><radialGradient id="radial-gradient-2" cx="-7.02" cy="104.3" r="42.27" gradientTransform="translate(72.23 -43.14) scale(1.01 1.04)" gradientUnits="userSpaceOnUse"><stop offset="0.55" stop-color="#fff800"/><stop offset="0.64" stop-color="#fff800" stop-opacity="0.84"/><stop offset="0.85" stop-color="#fff800" stop-opacity="0.42"/><stop offset="1" stop-color="#fff800" stop-opacity="0.1"/></radialGradient><linearGradient id="linear-gradient-2" x1="-12505.74" y1="2438.65" x2="-12505.48" y2="2373.6" gradientTransform="translate(-12440.98 2470.94) rotate(180)" gradientUnits="userSpaceOnUse"><stop offset="0" stop-color="#932611"/><stop offset="0.62" stop-color="#ae3b1b"/><stop offset="1" stop-color="#c04a22"/></linearGradient><radialGradient id="radial-gradient-3" cx="70.52" cy="51.38" r="32.66" gradientUnits="userSpaceOnUse"><stop offset="0.04" stop-color="#fff800"/><stop offset="0.1" stop-color="#fff800" stop-opacity="0.9"/><stop offset="0.23" stop-color="#fff800" stop-opacity="0.69"/><stop offset="0.36" stop-color="#fff800" stop-opacity="0.51"/><stop offset="0.49" stop-color="#fff800" stop-opacity="0.36"/><stop offset="0.62" stop-color="#fff800" stop-opacity="0.25"/><stop offset="0.75" stop-color="#fff800" stop-opacity="0.17"/><stop offset="0.88" stop-color="#fff800" stop-opacity="0.12"/><stop offset="1" stop-color="#fff800" stop-opacity="0.1"/></radialGradient><radialGradient id="radial-gradient-4" cx="61.26" cy="76.84" r="25.2" xlink:href="#radial-gradient-3"/><radialGradient id="radial-gradient-5" cx="-113.81" cy="60.05" r="18.23" gradientTransform="translate(170.47) scale(1.03 1)" xlink:href="#radial-gradient-3"/></defs><g id="Layer_2" data-name="Layer 2"><g id="Styletile"><circle class="cls-1" cx="64.88" cy="64.88" r="64.88"/><circle class="cls-2" cx="64.91" cy="64.88" r="43.32"/><ellipse class="cls-3" cx="65.12" cy="64.88" rx="43.1" ry="43.43"/><circle class="cls-4" cx="64.63" cy="64.9" r="35.62"/><ellipse class="cls-5" cx="64.88" cy="64.88" rx="43.1" ry="43.43"/><path class="cls-6" d="M82.06,65.46a17.2,17.2,0,1,1-33.34-7.32,16.72,16.72,0,0,1,15-11.37,20,20,0,0,1,2.31,0v-3.2A2,2,0,0,1,69.24,42l9,7.26a2,2,0,0,1,0,3.09l-9,7.26A2,2,0,0,1,66,58.08v-3a7.31,7.31,0,0,0-1-.06,8.85,8.85,0,1,0,8.71,10.43,1.3,1.3,0,0,1,1.28-1.07h6.17A1,1,0,0,1,82.06,65.46Z"/><ellipse class="cls-7" cx="65.4" cy="64.68" rx="43.1" ry="43.43"/><ellipse class="cls-8" cx="64.3" cy="64.26" rx="44.25" ry="43.43"/></g></g></svg>