<svg xmlns="http://www.w3.org/2000/svg" xmlns:xlink="http://www.w3.org/1999/xlink" width="130" height="113" viewBox="0 0 130 113"><defs><style>.cls-1{opacity:0.4;fill:url(#radial-gradient);}.cls-2{fill:url(#linear-gradient);}.cls-3{fill:url(#radial-gradient-2);}.cls-4{fill:url(#linear-gradient-2);}.cls-5{fill:url(#radial-gradient-3);}.cls-6{fill:#fcee21;}</style><radialGradient id="radial-gradient" cx="67.42" cy="54.54" r="54.46" gradientUnits="userSpaceOnUse"><stop offset="0" stop-color="#fff800"/><stop offset="0.16" stop-color="#fff700" stop-opacity="0.99"/><stop offset="0.29" stop-color="#fff400" stop-opacity="0.95"/><stop offset="0.42" stop-color="#fe0" stop-opacity="0.88"/><stop offset="0.54" stop-color="#ffe600" stop-opacity="0.78"/><stop offset="0.66" stop-color="#fd0" stop-opacity="0.66"/><stop offset="0.77" stop-color="#ffd000" stop-opacity="0.5"/><stop offset="0.88" stop-color="#ffc200" stop-opacity="0.32"/><stop offset="0.99" stop-color="#ffb100" stop-opacity="0.12"/><stop offset="1" stop-color="#ffb000" stop-opacity="0.1"/></radialGradient><linearGradient id="linear-gradient" x1="67.28" y1="2638.09" x2="67.55" y2="2571.69" gradientTransform="matrix(1, 0, 0, -1, 0, 2659.33)" gradientUnits="userSpaceOnUse"><stop offset="0" stop-color="#c04a22"/><stop offset="0.62" stop-color="#a53518"/><stop offset="1" stop-color="#932611"/></linearGradient><radialGradient id="radial-gradient-2" cx="56.73" cy="97.55" r="35.48" gradientTransform="translate(10.03 -46.49) scale(1.01 1.04)" gradientUnits="userSpaceOnUse"><stop offset="0.55" stop-color="#fff800"/><stop offset="0.64" stop-color="#fff800" stop-opacity="0.84"/><stop offset="0.85" stop-color="#fff800" stop-opacity="0.42"/><stop offset="1" stop-color="#fff800" stop-opacity="0.1"/></radialGradient><linearGradient id="linear-gradient-2" x1="-1747.03" y1="2631.34" x2="-1746.81" y2="2576.74" gradientTransform="translate(-1679.5 2658.5) rotate(180)" gradientUnits="userSpaceOnUse"><stop offset="0" stop-color="#932611"/><stop offset="0.62" stop-color="#ae3b1b"/><stop offset="1" stop-color="#c04a22"/></linearGradient><radialGradient id="radial-gradient-3" cx="81.28" cy="97.67" r="35.48" gradientTransform="translate(-16.69 -46.49) scale(1.03 1.04)" gradientUnits="userSpaceOnUse"><stop offset="0.17" stop-color="#fcee21" stop-opacity="0.2"/><stop offset="0.19" stop-color="#fcee21" stop-opacity="0.4"/><stop offset="0.22" stop-color="#fcee21" stop-opacity="0.58"/><stop offset="0.25" stop-color="#fcee21" stop-opacity="0.73"/><stop offset="0.28" stop-color="#fcee21" stop-opacity="0.85"/><stop offset="0.31" stop-color="#fcee21" stop-opacity="0.93"/><stop offset="0.33" stop-color="#fcee21" stop-opacity="0.98"/><stop offset="0.36" stop-color="#fcee21"/><stop offset="0.77" stop-color="#fff800" stop-opacity="0.3"/></radialGradient></defs><g id="Layer_8" data-name="Layer 8"><circle class="cls-1" cx="67.42" cy="54.54" r="54.46"/><circle class="cls-2" cx="67.42" cy="54.54" r="36.36"/><ellipse class="cls-3" cx="67.42" cy="54.54" rx="36.18" ry="36.46"/><circle class="cls-4" cx="67.42" cy="54.54" r="29.9"/><ellipse class="cls-5" cx="66.6" cy="54.54" rx="37" ry="36.46"/><path class="cls-6" d="M84,65.19l2.93-8.37-4.16-1.46a14.38,14.38,0,0,0-.16-3.15l4-1.91-3.85-8-3.9,1.87a15,15,0,0,0-2.12-1.94L78.23,38,69.86,35,68.4,39.18a14.24,14.24,0,0,0-3.26.16L63.31,35.5l-8,3.84,1.85,3.83A14.92,14.92,0,0,0,55,45.62l-4.16-1.46-2.94,8.36L52.19,54a15.43,15.43,0,0,0,.18,2.88L48.5,58.77l3.85,8,3.93-1.9A15.36,15.36,0,0,0,58.66,67L57.2,71.13l8.36,2.93,1.51-4.29a15.11,15.11,0,0,0,2.78-.19l1.93,4,8-3.85-1.94-4a14.08,14.08,0,0,0,1.87-2.06Zm-19.69-1.7a9.57,9.57,0,1,1,12.2-5.86A9.57,9.57,0,0,1,64.32,63.49Z"/></g></svg>