<svg xmlns="http://www.w3.org/2000/svg" xmlns:xlink="http://www.w3.org/1999/xlink" width="130" height="113" viewBox="0 0 130 113"><defs><style>.cls-1{opacity:0.4;fill:url(#radial-gradient);}.cls-2{fill:url(#linear-gradient);}.cls-3{fill:url(#radial-gradient-2);}.cls-4{fill:url(#linear-gradient-2);}.cls-5{fill:#fcee21;}.cls-6{fill:url(#radial-gradient-3);}</style><radialGradient id="radial-gradient" cx="64.19" cy="56.99" r="54.01" gradientUnits="userSpaceOnUse"><stop offset="0" stop-color="#fff800"/><stop offset="0.16" stop-color="#fff700" stop-opacity="0.99"/><stop offset="0.29" stop-color="#fff400" stop-opacity="0.95"/><stop offset="0.42" stop-color="#fe0" stop-opacity="0.88"/><stop offset="0.54" stop-color="#ffe600" stop-opacity="0.78"/><stop offset="0.66" stop-color="#fd0" stop-opacity="0.66"/><stop offset="0.77" stop-color="#ffd000" stop-opacity="0.5"/><stop offset="0.88" stop-color="#ffc200" stop-opacity="0.32"/><stop offset="0.99" stop-color="#ffb100" stop-opacity="0.12"/><stop offset="1" stop-color="#ffb000" stop-opacity="0.1"/></radialGradient><linearGradient id="linear-gradient" x1="64.06" y1="2635.36" x2="64.32" y2="2569.51" gradientTransform="matrix(1, 0, 0, -1, 0, 2659.33)" gradientUnits="userSpaceOnUse"><stop offset="0" stop-color="#c04a22"/><stop offset="0.62" stop-color="#a53518"/><stop offset="1" stop-color="#932611"/></linearGradient><radialGradient id="radial-gradient-2" cx="55.25" cy="99.91" r="35.19" gradientTransform="translate(8.3 -46.49) scale(1.01 1.04)" gradientUnits="userSpaceOnUse"><stop offset="0.55" stop-color="#fff800"/><stop offset="0.64" stop-color="#fff800" stop-opacity="0.84"/><stop offset="0.85" stop-color="#fff800" stop-opacity="0.42"/><stop offset="1" stop-color="#fff800" stop-opacity="0.1"/></radialGradient><linearGradient id="linear-gradient-2" x1="-1443.8" y1="2628.66" x2="-1443.58" y2="2574.51" gradientTransform="translate(-1379.5 2658.5) rotate(180)" gradientUnits="userSpaceOnUse"><stop offset="0" stop-color="#932611"/><stop offset="0.62" stop-color="#ae3b1b"/><stop offset="1" stop-color="#c04a22"/></linearGradient><radialGradient id="radial-gradient-3" cx="58.86" cy="55.58" r="38.05" gradientUnits="userSpaceOnUse"><stop offset="0.04" stop-color="#fff800"/><stop offset="0.2" stop-color="#fff800" stop-opacity="0.8"/><stop offset="0.41" stop-color="#fff800" stop-opacity="0.56"/><stop offset="0.6" stop-color="#fff800" stop-opacity="0.36"/><stop offset="0.77" stop-color="#fff800" stop-opacity="0.22"/><stop offset="0.91" stop-color="#fff800" stop-opacity="0.13"/><stop offset="1" stop-color="#fff800" stop-opacity="0.1"/></radialGradient></defs><g id="Layer_8" data-name="Layer 8"><circle class="cls-1" cx="64.19" cy="56.99" r="54.01"/><circle class="cls-2" cx="64.19" cy="56.99" r="36.06"/><ellipse class="cls-3" cx="64.19" cy="56.99" rx="35.88" ry="36.16"/><circle class="cls-4" cx="64.19" cy="56.99" r="29.65"/><path class="cls-5" d="M46.64,63.9V48.83A1.86,1.86,0,0,1,48.5,47h5.68a1.84,1.84,0,0,1,1.14.4l9-7.56c1.34-1.11,3.4,1.24,3.35,1.57,4.09,9.88,3.27,19.89,0,30,0,1-2,2.67-3.35,1.56l-9-7.54a1.83,1.83,0,0,1-1.14.39H48.5A1.86,1.86,0,0,1,46.64,63.9Z"/><ellipse class="cls-6" cx="64.19" cy="56.99" rx="35.88" ry="36.16"/><path class="cls-5" d="M73.51,75.12h0A1.62,1.62,0,0,1,72,73.46c4-10.92,4.16-21.62,0-32.1a1.61,1.61,0,0,1,1.56-1.66h0a1.62,1.62,0,0,1,1.57,1.66c3.85,10.48,3.62,21.18,0,32.1A1.63,1.63,0,0,1,73.51,75.12Z"/><path class="cls-5" d="M80.92,71.33h0A1.35,1.35,0,0,1,79.54,70a46.66,46.66,0,0,0,0-25.22,1.35,1.35,0,0,1,1.38-1.31h0a1.35,1.35,0,0,1,1.37,1.31,47.45,47.45,0,0,1,0,25.22A1.35,1.35,0,0,1,80.92,71.33Z"/></g></svg>