<svg xmlns="http://www.w3.org/2000/svg" xmlns:xlink="http://www.w3.org/1999/xlink" width="130" height="113" viewBox="0 0 130 113"><defs><style>.cls-1{fill:url(#linear-gradient);}.cls-2{fill:url(#linear-gradient-2);}.cls-3{fill:#541d0e;}</style><linearGradient id="linear-gradient" x1="65.65" y1="2371.93" x2="65.92" y2="2305.42" gradientTransform="translate(0 -2286)" gradientUnits="userSpaceOnUse"><stop offset="0" stop-color="#c04a22"/><stop offset="0.62" stop-color="#a53518"/><stop offset="1" stop-color="#932611"/></linearGradient><linearGradient id="linear-gradient-2" x1="-1441.39" y1="2365.17" x2="-1441.17" y2="2310.48" gradientTransform="matrix(-1, 0, 0, 1, -1375.5, -2285.16)" gradientUnits="userSpaceOnUse"><stop offset="0" stop-color="#932611"/><stop offset="0.62" stop-color="#ae3b1b"/><stop offset="1" stop-color="#c04a22"/></linearGradient></defs><g id="Layer_8" data-name="Layer 8"><circle class="cls-1" cx="65.78" cy="52.58" r="36.42"/><circle class="cls-2" cx="65.78" cy="52.58" r="29.95"/><path class="cls-3" d="M48.06,45.61V60.83a1.88,1.88,0,0,0,1.88,1.87h5.73a1.77,1.77,0,0,0,1.15-.4L66,69.93c1.35,1.12,3.43-1.25,3.38-1.58,4.13-10,3.3-20.09,0-30.25,0-1-2-2.7-3.38-1.59l-9.13,7.62a1.82,1.82,0,0,0-1.15-.4H49.94A1.89,1.89,0,0,0,48.06,45.61Z"/><path class="cls-3" d="M75.2,34.27h0A1.64,1.64,0,0,0,73.62,36c4,11,4.21,21.84,0,32.42a1.64,1.64,0,0,0,1.58,1.68h0a1.64,1.64,0,0,0,1.58-1.68C80.67,57.79,80.44,47,76.78,36A1.64,1.64,0,0,0,75.2,34.27Z"/><path class="cls-3" d="M82.68,38.11h0a1.35,1.35,0,0,0-1.39,1.31,47.11,47.11,0,0,1,0,25.48,1.36,1.36,0,0,0,1.39,1.32h0a1.37,1.37,0,0,0,1.39-1.32,48.11,48.11,0,0,0,0-25.48A1.36,1.36,0,0,0,82.68,38.11Z"/></g></svg>