<svg xmlns="http://www.w3.org/2000/svg" width="721" height="567" viewBox="0 0 721 567"><defs><style>.cls-1{fill:#c04a22;}.cls-12,.cls-13,.cls-2,.cls-4{fill:#fff;}.cls-3{fill:#ffe600;}.cls-4{opacity:0.89;}.cls-5{fill:#efcfac;}.cls-6{fill:#1d1d1b;}.cls-7{fill:#d92d20;}.cls-8{fill:#a7221c;}.cls-9{fill:#b14643;}.cls-10{fill:#e5a4ba;}.cls-11{fill:#e96584;}.cls-12{opacity:0.81;}.cls-13{opacity:0.63;}</style></defs><g id="Opening-titles"><path class="cls-1" d="M659.43,501H72.57C47.51,501,27,482.7,27,460.32V94.54c0-22.37,22.58-33.33,45.57-40.68C253.74,9.46,447.05,9.48,658.22,55.42,676.37,60.9,705,72.17,705,94.54V460.32C705,482.7,684.49,501,659.43,501Z"/><path class="cls-1" d="M544,551l-324-1a34.1,34.1,0,0,1-34-34V500a34.1,34.1,0,0,1,34-34H535c18.7,0,45,15.3,45,34l-1,19C579,537.7,562.7,551,544,551Z"/><g id="CONGRATULATIONS_" data-name="CONGRATULATIONS!"><path class="cls-2" d="M105.89,153.65a13.85,13.85,0,0,1-5.11-2.57,24.23,24.23,0,0,1-4.21-4.84,41,41,0,0,1-3.63-6.53A108.5,108.5,0,0,1,87.22,124c-.47-1.57-1.2-4.29-2.17-8.16l-1.65-6.54c-.41-1.89-.86-3.83-1.37-5.84a51.72,51.72,0,0,1-1.71-9.83,16.68,16.68,0,0,1-1.12-3.14,12.77,12.77,0,0,1,2.13-11.24,18.56,18.56,0,0,1,10.86-6.82,9.34,9.34,0,0,1,5.34.19,4.38,4.38,0,0,1,3.2,3.06,2,2,0,0,1-.41,1.87,3.5,3.5,0,0,1-1.92,1.14,9.17,9.17,0,0,1-2.31.26,2.26,2.26,0,0,1-1.73-.56L93,78.77,93,78.56a12.16,12.16,0,0,0-6,3.29A8.93,8.93,0,0,0,85.16,87a13.73,13.73,0,0,0,.11,3.06,27,27,0,0,0,.61,3.27,32.87,32.87,0,0,0,.73,3.35l1.12,3.58,1,3.5a19.38,19.38,0,0,1,.5,3.74,23,23,0,0,0,.4,3.76l.63,2.49q1,4,3.11,11a64.29,64.29,0,0,0,4.34,11.49,24,24,0,0,0,5.88,8.44,7.86,7.86,0,0,0,7.74,2.24,8.25,8.25,0,0,0,3.88-3c1.56-1.72,2.71-2.68,3.47-2.87a4.57,4.57,0,0,1,3.41.8,7.07,7.07,0,0,1-1.42,6.65,15.2,15.2,0,0,1-5.83,4c-1.35.48-2.43.83-3.26,1A11.19,11.19,0,0,1,105.89,153.65Z"/><path class="cls-2" d="M140.06,146.27A16.39,16.39,0,0,1,135,142q-4.26-5-7.88-14.49-2.53-6.57-5-15.34l-1.32-5.52L119.55,101c-.47-1.8-1-4-1.55-6.56a106.74,106.74,0,0,1-1.9-11.2A42.44,42.44,0,0,1,116,72.88a11.64,11.64,0,0,1,3.48-7.11,9.62,9.62,0,0,1,3.58-1.66,10.59,10.59,0,0,1,9.74,2.47,27.78,27.78,0,0,1,7.11,10,75,75,0,0,1,4.94,13.59q2,7.34,3.48,13.92l1.31,6c.25,1.18.57,3.45.94,6.8a62,62,0,0,0,1,6.68l.09.42a34,34,0,0,0,.88,7,16.61,16.61,0,0,1,.07,6.34,15.37,15.37,0,0,1-2.39,6.11A7.08,7.08,0,0,1,145.6,147,8.09,8.09,0,0,1,140.06,146.27Zm7.2-9.68a38.63,38.63,0,0,0,0-8.81c-.34-3.4-.82-7.21-1.46-11.46q-.39-2.76-1.32-7l-2.21-9.59q-1.44-5.59-4.34-13.84A48.58,48.58,0,0,0,132,73.78a11.47,11.47,0,0,0-3.51-3.51,4.92,4.92,0,0,0-3.66-.73q-2.62.57-3,4.92a39.66,39.66,0,0,0,0,9.87Q122.4,90,123.39,95l.65,3.47c.14,1,.39,2.33.76,4l.09.42a126.91,126.91,0,0,0,5.24,16.93q4.71,13.53,9.23,18.68,2.88,3.19,5.19,2.7Q146.64,140.78,147.26,136.59Z"/><path class="cls-2" d="M181.47,116q-12-24-21.16-44.34l6.24,34.53q.8,4.42,3.55,14.91,2.84,11.45,3.44,14.82a2,2,0,0,1-.86,1.84,5.2,5.2,0,0,1-2.51,1.16q-2.22.4-2.52-1.29l-.34-3.09c-.26-2.27-.46-3.76-.59-4.46q-1-5.58-3.82-17.57-2.85-12.21-3.33-14.84l-2.43-13.48c-.4-2.18-.87-5.43-1.43-9.75q-.6-5.66-1.33-9.76l-.12-.63c-.63-3.51-.17-5.41,1.37-5.68.91-.17,2.35,1.17,4.31,4q4.84,7,13.75,25.57,5.1,10.83,12.44,28-.18-.39,3,7l.2.5q-1.85-10.22-3.1-18.36l-3.09-18.36-5.63-31.17c0-1.8.93-2.88,2.9-3.24s3.09.86,3.58,3.6l.11.63A7.09,7.09,0,0,0,184,59.7q1.17,6.42,3.18,19.43t3.22,19.64l5.8,32.12a6.4,6.4,0,0,1-.32,3.37,2.58,2.58,0,0,1-1.88,1.92Q191.92,136.56,181.47,116Z"/><path class="cls-2" d="M217.66,130.09q-3.43-2.11-6.84-7.9a49.75,49.75,0,0,1-4.14-11,90,90,0,0,1-2.32-11.13c-.2-.9-.46-2.49-.78-4.75l-.51-3.6-.59-4.24q-.64-4.56-1.22-11a77.34,77.34,0,0,1,.14-11.26,28.62,28.62,0,0,1,2.72-9.89,14.64,14.64,0,0,1,6.29-6.72,18.85,18.85,0,0,1,4.88-1.44c3-.42,4.59.36,4.86,2.34a2.34,2.34,0,0,1-.53,2,3.08,3.08,0,0,1-2,1,6.39,6.39,0,0,1-1.53-.11h-1.51a5.86,5.86,0,0,0-3.43,1.73A9.17,9.17,0,0,0,209,58a38,38,0,0,0-1.72,11.59,97.39,97.39,0,0,0,.55,13.11c.3,3.19.71,6.56,1.2,10.09l.41,2.86c.06,1,.2,2.24.41,3.73a106.34,106.34,0,0,0,2,10.52,32.83,32.83,0,0,0,3.83,10.26,11.78,11.78,0,0,0,6.49,6.22,8.69,8.69,0,0,0,4.6.43q4.67-.64,7.21-5.55c-.42-2.46-.93-4.85-1.55-7.18a12,12,0,0,0-1.95-4.64l-.47.12-1.09.31-2.51.57c-2.4.34-3.75-.52-4-2.56a2.13,2.13,0,0,1,.82-1.85,7.32,7.32,0,0,1,2.72-1.46,22.47,22.47,0,0,1,5.19-1.49,3.88,3.88,0,0,1,3.51,1.13,6.75,6.75,0,0,1,1.73,3.86,59.8,59.8,0,0,0,2.4,9.39,57,57,0,0,1,2.39,9.28,3,3,0,0,1-.46,2.12A2.34,2.34,0,0,1,239,130a3.61,3.61,0,0,1-3.92-1.72v-.11l-2.17,1.5a11.64,11.64,0,0,1-5.15,2.56A13.84,13.84,0,0,1,217.66,130.09Z"/><path class="cls-2" d="M264.74,123.2l0-.32a76,76,0,0,0-3.26-12.35q-2.34-6.75-6.47-16.21-3.12-7.08-5.34-12.77l4.48,41.92a4.3,4.3,0,0,1-.32,2.56,2.71,2.71,0,0,1-2.21,1,2.63,2.63,0,0,1-2.1-.59,2.88,2.88,0,0,1-1-2l-.09-.85-3.12-31.31Q244,78.5,242.19,61.15l-1.4-13.09a2.32,2.32,0,0,1,.35-1.81,3.56,3.56,0,0,1,2.18-.72,11.86,11.86,0,0,1,5,.49,11.4,11.4,0,0,1,4.14,2.41,18.29,18.29,0,0,1,5.2,8.48,26.16,26.16,0,0,1,1.06,8.39c0,1.3-.08,2.13-.11,2.49a26.59,26.59,0,0,1-.62,3.29L257.33,74l-1,3.12L255.6,80A57.41,57.41,0,0,0,258,89.49q1.84,5.72,3.87,10.56,1.44,3.39,5.08,11.29l4.08,9,0,.21a13.05,13.05,0,0,1,0,3.12,2,2,0,0,1-2.06,1.94C267.63,125.79,266.22,125,264.74,123.2ZM252.09,72.25l.62-9.32a8.14,8.14,0,0,0-.05-1.5,26.07,26.07,0,0,0-1.93-7,11.17,11.17,0,0,0-2-3.07,3.18,3.18,0,0,0-2.23-1.22l.93,10.66q.44,7.17.86,11.1c.26,2.49.47,4.11.63,4.89A53.57,53.57,0,0,0,252.09,72.25Z"/><path class="cls-2" d="M297.9,121.61a2.56,2.56,0,0,1-1-2.07l-1-14a14.94,14.94,0,0,0-5.35-1.33,57.73,57.73,0,0,0-7.33-.43,18.39,18.39,0,0,0-1.31,5.57l-.27,2.17c0,.5-.16,1.62-.39,3.35a38.31,38.31,0,0,1-.85,4.52,15.65,15.65,0,0,1-1.07,3q-4.05.3-4.85-1.79,1-1.8,1.93-10.23l2.09-19.79q1.32-14,2.58-24a134.75,134.75,0,0,1,3-16.75c1.27-5,2.66-7.6,4.15-7.71a5.79,5.79,0,0,1,3.48.61Q292,47,295.27,63.22q3.32,15.86,3.74,21.72a160.11,160.11,0,0,0,2.37,16.14q1.86,10.69,2.33,17.1c.18,2.42-.91,3.71-3.26,3.89A4,4,0,0,1,297.9,121.61Zm-2.57-22.56c-.44-3.11-1.09-7-1.92-11.55q-4.23-23.94-4.63-29.38l-.06-.85q-1,1.14-2.23,9.87T284.38,85.8A127.67,127.67,0,0,0,283.63,99a34.48,34.48,0,0,0,9.59.58A8.89,8.89,0,0,0,295.33,99.05Z"/><path class="cls-2" d="M321.56,120.16a7.46,7.46,0,0,1-1.06-3.76q-.15-3.53.07-8.68l.1-2.78,0-5.68q-.15-3.74-1.44-16.65T317.77,66c0-.22,0-.63,0-1.23s0-1.56-.07-2.84,0-3.18-.11-5.24q-.32-7.8-1.48-9.9a25.46,25.46,0,0,0-2.76.43l-3,.34a4,4,0,0,1-2.49-.7,2.47,2.47,0,0,1-1.15-2c0-.85.78-1.64,2.47-2.35q3.69-1.44,12.65-2.34c2.41-.25,3.87-.38,4.37-.4a3.73,3.73,0,0,1,2.39.76,2.75,2.75,0,0,1,.33,4.22,3.3,3.3,0,0,1-2.26.89l-1.93,0a15.12,15.12,0,0,0-1.93,0l-1.07,0A128.91,128.91,0,0,1,323,58.68l.18,6.85q0,3.1.18,7,.21,5.13.93,12.28.9,8.85,1.05,12.27.17,4.06.82,9.6t.83,9.61q.21,5.24-2.89,5.37A2.81,2.81,0,0,1,321.56,120.16Z"/><path class="cls-2" d="M351.55,116.24a37.34,37.34,0,0,1-6-14.41A125.24,125.24,0,0,1,343,82.37q-.58-9.41-.66-20.43l-.05-8.88q.08-3.75.05-7.92a2.94,2.94,0,0,1-.87-2.13,3.27,3.27,0,0,1,1-2.31,2.89,2.89,0,0,1,2.14-1c2.56,0,3.86,2.51,3.9,7.57q0,4.92.65,18.62t.65,18.61A27.78,27.78,0,0,1,350.8,90a61.21,61.21,0,0,1,.52,6.84,28.2,28.2,0,0,0,.79,5.83,44.68,44.68,0,0,0,2.18,7,18.13,18.13,0,0,0,3.68,6.13,6.49,6.49,0,0,0,4.72,2.37,3.49,3.49,0,0,0,2.51-1,4.88,4.88,0,0,0,1.32-2.79,27.78,27.78,0,0,0,.6-5.89L367,87.68a82.92,82.92,0,0,0-.81-10.05c-.45-4.49-.69-7.88-.7-10.16v-.75c0-1.14-.05-2.18-.12-3.1l-.13-3.11q0-3-.38-9.09c-.31-3.64-.47-6.7-.48-9.2a2.46,2.46,0,0,1,1.21-2,4.69,4.69,0,0,1,2.73-.87L371,41.75v1.82a14.15,14.15,0,0,1-.41,3.11c-.27,2-.41,3.14-.41,3.42q.07,9.74,1.24,26.85,1.08,18,1.14,27.92a37.65,37.65,0,0,1-1,9.43,11.51,11.51,0,0,1-1.74,4,9.61,9.61,0,0,1-3,2.58,9.18,9.18,0,0,1-4.7,1.1A12,12,0,0,1,351.55,116.24Z"/><path class="cls-2" d="M388.11,120.46a3.13,3.13,0,0,1-1.05-2.44,8,8,0,0,1,.49-2.34,11.56,11.56,0,0,0,.38-2.24q.27-9.51,0-36.61-.4-23.13,0-36.5a1.89,1.89,0,0,1,.79-1.53,2.86,2.86,0,0,1,1.84-.54,3.16,3.16,0,0,1,2.22,1,2.89,2.89,0,0,1,.9,2.22q-.18,6.4.1,19.27.12,14.24,0,19.26l.07,1.29,0,1.28,0,.75,0,.54q.06,9.32-.47,27.82l-.08,2.78,8.24.23c1.46,1.11,2.18,2.2,2.15,3.27a3.06,3.06,0,0,1-.86,2.07,2.43,2.43,0,0,1-1.9.85,5.55,5.55,0,0,1-1.17-.25l-.42-.11a13.46,13.46,0,0,1-2,0l-1.82,0a13.27,13.27,0,0,0-1.7-.15,3.74,3.74,0,0,1-3,1.2A3.67,3.67,0,0,1,388.11,120.46Z"/><path class="cls-2" d="M430.52,121.57a2.59,2.59,0,0,1-.67-2.19l.84-14a15.15,15.15,0,0,0-5.13-2,55.45,55.45,0,0,0-7.2-1.4,18.2,18.2,0,0,0-2,5.34l-.56,2.11q-.15.75-.84,3.27a37.12,37.12,0,0,1-1.44,4.36,15.22,15.22,0,0,1-1.46,2.86c-2.71-.16-4.23-1-4.57-2.42q1.28-1.63,3.28-9.87l4.7-19.34q3.19-13.74,5.76-23.45a137.86,137.86,0,0,1,5.22-16.19q2.89-7.22,5.14-7.08a5.76,5.76,0,0,1,3.37,1.06q-.27,4.27.78,20.73,1.17,16.16.81,22a157.61,157.61,0,0,0,.2,16.3q.41,10.86,0,17.26-.21,3.63-3.74,3.42A4,4,0,0,1,430.52,121.57Zm.46-22.7c0-3.14-.15-7.05-.36-11.7q-1-24.28-.67-29.74l.05-.85q-1.14,1-3.52,9.49t-4.59,18.21a130.27,130.27,0,0,0-2.49,12.93,34.61,34.61,0,0,0,9.42,1.85A9,9,0,0,0,431,98.87Z"/><path class="cls-2" d="M454.15,123.29a7.43,7.43,0,0,1-.56-3.86q.33-3.53,1.23-8.59l.48-2.75.74-5.63q.34-3.73.8-16.69t.8-16.69c0-.21.08-.62.17-1.22s.2-1.54.32-2.82.4-3.15.59-5.21q.72-7.77-.15-10c-.42,0-1.35,0-2.79.07l-3-.07a3.94,3.94,0,0,1-2.37-1,2.45,2.45,0,0,1-.87-2.17c.07-.86,1-1.52,2.76-2q3.85-.93,12.85-.63c2.42.08,3.89.15,4.39.19a3.71,3.71,0,0,1,2.26,1.07,2.64,2.64,0,0,1,.87,2.23,2.69,2.69,0,0,1-1.1,2,3.39,3.39,0,0,1-2.37.58l-1.91-.28a15,15,0,0,0-1.9-.29l-1.07-.1a130.19,130.19,0,0,1-.47,13.18l-.75,6.8c-.26,2.06-.51,4.36-.75,6.92q-.48,5.11-.71,12.29-.3,8.9-.61,12.3-.37,4.05-.47,9.63c-.07,3.79-.22,7-.47,9.63q-.48,5.22-3.57,4.93A2.78,2.78,0,0,1,454.15,123.29Z"/><path class="cls-2" d="M473.92,122.72c.2-1.7,1.37-2.42,3.49-2.17l1.28.16a4.06,4.06,0,0,0,.94.22,1.38,1.38,0,0,0,1.29-.39,3.51,3.51,0,0,0,.6-1.86q1.1-9,1.92-24.77,1-16.38,2-24.66.36-3,.76-5.4l.76-5.41a46.07,46.07,0,0,0,.39-5.88,7.16,7.16,0,0,1-2.49.13c-1.64-.2-2.35-1.15-2.14-2.84a2.71,2.71,0,0,1,1.81-2.05,11.39,11.39,0,0,1,4.15-.9,47.93,47.93,0,0,1,7.63.17,3.09,3.09,0,0,1,2.08,1.11,2.73,2.73,0,0,1,.66,2.13,3.16,3.16,0,0,1-.94,1.94,2.16,2.16,0,0,1-1.85.63,4.6,4.6,0,0,1-1-.23l-.85-.1a2.12,2.12,0,0,0-1.6.29,2.45,2.45,0,0,0-.69,1.69q-1.36,11.27-2.37,31.19-1.23,20.86-2.49,31.28l-.49,4a16.62,16.62,0,0,1,2.14.15q4.45.54,4,4.26l-.07.64-2.88,1.48-.64,0c-.36,0-1.07-.08-2.14-.21-2.42-.14-3.92-.25-4.48-.32Q473.54,125.9,473.92,122.72Z"/><path class="cls-2" d="M511.17,132a16.23,16.23,0,0,1-3.22-5.8q-2.19-6.18-2.14-16.35c0-4.69.28-10.06.84-16.11l.76-5.62.88-5.71c.21-1.85.52-4.07.92-6.68a104,104,0,0,1,2.25-11.13,42.56,42.56,0,0,1,3.65-9.72,11.64,11.64,0,0,1,5.81-5.39,9.33,9.33,0,0,1,3.94-.26,10.58,10.58,0,0,1,8.2,5.81,27.57,27.57,0,0,1,3.05,11.83,75.15,75.15,0,0,1-.27,14.47q-.74,7.56-1.75,14.23l-.93,6c-.18,1.2-.71,3.43-1.57,6.69a64.09,64.09,0,0,0-1.44,6.59l-.07.43a34.39,34.39,0,0,0-1.7,6.88,16.84,16.84,0,0,1-2.22,5.94,15.15,15.15,0,0,1-4.42,4.84,7.09,7.09,0,0,1-5.68,1.73A8.12,8.12,0,0,1,511.17,132Zm10.19-6.45a37.79,37.79,0,0,0,3.16-8.23q1.35-4.94,2.75-11.21c.42-1.81.86-4.16,1.3-7.06L530,89.35q.66-5.75.93-14.47a48.55,48.55,0,0,0-1.2-13.39,11.29,11.29,0,0,0-2-4.53,4.91,4.91,0,0,0-3.15-2c-1.77-.28-3.28.9-4.55,3.52a40.07,40.07,0,0,0-3.58,9.19q-1.49,5.51-2.38,10.57l-.64,3.47c-.22,1-.46,2.31-.72,4l-.07.42a130.25,130.25,0,0,0-1.2,17.68q-.47,14.33,1.9,20.75c1,2.68,2.33,4.14,3.88,4.38S520,128.05,521.36,125.59Z"/><path class="cls-2" d="M560.67,118.79Q558.24,92,557,69.79l-6.69,34.45q-.87,4.41-2.08,15.18-1.51,11.7-2.17,15.06a2,2,0,0,1-1.47,1.4,5,5,0,0,1-2.76.17c-1.47-.28-2.09-1-1.88-2.1l.81-3c.57-2.21.93-3.67,1.06-4.37q1.09-5.56,2.8-17.77,1.77-12.4,2.27-15l2.62-13.44q.63-3.25,2.19-9.6,1.5-5.49,2.3-9.58l.12-.63q1-5.26,3.33-4.81Q558.82,56,560,61q2,8.23,3.55,28.81.85,11.94,1.47,30.59,0-.44.27,7.57v.55q2-10.19,3.76-18.24l3.76-18.23,6-31.09c.62-1.7,1.91-2.35,3.88-2s2.57,1.91,2,4.64l-.13.63a6.94,6.94,0,0,0-1.22,2.93q-1.25,6.41-4.07,19.26t-4.11,19.48L569,138a6.41,6.41,0,0,1-1.52,3,2.61,2.61,0,0,1-2.45,1.11Q563,141.7,560.67,118.79Z"/><path class="cls-2" d="M581.24,144.9a2.72,2.72,0,0,1-1.16-2.58,3.3,3.3,0,0,1,1.1-1.89,2.23,2.23,0,0,1,2-.37A9.09,9.09,0,0,1,586,141.6a11.64,11.64,0,0,0,2.52,1.46,4.94,4.94,0,0,0,4-.88,12.39,12.39,0,0,0,3.61-3.94,28.79,28.79,0,0,0,4.06-8.94,35.65,35.65,0,0,0,.78-9.76A54.45,54.45,0,0,0,599.36,109l-.89-3.72c-.93-3.88-1.64-6.93-2.1-9.17a48.61,48.61,0,0,1-.93-7.13,33.12,33.12,0,0,1,.69-10.06,19.68,19.68,0,0,1,3-6.78,14.65,14.65,0,0,1,5.22-4.72,9.16,9.16,0,0,1,7-1,7,7,0,0,1,3.39,1.94,6.32,6.32,0,0,1,1.86,3.34l-2.28,1.78a6.77,6.77,0,0,1-3.82-2,5.21,5.21,0,0,0-3.71,1.06,11.47,11.47,0,0,0-3,3.21,13.29,13.29,0,0,0-1.55,3.81,32.47,32.47,0,0,0-.78,8.34,43.78,43.78,0,0,0,1.06,8.43l3.91,16.28a41.34,41.34,0,0,1,.85,9.1,44.56,44.56,0,0,1-1.14,9.62,27.05,27.05,0,0,1-6.34,12.15,14.29,14.29,0,0,1-5.73,3.88,11.51,11.51,0,0,1-6.68.37A14.74,14.74,0,0,1,581.24,144.9Z"/><path class="cls-2" d="M614.15,153a4.1,4.1,0,0,1-.36-3.08,4.91,4.91,0,0,1,2.09-2.94,4.11,4.11,0,0,1,6.06,1.57,5.53,5.53,0,0,1,.27,3.88q-.94,3.63-6,2.31A3.35,3.35,0,0,1,614.15,153Zm7.2-18.59a26.75,26.75,0,0,1,1.14-8.22q.48-1.86,2-7c.8-2.52,1.61-5.34,2.41-8.44l4.2-17,4.2-17a3.8,3.8,0,0,1,2.08-2.5,4.58,4.58,0,0,1,3.32-.41A2.44,2.44,0,0,1,642.3,75a2.58,2.58,0,0,1,.24,2.05q-2.35,9.12-7.46,24.49-5.62,17-7.56,24.45c-.95,3.66-1.68,6.29-2.21,7.89A11.9,11.9,0,0,1,624,137a1.2,1.2,0,0,1-1.3.54C622,137.36,621.53,136.33,621.35,134.44Z"/></g><path class="cls-3" d="M107.55,156.08a14.13,14.13,0,0,1-5.12-2.57,24.92,24.92,0,0,1-4.2-4.85,39.83,39.83,0,0,1-3.63-6.53,108.76,108.76,0,0,1-5.72-15.66c-.47-1.57-1.2-4.3-2.18-8.17l-1.64-6.54c-.41-1.88-.86-3.83-1.37-5.83A51.85,51.85,0,0,1,82,96.1,17.2,17.2,0,0,1,80.86,93,12.76,12.76,0,0,1,83,81.72q3.69-5,10.86-6.83a9.34,9.34,0,0,1,5.34.2,4.36,4.36,0,0,1,3.2,3A2,2,0,0,1,102,80a3.45,3.45,0,0,1-1.92,1.15,9.19,9.19,0,0,1-2.31.25A2.3,2.3,0,0,1,96,80.86l-1.34.34L94.61,81a12,12,0,0,0-6,3.28,9,9,0,0,0-1.78,5.2,13.73,13.73,0,0,0,.11,3.06,27.8,27.8,0,0,0,.61,3.27,33.48,33.48,0,0,0,.73,3.34l1.12,3.58,1,3.5a19.49,19.49,0,0,1,.5,3.74,21.73,21.73,0,0,0,.4,3.76l.63,2.49q1,4,3.11,11a64.44,64.44,0,0,0,4.33,11.49,24.28,24.28,0,0,0,5.89,8.45,7.89,7.89,0,0,0,7.74,2.24,8.36,8.36,0,0,0,3.88-3c1.56-1.72,2.71-2.67,3.47-2.86a4.56,4.56,0,0,1,3.41.79,7.06,7.06,0,0,1-1.42,6.65,15.09,15.09,0,0,1-5.83,4c-1.35.49-2.43.84-3.26,1.05A11.42,11.42,0,0,1,107.55,156.08Z"/><path class="cls-3" d="M141.72,148.69a16.12,16.12,0,0,1-5.09-4.25q-4.27-5-7.88-14.49-2.53-6.55-5-15.33l-1.32-5.52-1.24-5.65c-.46-1.79-1-4-1.54-6.56a106.6,106.6,0,0,1-1.9-11.19,42.45,42.45,0,0,1-.08-10.39,11.61,11.61,0,0,1,3.48-7.11,9.31,9.31,0,0,1,3.58-1.66A10.56,10.56,0,0,1,134.48,69,27.74,27.74,0,0,1,141.59,79a74.83,74.83,0,0,1,4.94,13.6q2,7.33,3.48,13.91l1.3,6q.39,1.78.95,6.81a61.73,61.73,0,0,0,1,6.67l.09.42a34.08,34.08,0,0,0,.88,7,16.6,16.6,0,0,1,.07,6.34,15.27,15.27,0,0,1-2.39,6.1,7.13,7.13,0,0,1-4.68,3.66A8.08,8.08,0,0,1,141.72,148.69Zm7.19-9.67a38.09,38.09,0,0,0,0-8.82q-.51-5.08-1.46-11.45-.39-2.76-1.32-7l-2.21-9.6q-1.44-5.59-4.34-13.83a48.66,48.66,0,0,0-5.92-12.07,11.47,11.47,0,0,0-3.51-3.51,5,5,0,0,0-3.66-.73q-2.62.57-3,4.92a39.66,39.66,0,0,0,0,9.87q.59,5.69,1.57,10.72l.65,3.47c.15,1,.4,2.32.77,4l.09.42a128.17,128.17,0,0,0,5.23,16.93Q136.49,135.81,141,141q2.88,3.21,5.19,2.7Q148.29,143.21,148.91,139Z"/><path class="cls-3" d="M183.13,118.47q-12-24-21.16-44.35l6.23,34.54q.81,4.43,3.56,14.9,2.84,11.46,3.44,14.82a2,2,0,0,1-.87,1.84,5,5,0,0,1-2.5,1.16c-1.48.27-2.32-.16-2.52-1.28L169,137c-.27-2.27-.46-3.76-.59-4.46q-1-5.58-3.82-17.58-2.87-12.21-3.33-14.84L158.8,86.65c-.4-2.17-.87-5.42-1.44-9.74q-.59-5.66-1.32-9.77l-.12-.63c-.63-3.51-.18-5.4,1.37-5.68.91-.16,2.35,1.17,4.31,4q4.85,6.94,13.75,25.57,5.1,10.82,12.44,28l3,7,.2.51q-1.85-10.22-3.1-18.36L184.8,89.14,179.17,58c0-1.81.93-2.89,2.89-3.24s3.1.85,3.59,3.59l.11.63a7,7,0,0,0-.08,3.17q1.17,6.42,3.18,19.43t3.22,19.65l5.8,32.11a6.44,6.44,0,0,1-.32,3.38,2.59,2.59,0,0,1-1.88,1.91Q193.57,139,183.13,118.47Z"/><path class="cls-3" d="M219.31,132.51c-2.28-1.4-4.56-4-6.83-7.89a50.07,50.07,0,0,1-4.14-11A90.23,90.23,0,0,1,206,102.51c-.2-.91-.46-2.49-.78-4.75l-.51-3.61-.59-4.24c-.43-3-.84-6.69-1.22-11a77.31,77.31,0,0,1,.14-11.26,28.4,28.4,0,0,1,2.72-9.89,14.54,14.54,0,0,1,6.29-6.72A18.89,18.89,0,0,1,217,49.64c3-.41,4.59.37,4.86,2.34a2.33,2.33,0,0,1-.53,2,3.05,3.05,0,0,1-2,1,6.39,6.39,0,0,1-1.53-.11h-1.51a5.82,5.82,0,0,0-3.43,1.72,9.21,9.21,0,0,0-2.15,3.93A38,38,0,0,0,209,72.05a97.23,97.23,0,0,0,.55,13.11c.3,3.2.71,6.56,1.2,10.1l.41,2.86c.06,1,.2,2.24.41,3.72a106.34,106.34,0,0,0,2,10.52,32.89,32.89,0,0,0,3.82,10.27,11.89,11.89,0,0,0,6.5,6.22,8.79,8.79,0,0,0,4.6.43q4.65-.66,7.21-5.56c-.42-2.46-.93-4.85-1.55-7.18a12.44,12.44,0,0,0-1.95-4.64l-.47.12-1.09.32-2.51.56q-3.6.51-4-2.56a2.13,2.13,0,0,1,.82-1.85,7.24,7.24,0,0,1,2.72-1.46,22.33,22.33,0,0,1,5.19-1.49,3.91,3.91,0,0,1,3.51,1.13,6.75,6.75,0,0,1,1.73,3.87,59.73,59.73,0,0,0,2.4,9.38,58,58,0,0,1,2.39,9.28,3,3,0,0,1-.46,2.12,2.33,2.33,0,0,1-1.68,1.1,3.6,3.6,0,0,1-3.92-1.72v-.1l-2.17,1.49a11.64,11.64,0,0,1-5.15,2.56A13.83,13.83,0,0,1,219.31,132.51Z"/><path class="cls-3" d="M266.4,125.62l0-.32A76.11,76.11,0,0,0,263.11,113q-2.34-6.74-6.47-16.2Q253.52,89.66,251.3,84l4.47,41.92a4.26,4.26,0,0,1-.31,2.56,2.74,2.74,0,0,1-2.21,1,2.63,2.63,0,0,1-2.1-.58,2.92,2.92,0,0,1-1-2l-.09-.85L247,94.77q-1.26-13.86-3.11-31.2l-1.4-13.08a2.34,2.34,0,0,1,.35-1.82A3.61,3.61,0,0,1,245,48a11.7,11.7,0,0,1,5,.49,11.08,11.08,0,0,1,4.13,2.41,18.13,18.13,0,0,1,5.21,8.48,25.1,25.1,0,0,1,.95,4.85,26.53,26.53,0,0,1,.11,3.54c0,1.29-.08,2.12-.11,2.48a26.33,26.33,0,0,1-.62,3.3L259,76.38l-1,3.11-.77,2.88a56,56,0,0,0,2.37,9.54q1.85,5.73,3.87,10.56,1.42,3.41,5.08,11.3l4.08,9,0,.22a12.42,12.42,0,0,1,0,3.11,2,2,0,0,1-2.05,2Q268.62,128.29,266.4,125.62ZM253.75,74.68l.62-9.32a8.22,8.22,0,0,0-.05-1.51,26.55,26.55,0,0,0-1.93-7,11.48,11.48,0,0,0-2-3.07,3.16,3.16,0,0,0-2.23-1.21l.93,10.66c.29,4.77.58,8.48.86,11.1s.47,4.11.63,4.88A54.82,54.82,0,0,0,253.75,74.68Z"/><path class="cls-3" d="M299.56,124a2.57,2.57,0,0,1-1-2.08l-1-14a15.27,15.27,0,0,0-5.35-1.32,57.73,57.73,0,0,0-7.33-.43,18.31,18.31,0,0,0-1.31,5.57l-.27,2.16c0,.51-.16,1.62-.39,3.36a40.26,40.26,0,0,1-.85,4.51,15.65,15.65,0,0,1-1.07,3q-4,.3-4.85-1.79,1.05-1.78,1.93-10.22l2.09-19.79q1.32-14,2.58-24a134.9,134.9,0,0,1,3-16.74c1.27-5,2.66-7.6,4.15-7.71a5.79,5.79,0,0,1,3.48.6q.32,4.27,3.54,20.45,3.31,15.84,3.74,21.72A156.74,156.74,0,0,0,303,103.5q1.84,10.69,2.33,17.1c.17,2.42-.91,3.72-3.26,3.89A4.06,4.06,0,0,1,299.56,124ZM297,101.48q-.67-4.68-1.93-11.55Q290.85,66,290.44,60.55l-.06-.86q-1,1.16-2.23,9.87T286,88.23a131.56,131.56,0,0,0-.76,13.14,34.57,34.57,0,0,0,9.6.59A10.14,10.14,0,0,0,297,101.48Z"/><path class="cls-3" d="M323.22,122.58a7.33,7.33,0,0,1-1.06-3.75q-.15-3.54.07-8.68l.1-2.79,0-5.67q-.17-3.75-1.44-16.65t-1.44-16.65c0-.21,0-.62,0-1.23s0-1.55-.07-2.84,0-3.17-.11-5.24c-.21-5.2-.71-8.5-1.48-9.9a26.49,26.49,0,0,0-2.76.44L312,50a4.08,4.08,0,0,1-2.49-.7,2.51,2.51,0,0,1-1.16-2c0-.85.79-1.63,2.48-2.35,2.46-1,6.67-1.74,12.64-2.34q3.63-.36,4.38-.39a3.68,3.68,0,0,1,2.39.75,2.77,2.77,0,0,1,.33,4.22,3.35,3.35,0,0,1-2.26.9l-1.93,0a15.12,15.12,0,0,0-1.93,0l-1.07.05a128.64,128.64,0,0,1,1.29,13.12l.18,6.84q0,3.1.18,7,.21,5.13.93,12.27.9,8.85,1,12.28c.12,2.7.39,5.91.83,9.6s.71,7,.82,9.6q.22,5.25-2.88,5.37A2.81,2.81,0,0,1,323.22,122.58Z"/><path class="cls-3" d="M353.21,118.66a37.23,37.23,0,0,1-6-14.4,125.57,125.57,0,0,1-2.58-19.46q-.6-9.42-.66-20.44l-.06-8.88q.09-3.73.06-7.92a2.91,2.91,0,0,1-.87-2.13,3.29,3.29,0,0,1,.95-2.31,2.93,2.93,0,0,1,2.13-1c2.57,0,3.87,2.51,3.9,7.58q0,4.92.65,18.61t.66,18.61a27.78,27.78,0,0,1,1,5.56A63.88,63.88,0,0,1,353,99.3a28.11,28.11,0,0,0,.79,5.82,44.68,44.68,0,0,0,2.18,7,18.13,18.13,0,0,0,3.68,6.13,6.45,6.45,0,0,0,4.72,2.38,3.57,3.57,0,0,0,2.51-1,4.94,4.94,0,0,0,1.32-2.79,28.52,28.52,0,0,0,.6-5.89l-.13-20.86a85.32,85.32,0,0,0-.81-10.06c-.45-4.49-.69-7.88-.7-10.16v-.75c0-1.14-.05-2.17-.12-3.1l-.13-3.1q0-3-.38-9.1-.47-5.45-.48-9.2a2.43,2.43,0,0,1,1.21-2,4.7,4.7,0,0,1,2.73-.88l2.69,2.45V46a14.07,14.07,0,0,1-.41,3.1c-.27,2-.41,3.14-.41,3.43q.06,9.74,1.24,26.85,1.08,18,1.14,27.92a37.52,37.52,0,0,1-1,9.42,11.16,11.16,0,0,1-1.75,4,9.48,9.48,0,0,1-3,2.59,9.18,9.18,0,0,1-4.7,1.1A12,12,0,0,1,353.21,118.66Z"/><path class="cls-3" d="M389.77,122.88a3.17,3.17,0,0,1-1.06-2.44,8.43,8.43,0,0,1,.5-2.34,11.49,11.49,0,0,0,.38-2.23q.27-9.53,0-36.61-.4-23.15,0-36.51a1.89,1.89,0,0,1,.79-1.53,2.9,2.9,0,0,1,1.84-.53,3.19,3.19,0,0,1,2.22,1,3,3,0,0,1,.9,2.22q-.18,6.42.09,19.27.13,14.24,0,19.27l.07,1.29,0,1.28,0,.75v.53q.06,9.32-.47,27.82l-.08,2.78,8.24.24c1.46,1.11,2.18,2.2,2.15,3.27a3.06,3.06,0,0,1-.86,2.06,2.45,2.45,0,0,1-1.9.86,6.31,6.31,0,0,1-1.17-.25l-.42-.12a13.14,13.14,0,0,1-2,0l-1.82,0a11.72,11.72,0,0,0-1.71-.16,3.87,3.87,0,0,1-5.51.11Z"/><path class="cls-3" d="M432.18,124a2.57,2.57,0,0,1-.67-2.18l.84-14a15.21,15.21,0,0,0-5.13-2,57.19,57.19,0,0,0-7.2-1.4,17.93,17.93,0,0,0-2,5.34l-.56,2.12q-.15.74-.84,3.27a38.41,38.41,0,0,1-1.44,4.36,15.88,15.88,0,0,1-1.46,2.86q-4.06-.24-4.57-2.42,1.27-1.64,3.28-9.88l4.7-19.33q3.2-13.74,5.76-23.45a135.57,135.57,0,0,1,5.21-16.19Q431,43.84,433.21,44A5.83,5.83,0,0,1,436.58,45q-.27,4.27.78,20.74,1.17,16.14.81,22a160.11,160.11,0,0,0,.19,16.31q.42,10.85,0,17.26-.21,3.63-3.74,3.42A4,4,0,0,1,432.18,124Zm.46-22.7q0-4.71-.37-11.7-1-24.28-.66-29.73l.05-.86q-1.14,1-3.52,9.49T423.55,86.7a127.78,127.78,0,0,0-2.49,12.93,34.17,34.17,0,0,0,9.42,1.86A9.07,9.07,0,0,0,432.64,101.29Z"/><path class="cls-3" d="M455.81,125.72a7.38,7.38,0,0,1-.56-3.87c.22-2.34.63-5.21,1.23-8.59l.47-2.75.74-5.63c.24-2.48.5-8,.81-16.68s.57-14.21.8-16.69c0-.22.07-.62.17-1.22s.19-1.54.31-2.82.4-3.15.6-5.21c.48-5.19.43-8.52-.15-10a24.67,24.67,0,0,0-2.8.06l-3-.06a4,4,0,0,1-2.37-1,2.48,2.48,0,0,1-.88-2.18c.08-.85,1-1.52,2.77-2q3.84-.93,12.85-.63c2.42.09,3.89.15,4.38.2a3.66,3.66,0,0,1,2.27,1.07,2.58,2.58,0,0,1,.86,2.23,2.63,2.63,0,0,1-1.09,2,3.39,3.39,0,0,1-2.37.59l-1.91-.29a15.39,15.39,0,0,0-1.9-.28l-1.07-.1A127,127,0,0,1,465.49,65l-.74,6.81c-.26,2-.51,4.36-.75,6.91q-.48,5.12-.71,12.3c-.2,5.92-.4,10-.61,12.3q-.37,4.05-.47,9.63c-.07,3.79-.22,7-.47,9.62q-.48,5.22-3.57,4.94A2.8,2.8,0,0,1,455.81,125.72Z"/><path class="cls-3" d="M475.58,125.14c.2-1.7,1.37-2.42,3.49-2.16l1.28.15a3.6,3.6,0,0,0,.94.22,1.41,1.41,0,0,0,1.29-.38,3.56,3.56,0,0,0,.6-1.87q1.1-9,1.92-24.77,1-16.36,2-24.65.36-3,.76-5.41l.76-5.4A46.1,46.1,0,0,0,489,55a7.23,7.23,0,0,1-2.5.14q-2.44-.3-2.13-2.85a2.71,2.71,0,0,1,1.81-2.05,11.19,11.19,0,0,1,4.15-.89,48.11,48.11,0,0,1,7.63.16,3.15,3.15,0,0,1,2.08,1.12,2.68,2.68,0,0,1,.65,2.12,3.08,3.08,0,0,1-.93,1.94,2.21,2.21,0,0,1-1.86.64,4.1,4.1,0,0,1-1-.24L496,55a2.1,2.1,0,0,0-1.6.29,2.48,2.48,0,0,0-.69,1.7q-1.37,11.25-2.37,31.18-1.23,20.86-2.49,31.28l-.49,4a16.62,16.62,0,0,1,2.14.15q4.46.54,4,4.26l-.08.63L491.59,130l-.64,0c-.36,0-1.07-.07-2.14-.2-2.42-.15-3.92-.26-4.48-.33Q475.2,128.33,475.58,125.14Z"/><path class="cls-3" d="M512.83,134.46a16.14,16.14,0,0,1-3.22-5.8q-2.19-6.18-2.15-16.35,0-7,.85-16.1l.76-5.63.88-5.71q.32-2.76.91-6.68a106.51,106.51,0,0,1,2.25-11.13,43.07,43.07,0,0,1,3.66-9.72A11.57,11.57,0,0,1,522.58,52a9.51,9.51,0,0,1,3.94-.27,10.61,10.61,0,0,1,8.2,5.81,27.76,27.76,0,0,1,3,11.84,75,75,0,0,1-.27,14.46q-.74,7.58-1.75,14.24l-.93,6c-.18,1.2-.71,3.43-1.57,6.69a64.79,64.79,0,0,0-1.44,6.6l-.07.42a33.79,33.79,0,0,0-1.71,6.89,16.58,16.58,0,0,1-2.21,5.93,15.29,15.29,0,0,1-4.42,4.85,7.13,7.13,0,0,1-5.68,1.72A8.07,8.07,0,0,1,512.83,134.46ZM523,128a38,38,0,0,0,3.16-8.23q1.35-4.94,2.75-11.22c.42-1.81.86-4.16,1.3-7l1.39-9.75q.66-5.74.92-14.47a48.26,48.26,0,0,0-1.19-13.39,11.29,11.29,0,0,0-2-4.53,4.93,4.93,0,0,0-3.15-2c-1.77-.27-3.28.9-4.55,3.52a39.7,39.7,0,0,0-3.58,9.2q-1.5,5.5-2.38,10.56L515,84.14c-.22,1-.46,2.31-.72,4l-.07.42a127.2,127.2,0,0,0-1.2,17.68q-.46,14.33,1.9,20.75,1.54,4,3.88,4.39Q520.93,131.7,523,128Z"/><path class="cls-3" d="M562.33,121.21q-2.45-26.74-3.67-49L552,106.66q-.87,4.41-2.08,15.19-1.51,11.68-2.17,15.05a2,2,0,0,1-1.47,1.41,5.22,5.22,0,0,1-2.76.17c-1.47-.29-2.09-1-1.88-2.11l.8-3c.58-2.22.94-3.67,1.07-4.38q1.08-5.57,2.8-17.77,1.76-12.4,2.27-15l2.61-13.45q.65-3.26,2.2-9.6c1-3.66,1.76-6.85,2.3-9.58l.12-.63q1-5.25,3.33-4.8c.91.17,1.76,1.94,2.57,5.29q2,8.24,3.55,28.82.84,11.92,1.47,30.58,0-.43.27,7.58v.54q2-10.18,3.76-18.23l3.76-18.24,6-31.09q.93-2.54,3.87-2c1.9.37,2.57,1.92,2,4.65l-.12.63a6.9,6.9,0,0,0-1.22,2.92Q583.87,76,581,88.88t-4.11,19.47l-6.23,32a6.41,6.41,0,0,1-1.52,3,2.57,2.57,0,0,1-2.45,1.1Q564.63,144.12,562.33,121.21Z"/><path class="cls-3" d="M582.9,147.32a2.71,2.71,0,0,1-1.16-2.57,3.24,3.24,0,0,1,1.1-1.89,2.2,2.2,0,0,1,1.95-.37,8.68,8.68,0,0,1,2.83,1.54,12.13,12.13,0,0,0,2.52,1.46,5,5,0,0,0,4-.88,12.44,12.44,0,0,0,3.61-4,28.79,28.79,0,0,0,4.06-8.94,35.65,35.65,0,0,0,.78-9.76A54.23,54.23,0,0,0,601,111.44l-.9-3.73c-.93-3.87-1.63-6.93-2.1-9.16a48.77,48.77,0,0,1-.92-7.14,33.06,33.06,0,0,1,.69-10,19.73,19.73,0,0,1,3-6.79A14.66,14.66,0,0,1,606,69.85a9.25,9.25,0,0,1,7-1,7,7,0,0,1,3.39,1.94,6.34,6.34,0,0,1,1.86,3.35L616,75.91a6.79,6.79,0,0,1-3.82-2A5.16,5.16,0,0,0,608.44,75a11.42,11.42,0,0,0-3,3.2A13.47,13.47,0,0,0,603.9,82a32.44,32.44,0,0,0-.78,8.33,43.78,43.78,0,0,0,1.06,8.43l3.9,16.29a41.17,41.17,0,0,1,.86,9.09,44.65,44.65,0,0,1-1.14,9.63,27.07,27.07,0,0,1-6.34,12.14,14.46,14.46,0,0,1-5.73,3.89,11.59,11.59,0,0,1-6.68.37A14.75,14.75,0,0,1,582.9,147.32Z"/><path class="cls-3" d="M615.81,155.45a4,4,0,0,1-.36-3.08,4.92,4.92,0,0,1,2.09-2.94,4,4,0,0,1,3.37-.62A3.94,3.94,0,0,1,623.6,151a5.48,5.48,0,0,1,.26,3.88c-.62,2.42-2.63,3.19-6,2.31A3.29,3.29,0,0,1,615.81,155.45Zm7.2-18.58a26.37,26.37,0,0,1,1.14-8.22q.48-1.86,2-7,1.2-3.78,2.41-8.44l4.2-17,4.2-17a3.79,3.79,0,0,1,2.08-2.5,4.58,4.58,0,0,1,3.32-.41A2.5,2.5,0,0,1,644,77.41a2.63,2.63,0,0,1,.24,2q-2.37,9.12-7.46,24.49-5.62,17-7.56,24.46c-.95,3.66-1.68,6.29-2.21,7.88a11.74,11.74,0,0,1-1.36,3.13,1.2,1.2,0,0,1-1.3.54C623.62,139.79,623.18,138.75,623,136.87Z"/><rect class="cls-4" x="42" y="175" width="648" height="288" rx="42.24"/><path class="cls-2" d="M292.91,519.11c-.28-4.11-.42-9.69-.42-16.71s.1-11.57.3-13.65a3.15,3.15,0,0,1,2.64-2.55,24.54,24.54,0,0,1,6.18-.63,17.55,17.55,0,0,1,9.51,2.43,7.93,7.93,0,0,1,3.87,7.17,17.07,17.07,0,0,1-1.08,6.51,9.25,9.25,0,0,1-2.7,3.87c-1.76,1.37-4.36,2-7.8,2a37.09,37.09,0,0,1-5.82-.6q.3,12,.24,15.12t-2.1,3.12c-.88,0-1.44-.15-1.68-.48a6.59,6.59,0,0,1-.48-.69,3,3,0,0,1-.24-.63c-.08-.27-.14-.51-.18-.69a5.43,5.43,0,0,1-.09-.81,6.32,6.32,0,0,0-.09-.84Q292.91,520.19,292.91,519.11ZM310,495.32a4.27,4.27,0,0,0-2.64-3.84,11.79,11.79,0,0,0-5.64-1.41,11.34,11.34,0,0,0-4.2.54q-.24,3.54-.24,6.51t.24,5.37q1.62.18,2.22.3a23.82,23.82,0,0,0,2.67.18q1.11,0,1.5,0t1.5-.18a3.39,3.39,0,0,0,1.59-.51q.48-.36,1.2-1a3.36,3.36,0,0,0,1-1.38A13.41,13.41,0,0,0,310,495.32Z"/><path class="cls-2" d="M320,516.89l.06-4.68.54-25.08a1.27,1.27,0,0,1,.78-1.14,4.15,4.15,0,0,1,2-.42q2.88,0,2.88,2c0,.44-.23,3.81-.69,10.08s-.69,10.05-.69,11.28v6.36q0,4.5.6,4.92a6.37,6.37,0,0,0,2.1.3l8.64-.6q2.82,0,2.82,2a2.48,2.48,0,0,1-1.53,2.37,7.77,7.77,0,0,1-3,.84q-1.5.09-3.66.09-9.42,0-10.2-.6-.42-.36-.48-2.73t-.09-3.33Q320,517.68,320,516.89Z"/><path class="cls-2" d="M356.21,485.69a3.08,3.08,0,0,1,2.52,1.32,25.42,25.42,0,0,1,2.64,5.46q3.78,9.79,7.38,30.66a3,3,0,0,1,.06.69,1.37,1.37,0,0,1-.57,1,2.35,2.35,0,0,1-1.62.51,3,3,0,0,1-1.77-.51,2.57,2.57,0,0,1-1-1.68q-.24-1.17-.9-4.59-1.44-7.62-1.92-7.92a19.27,19.27,0,0,0-4.77-.9c-2.7-.31-4.49-.48-5.37-.48a2.83,2.83,0,0,0-1.56.24c-.72.64-1.7,5.51-2.94,14.58q-.24,1.14-2.28,1.14t-2-1.74q0-4.32,3.18-16.5t5.28-16.14Q353.21,485.69,356.21,485.69Zm-.24,6.66q-.9,0-3.12,5.31t-2.22,6.57a.59.59,0,0,0,.12.42q.48.48,3.78.84t4.38.36q1.08,0,1.2-.15a2.08,2.08,0,0,0,.12-1,51,51,0,0,0-1.62-6.6C357.53,494.29,356.65,492.35,356,492.35Z"/><path class="cls-2" d="M380.63,510.71l.06-3.06a5.5,5.5,0,0,0-1-3.06q-1-1.5-4.77-8.7t-3.78-8.13a2.28,2.28,0,0,1,.78-1.68,2.26,2.26,0,0,1,1.53-.75q.75,0,1.8,1.38A69.86,69.86,0,0,1,379.4,494q3.09,5.88,3.57,6.48,5.76-10.2,9.24-14.4a2.4,2.4,0,0,1,1.35-.78,1.76,1.76,0,0,1,.75.12q1.44.6,1.44,1.59a3,3,0,0,1-.48,1.71q-.48.72-2.64,3.78a70.16,70.16,0,0,0-5.49,9q-2.31,4.53-2.31,5.55v11l.18,4.8a2.09,2.09,0,0,1-.72,1.83,3,3,0,0,1-1.77.51,1.41,1.41,0,0,1-1.41-1.14,11.47,11.47,0,0,1-.42-3c0-1.23-.06-3.06-.06-5.46Z"/><path class="cls-2" d="M425.81,485.69a3.08,3.08,0,0,1,2.52,1.32,25.42,25.42,0,0,1,2.64,5.46q3.78,9.79,7.38,30.66a3,3,0,0,1,.06.69,1.37,1.37,0,0,1-.57,1,2.35,2.35,0,0,1-1.62.51,3,3,0,0,1-1.77-.51,2.57,2.57,0,0,1-1-1.68q-.24-1.17-.9-4.59-1.44-7.62-1.92-7.92a19.27,19.27,0,0,0-4.77-.9c-2.7-.31-4.49-.48-5.37-.48a2.83,2.83,0,0,0-1.56.24c-.72.64-1.7,5.51-2.94,14.58q-.24,1.14-2.28,1.14t-2-1.74q0-4.32,3.18-16.5t5.28-16.14Q422.81,485.69,425.81,485.69Zm-.24,6.66q-.9,0-3.12,5.31t-2.22,6.57a.59.59,0,0,0,.12.42q.48.48,3.78.84t4.38.36q1.08,0,1.2-.15a2.08,2.08,0,0,0,.12-1,51,51,0,0,0-1.62-6.6C427.13,494.29,426.25,492.35,425.57,492.35Z"/><path class="cls-2" d="M459.41,485.39a12.6,12.6,0,0,1,5.73,1.44q2.85,1.44,2.85,3.24c0,1.85-.76,2.76-2.28,2.76a8,8,0,0,1-2.94-1.08,8.12,8.12,0,0,0-3.54-1.08,10.38,10.38,0,0,0-8.61,4.62c-2.3,3.09-3.45,7-3.45,11.76a18.22,18.22,0,0,0,2.34,9.36q2.34,4,5.55,4a6.29,6.29,0,0,0,5-2.13,7.21,7.21,0,0,0,1.83-4.83,12.3,12.3,0,0,0-.21-2.49,3.49,3.49,0,0,0-1.05-1.8,3.06,3.06,0,0,0-2.22-.81,5.88,5.88,0,0,1-2.61-.6,1.81,1.81,0,0,1-1.23-1.62,3.4,3.4,0,0,1,.6-1.92,2.38,2.38,0,0,1,1.62-1.08q4.08,0,5.49.84t2.13,1.38a3.94,3.94,0,0,1,1.2,1.8q.48,1.26.75,2.1a12.37,12.37,0,0,1,.39,2.7q.12,3.12.12,7.29t-.6,5.13a2.07,2.07,0,0,1-1.8.81,2.19,2.19,0,0,1-1.74-.51,4.37,4.37,0,0,1-.6-2.4,12.43,12.43,0,0,1-3.63,2.13,10.69,10.69,0,0,1-3.87.87q-5.28,0-8.88-5.61a24.52,24.52,0,0,1-3.6-13.53,25.46,25.46,0,0,1,1.38-8.25,20.75,20.75,0,0,1,3.72-6.81A15.4,15.4,0,0,1,459.41,485.39Z"/><path class="cls-2" d="M483.89,485.69a3.08,3.08,0,0,1,2.52,1.32,25.42,25.42,0,0,1,2.64,5.46q3.78,9.79,7.38,30.66a3,3,0,0,1,.06.69,1.37,1.37,0,0,1-.57,1,2.35,2.35,0,0,1-1.62.51,3,3,0,0,1-1.77-.51,2.57,2.57,0,0,1-1-1.68q-.24-1.17-.9-4.59-1.44-7.62-1.92-7.92a19.27,19.27,0,0,0-4.77-.9c-2.7-.31-4.49-.48-5.37-.48a2.83,2.83,0,0,0-1.56.24c-.72.64-1.7,5.51-2.94,14.58q-.24,1.14-2.28,1.14t-2-1.74q0-4.32,3.18-16.5t5.28-16.14Q480.89,485.69,483.89,485.69Zm-.24,6.66q-.9,0-3.12,5.31t-2.22,6.57a.59.59,0,0,0,.12.42q.48.48,3.78.84t4.38.36q1.08,0,1.2-.15a2.08,2.08,0,0,0,.12-1,51,51,0,0,0-1.62-6.6C485.21,494.29,484.33,492.35,483.65,492.35Z"/><path class="cls-2" d="M503.6,487.07a3.84,3.84,0,0,1,2.13-.6q1.2,0,1.5,1.38.06,7,.24,20.82,0,8.46-.48,14.34a2.35,2.35,0,0,1-1.11,1.59,3.49,3.49,0,0,1-2,.69,1.51,1.51,0,0,1-1.68-1.74q.6-6,.6-14.88l-.36-20.16A2.61,2.61,0,0,1,503.6,487.07Z"/><path class="cls-2" d="M538.67,485.51a2.37,2.37,0,0,1,1.74.81,2.64,2.64,0,0,1,.78,1.89q0,23.46.21,28.35t.21,5a4.65,4.65,0,0,1-.72,2.49q-.72,1.17-1.59,1.17a7.23,7.23,0,0,1-1.32-.09,6.77,6.77,0,0,1-.81-.21,1.89,1.89,0,0,1-.72-.48l-.6-.6a4.44,4.44,0,0,1-.63-.93l-.63-1.11c-.16-.27-.41-.77-.75-1.47s-1.08-2.13-2.22-4.29-2.17-4.09-3.09-5.82a92.9,92.9,0,0,0-8.82-13.74q0,19.51-1.08,27.06-.18,1.44-2.22,1.44a2.55,2.55,0,0,1-1.59-.48,1.84,1.84,0,0,1-.63-1.56q0-1.08.45-11.88t.45-13.47v-3.39q0-4.32.66-4.86a2.15,2.15,0,0,1,1.38-.54q3.3,0,10.08,10.8,1.32,2.1,5,8.79c2.48,4.47,4,7.21,4.44,8.25l-.72-24.9q0-5.16,1.14-5.88A3,3,0,0,1,538.67,485.51Z"/><path class="cls-3" d="M295.26,522.68q-.42-6.18-.42-16.71t.3-13.65a3.15,3.15,0,0,1,2.64-2.55,24.54,24.54,0,0,1,6.18-.63,17.55,17.55,0,0,1,9.51,2.43,7.93,7.93,0,0,1,3.87,7.17,17.1,17.1,0,0,1-1.08,6.51,9.25,9.25,0,0,1-2.7,3.87q-2.64,2-7.8,2a37.09,37.09,0,0,1-5.82-.6q.3,12,.24,15.12t-2.1,3.12q-1.32,0-1.68-.48a7.88,7.88,0,0,1-.48-.69,3,3,0,0,1-.24-.63q-.12-.42-.18-.69a5.43,5.43,0,0,1-.09-.81,6.32,6.32,0,0,0-.09-.84Q295.26,523.76,295.26,522.68Zm17.1-23.79a4.27,4.27,0,0,0-2.64-3.84,11.79,11.79,0,0,0-5.64-1.41,11.34,11.34,0,0,0-4.2.54q-.24,3.54-.24,6.51t.24,5.37q1.62.18,2.22.3a23.82,23.82,0,0,0,2.67.18q1.11,0,1.5,0t1.5-.18a3.51,3.51,0,0,0,1.59-.51q.48-.36,1.2-1a3.36,3.36,0,0,0,1-1.38A13.41,13.41,0,0,0,312.36,498.89Z"/><path class="cls-3" d="M322.32,520.46l.06-4.68.54-25.08a1.27,1.27,0,0,1,.78-1.14,4.15,4.15,0,0,1,2-.42q2.88,0,2.88,2c0,.44-.24,3.8-.69,10.08s-.69,10-.69,11.28v6.36q0,4.5.6,4.92a6.6,6.6,0,0,0,2.1.3l8.64-.6q2.82,0,2.82,2a2.48,2.48,0,0,1-1.53,2.37,8,8,0,0,1-3,.84q-1.5.09-3.66.09-9.42,0-10.2-.6-.42-.36-.48-2.73t-.09-3.33C322.32,521.56,322.32,521,322.32,520.46Z"/><path class="cls-3" d="M358.56,489.26a3.07,3.07,0,0,1,2.51,1.32,25.31,25.31,0,0,1,2.65,5.46q3.76,9.78,7.38,30.66a3.9,3.9,0,0,1,0,.69,1.4,1.4,0,0,1-.56,1,2.38,2.38,0,0,1-1.62.51,3,3,0,0,1-1.78-.51,2.63,2.63,0,0,1-1-1.68c-.16-.78-.46-2.31-.89-4.59-1-5.08-1.61-7.72-1.92-7.92a18.77,18.77,0,0,0-4.77-.9c-2.71-.32-4.5-.48-5.38-.48s-1.4.08-1.55.24q-1.08,1-3,14.58c-.16.76-.91,1.14-2.27,1.14s-2-.58-2-1.74q0-4.32,3.18-16.5t5.28-16.14C354.68,491,356.55,489.26,358.56,489.26Zm-.25,6.66c-.59,0-1.64,1.77-3.12,5.31S353,507,353,507.8a.54.54,0,0,0,.12.42c.31.32,1.58.6,3.78.84s3.65.36,4.38.36,1.11-.05,1.2-.15a2.34,2.34,0,0,0,.11-1,52,52,0,0,0-1.61-6.6C359.88,497.85,359,495.92,358.31,495.92Z"/><path class="cls-3" d="M383,514.28l.06-3.06a5.5,5.5,0,0,0-1-3.06q-1-1.5-4.77-8.7t-3.78-8.13a2.28,2.28,0,0,1,.78-1.68,2.26,2.26,0,0,1,1.53-.75q.75,0,1.8,1.38a69.86,69.86,0,0,1,4.14,7.26q3.09,5.88,3.57,6.48,5.76-10.2,9.24-14.4a2.34,2.34,0,0,1,1.35-.78,1.76,1.76,0,0,1,.75.12q1.44.6,1.44,1.59a3,3,0,0,1-.48,1.71q-.48.72-2.64,3.78a70.16,70.16,0,0,0-5.49,9q-2.31,4.53-2.31,5.55v11l.18,4.8a2.09,2.09,0,0,1-.72,1.83,3,3,0,0,1-1.77.51,1.41,1.41,0,0,1-1.41-1.14,11.47,11.47,0,0,1-.42-3q-.06-1.86-.06-5.46Z"/><path class="cls-3" d="M428.15,489.26a3.08,3.08,0,0,1,2.52,1.32,25.42,25.42,0,0,1,2.64,5.46q3.78,9.78,7.38,30.66a3,3,0,0,1,.06.69,1.38,1.38,0,0,1-.57,1,2.35,2.35,0,0,1-1.62.51,3,3,0,0,1-1.77-.51,2.59,2.59,0,0,1-1-1.68q-.24-1.17-.9-4.59-1.44-7.62-1.92-7.92a18.77,18.77,0,0,0-4.77-.9q-4-.48-5.37-.48a2.83,2.83,0,0,0-1.56.24q-1.08,1-2.94,14.58-.24,1.14-2.28,1.14t-2-1.74q0-4.32,3.18-16.5t5.28-16.14Q425.15,489.26,428.15,489.26Zm-.24,6.66q-.9,0-3.12,5.31t-2.22,6.57a.59.59,0,0,0,.12.42q.48.48,3.78.84t4.38.36q1.08,0,1.2-.15a2.11,2.11,0,0,0,.12-1,51,51,0,0,0-1.62-6.6Q428.93,495.92,427.91,495.92Z"/><path class="cls-3" d="M461.75,489a12.6,12.6,0,0,1,5.73,1.44q2.85,1.44,2.85,3.24,0,2.76-2.28,2.76a8,8,0,0,1-2.94-1.08,8.12,8.12,0,0,0-3.54-1.08,10.38,10.38,0,0,0-8.61,4.62q-3.45,4.62-3.45,11.76a18.27,18.27,0,0,0,2.34,9.36q2.34,4,5.55,4a6.29,6.29,0,0,0,5-2.13,7.21,7.21,0,0,0,1.83-4.83,12.3,12.3,0,0,0-.21-2.49,3.49,3.49,0,0,0-1.05-1.8,3.06,3.06,0,0,0-2.22-.81,5.88,5.88,0,0,1-2.61-.6,1.82,1.82,0,0,1-1.23-1.62,3.4,3.4,0,0,1,.6-1.92,2.38,2.38,0,0,1,1.62-1.08q4.08,0,5.49.84t2.13,1.38a3.94,3.94,0,0,1,1.2,1.8q.48,1.26.75,2.1a12.27,12.27,0,0,1,.39,2.7q.12,3.12.12,7.29t-.6,5.13a2.1,2.1,0,0,1-1.8.81,2.19,2.19,0,0,1-1.74-.51,4.4,4.4,0,0,1-.6-2.4,12.43,12.43,0,0,1-3.63,2.13,10.69,10.69,0,0,1-3.87.87q-5.28,0-8.88-5.61a24.52,24.52,0,0,1-3.6-13.53,25.42,25.42,0,0,1,1.38-8.25,20.75,20.75,0,0,1,3.72-6.81A15.4,15.4,0,0,1,461.75,489Z"/><path class="cls-3" d="M486.23,489.26a3.08,3.08,0,0,1,2.52,1.32,25.42,25.42,0,0,1,2.64,5.46q3.78,9.78,7.38,30.66a3,3,0,0,1,.06.69,1.38,1.38,0,0,1-.57,1,2.35,2.35,0,0,1-1.62.51,3,3,0,0,1-1.77-.51,2.59,2.59,0,0,1-1-1.68q-.24-1.17-.9-4.59-1.44-7.62-1.92-7.92a18.77,18.77,0,0,0-4.77-.9q-4.05-.48-5.37-.48a2.83,2.83,0,0,0-1.56.24q-1.08,1-2.94,14.58-.24,1.14-2.28,1.14t-2-1.74q0-4.32,3.18-16.5t5.28-16.14Q483.23,489.26,486.23,489.26Zm-.24,6.66q-.9,0-3.12,5.31t-2.22,6.57a.59.59,0,0,0,.12.42q.48.48,3.78.84t4.38.36q1.08,0,1.2-.15a2.11,2.11,0,0,0,.12-1,51,51,0,0,0-1.62-6.6Q487,495.92,486,495.92Z"/><path class="cls-3" d="M505.94,490.64a3.84,3.84,0,0,1,2.13-.6q1.2,0,1.5,1.38.06,7,.24,20.82,0,8.46-.48,14.34a2.35,2.35,0,0,1-1.11,1.59,3.49,3.49,0,0,1-2,.69,1.51,1.51,0,0,1-1.68-1.74q.6-6,.6-14.88l-.36-20.16A2.58,2.58,0,0,1,505.94,490.64Z"/><path class="cls-3" d="M541,489.08a2.37,2.37,0,0,1,1.74.81,2.64,2.64,0,0,1,.78,1.89q0,23.46.21,28.35t.21,5a4.67,4.67,0,0,1-.72,2.49q-.72,1.17-1.59,1.17a7.23,7.23,0,0,1-1.32-.09,6.77,6.77,0,0,1-.81-.21,1.89,1.89,0,0,1-.72-.48l-.6-.6a4.74,4.74,0,0,1-.63-.93l-.63-1.11q-.24-.42-.75-1.47T534,519.62q-1.71-3.24-3.09-5.82a92.9,92.9,0,0,0-8.82-13.74q0,19.5-1.08,27.06-.18,1.44-2.22,1.44a2.55,2.55,0,0,1-1.59-.48,1.84,1.84,0,0,1-.63-1.56q0-1.08.45-11.88t.45-13.47v-3.39q0-4.32.66-4.86a2.15,2.15,0,0,1,1.38-.54q3.3,0,10.08,10.8,1.32,2.1,5,8.79t4.44,8.25l-.72-24.9q0-5.16,1.14-5.88A3,3,0,0,1,541,489.08Z"/><ellipse class="cls-5" cx="364.03" cy="355.73" rx="75.24" ry="75.22" transform="translate(-75.52 99.11) rotate(-14.06)"/><path class="cls-6" d="M288.57,424.23c4.54,7.14,34,15.95,44.17,8.7-10-22.23-19.35-86.43-16.23-91.91,35.76,9.14,69.69,2.59,100.07-20.29a264,264,0,0,1,6.92,30.14c2.53,13.52,3.31,43.12,3.37,55.45,3.9-.27,18.88-12.65,21.36-18.63,2.47-13.49-1.4-40.88-4.73-54.64h0q-.54-2.93-1.27-5.86c-12.05-48.08-57.78-78.06-102.13-66.95-34.8,8.72-65.3,40.35-68,76.71C271.13,342.27,279.56,415.62,288.57,424.23Z"/><path class="cls-6" d="M426.51,332.62c-36.13,24.15-72.5,35.78-112.59,30.16l-6.14-34.65,112.08-25.75Z"/><path class="cls-7" d="M355.14,297.34c11.81-5.4,26.28-6.66,39-8.7,2.74-19.15-4.78-34.22-11.74-32.7-13.2,7.83-24.89,10.22-35.34,12.13Z"/><path class="cls-7" d="M355.14,297.34c-14,4.14-24.5,8.05-33.79,14l-11.1-39.08c11.65.29,23.9-1.39,36.8-4.21Z"/><ellipse class="cls-8" cx="314.13" cy="292.42" rx="10.45" ry="20.68" transform="translate(-67.96 96.98) rotate(-15.86)"/><path class="cls-9" d="M347.29,283.83c2.32,8.15,6.2,14,8.61,13.3s2.44-7.63.12-15.78-6.14-14.12-8.55-13.43S345,275.69,347.29,283.83Z"/><path class="cls-6" d="M345.84,389.56c3.82-1.68,9-2.87,15.46-3.59a.69.69,0,0,0,.07-1.36C354.25,383,347.85,382,344.14,383a.68.68,0,0,1-.56-.09l-2.41-1.66,1.42,2-2.4-1.13,1.44,2-2.43-.87,1.22,1.68a.68.68,0,0,1,.09.63l-.24.7a.75.75,0,0,0,0,.49c.71,1.65,2.66,2.45,5.17,2.85A.65.65,0,0,0,345.84,389.56Z"/><path class="cls-6" d="M406.18,372c-4.07.91-8.95,3-14.58,6.25a.69.69,0,0,1-.87-1c4.81-5.48,9.37-10.09,13-11.47a.65.65,0,0,0,.4-.41l1-2.76,0,2.43,1.26-2.33,0,2.47L407.8,363l0,2.08a.65.65,0,0,0,.3.56l.6.42a.71.71,0,0,1,.29.41c.4,1.75-.7,3.54-2.49,5.36A.63.63,0,0,1,406.18,372Z"/><ellipse class="cls-10" cx="351.76" cy="400.15" rx="8.9" ry="3.25" transform="translate(-47.07 46.89) rotate(-7.15)"/><ellipse class="cls-10" cx="402.63" cy="387.95" rx="8.9" ry="3.25" transform="translate(-117.24 182.16) rotate(-22.34)"/><path class="cls-11" d="M370.56,409.81a1.48,1.48,0,0,0,.69,1.15,19.65,19.65,0,0,0,6.81,3.14,12.53,12.53,0,0,0,10.77-2.51,23.9,23.9,0,0,0,4.72-4.87,3.19,3.19,0,0,0-1.08-5,9,9,0,0,0-6-.43c-1.08.27-1.91,1.49-2.63,2.66a2.69,2.69,0,0,1-3.5.84c-1.19-.74-2.5-1.47-3.66-1.18C373,404.51,370.43,407.19,370.56,409.81Z"/><path class="cls-12" d="M315,354.85a100.77,100.77,0,0,1-4.82-37.14,41,41,0,0,0,16.27,1.09c3.12,11.57-.2,36.88-.2,36.88S318,356.62,315,354.85Z"/><path class="cls-13" d="M328.64,410.38c1.48-1.38,3.13-3.35,2.94-4.75-2.78-7.93-5.42-21.22-7.07-37.4-1.47-.33-3-1.76-3.62.12C323,384.1,326.49,399.36,328.64,410.38Z"/></g></svg>